<?xml version="1.0" standalone="no"?><!DOCTYPE svg PUBLIC "-//W3C//DTD SVG 1.1//EN" "http://www.w3.org/Graphics/SVG/1.1/DTD/svg11.dtd"><svg t="1700466123040" class="icon" viewBox="0 0 1024 1024" version="1.1" xmlns="http://www.w3.org/2000/svg" p-id="18388" xmlns:xlink="http://www.w3.org/1999/xlink" width="128" height="128"><path d="M256 938.666667a64 64 0 0 1-64-64v-332.8H85.333333v-59.733334h106.666667V149.333333A64 64 0 0 1 256 85.333333h128a64 64 0 0 1 64 64v332.8h128V277.333333A64 64 0 0 1 640 213.333333h128a64 64 0 0 1 64 64v204.8H938.666667v59.733334h-106.666667v204.8A64 64 0 0 1 768 810.666667h-128a64 64 0 0 1-64-64v-204.8h-128v332.8A64 64 0 0 1 384 938.666667z" p-id="18389"></path></svg>