<?xml version="1.0" standalone="no"?><!DOCTYPE svg PUBLIC "-//W3C//DTD SVG 1.1//EN" "http://www.w3.org/Graphics/SVG/1.1/DTD/svg11.dtd"><svg t="1700547227241" class="icon" viewBox="0 0 1024 1024" version="1.1" xmlns="http://www.w3.org/2000/svg" p-id="33134" xmlns:xlink="http://www.w3.org/1999/xlink" width="128" height="128"><path d="M390.784 236.352a32 32 0 1 0-44.48-46.016l-102.304 98.88c-14.688 14.208-28.128 27.168-36.896 38.432-8.224 10.528-21.536 30.912-11.808 55.008s33.504 29.504 46.72 31.36C256.128 416 274.816 416 295.264 416H832a32 32 0 0 0 0-64H297.536c-10.4 0-18.944-0.032-26.016-0.16 4.992-5.024 11.136-10.976 18.624-18.208l100.672-97.312zM726.464 672c10.4 0 18.944 0 26.016 0.16-4.992 5.024-11.136 10.976-18.624 18.208l-100.672 97.312a32 32 0 1 0 44.48 46.016l102.304-98.88c14.688-14.208 28.128-27.168 36.896-38.432 8.224-10.528 21.536-30.912 11.808-55.04s-33.504-29.504-46.72-31.36C767.84 608 749.152 608 728.704 608H191.968a32 32 0 0 0 0 64h534.464z" p-id="33135"></path></svg>