<?xml version="1.0" standalone="no"?><!DOCTYPE svg PUBLIC "-//W3C//DTD SVG 1.1//EN" "http://www.w3.org/Graphics/SVG/1.1/DTD/svg11.dtd"><svg t="1699582540542" class="icon" viewBox="0 0 1024 1024" version="1.1" xmlns="http://www.w3.org/2000/svg" p-id="6634" xmlns:xlink="http://www.w3.org/1999/xlink" width="128" height="128"><path d="M488.308263 331.270343L452.261159 152.802147a74.482489 74.482489 0 1 1 73.750083-11.400056l34.996261 173.707558a148.359947 148.359947 0 0 1 74.355114 22.720502l153.646006-165.587405a111.739655 111.739655 0 1 1 54.452782 50.790752l-156.862223 169.090216a148.025588 148.025588 0 0 1 17.354834 53.943282l170.363965 23.612127a74.482489 74.482489 0 1 1-10.205916 73.734161l-169.918153-23.452908a149.267493 149.267493 0 0 1-36.875042 53.338251l119.859807 187.702877a74.482489 74.482489 0 1 1-59.81845 44.692678l-125.878272-196.873873a149.347102 149.347102 0 0 1-97.44182-9.234682l-161.399955 173.866776a111.739655 111.739655 0 1 1-57.366483-47.685988l160.810846-173.261745a148.312181 148.312181 0 0 1-26.7965-114.478216l-176.016228-102.64827a74.482489 74.482489 0 1 1 42.606913-61.378793l164.616172 95.945164a150.413867 150.413867 0 0 1 47.813363-38.674212z m-103.316988-61.299184a37.257166 37.257166 0 0 1-74.482488 0 111.739655 111.739655 0 1 0-59.229342 98.699647 37.257166 37.257166 0 1 1 35.171402 65.693618 186.222144 186.222144 0 1 1 98.476741-164.249968l0.063687-0.143297z m229.593307 490.807439a37.257166 37.257166 0 1 1 67.763462 30.840654 111.739655 111.739655 0 1 0 101.756645-65.550322 37.257166 37.257166 0 1 1 0-74.498411 186.222144 186.222144 0 1 1-169.536029 109.208079z" p-id="6635"></path></svg>