<?xml version="1.0" standalone="no"?><!DOCTYPE svg PUBLIC "-//W3C//DTD SVG 1.1//EN" "http://www.w3.org/Graphics/SVG/1.1/DTD/svg11.dtd"><svg t="1692150817725" class="icon" viewBox="0 0 4064 1024" version="1.1" xmlns="http://www.w3.org/2000/svg" p-id="4558" xmlns:xlink="http://www.w3.org/1999/xlink"><path d="M416.092371 221.849072H279.974268c-158.413856 0-247.87134 83.450722-267.791835 250.056577l-9.205443 78.700207A468.981443 468.981443 0 0 0 0 602.576495c0 131.262021 71.627216 197.199175 214.881649 197.199175H465.128247L562.619381 0H443.138639l-27.046268 221.849072zM359.033402 688.698062H228.25699c-71.922804 0-107.889485-34.742103-107.889485-104.828041 0-6.23901 0.601732-16.341773 2.07967-30.002145l10.408907-84.92866c10.989526-92.06499 55.570474-138.102763 134.038433-138.102762h136.118104l-43.683629 357.872165h-0.295588z m573.017732-466.84899H789.683464L816.729732 0H697.24899l-97.480578 799.77567h259.462598c164.061691 0 256.200577-83.450722 276.110516-250.067134l9.216-78.700206c2.07967-18.115299 2.966433-35.333278 2.966433-51.970639 0-65.029278-18.125856-114.033485-54.092536-147.29765-35.956124-33.253608-90.04866-49.890969-161.971464-49.890969h0.591175z m92.434474 245.897237l-10.408907 84.939217c-10.989526 90.576495-58.251876 136.012536-141.174763 136.012536H732.635052l43.683628-355.781938h142.367671c71.922804 0 107.889485 35.343835 107.889484 105.725361 0 5.647835-0.601732 15.148866-2.07967 29.104824z m213.98433 4.15934l-9.216 78.700207a469.097567 469.097567 0 0 0-2.966433 51.970639c0 131.262021 71.627216 197.199175 214.88165 197.199175h130.776412l-27.046268 217.679175h119.470186l97.491134-795.605773h-255.303258c-158.413856 0-247.87134 83.450722-267.791835 250.056577h-0.295588z m346.850969 216.792413h-130.776412c-71.922804 0-107.889485-34.742103-107.889485-104.828041 0-6.23901 0.591175-16.341773 2.07967-30.002145l10.408908-84.92866c10.989526-92.06499 55.570474-138.102763 134.038433-138.102762h136.118103l-43.683629 357.872165h-0.295588z m688.328578-466.84899h119.480742l-70.729897 577.926598h-260.655505c-143.254433 0-214.881649-65.641567-214.88165-197.199175 0-16.046186 1.182351-33.253608 2.966433-51.970639l40.421608-328.756784h119.480743l-40.421608 332.018804c-1.488495 8.909856-2.07967 21.387876-2.079671 37.423505 0 35.93501 8.31868 60.880495 25.557774 74.540866 16.943505 13.955959 44.580948 20.796701 82.627299 20.796701l142.357113-1.192907 56.182763-463.586969h-0.306144z m498.424082-4.15934h-20.807258c-82.922887 0-147.118186 21.081732-191.994721 62.664577-44.876536 41.867876-72.218392 104.236866-82.025567 187.392l-10.408908 87.018887a392.857072 392.857072 0 0 0-2.966433 48.698062c0 65.641567 19.614351 115.532536 58.547464 149.377319 39.228701 33.865897 100.457567 50.788289 184.267217 50.788289h50.830515c48.444701 0 103.128412-3.262021 164.051134-9.205443l11.29567-107.805031c-73.411299 6.23901-128.09501 9.216-164.06169 9.216h-50.819959c-48.444701 0-82.922887-8.614268-103.424-25.547217-20.51167-16.922392-30.614433-43.060784-30.614433-78.404618 0-5.637278 0.591175-16.035629 2.07967-31.184495v-1.182351h387.262021l11.29567-93.257897c2.07967-18.115299 2.966433-34.446515 2.966433-49.890969 0-65.63101-18.125856-115.226392-54.388124-148.786144-36.251711-33.559753-90.04866-50.186557-161.380289-50.186557l0.295588 0.295588z m94.514144 240.555546v0.886763h-267.791835c11.000082-90.576495 57.365113-136.012536 139.095093-136.012536h20.807258c38.046351 0 65.979381 8.614268 83.514062 25.832248 17.53468 17.228536 26.455093 42.469608 26.455092 75.733773 0 6.830186-0.591175 18.115299-2.07967 33.253608v0.306144z m478.503588-236.396206c34.478186 0 63.899711 1.182351 88.275134 3.272577l-18.727588 109.874145c-42.796866-1.477938-70.729897-2.07967-82.922886-2.07967-44.285361 0-77.570639 10.398351-99.560248 31.77567-22.295753 21.092289-35.96668 55.844948-41.614515 104.247422l-41.603959 330.836454H3029.456495l40.421608-327.870021c10.398351-87.905649 36.853443-151.45699 79.354722-190.960164 42.501278-39.503175 107.889485-59.096412 195.562886-59.096413h0.295588z m718.362392 0L3638.736495 1017.454845h-126.606516l128.686186-241.748453-181.596371-553.867877h129.879093l125.719752 410.719011h2.97699l219.04099-410.719011h126.617072z"  p-id="4559"></path></svg>