<svg width="385" height="97" viewBox="0 0 385 97"  xmlns="http://www.w3.org/2000/svg">
<path d="M39.4151 21.0147H26.5207C11.5148 21.0147 3.04059 28.9198 1.1543 44.7019L0.281532 52.1569C0.0844566 53.9292 0 55.5609 0 57.08C0 69.5144 6.78503 75.7597 20.3551 75.7597H44.0605L53.2948 0H41.9771L39.4151 21.0147ZM34.0096 65.2383H21.622C14.8088 65.2383 11.4022 61.9469 11.4022 55.3077C11.4022 54.7169 11.4585 53.7604 11.5993 52.4664L12.5847 44.4206C13.6264 35.6996 17.8494 31.3391 25.282 31.3391H38.1763L34.0378 65.2383H34.0096ZM88.2898 21.0147H74.8042L77.3662 0H66.0484L56.8141 75.7597H81.3922C96.933 75.7597 105.661 67.8546 107.547 52.0725L108.42 44.6175C108.617 42.9014 108.701 41.2698 108.701 39.6944C108.701 33.5335 106.984 28.8917 103.577 25.7409C100.171 22.5901 95.0467 21.0147 88.2335 21.0147H88.2898ZM97.0456 44.308L96.0602 52.3538C95.0186 60.9341 90.5421 65.2383 82.6873 65.2383H69.3987L73.5373 31.5361H87.0229C93.8361 31.5361 97.2427 34.8838 97.2427 41.5511C97.2427 42.0856 97.1864 42.9858 97.0456 44.308ZM117.316 44.7019L116.443 52.1569C116.246 53.9292 116.162 55.5609 116.162 57.08C116.162 69.5144 122.947 75.7597 136.517 75.7597H148.905L146.343 96.3806H157.66L166.895 21.0147H142.711C127.705 21.0147 119.231 28.9198 117.344 44.7019H117.316ZM150.172 65.2383H137.784C130.971 65.2383 127.564 61.9469 127.564 55.3077C127.564 54.7169 127.62 53.7604 127.761 52.4664L128.747 44.4206C129.788 35.6996 134.011 31.3391 141.444 31.3391H154.338L150.2 65.2383H150.172ZM215.375 21.0147H226.693L219.993 75.7597H195.302C181.732 75.7597 174.947 69.5425 174.947 57.08C174.947 55.5609 175.059 53.9292 175.228 52.1569L179.057 21.0147H190.375L186.546 52.4664C186.405 53.3103 186.349 54.4919 186.349 56.011C186.349 59.415 187.137 61.7781 188.77 63.0721C190.375 64.3943 192.993 65.0414 196.597 65.0414L210.082 64.9289L215.404 21.0147H215.375ZM262.589 20.6208H260.618C252.763 20.6208 246.682 22.6182 242.431 26.5567C238.18 30.5233 235.59 36.4311 234.661 44.308L233.675 52.5508C233.478 54.1262 233.394 55.6734 233.394 57.1644C233.394 63.3816 235.252 68.1078 238.94 71.3149C242.656 74.5219 248.456 76.1254 256.395 76.1254H261.21C265.799 76.1254 270.979 75.816 276.75 75.2533L277.82 65.0414C270.866 65.6322 265.686 65.9135 262.279 65.9135H257.465C252.876 65.9135 249.61 65.0977 247.668 63.4941C245.725 61.8906 244.768 59.415 244.768 56.0673C244.768 55.5328 244.824 54.5481 244.965 53.1134V53.0009H281.649L282.719 44.1674C282.916 42.4513 283 40.9041 283 39.4412C283 33.224 281.283 28.526 277.848 25.347C274.414 22.1681 269.318 20.5927 262.561 20.5927L262.589 20.6208ZM271.542 43.4078V43.4922H246.175C247.217 34.9119 251.609 30.6077 259.351 30.6077H261.322C264.926 30.6077 267.572 31.4235 269.233 33.0552C270.894 34.6869 271.739 37.0781 271.739 40.2289C271.739 40.8759 271.683 41.9449 271.542 43.3797V43.4078ZM316.869 21.0147C320.135 21.0147 322.922 21.1272 325.231 21.3241L323.457 31.733C319.403 31.5923 316.757 31.5361 315.602 31.5361C311.407 31.5361 308.254 32.5207 306.171 34.5462C304.059 36.5436 302.764 39.8351 302.229 44.4206L298.288 75.7597H286.97L290.799 44.7019C291.784 36.3748 294.29 30.3545 298.316 26.613C302.342 22.8714 308.536 21.0147 316.841 21.0147H316.869ZM384.917 21.0147L344.685 96.3806H332.692L344.882 73.481L327.68 21.0147H339.983L351.892 59.9214H352.174L372.923 21.0147H384.917Z" />
</svg>
