<?xml version="1.0" standalone="no"?><!DOCTYPE svg PUBLIC "-//W3C//DTD SVG 1.1//EN" "http://www.w3.org/Graphics/SVG/1.1/DTD/svg11.dtd"><svg t="1693314884024" class="icon" viewBox="0 0 1024 1024" version="1.1" xmlns="http://www.w3.org/2000/svg" p-id="4834" xmlns:xlink="http://www.w3.org/1999/xlink" width="200" height="200"><path d="M475.52 518.592c223.168 0 413.504-98.496 413.504-210.048V210.048C889.024 98.432 698.688 0 475.456 0 245.76 0 55.36 98.432 55.36 210.048v105.024c0 111.616 190.4 203.52 420.096 203.52zM61.888 656.384c0 111.616 190.336 210.048 413.504 210.048a252.096 252.096 0 0 0 72.256 151.04C521.472 1024 501.76 1024 475.456 1024 252.288 1024 61.952 925.568 61.952 813.952zM55.36 407.04c0 111.616 190.4 210.048 420.096 210.048 26.24 0 52.544-6.592 72.256-6.592-39.424 39.424-65.664 98.496-78.784 157.568-216.64 0-407.04-85.312-413.568-196.928zM809.088 593.472v62.976c18.88 6.72 36.16 16.768 51.136 29.568l54.592-31.552 53.76 93.248-54.528 31.552c3.584 19.456 3.584 39.488 0 58.944l54.592 31.552-53.824 93.184-54.592-31.488a161.28 161.28 0 0 1-51.136 29.568V1024H701.44v-62.976a161.28 161.28 0 0 1-51.072-29.568l-54.592 31.488-53.824-93.184 54.592-31.552a162.368 162.368 0 0 1 0-58.944l-54.592-31.552 53.76-93.248 54.656 31.552c14.912-12.8 32.192-22.848 51.072-29.568v-62.976h107.648z m-53.76 161.408a53.76 53.76 0 1 0 0 107.648 53.76 53.76 0 0 0 0-107.648z" p-id="4835"></path></svg>