<?xml version="1.0" standalone="no"?><!DOCTYPE svg PUBLIC "-//W3C//DTD SVG 1.1//EN" "http://www.w3.org/Graphics/SVG/1.1/DTD/svg11.dtd"><svg t="1685026655424" class="icon" viewBox="0 0 1024 1024" version="1.1" xmlns="http://www.w3.org/2000/svg" p-id="5234" xmlns:xlink="http://www.w3.org/1999/xlink" width="200" height="200"><path d="M876.48 938.688H147.52a105.472 105.472 0 0 1-104.832-106.112V490.56c0-26.88 20.288-47.488 46.912-47.488h226.816c26.624 0 46.976 20.608 46.976 47.488 0 82.368 65.664 150.4 148.608 150.4s148.608-66.432 148.608-150.4c0-26.88 20.352-47.488 46.976-47.488H934.4c26.56 0 46.912 20.608 46.912 47.488v343.616c0 56.96-46.912 104.512-104.832 104.512zM136.512 538.048v296.128c0 6.336 4.736 11.072 10.944 11.072h729.088a10.752 10.752 0 0 0 10.88-11.072V538.112h-137.6C727.872 650.496 629.248 736 512 736c-117.312 0-215.872-85.504-237.824-197.888h-137.6z"  fill="currentColor" p-id="5235"></path><path d="M934.4 538.112a46.976 46.976 0 0 1-45.376-33.28l-82.944-281.856h-588.16l-82.944 280.32c-7.808 25.28-32.832 39.552-57.92 31.616-24.96-7.936-39.04-34.816-31.232-58.56L139.648 161.28A45.568 45.568 0 0 1 183.488 128h657.024c20.352 0 39.104 14.272 45.44 33.28l93.824 315.072c7.808 25.344-6.272 52.224-31.296 58.56a45.248 45.248 0 0 1-14.08 3.2z" fill="currentColor" p-id="5236"></path></svg>