<?xml version="1.0" standalone="no"?><!DOCTYPE svg PUBLIC "-//W3C//DTD SVG 1.1//EN" "http://www.w3.org/Graphics/SVG/1.1/DTD/svg11.dtd"><svg t="1705817808640" class="icon" viewBox="0 0 1024 1024" version="1.1" xmlns="http://www.w3.org/2000/svg" p-id="1524" xmlns:xlink="http://www.w3.org/1999/xlink" width="128" height="128"><path d="M654.392889 334.904889H240.924444a29.525333 29.525333 0 1 1 0-59.050667h413.468445a29.525333 29.525333 0 1 1 0 59.050667z m-236.316445 354.474667H240.924444a29.582222 29.582222 0 1 1 0-59.164445h177.152a29.525333 29.525333 0 0 1 0 59.050667z m236.316445-177.208889H240.924444a29.525333 29.525333 0 1 1 0-59.050667h413.468445a29.525333 29.525333 0 1 1 0 59.050667z" fill="#303133" p-id="1525"></path><path d="M240.924444 267.320889h413.468445a38.058667 38.058667 0 1 1 0 76.117333H240.924444a38.058667 38.058667 0 1 1 0-76.117333z m413.468445 59.050667a20.992 20.992 0 1 0 0-41.984H240.924444a20.992 20.992 0 1 0 0 41.984zM240.924444 444.529778h413.468445a38.058667 38.058667 0 0 1 0 76.117333H240.924444a38.058667 38.058667 0 1 1 0-76.117333z m413.468445 59.050666a20.992 20.992 0 1 0 0-41.984H240.924444a20.992 20.992 0 0 0 0 41.984z m-413.468445 118.101334h177.152a38.058667 38.058667 0 0 1 8.533334 75.207111v0.967111H240.924444a38.115556 38.115556 0 1 1 0-76.231111z m168.618667 59.164444h8.533333a20.992 20.992 0 0 0 0-41.984H240.924444a21.048889 21.048889 0 0 0 0 42.097778z" fill="#303133" p-id="1526"></path><path d="M455.224889 983.893333h-307.2a113.777778 113.777778 0 0 1-113.777778-113.777777v-716.8a113.777778 113.777778 0 0 1 113.777778-113.777778h597.333333a113.777778 113.777778 0 0 1 113.777778 113.777778v301.852444h-73.955556V153.315556a39.822222 39.822222 0 0 0-39.822222-39.822223h-597.333333a39.822222 39.822222 0 0 0-39.822222 39.822223v716.8a39.822222 39.822222 0 0 0 39.822222 39.822222h307.2v73.955555z" fill="#303133" p-id="1527"></path><path d="M683.576889 714.24a6.712889 6.712889 0 0 0 5.688889 3.185778c58.026667 0 115.370667-1.251556 173.966222 0.625778a208.042667 208.042667 0 0 1 71.395556 12.743111 127.544889 127.544889 0 0 1 75.832888 142.734222 129.194667 129.194667 0 0 1-122.993777 108.999111c-70.712889 1.934222-142.222222 1.934222-213.504-0.625778-11.377778-0.625778-31.232-3.811556-32.483556-24.234666 0-22.755556 13.994667-26.794667 33.792-26.794667 68.266667 0 135.736889 0.625778 203.946667-0.625778a79.644444 79.644444 0 0 0 79.018666-61.838222 77.255111 77.255111 0 0 0-41.415111-87.950222 108.487111 108.487111 0 0 0-42.723555-8.305778c-80.952889-0.625778-161.223111 0.625778-242.176-1.251556a45.511111 45.511111 0 0 1-38.229334-15.928889c-6.997333-10.808889 6.371556-32.483556 14.677334-42.723555 28.046222-31.857778 59.278222-60.529778 89.201778-90.510222 13.368889-13.368889 28.046222-22.300444 43.975111-5.12 14.677333 15.928889 6.371556 31.232-7.623111 43.975111-15.928889 15.303111-32.483556 30.606222-48.412445 45.909333a5.006222 5.006222 0 0 0-1.934222 7.736889z" fill="#303133" p-id="1528"></path><path d="M723.342222 598.698667a38.115556 38.115556 0 0 1 34.417778 36.750222 46.705778 46.705778 0 0 1-18.147556 31.573333 6507.918222 6507.918222 0 0 0-44.259555 41.699556H788.423111c29.070222 0 52.963556 0.341333 75.093333 1.080889a214.016 214.016 0 0 1 74.296889 13.368889 140.288 140.288 0 0 1-50.062222 268.174222c-33.564444 0.910222-66.901333 1.365333-99.100444 1.365333a3288.746667 3288.746667 0 0 1-114.915556-1.991111c-33.792-1.877333-39.822222-20.992-40.732444-32.199111v-0.512c0-35.328 29.639111-35.328 42.325333-35.328h101.831111c41.073778 0 72.476444 0 101.944889-0.796445a71.168 71.168 0 0 0 70.826667-55.125333 68.266667 68.266667 0 0 0-36.636445-78.392889 99.328 99.328 0 0 0-39.139555-7.509333H752.753778c-38.4 0-79.644444 0-121.287111-1.137778a54.215111 54.215111 0 0 1-45.169778-19.797333c-11.662222-18.033778 10.581333-47.104 15.189333-52.736 20.252444-22.755556 42.382222-44.600889 63.772445-65.479111 8.533333-8.305778 17.066667-17.066667 25.827555-25.429334a47.900444 47.900444 0 0 1 32.256-17.578666z m-43.178666 101.205333l23.608888-22.357333 24.234667-22.755556a32.199111 32.199111 0 0 0 12.743111-19.911111 21.617778 21.617778 0 0 0-17.408-18.887111c-5.233778 0-11.377778 3.868444-19.740444 12.117333s-17.464889 17.066667-25.998222 25.543111c-21.105778 20.650667-43.008 41.927111-62.577778 64.398223-10.183111 12.629333-17.066667 28.103111-13.994667 32.540444a39.196444 39.196444 0 0 0 31.061333 12.060444c41.585778 0.967111 82.773333 1.137778 121.116445 1.137778h121.116444a116.792889 116.792889 0 0 1 46.136889 9.045334 86.186667 86.186667 0 0 1 46.250667 97.507555 87.950222 87.950222 0 0 1-87.267556 68.608c-29.525333 0.568889-61.098667 0.796444-102.4 0.796445h-101.831111c-19.683556 0-25.201778 3.868444-25.258666 17.976888 0.512 6.883556 3.868444 14.848 24.462222 15.985778 36.864 1.308444 75.377778 1.991111 114.176 1.991111 32.085333 0 65.251556-0.455111 98.645333-1.365333a120.149333 120.149333 0 0 0 114.858667-102.001778 118.670222 118.670222 0 0 0-70.656-133.290666 197.632 197.632 0 0 0-68.266667-12.117334c-22.016-0.739556-45.511111-1.024-74.581333-1.024h-99.214222a15.246222 15.246222 0 0 1-12.686223-6.769778 13.312 13.312 0 0 1-2.389333-10.467555 13.994667 13.994667 0 0 1 5.859556-8.760889z" fill="#303133" p-id="1529"></path></svg>