<?xml version="1.0" standalone="no"?><!DOCTYPE svg PUBLIC "-//W3C//DTD SVG 1.1//EN" "http://www.w3.org/Graphics/SVG/1.1/DTD/svg11.dtd"><svg t="1689237521246" class="icon" viewBox="0 0 1024 1024" version="1.1" xmlns="http://www.w3.org/2000/svg" p-id="5167" xmlns:xlink="http://www.w3.org/1999/xlink" width="200" height="200"><path d="M0 0h1024v1024H0z"  fill-opacity="0" p-id="5168"></path><path d="M700 113c17.673 0 32 14.327 32 32v147h148c17.673 0 32 14.327 32 32v556c0 17.673-14.327 32-32 32H324c-17.673 0-32-14.327-32-32V733H144c-17.673 0-32-14.327-32-32V145c0-17.673 14.327-32 32-32h556z m-20 199H344c-17.496 0-31.713 14.042-31.996 31.47L312 344v336c0 17.496 14.042 31.713 31.47 31.996l0.53 0.004h336c17.496 0 31.713-14.042 31.996-31.47L712 680V344c0-17.496-14.042-31.713-31.47-31.996L680 312z"  p-id="5169"></path></svg>