<?xml version="1.0" standalone="no"?><!DOCTYPE svg PUBLIC "-//W3C//DTD SVG 1.1//EN" "http://www.w3.org/Graphics/SVG/1.1/DTD/svg11.dtd"><svg t="1686117661743" class="icon" viewBox="0 0 1024 1024" version="1.1" xmlns="http://www.w3.org/2000/svg" p-id="9205" xmlns:xlink="http://www.w3.org/1999/xlink" width="200" height="200"><path d="M672 678.4H505.6c-19.2 0-38.4-19.2-38.4-38.4s19.2-38.4 38.4-38.4h128V172.8H76.8v428.8h128c19.2 0 38.4 19.2 38.4 38.4s-19.2 38.4-38.4 38.4H38.4c-19.2 0-38.4-19.2-38.4-38.4V134.4c0-19.2 19.2-38.4 38.4-38.4h627.2c19.2 0 38.4 19.2 38.4 38.4V640c6.4 19.2-12.8 38.4-32 38.4z" p-id="9206"></path><path d="M985.6 928H358.4c-19.2 0-38.4-19.2-38.4-38.4V384c0-19.2 19.2-38.4 38.4-38.4h166.4c19.2 0 38.4 19.2 38.4 38.4s-19.2 38.4-44.8 38.4h-128v428.8h550.4V422.4h-128c-19.2 0-38.4-19.2-38.4-38.4s19.2-38.4 38.4-38.4h166.4c25.6 0 44.8 19.2 44.8 38.4v505.6c0 19.2-19.2 38.4-38.4 38.4z" p-id="9207"></path></svg>