<?xml version="1.0" standalone="no"?><!DOCTYPE svg PUBLIC "-//W3C//DTD SVG 1.1//EN" "http://www.w3.org/Graphics/SVG/1.1/DTD/svg11.dtd"><svg t="1706575689184" class="icon" viewBox="0 0 1024 1024" version="1.1" xmlns="http://www.w3.org/2000/svg" p-id="16692" xmlns:xlink="http://www.w3.org/1999/xlink" width="200" height="200"><path d="M832 0a192 192 0 0 1 192 192v640a192 192 0 0 1-192 192H192a192 192 0 0 1-192-192V192a192 192 0 0 1 192-192h640zM160.32 515.488a338.72 338.72 0 0 0 169.568 294.368 338.976 338.976 0 0 0 339.008 0c126.176-84.896 63.936-232.992 61.664-238.272 12.032 33.888-1.248 103.488-96.064 119.52-53.856 9.056-109.952 15.104-269.024 2.88 0 0-76.448-11.68-110.464-31.36-66.464-38.4-94.72-98.4-94.72-147.136z m454.848-309.6c-30.592 0-64.48 8-98.368 27.712-17.632 10.176-39.008 31.104-55.52 49.024l-5.856 6.4 2.112-2.112c26.08-25.536 89.472-43.328 147.936 27.36 34.784 42.144 68.032 87.456 136.96 231.552 0 0 28.16 72 28.16 111.392-0.16 76.576-37.856 131.072-80 155.392a339.328 339.328 0 0 0 124.768-463.264 341.76 341.76 0 0 0-124.928-124.8c-20.48-11.552-46.368-18.656-75.264-18.656z m-104.672-45.44c-57.536 0-115.84 14.72-169.312 45.44-110.72 63.84-171.52 180.736-169.6 300 4.48 38.496 29.056 137.152 164.096 162.624-34.048-13.408-73.824-58.72-43.744-139.52 19.04-51.072 41.76-102.72 131.84-234.304 0 0 48.352-60.416 82.368-80 64.16-36.864 127.84-33.056 170.144-11.008l4.032 2.208-9.536-5.28a340.64 340.64 0 0 0-160.32-40.16z" p-id="16693"></path></svg>