<?xml version="1.0" encoding="UTF-8"?>
<svg id="_图层_1" data-name="图层 1" xmlns="http://www.w3.org/2000/svg" xmlns:xlink="http://www.w3.org/1999/xlink" viewBox="0 0 195.31 195.31">
  <defs>
    <style>
      .cls-1 {
        clip-path: url(#clippath);
      }

      .cls-2 {
        fill: none;
      }

      .cls-2, .cls-3 {
        stroke-width: 0px;
      }

      .cls-3 {
        fill: #4d53e8;
      }
    </style>
    <clipPath id="clippath">
      <rect class="cls-2" width="195.31" height="195.31"/>
    </clipPath>
  </defs>
  <g class="cls-1">
    <path class="cls-3" d="M112.35,175.2c-.72-5.45,3.58-12.96,7.35-17.71s5.72-6.51,7.73-8.14c17-13.81,26.35-29.65,23.36-51.79-1.37-10.04-4.13-19.07-10.17-26.88-.91-1.17-3.47-4.85-7.81-9.31-4.34-4.46-9.01-7.2-12.97-8.67-3.96-1.47-8.45-2.41-13.31-2.66-4.99-.26-8.73.67-11.97,1.38-9.25,2.01-25.5,12.83-33.65,23.36-8.17,10.56-11.72,23.54-9.93,36.63,1.79,13.08,8.64,24.64,19.3,32.56,3.76,2.77,7.61,6.29,10.35,9.89,6.07,7.96,5.56,16.73,6.49,23.52.32,2.17.39,4.2-.59,5.19-1.95,2.05-5.37,1.05-9.15.32C26.65,172.45-3.19,116.21,23.66,81.62l32.55-42.01c17.05-22.01,45.88-28,70.65-14.98,14.2,7.46,32.82,25.81,41.52,42.22,14.81,27.9,11.65,55.38,1.99,76.18-8.78,18.91-22.89,29.95-45.13,38.48-13.91,5.34-12.64-4.39-12.88-6.31Z"/>
  </g>
</svg>