<?xml version="1.0" standalone="no"?><!DOCTYPE svg PUBLIC "-//W3C//DTD SVG 1.1//EN" "http://www.w3.org/Graphics/SVG/1.1/DTD/svg11.dtd"><svg t="1719977425476" class="icon" viewBox="0 0 1024 1024" version="1.1" xmlns="http://www.w3.org/2000/svg" p-id="4274" xmlns:xlink="http://www.w3.org/1999/xlink" width="200" height="200">
<g clip-path="url(#clip0_104_2)">
<path d="M575.221 897.047C571.555 869.148 593.561 830.71 612.876 806.369C632.191 782.028 642.145 773.055 652.463 764.669C739.485 693.942 787.364 612.865 772.066 499.522C765.045 448.12 750.902 401.868 719.992 361.906C715.351 355.905 702.219 337.067 680.008 314.24C657.796 291.413 633.853 277.362 613.577 269.826C593.301 262.29 570.335 257.492 545.418 256.183C519.874 254.841 500.737 259.615 484.131 263.225C436.761 273.525 353.584 328.928 311.86 382.805C270.021 436.869 251.867 503.341 261.024 570.33C270.173 637.316 305.283 696.504 359.855 737.012C379.085 751.17 398.818 769.224 412.863 787.648C443.941 828.416 441.325 873.288 446.095 908.062C447.716 919.153 448.117 929.568 443.071 934.66C433.084 945.17 415.576 940.056 396.231 936.299C136.456 882.94 -16.3442 594.991 121.144 417.877L287.796 202.793C375.074 90.126 522.688 59.443 649.519 126.097C722.199 164.293 817.58 258.247 862.085 342.28C937.913 485.143 921.716 625.819 872.254 732.333C827.284 829.175 755.036 885.696 641.181 929.376C569.974 956.694 576.487 906.888 575.221 897.047ZM387.112 626.668C395.127 644.765 406.638 665.735 419.358 678.054C433.056 691.32 447.389 701.336 465.063 706.791C499.049 717.114 551.595 716.529 583.124 693.695C598.453 682.65 607.582 675.148 618.495 658.702C630.241 641.001 637.229 620.014 642.852 597.946C650.062 569.33 649.192 533.042 642.487 499.406C637.266 473.214 628.506 448.63 617.269 430.529C596.848 397.77 565.987 377.937 532.75 373.407C510.831 370.419 487.878 374.088 466.205 385.096C424.688 406.058 394.062 447.598 381.245 498.488L381.061 498.201C375.116 521.82 373.507 546.168 376.109 569.534C378.182 588.153 379.758 610.163 387.112 626.668Z" fill="black"/>
</g>
<defs>
<clipPath id="clip0_104_2">
<rect width="1000" height="1000" fill="white"/>
</clipPath>
</defs>
</svg>
