<?xml version="1.0" standalone="no"?><!DOCTYPE svg PUBLIC "-//W3C//DTD SVG 1.1//EN" "http://www.w3.org/Graphics/SVG/1.1/DTD/svg11.dtd"><svg t="1731938348219" class="icon" viewBox="0 0 1024 1024" version="1.1" xmlns="http://www.w3.org/2000/svg" p-id="932" xmlns:xlink="http://www.w3.org/1999/xlink" width="200" height="200">
<path d="M939 493.22C939.033 567.321 920.207 640.248 884.242 705.332C848.276 770.416 796.321 825.58 733.125 865.78C724.8 870.878 716.475 875.975 707.925 880.63C638.618 918.618 560.349 937.887 481.048 936.486C401.746 935.085 324.229 913.063 256.35 872.651C252.3 870.435 248.25 867.775 244.425 865.337C178.937 823.57 125.598 765.749 89.6412 697.549C53.6849 629.348 36.3471 553.112 39.3288 476.319C42.3106 399.527 65.5097 324.817 106.649 259.521C147.789 194.225 205.456 140.587 273.992 103.869C342.528 67.151 419.578 48.6153 497.581 50.0806C575.583 51.546 651.86 72.962 718.924 112.227C785.989 151.493 841.538 207.258 880.12 274.051C918.703 340.845 938.993 416.371 939 493.22Z" fill="#EFEFEF"/>
<path d="M833.149 925.769L828.327 882.031C826.286 864.127 802.453 786.794 757.923 777.128C690.982 755.785 609.455 763.249 562.586 710.798C544.081 705.66 546.887 717.442 527.439 717.94C492.149 718.745 456.847 718.748 421.557 717.947C402.113 717.452 404.906 705.66 386.405 710.791C325.433 777.705 267.008 751.948 199.118 774.756C137.308 795.588 122.566 864.016 120.673 882.031L115.851 925.766" fill="white"/>
<path d="M277.008 509.21C277.008 509.21 271.496 505.652 264.805 501.255C258.095 496.864 252.457 479.518 252.276 462.752C252.125 449.911 251.99 437.067 251.874 424.226C251.748 407.457 259.102 396.225 268.227 399.18C277.367 402.136 284.878 404.488 284.878 404.488" fill="#FFEAD6"/>
<path d="M277.008 509.21C277.008 509.21 271.496 505.652 264.805 501.255C258.095 496.864 252.457 479.518 252.276 462.752C252.125 449.911 251.99 437.067 251.874 424.226C251.748 407.457 259.102 396.225 268.227 399.18C277.367 402.136 284.878 404.488 284.878 404.488" fill="#FFEAD6"/>
<path d="M562.586 710.716C563.786 744.169 532.215 772.852 492.437 773.118C480.476 773.199 468.512 773.199 456.551 773.118C416.769 772.852 385.21 744.169 386.411 710.712L389.867 599.624C391.067 566.124 421.717 539.922 457.996 540.161C468.997 540.236 479.997 540.236 491 540.161C527.277 539.925 557.933 566.131 559.133 599.624L562.586 710.716Z" fill="#FFEAD6"/>
<path d="M563.018 724.644C564.209 758.098 532.414 783.783 492.501 784.048C480.494 784.13 468.487 784.13 456.479 784.048C416.566 783.783 384.783 758.098 385.971 724.644L389.863 599.621C391.063 566.124 421.713 539.912 457.993 540.151C468.993 540.23 479.993 540.23 490.997 540.151C527.27 539.918 557.926 566.131 559.13 599.621C560.422 641.292 561.72 682.97 563.018 724.644Z" fill="#FFEAD6"/>
<path opacity="0.15" d="M559.13 599.621C559.109 599.031 559.01 598.461 558.971 597.878C518.823 599.302 478.65 599.71 438.485 599.103C422.112 607.723 405.647 616.142 389.093 624.359L386.408 710.709C386.021 723.045 390.005 734.7 397.221 744.556C407.61 735.103 430.811 729.612 482.456 729.559C523.695 729.359 543.259 734.097 552.556 743.38C559.244 733.776 562.954 722.561 562.586 710.713L559.127 599.624L559.13 599.621Z" fill="#D59758"/>
<path d="M672.606 509.161C672.606 509.161 678.112 505.6 684.806 501.203C691.522 496.809 697.151 479.463 697.323 462.697C697.473 449.856 697.605 437.012 697.716 424.171C697.839 407.401 690.488 396.173 681.356 399.131C672.222 402.087 664.711 404.446 664.711 404.446" fill="#FFEAD6"/>
<path d="M672.606 509.161C672.606 509.161 678.112 505.6 684.806 501.203C691.522 496.809 697.151 479.463 697.323 462.697C697.473 449.856 697.605 437.012 697.716 424.171C697.839 407.401 690.488 396.173 681.356 399.131C672.222 402.087 664.711 404.446 664.711 404.446" fill="#FFEAD6"/>
<path d="M676.295 566.665C677.759 585.617 665.494 611.334 648.726 623.572C613.189 649.572 577.007 674.555 540.22 698.494C522.599 710.014 492.836 713.327 474.491 713.285C456.136 713.33 426.382 710.011 408.761 698.491C371.973 674.554 335.79 649.573 300.252 623.572C283.487 611.334 271.225 585.617 272.686 566.665L289.141 347.657C290.614 328.698 307.271 314.554 326.172 315.861C424.945 322.715 524.03 322.715 622.803 315.861C641.707 314.554 658.364 328.695 659.837 347.657C665.328 420.658 670.813 493.663 676.295 566.665Z" fill="#FFEAD6"/>
<path opacity="0.15" d="M646.44 587.592C611.117 608.613 575.305 628.683 539.038 647.783C521.74 659.293 492.51 662.596 474.494 662.553C456.468 662.599 427.245 659.293 409.943 647.779C373.676 628.681 337.864 608.612 302.542 587.592C272.435 566.767 277.422 504.368 278.791 485.452L272.689 566.668C271.228 585.62 283.49 611.338 300.255 623.575C335.791 649.576 371.971 674.558 408.758 698.494C426.382 710.014 456.136 713.33 474.494 713.288C492.845 713.334 522.602 710.018 540.223 698.497C577.01 674.558 613.191 649.576 648.729 623.575C665.5 611.338 677.756 585.62 676.292 566.671L671.203 498.942C672.575 517.851 676.522 566.77 646.44 587.592Z" fill="#D59758"/>
<path opacity="0.15" d="M252.174 453.941C252.159 453.915 255.474 483.417 278.788 485.452L277.002 509.214C276.98 509.266 248.258 497.972 252.174 453.941ZM697.685 453.856C697.7 453.83 694.392 483.335 671.08 485.377L672.873 509.138C672.9 509.191 701.614 497.887 697.685 453.856Z" fill="#D59758"/>
<path d="M835 926.703L828.324 870.284C826.283 853.6 802.45 781.529 757.92 772.525C690.979 752.636 609.452 759.589 562.583 710.709C577.132 753.622 486.538 924.101 471.317 929C455.191 926.051 384.812 710.965 386.402 710.706C353.201 737.806 267.653 749.54 199.118 770.313C137.311 789.73 122.57 853.498 120.676 870.287L114 926.703M636.551 226.008C654.205 260.507 663.984 324.114 667.775 373.053C633.521 393.499 532.802 404.747 474.592 404.167C315.464 402.329 281.351 371.795 281.406 373.07C283.331 322.221 293.536 270.212 312.621 226.024C312.75 224.946 337.111 174.042 474.583 175.686C612.051 174.028 636.422 224.933 636.551 226.008Z" fill="#96CAD6"/>
<path d="M520.057 549.109C560.698 569.45 633.607 532.972 635.844 572.556C640.804 640.591 568.571 714.176 468.496 713.927C385.477 713.956 309.423 645.791 314.662 572.658C316.866 533.185 391.042 569.735 431.502 549.316C455.488 537.222 444.638 519.299 475.239 519.411C505.705 519.28 496.117 537.134 520.057 549.109Z" fill="#96CAD6"/>
<path opacity="0.11" d="M431.219 566.904C455.369 554.817 444.442 536.891 475.249 537.002C505.911 536.871 496.261 554.722 520.361 566.698C558.943 585.849 626.563 554.542 635.817 584.155C636.044 580.279 636.078 576.413 635.847 572.553C633.61 532.969 560.704 569.447 520.064 549.106C496.117 537.13 505.705 519.276 475.242 519.407C444.641 519.296 455.495 537.215 431.505 549.316C391.048 569.729 316.872 533.182 314.668 572.658C314.45 576.587 314.45 580.527 314.668 584.457C323.815 554.653 392.745 586.174 431.219 566.904Z" fill="white"/>
<path opacity="0.1" d="M636.55 226.008C636.421 224.933 612.054 174.028 474.583 175.683C464.043 175.683 454.202 175.935 444.982 176.407C556.094 184.35 575.993 229.176 575.993 229.881C582.797 244.088 588.282 265.464 592.588 289.144C594.313 298.384 568.148 309.324 569.311 318.895C570.179 326.107 598.917 331.857 599.74 338.888C601.904 358.214 601.904 350.822 602.708 366.484C573.654 383.063 440.86 409.102 319.073 390.511C330.405 392.837 461.225 405.412 474.592 404.164C532.801 404.744 633.521 393.492 667.771 373.05C663.984 324.121 654.208 260.507 636.55 226.008Z" fill="#3F3F3F"/>
<path d="M523.149 280.333C511.157 280.608 499.165 280.785 487.167 280.857L486.974 244.199C477.999 244.252 469.022 244.248 460.047 244.186L459.823 280.844C447.828 280.762 435.834 280.576 423.841 280.287L423.252 308.138C435.385 308.43 447.518 308.616 459.651 308.701L459.427 345.356C468.788 345.422 478.15 345.425 487.508 345.369L487.315 308.711C499.448 308.639 511.581 308.462 523.714 308.181L523.149 280.333Z" fill="#FF8F8F"/>
</svg>
