<?xml version="1.0" standalone="no"?><!DOCTYPE svg PUBLIC "-//W3C//DTD SVG 1.1//EN" "http://www.w3.org/Graphics/SVG/1.1/DTD/svg11.dtd"><svg t="1731938348219" class="icon" viewBox="0 0 1024 1024" version="1.1" xmlns="http://www.w3.org/2000/svg" p-id="932" xmlns:xlink="http://www.w3.org/1999/xlink" width="200" height="200">
<path d="M40 490C40 609.347 87.4106 723.807 171.802 808.198C256.193 892.589 370.653 940 490 940C609.347 940 723.807 892.589 808.198 808.198C892.589 723.807 940 609.347 940 490C940 370.653 892.589 256.193 808.198 171.802C723.807 87.4106 609.347 40 490 40C370.653 40 256.193 87.4106 171.802 171.802C87.4106 256.193 40 370.653 40 490Z" fill="#EFEFEF"/>
<path d="M753.672 581.406C753.672 595.469 750.156 606.016 746.641 613.047C743.125 620.078 739.609 627.109 732.578 630.625C725.547 634.141 722.031 637.656 715 641.172L704.453 672.812C700.938 679.844 655.234 746.641 644.688 764.219C637.656 767.734 577.891 848.594 511.094 848.594C447.812 848.594 363.438 753.672 352.891 739.609C338.828 718.516 321.25 676.328 317.734 669.297L307.188 637.656C303.672 637.656 300.156 634.141 293.125 630.625C289.609 627.109 286.094 623.594 282.578 616.562C279.062 609.531 275.547 602.5 272.031 591.953C268.516 581.406 268.516 570.859 268.516 563.828C268.516 556.797 272.031 546.25 272.031 542.734C272.031 539.219 272.031 539.219 275.547 535.703C275.547 535.703 275.547 539.219 279.062 539.219L282.578 542.734L286.094 546.25C296.641 553.281 303.672 556.797 314.219 556.797C328.281 556.797 335.312 549.766 338.828 546.25C349.375 535.703 352.891 521.641 352.891 511.094C352.891 497.031 356.406 479.453 377.5 451.328H391.562V454.844C391.562 461.875 391.562 468.906 395.078 472.422C405.625 486.484 426.719 490 444.297 490C472.422 490 504.062 482.969 528.672 468.906C532.188 472.422 542.734 475.938 553.281 475.938C560.312 475.938 567.344 475.938 574.375 472.422C598.984 461.875 606.016 458.359 613.047 451.328L616.562 447.812C620.078 447.812 623.594 451.328 630.625 451.328H641.172C644.688 465.391 651.719 479.453 658.75 490C665.781 504.062 672.812 518.125 672.812 535.703C672.812 553.281 690.391 563.828 707.969 563.828C722.031 563.828 732.578 556.797 736.094 542.734L743.125 528.672V525.156C746.641 528.672 746.641 528.672 746.641 532.188C750.156 535.703 750.156 542.734 753.672 549.766V581.406Z" fill="#F9E9CF"/>
<path d="M722.031 542.734C715 560.313 690.391 553.281 690.391 539.219C686.875 493.516 658.75 479.453 655.235 433.75C627.11 447.813 623.594 440.781 616.563 437.266C598.985 444.297 602.5 447.813 567.344 461.875C539.219 468.906 532.188 458.359 532.188 451.328C472.422 493.516 395.078 482.969 402.11 461.875C402.11 451.328 440.782 423.203 433.75 423.203C430.235 430.234 395.078 440.781 363.438 437.266C314.219 493.516 338.828 518.125 321.25 535.703C317.735 539.219 310.703 549.766 289.61 535.703C201.719 331.797 303.672 279.063 310.703 272.031C307.188 268.516 289.61 272.031 293.125 254.453C303.672 222.813 342.344 233.359 352.891 219.297C338.828 208.75 342.344 166.563 363.438 159.531C381.016 156.016 384.532 184.141 433.75 191.172C433.75 141.953 440.782 127.891 451.328 127.891C465.391 127.891 479.453 156.016 493.516 159.531C556.797 194.688 613.047 194.688 651.719 219.297C676.328 184.141 700.938 240.391 707.969 250.938C753.672 250.938 746.641 282.578 732.578 282.578C813.438 384.531 725.547 521.641 722.031 542.734Z" fill="#325A8C"/>
</svg>
