<?xml version="1.0" standalone="no"?><!DOCTYPE svg PUBLIC "-//W3C//DTD SVG 1.1//EN" "http://www.w3.org/Graphics/SVG/1.1/DTD/svg11.dtd"><svg t="1731938348219" class="icon" viewBox="0 0 1024 1024" version="1.1" xmlns="http://www.w3.org/2000/svg" p-id="932" xmlns:xlink="http://www.w3.org/1999/xlink" width="200" height="200">
<path d="M940.144 484.16C940.175 556.738 922.732 628.167 889.41 691.913C856.088 755.66 807.951 809.691 749.4 849.064C741.687 854.057 733.973 859.05 726.052 863.608C661.838 900.816 589.322 919.689 515.848 918.317C442.375 916.945 370.555 895.375 307.664 855.794C303.912 853.623 300.159 851.018 296.615 848.63C235.94 807.721 186.521 751.089 153.207 684.29C119.893 617.491 103.829 542.821 106.592 467.606C109.355 392.392 130.849 319.218 168.965 255.264C207.082 191.31 260.511 138.773 324.01 102.81C387.509 66.8466 458.896 48.6918 531.166 50.127C603.436 51.5623 674.107 72.5382 736.243 110.997C798.378 149.455 849.845 204.074 885.592 269.495C921.339 334.916 940.138 408.891 940.144 484.16Z" fill="#D3F2FB"/>
<path d="M372.288 291.18C351.442 332.858 302.452 348.271 259.926 364.551C217.399 380.832 170.703 409.92 167.576 457.026C165.491 486.548 181.96 515.202 179.25 543.856C173.413 604.854 96.9066 625.259 61.6762 674.101C49.5534 692.254 42.2612 713.424 40.5403 735.461C38.8194 757.499 42.7312 779.618 51.8783 799.571C71.0281 839.06 103.341 869.929 142.769 886.401C183.39 903.397 227.468 909.463 270.934 904.037C314.401 898.612 355.854 881.871 391.467 855.36C461.981 799.992 509.728 718.858 525.092 628.298C539.821 538.242 533.02 445.794 505.288 359.125C498.512 325.763 480.277 296.123 454.006 275.767C426.072 258.618 381.043 270.558 376.04 303.77" fill="#28324F"/>
<path d="M353.943 375.188C353.943 403.125 358.785 430.788 368.193 456.598C377.601 482.408 391.39 505.86 408.773 525.614C426.156 545.368 446.793 561.038 469.505 571.729C492.218 582.42 516.56 587.922 541.144 587.922C565.728 587.922 590.07 582.42 612.783 571.729C635.495 561.038 656.132 545.368 673.515 525.614C690.898 505.86 704.687 482.408 714.095 456.598C723.503 430.788 728.345 403.125 728.345 375.188C728.345 318.767 708.622 264.658 673.515 224.762C638.408 184.867 590.793 162.454 541.144 162.454C491.495 162.454 443.88 184.867 408.773 224.762C373.666 264.658 353.943 318.767 353.943 375.188Z" fill="#28324F"/>
<path d="M405.642 336.332C405.642 336.332 365.409 303.119 365.826 295.738L353.943 300.731L390.633 348.488L405.642 336.332Z" fill="#FF805E"/>
<path d="M568.661 774.607C568.661 774.607 393.551 717.517 309.957 920.048H790.676C790.676 920.048 756.279 733.146 568.661 774.607Z" fill="#ECA000"/>
<path d="M643.917 568.168L481.523 597.039L480.064 804.781C480.064 804.781 489.445 858.616 573.873 860.135C653.506 861.655 658.926 802.393 658.926 802.393L643.917 568.168Z" fill="#FFCDC2"/>
<path opacity="0.41" d="M479.855 715.129C511.921 716.68 543.885 710.333 573.153 696.603C602.42 682.874 628.164 662.149 648.295 636.113L644.125 568.168L481.523 597.039L479.855 715.129Z" fill="#EB7D7A"/>
<path d="M757.113 473.089C756.763 478.245 755.364 483.265 753.01 487.815C750.656 492.366 747.4 496.343 743.457 499.484C739.515 502.624 734.976 504.856 730.143 506.032C725.309 507.207 720.29 507.299 715.42 506.302C700.202 501.743 680.606 489.587 680.606 473.089C680.606 456.591 703.121 440.745 718.964 440.745C723.537 440.078 728.192 440.4 732.64 441.692C737.088 442.985 741.231 445.218 744.812 448.254C748.393 451.29 751.333 455.063 753.45 459.336C755.566 463.609 756.813 468.291 757.113 473.089Z" fill="#FFC2B0"/>
<path d="M728.345 485.462C726.195 481.586 725.248 477.113 725.635 472.655C725.824 470.105 726.559 467.631 727.785 465.415C729.012 463.199 730.699 461.297 732.723 459.848C734.776 458.373 737.212 457.583 739.706 457.583C742.201 457.583 744.636 458.373 746.69 459.848C747.982 460.995 749.045 462.397 749.817 463.972C750.478 464.852 750.95 465.869 751.202 466.955C751.454 468.041 751.479 469.17 751.276 470.267C750.926 472.561 750.09 474.745 748.828 476.66C747.565 478.575 745.909 480.173 743.98 481.338C741.27 477.648 739.185 473.523 737.934 472.004C736.683 470.484 737.934 472.004 737.934 473.523C737.934 475.043 742.52 474.826 742.52 473.523C742.52 472.221 740.436 475.26 738.351 477.214C735.442 480.482 732.067 483.264 728.345 485.462Z" fill="#FFB09E"/>
<path d="M377.291 473.089C377.697 478.207 379.135 483.179 381.514 487.677C383.892 492.176 387.156 496.101 391.092 499.196C395.028 502.29 399.547 504.484 404.354 505.634C409.16 506.783 414.146 506.863 418.984 505.868C434.202 501.309 453.589 489.153 453.589 472.655C453.589 456.157 431.909 440.745 415.857 440.745C411.253 440.012 406.552 440.286 402.055 441.547C397.558 442.809 393.362 445.032 389.734 448.074C386.107 451.117 383.127 454.912 380.985 459.218C378.843 463.525 377.585 468.249 377.291 473.089Z" fill="#FFC2B0"/>
<path d="M406.476 485.463C403.047 483.625 399.888 481.286 397.095 478.516C394.802 476.563 392.301 473.958 392.717 474.826C393.134 475.694 397.095 474.826 397.512 474.826C397.929 474.826 397.512 472.872 397.512 473.306C397.512 473.741 394.385 478.95 391.675 482.641C389.716 481.488 388.027 479.897 386.729 477.983C385.431 476.068 384.557 473.878 384.17 471.57C383.88 469.355 384.401 467.108 385.63 465.275C386.473 463.748 387.526 462.358 388.757 461.15C390.81 459.675 393.246 458.885 395.74 458.885C398.235 458.885 400.67 459.675 402.724 461.15C404.748 462.599 406.434 464.502 407.661 466.718C408.887 468.934 409.622 471.408 409.812 473.958C409.847 478.056 408.684 482.069 406.476 485.463Z" fill="#FFB09E"/>
<path d="M718.756 430.108C721.674 545.592 669.141 655.867 578.042 657.821C486.943 659.774 421.277 562.09 418.984 446.823C416.691 331.556 477.354 242.772 568.453 240.384C659.552 237.996 716.046 314.624 718.756 430.108Z" fill="#FFD4CA"/>
<path d="M648.295 216.072C615.357 188.069 555.111 200.008 555.111 200.008C527.986 203.004 501.98 212.882 479.374 228.778C456.768 244.673 438.251 266.1 425.446 291.18C402.856 342.157 400.533 400.366 418.984 453.118C507.581 419.037 562.824 318.531 585.755 267.084C593.645 304.685 609.722 339.897 632.745 370.005C655.768 400.114 685.123 424.316 718.547 440.745C718.547 440.745 744.814 297.909 648.295 216.072Z" fill="#28324F"/>
<path d="M637.038 530.18V531.917C637.516 540.306 636.343 548.708 633.589 556.608C630.836 564.507 626.56 571.737 621.025 577.853C615.49 583.97 608.813 588.843 601.403 592.174C593.994 595.505 586.009 597.223 577.938 597.223C569.868 597.223 561.882 595.505 554.473 592.174C547.063 588.843 540.386 583.97 534.851 577.853C529.316 571.737 525.04 564.507 522.287 556.608C519.533 548.708 518.36 540.306 518.838 531.917V530.18" fill="#F28383"/>
<path d="M548.232 462.453C548.232 465.673 547.315 468.82 545.597 471.498C543.879 474.175 541.437 476.262 538.58 477.494C535.723 478.726 532.58 479.049 529.547 478.42C526.514 477.792 523.728 476.242 521.542 473.965C519.355 471.688 517.866 468.787 517.263 465.629C516.659 462.471 516.969 459.197 518.152 456.222C519.336 453.247 521.34 450.705 523.911 448.916C526.482 447.127 529.505 446.172 532.597 446.172C534.658 446.143 536.704 446.544 538.613 447.352C540.523 448.16 542.258 449.358 543.715 450.875C545.172 452.393 546.323 454.199 547.099 456.188C547.875 458.176 548.26 460.306 548.232 462.453ZM648.295 462.453C647.849 466.474 646 470.185 643.098 472.879C640.195 475.573 636.443 477.061 632.556 477.061C628.668 477.061 624.916 475.573 622.014 472.879C619.111 470.185 617.262 466.474 616.817 462.453C617.262 458.431 619.111 454.72 622.014 452.026C624.916 449.333 628.668 447.844 632.556 447.844C636.443 447.844 640.195 449.333 643.098 452.026C646 454.72 647.849 458.431 648.295 462.453Z" fill="#030303"/>
</svg>
