<?xml version="1.0" standalone="no"?><!DOCTYPE svg PUBLIC "-//W3C//DTD SVG 1.1//EN" "http://www.w3.org/Graphics/SVG/1.1/DTD/svg11.dtd"><svg t="1731938348219" class="icon" viewBox="0 0 1024 1024" version="1.1" xmlns="http://www.w3.org/2000/svg" p-id="932" xmlns:xlink="http://www.w3.org/1999/xlink" width="200" height="200">
<path d="M49.6001 498.6C49.6001 617.947 97.0107 732.407 181.402 816.798C265.793 901.189 380.253 948.6 499.6 948.6C618.947 948.6 733.407 901.189 817.798 816.798C902.189 732.407 949.6 617.947 949.6 498.6C949.6 379.253 902.189 264.793 817.798 180.402C733.407 96.0107 618.947 48.6001 499.6 48.6001C380.253 48.6001 265.793 96.0107 181.402 180.402C97.0107 264.793 49.6001 379.253 49.6001 498.6Z" fill="#17DFD2"/>
<path d="M495.4 654.6C523.799 631.872 550.868 607.532 576.475 581.7C573.827 572.574 572.284 563.163 571.881 553.669C545.631 575.85 533.912 583.444 498.981 582.225C461.294 583.519 450.737 574.631 419.594 548.194C419.406 548.044 419.275 547.856 419.087 547.688C419.072 559.184 417.469 570.623 414.325 581.681C439.937 607.514 467.006 631.86 495.4 654.6Z" fill="#F4CCAF"/>
<path d="M460.206 863.269C462.25 849.713 464.256 836.55 466.169 824.119L466.281 823.425C472.431 783.413 477.531 751.481 479.519 740.756C478.566 740.197 477.742 739.443 477.1 738.544C476.867 738.283 476.66 738.001 476.481 737.7C475.474 735.449 474.411 733.224 473.294 731.025L472.619 729.713C466.914 720.589 462.563 710.686 459.7 700.313C459.511 699.306 459.361 698.293 459.25 697.275V696.956C455.116 701.86 452.863 708.075 452.894 714.488C455.106 738.056 381.175 651.188 382.356 617.794C373.803 622.493 364.981 626.688 355.938 630.356C383.786 710.905 418.677 788.844 460.206 863.269ZM208.938 680.588L208.375 680.813H208.713C208.713 680.813 208.863 680.588 208.938 680.588ZM537.981 714.506C538.005 708.106 535.752 701.905 531.625 697.013V697.313C531.515 698.331 531.364 699.344 531.175 700.35C530.808 702.391 530.294 704.402 529.638 706.369C526.439 714.38 522.68 722.155 518.388 729.638L517.656 731.025C516.553 733.215 515.496 735.428 514.488 737.663C514.313 737.966 514.105 738.249 513.869 738.506C513.222 739.409 512.392 740.163 511.431 740.719C513.306 751.331 518.425 782.794 524.556 822.319C524.556 822.9 524.725 823.481 524.819 824.081C526.394 834.244 528.025 844.931 529.675 855.956C570.506 783.73 604.75 707.975 631.994 629.606C624.038 626.326 616.259 622.633 608.688 618.544C608.688 652.388 535.75 737.925 537.981 714.506ZM779.088 680.813C780.49 680.972 781.88 681.223 783.25 681.563C781.679 680.866 780.077 680.241 778.45 679.688C778.806 679.819 778.975 680.25 779.088 680.813Z" fill="#9B9B9B"/>
<path d="M208.787 680.7H208.45C206.549 680.853 204.667 681.18 202.825 681.675C182.837 687.018 169.075 735.412 156.812 789.356C187.261 825.568 223.258 856.723 263.462 881.662C263.264 871.378 262.337 861.121 260.687 850.968C253.262 809.587 202.45 686.231 208.787 680.7ZM783.831 681.675C783.625 681.675 783.456 681.675 783.25 681.562C781.88 681.222 780.49 680.972 779.087 680.812C781.637 693.487 733.919 810.956 726.681 850.968C724.806 862.802 723.84 874.762 723.794 886.743C764.186 862.902 800.58 832.861 831.644 797.719C818.275 740.625 804.85 687.281 783.831 681.675Z" fill="#939393"/>
<path d="M524.556 846.075H513.644V821.381H524.144L524.294 822.357C518.2 782.832 513.156 751.369 511.169 740.757C510.925 740.888 510.738 741.075 510.494 741.207C509.894 741.47 509.264 741.659 508.619 741.769V742.369H502.994L497.125 742.744V742.969L495.25 742.857L493.375 742.969V742.632L487.506 742.256H481.881V741.657C481.235 741.55 480.605 741.361 480.006 741.094C479.763 740.982 479.575 740.775 479.331 740.644C477.456 751.369 472.244 783.3 466.094 823.313L466.413 821.25H476.913V845.944H466V823.988C464.125 836.419 462.081 849.582 460.038 863.138L461.05 856.369V864.844C462.7 867.657 464.35 870.469 465.981 873.132V855.788H476.894V880.482H470.538C474.288 886.519 478.038 892.257 481.788 897.582V890.363H492.7V909.113C494.331 907.238 495.981 905.157 497.631 903.057V890.419H507.006C509.238 887.25 511.506 883.95 513.756 880.538H513.4V855.844H524.556V863.944C526.169 861.3 527.8 858.582 529.413 855.844C527.763 844.857 526.131 834.188 524.556 823.969V846.075ZM513.644 755.044L517.188 776.925H513.644V755.044ZM513.644 786.807H518.744C519.994 794.457 521.281 802.688 522.606 811.5H513.644V786.807ZM492.85 752.232V776.925H481.938V752.232H492.85ZM476.988 811.5H468.006L471.869 786.807H476.988V811.5ZM476.988 776.925H473.444L476.988 754.988V776.925ZM492.85 880.65H481.938V855.957H492.85V880.65ZM492.85 846.075H481.938V821.381H492.85V846.075ZM492.85 811.5H481.938V786.807H492.85V811.5ZM508.694 880.65H497.781V855.957H508.694V880.65ZM508.694 846.075H497.781V821.381H508.694V846.075ZM508.694 811.5H497.781V786.807H508.694V811.5ZM508.694 776.925H497.781V752.232H508.694V776.925Z" fill="#EEEEEE"/>
<path d="M459.194 696.994V697.313V696.975V696.994ZM531.119 700.369C530.745 702.408 530.231 704.419 529.581 706.388C530.238 704.421 530.752 702.409 531.119 700.369Z" fill="white"/>
<path d="M480.194 741.206C480.793 741.467 481.423 741.65 482.069 741.75V717.75H492.981V742.444H487.712L493.581 742.819V743.062L495.456 742.95L497.331 743.062V742.819L503.2 742.444H497.931V717.75H508.844V741.844C509.488 741.739 510.118 741.556 510.719 741.3C510.962 741.187 511.15 740.981 511.394 740.85C512.354 740.294 513.185 739.54 513.831 738.637V717.75H524.706C522.831 721.5 520.562 725.419 518.35 729.769C522.643 722.287 526.402 714.511 529.6 706.5V694.444C528.075 692.531 526.425 690.656 524.65 688.819V707.962H513.737V683.269H519.156C515.537 679.781 511.825 676.481 508.394 673.387H497.894V663.45C496.987 662.475 496.154 661.434 495.4 660.337C494.661 661.424 493.84 662.452 492.944 663.412V673.369H482.425C478.975 676.444 475.281 679.762 471.644 683.25H477.081V707.944H466.15V688.8C464.387 690.675 462.744 692.55 461.219 694.425V706.5C460.569 704.525 460.055 702.508 459.681 700.462C462.544 710.835 466.895 720.738 472.6 729.862C470.369 725.494 468.175 721.537 466.206 717.787H477.081V738.675C477.723 739.574 478.547 740.328 479.5 740.887C479.744 740.887 479.95 741.075 480.194 741.206ZM497.875 683.081H508.787V707.775H497.875V683.081ZM482.012 683.081H492.925V707.775H482.012V683.081Z" fill="white"/>
<path d="M492.944 717.656H482.031V742.35H492.944V717.656ZM482.031 752.231H492.944V776.925H482.031V752.231ZM482.031 683.081H492.944V707.775H482.031V683.081ZM482.031 786.806H492.944V811.5H482.031V786.806ZM482.031 890.531V897.75C485.275 902.4 488.481 906.712 491.631 910.725L492.944 909.225V890.475L482.031 890.531ZM482.031 855.956H492.944V880.65H482.031V855.956ZM482.031 821.381H492.944V846.075H482.031V821.381ZM460.206 863.287L461.219 865.012V856.537L460.206 863.287ZM466.169 707.775H477.081V683.081H471.644C469.769 684.956 467.894 686.831 466.169 688.706V707.775ZM461.219 694.312C460.526 695.18 459.851 696.061 459.194 696.956V697.294C459.306 698.325 459.456 699.337 459.644 700.331C460.017 702.377 460.531 704.394 461.181 706.369L461.219 694.312ZM477.156 717.656H466.281C468.156 721.406 470.425 725.362 472.675 729.731L473.35 731.044C474.419 733.162 475.488 735.337 476.538 737.7C476.716 738.001 476.923 738.283 477.156 738.544V717.637V717.656ZM477.1 855.956H466.188V873.3C467.706 875.812 469.244 878.25 470.744 880.65H477.1V855.956ZM477.1 846.075V821.381H466.6L466.281 823.444L466.169 824.137V846.094L477.1 846.075ZM477.081 776.925V754.987L473.538 776.925H477.081ZM468.119 811.5H477.1V786.844H471.981L468.119 811.5ZM513.719 855.956V880.65H514.056C517.563 875.362 521.088 869.85 524.613 864.056V855.956H513.719ZM513.719 821.381V846.075H524.631V824.119C524.631 823.519 524.463 822.937 524.369 822.356L524.219 821.381H513.719ZM492.925 663.244C490.3 666.094 486.569 669.469 482.406 673.2H492.925V663.244ZM508.375 673.256C504.213 669.506 500.5 666.169 497.875 663.319V673.256H508.375ZM497.875 786.806H508.788V811.5H497.875V786.806ZM497.875 855.956H508.788V880.65H497.875V855.956ZM497.875 821.381H508.788V846.075H497.875V821.381ZM508.769 717.656H497.856V742.35H508.769V717.656ZM497.875 752.231H508.788V776.925H497.875V752.231ZM497.875 903.169C500.988 899.231 504.113 895.019 507.25 890.531H497.875V903.169ZM497.875 683.081H508.788V707.775H497.875V683.081ZM513.719 755.044V776.925H517.263L513.719 755.044ZM513.719 717.656V738.525C513.956 738.267 514.163 737.984 514.338 737.681C515.388 735.337 516.456 733.144 517.506 731.044L518.238 729.656C520.45 725.325 522.644 721.369 524.594 717.637L513.719 717.656ZM529.581 706.387C530.233 704.419 530.747 702.408 531.119 700.369C531.306 699.375 531.456 698.362 531.569 697.331V697.012C530.922 696.104 530.247 695.216 529.544 694.35V706.406L529.581 706.387ZM513.719 707.775H524.631V688.631C522.869 686.744 521.038 684.869 519.138 683.006H513.719V707.775ZM518.819 786.844H513.719V811.537H522.681C521.319 802.712 520.031 794.481 518.819 786.844Z" fill="black"/>
<path d="M452.837 714.506C452.807 708.093 455.06 701.878 459.194 696.975C459.831 696.094 460.506 695.212 461.219 694.331C462.744 692.419 464.387 690.544 466.15 688.706C467.912 686.831 469.75 684.956 471.625 683.081C475.244 679.594 478.956 676.294 482.406 673.2C486.587 669.45 490.3 666.094 492.925 663.244C493.82 662.282 494.641 661.254 495.381 660.169C496.135 661.266 496.969 662.306 497.875 663.281C500.5 666.131 504.212 669.487 508.375 673.219C511.825 676.294 515.519 679.612 519.156 683.1C521.044 684.925 522.875 686.8 524.65 688.725C526.425 690.65 528.069 692.525 529.581 694.35C530.284 695.216 530.96 696.104 531.606 697.012C535.733 701.905 537.986 708.106 537.962 714.506C535.75 737.925 608.687 652.387 608.519 618.506C608.525 617.698 608.488 616.891 608.406 616.087C607.825 611.306 593.856 604.05 580.975 582.337C579.944 580.594 578.537 580.462 576.437 581.794C550.831 607.627 523.762 631.967 495.362 654.694C466.963 631.96 439.888 607.62 414.269 581.794C412.187 580.537 410.781 580.631 409.769 582.356C396.869 604.162 382.919 611.419 382.337 616.106V617.85C381.119 651.206 455.05 738.094 452.837 714.506Z" fill="#828282"/>
<path d="M466.394 932.55C476.074 926.877 484.629 919.473 491.631 910.706C484.158 901.055 477.198 891.016 470.781 880.631C469.263 878.213 467.744 875.775 466.225 873.281C464.706 870.788 462.944 867.788 461.294 864.994L460.281 863.269C418.742 788.864 383.839 710.944 355.975 630.413C352.769 622.144 217.075 676.969 209.125 680.494C201.175 684.019 209.031 680.644 208.975 680.7C202.694 686.231 253.45 809.625 260.95 850.969C262.599 861.122 263.526 871.379 263.725 881.663C324.115 919.112 392.633 941.473 463.488 946.856C464.106 938.4 465.119 933.131 466.394 932.55Z" fill="#292629"/>
<path d="M779.088 680.831C778.975 680.287 778.806 679.837 778.506 679.706C770.744 676.256 634.769 621.187 631.881 629.606C604.632 707.981 570.381 783.743 529.544 855.975C524.617 864.336 519.478 872.57 514.131 880.669C511.863 884.081 509.613 887.381 507.381 890.55C504.194 895.037 501.069 899.25 498.006 903.187C496.338 905.287 494.688 907.312 493.056 909.244L491.744 910.744C484.741 919.51 476.187 926.915 466.506 932.587C465.231 933.225 464.219 938.419 463.394 946.875C474.831 947.756 486.344 948.337 497.988 948.337C577.452 948.433 655.48 927.166 723.906 886.762C723.954 874.781 724.919 862.821 726.794 850.987C733.938 810.975 781.656 693.506 779.088 680.831Z" fill="#1A1A1B"/>
<path d="M498.981 582.244C533.912 583.444 545.556 575.85 571.881 553.687L578.35 548.212C611.05 520.462 594.569 462.525 614.425 466.144C633.925 469.706 656.069 416.887 642.081 403.575C635.294 402.937 629.687 409.35 624.475 418.144C618.606 428.006 620.875 443.231 615.1 442.875C608.869 417.289 607.325 390.786 610.544 364.65C555.831 380.719 499.45 389.025 453.85 355.556C445.175 346.68 433.651 341.144 421.3 339.919C404.95 340.181 398.387 349.894 400.675 365.587C401.819 373.462 402.381 384.094 402.85 388.762C403.177 403.171 398.851 417.301 390.512 429.056C388.075 431.569 382.131 442.012 378.569 442.875C375.662 443.587 377.631 426.544 367.881 411.825C360.175 400.2 356.631 402.769 356.631 402.769C341.031 414.825 363.719 469.744 383.575 466.125C403.431 462.506 387.175 519.75 419.2 547.687C419.387 547.856 419.519 548.044 419.706 548.194C450.737 574.631 461.294 583.537 498.981 582.244Z" fill="#FCD4B5"/>
<path d="M367.825 411.806C377.575 426.506 375.587 443.569 378.512 442.856C382.075 441.994 388.019 431.606 390.456 429.037C398.793 417.282 403.12 403.152 402.794 388.744C402.344 384.075 401.781 373.444 400.619 365.569C398.331 349.875 404.894 340.162 421.244 339.9C433.594 341.125 445.119 346.661 453.794 355.537C499.394 389.006 555.775 380.681 610.487 364.631C607.274 390.768 608.824 417.272 615.062 442.856C620.894 443.212 618.625 427.987 624.437 418.125C629.669 409.331 635.256 402.9 642.044 403.556C642.906 403.626 643.756 403.802 644.575 404.081C661.352 364.075 662.024 319.134 646.45 278.644C630.362 243.994 604.712 227.775 579.269 198.9C581.612 206.719 571.019 218.437 561.025 219.356C550.734 218.649 540.523 217.068 530.5 214.631C497.106 207.515 462.431 209.267 429.925 219.712C412.136 225.447 395.812 234.994 382.094 247.687C363.778 267.191 351.814 291.794 347.781 318.244C345.67 332.224 345.267 346.41 346.581 360.487C347.993 374.96 351.309 389.183 356.444 402.787C356.444 402.787 360.156 400.2 367.825 411.806Z" fill="#554C44"/>
</svg>
