<?xml version="1.0" standalone="no"?><!DOCTYPE svg PUBLIC "-//W3C//DTD SVG 1.1//EN" "http://www.w3.org/Graphics/SVG/1.1/DTD/svg11.dtd"><svg t="1731938348219" class="icon" viewBox="0 0 1024 1024" version="1.1" xmlns="http://www.w3.org/2000/svg" p-id="932" xmlns:xlink="http://www.w3.org/1999/xlink" width="200" height="200">
<path d="M941.053 489.117C941.047 551.83 927.934 613.849 902.554 671.196C877.175 728.544 840.09 779.953 793.678 822.128C775.427 838.686 755.862 853.735 735.178 867.129L727.303 871.629C721.678 875.229 715.828 878.605 709.978 881.98C686.149 895.863 661.063 907.465 635.052 916.631C575.42 936.761 512.229 944.159 449.56 938.345C386.891 932.531 326.139 913.636 271.227 882.88C266.877 880.63 262.602 878.155 258.402 875.454L246.477 868.029C181.029 825.651 127.714 766.995 91.7585 697.809C55.8027 628.623 38.4397 551.281 41.3712 473.364C44.3027 395.447 67.428 319.629 108.481 253.341C149.533 187.052 207.105 132.568 275.552 95.2276C343.999 57.8875 420.974 38.973 498.931 40.338C576.889 41.7029 653.154 63.3005 720.252 103.014C787.351 142.727 842.98 199.194 881.687 266.879C920.394 334.564 940.851 411.145 941.053 489.117Z" fill="#EFEFEF"/>
<path d="M772.753 462.116C772.865 505.917 762.529 549.114 742.603 588.12C721.779 572.183 696.897 562.416 670.793 559.934C644.689 557.452 618.412 562.354 594.958 574.081C571.504 585.809 551.817 603.889 538.14 626.263C524.463 648.636 517.347 674.402 517.602 700.624C517.538 713.643 519.357 726.602 523.002 739.1C513.366 740.193 503.675 740.719 493.977 740.675C439.086 740.497 385.477 724.065 339.914 693.453C294.351 662.84 258.875 619.419 237.961 568.666C217.048 517.913 211.634 462.103 222.402 408.277C233.171 354.45 259.64 305.019 298.47 266.219C337.299 227.42 386.75 200.99 440.584 190.264C494.417 179.539 550.221 184.998 600.956 205.953C651.69 226.908 695.082 262.421 725.656 308.01C756.231 353.599 772.619 407.223 772.753 462.116Z" fill="#8D2F13"/>
<path d="M727.303 871.629C721.678 875.23 715.828 878.605 709.978 881.98C642.923 919.42 567.401 939.076 490.602 939.076C413.803 939.076 338.282 919.42 271.227 881.98C283.919 831.803 312.706 787.17 353.181 754.913C393.656 722.657 443.587 704.556 495.329 703.381C547.071 702.207 597.772 718.024 639.669 748.411C681.565 778.799 712.347 822.08 727.303 871.629Z" fill="#552778"/>
<path d="M571.152 669.123V745.625C571.152 761.738 564.752 777.19 553.359 788.583C541.966 799.977 526.514 806.377 510.402 806.377C494.29 806.377 478.838 799.977 467.446 788.583C456.053 777.19 449.652 761.738 449.652 745.625V664.173C488.091 681.244 531.662 682.696 571.152 668.223" fill="#F7BEA9"/>
<path d="M793.678 822.128C775.427 838.686 755.863 853.735 735.178 867.129L727.303 871.629C721.678 875.23 715.828 878.605 709.978 881.98C686.149 895.863 661.063 907.465 635.053 916.631C630.435 905.348 628.065 893.271 628.078 881.08C627.966 866.634 631.282 852.369 637.753 839.453C611.191 835.481 586.332 823.95 566.145 806.235C545.957 788.521 531.293 765.371 523.902 739.55C520.257 727.052 518.438 714.093 518.502 701.074C518.392 678.252 523.864 655.749 534.442 635.526C545.02 615.304 560.382 597.975 579.191 585.049C598 572.124 619.684 563.995 642.354 561.37C665.024 558.745 687.993 561.704 709.257 569.989C730.522 578.274 749.438 591.634 764.357 608.905C779.275 626.175 789.745 646.832 794.852 669.076C799.959 691.319 799.549 714.474 793.658 736.523C787.767 758.572 776.573 778.845 761.053 795.577C774.149 801.686 785.631 810.78 794.578 822.128" fill="#8D2F13"/>
<path d="M676.678 371.663V515.218C677.316 549.709 667.604 583.6 648.794 612.517C629.985 641.434 602.941 664.051 571.152 677.448C551.689 685.102 530.86 688.673 509.958 687.937C489.057 687.202 468.53 682.176 449.652 673.173C420.521 658.541 396.088 636.016 379.14 608.167C362.192 580.318 353.413 548.266 353.802 515.668V371.663C352.406 327.372 368.627 284.334 398.91 251.983C429.193 219.633 471.067 200.609 515.352 199.082C536.83 199.196 558.052 203.753 577.684 212.465C597.316 221.178 614.933 233.858 629.427 249.709C660.103 282.878 676.998 326.484 676.678 371.663Z" fill="#FBD1BB"/>
<path d="M385.077 514.993C385.483 522.641 383.583 530.235 379.624 536.791C375.664 543.347 369.828 548.564 362.871 551.766C355.914 554.968 348.155 556.007 340.601 554.75C333.046 553.492 326.042 549.996 320.497 544.713C314.952 539.43 311.12 532.604 309.498 525.119C307.876 517.633 308.539 509.834 311.399 502.729C314.26 495.625 319.188 489.542 325.544 485.27C331.901 480.998 339.393 478.732 347.052 478.767C351.928 478.647 356.779 479.489 361.329 481.245C365.879 483.001 370.039 485.637 373.57 489.001C377.101 492.365 379.935 496.392 381.91 500.852C383.884 505.312 384.96 510.117 385.077 514.993Z" fill="#FBD1BB"/>
<path d="M592.752 548.294V550.094C593.265 558.639 592.024 567.198 589.106 575.246C586.189 583.294 581.656 590.66 575.787 596.892C569.918 603.123 562.837 608.089 554.978 611.483C547.12 614.877 538.65 616.628 530.09 616.628C521.53 616.628 513.06 614.877 505.201 611.483C497.343 608.089 490.261 603.123 484.392 596.892C478.523 590.66 473.991 583.294 471.073 575.246C468.156 567.198 466.915 558.639 467.427 550.094V548.294" fill="#F49F83"/>
<path d="M498.702 483.717C498.614 486.989 497.563 490.163 495.68 492.841C493.798 495.52 491.167 497.584 488.118 498.775C485.069 499.967 481.737 500.233 478.537 499.541C475.337 498.848 472.413 497.228 470.129 494.882C467.845 492.537 466.304 489.57 465.697 486.353C465.09 483.136 465.445 479.811 466.717 476.795C467.99 473.779 470.123 471.204 472.851 469.394C475.578 467.584 478.779 466.617 482.052 466.616C486.468 466.616 490.703 468.37 493.826 471.493C496.948 474.615 498.702 478.851 498.702 483.267M603.552 483.717C603.552 487.01 602.576 490.229 600.746 492.967C598.917 495.705 596.317 497.839 593.274 499.1C590.232 500.36 586.884 500.69 583.654 500.047C580.424 499.405 577.458 497.819 575.129 495.49C572.801 493.162 571.215 490.195 570.572 486.965C569.93 483.735 570.26 480.387 571.52 477.345C572.78 474.302 574.914 471.702 577.652 469.872C580.39 468.043 583.609 467.066 586.902 467.066C591.318 467.066 595.553 468.82 598.676 471.943C601.798 475.066 603.552 479.301 603.552 483.717Z" fill="#030303"/>
<path d="M768.703 415.089H605.802L575.427 362.213L544.827 415.089H221.052C232.194 350.541 265.779 292.004 315.88 249.81C365.981 207.615 429.376 184.476 494.877 184.476C560.378 184.476 623.773 207.615 673.874 249.81C723.975 292.004 757.56 350.541 768.703 415.089Z" fill="#8D2F13"/>
<path d="M614.959 410.101H547.179L547.914 408.878H614.225L614.959 410.101Z" fill="#FBD1BB"/>
</svg>
