<?xml version="1.0" standalone="no"?><!DOCTYPE svg PUBLIC "-//W3C//DTD SVG 1.1//EN" "http://www.w3.org/Graphics/SVG/1.1/DTD/svg11.dtd"><svg t="1731938348219" class="icon" viewBox="0 0 1024 1024" version="1.1" xmlns="http://www.w3.org/2000/svg" p-id="932" xmlns:xlink="http://www.w3.org/1999/xlink" width="200" height="200">
<path d="M932.053 472.989C932.087 548.213 913.26 622.246 877.295 688.317C841.33 754.388 789.374 810.389 726.178 851.198C717.853 856.373 709.528 861.548 700.978 866.272C631.671 904.836 553.403 924.398 474.101 922.976C394.8 921.553 317.283 899.197 249.403 858.173C245.353 855.923 241.303 853.223 237.478 850.748C171.99 808.348 118.651 749.65 82.6946 680.416C46.7383 611.181 29.4004 533.788 32.3822 455.831C35.364 377.874 58.563 302.032 99.7028 235.746C140.843 169.46 198.51 115.008 267.046 77.7337C335.581 40.459 412.631 21.6423 490.634 23.1299C568.637 24.6174 644.913 46.3582 711.978 86.2188C779.042 126.079 834.591 182.69 873.174 250.497C911.756 318.303 932.046 394.975 932.053 472.989Z" fill="#EFEFEF"/>
<path d="M733.738 881.982C724.698 887.601 715.659 893.22 706.375 898.35C631.121 940.225 546.137 961.466 460.031 959.921C373.925 958.377 289.757 934.102 216.053 889.555L203.105 881.493C224.231 838.209 257.106 801.74 297.974 776.252C338.841 750.763 386.054 737.284 434.218 737.352H502.38C550.651 737.362 597.946 750.953 638.859 776.572C679.771 802.191 712.65 838.804 733.738 882.226" fill="#E2271E"/>
<path d="M684.632 381.887V507.949C685.349 550.325 673.38 591.948 650.264 627.47C627.148 662.993 593.94 690.794 554.906 707.303C533.024 715.84 509.744 720.231 486.256 720.251C458.354 720.214 430.812 713.954 405.635 701.928C369.741 683.954 339.648 656.214 318.817 621.899C297.986 587.584 287.263 548.087 287.879 507.949V381.887C286.099 327.446 305.984 274.521 343.173 234.721C380.362 194.922 431.819 171.497 486.256 169.585C512.646 169.696 538.728 175.266 562.862 185.945C586.995 196.624 608.658 212.182 626.487 231.639C664.18 272.562 684.958 326.252 684.632 381.887Z" fill="#FBD1BB"/>
<path d="M355.063 218.935V377.734C355.094 409.608 343.896 440.473 323.434 464.912C302.972 489.35 274.554 505.799 243.171 511.369V311.283C243.165 277.764 250.822 244.688 265.558 214.583C280.293 184.477 301.716 158.139 328.19 137.581C345.673 161.098 355.099 189.631 355.063 218.935Z" fill="#8D2F13"/>
<path d="M554.906 705.593V751.522C553.815 770.578 545.476 788.496 531.599 801.601C517.722 814.707 499.357 822.008 480.27 822.008C461.183 822.008 442.818 814.707 428.941 801.601C415.064 788.496 406.725 770.578 405.635 751.522V700.707C431.01 712.002 458.48 717.829 486.256 717.808C509.678 717.791 532.915 713.656 554.906 705.593Z" fill="#F7BEA9"/>
<path d="M326.235 495.489C326.724 504.855 324.393 514.153 319.545 522.181C314.697 530.209 307.553 536.6 299.036 540.528C290.52 544.455 281.021 545.74 271.767 544.215C262.513 542.691 253.929 538.427 247.122 531.975C240.316 525.523 235.6 517.179 233.583 508.02C231.566 498.86 232.341 489.307 235.808 480.592C239.275 471.878 245.275 464.403 253.032 459.133C260.79 453.862 269.95 451.038 279.328 451.026C285.328 450.863 291.302 451.885 296.907 454.031C302.512 456.178 307.639 459.409 311.995 463.538C316.351 467.667 319.851 472.614 322.294 478.097C324.738 483.579 326.077 489.489 326.235 495.489Z" fill="#FBD1BB"/>
<path d="M766.475 342.554C766.411 348.236 764.126 353.668 760.108 357.686C756.089 361.704 750.658 363.989 744.976 364.053H243.171V311.283C243.169 282.407 248.855 253.814 259.904 227.136C270.953 200.457 287.148 176.217 307.566 155.798C327.983 135.379 352.223 119.182 378.9 108.131C405.578 97.0804 434.171 91.3927 463.046 91.3927C491.922 91.3927 520.515 97.0804 547.192 108.131C573.87 119.182 598.109 135.379 618.527 155.798C638.945 176.217 655.14 200.457 666.189 227.136C677.238 253.814 682.924 282.407 682.922 311.283V322.032H744.243C747.087 322.032 749.902 322.596 752.527 323.692C755.151 324.787 757.532 326.393 759.532 328.415C761.531 330.437 763.11 332.836 764.176 335.473C765.242 338.11 765.774 340.932 765.742 343.775" fill="#E2271E"/>
<path d="M581.291 541.908V544.351C581.292 554.457 579.302 564.465 575.435 573.803C571.568 583.141 565.9 591.626 558.754 598.773C551.607 605.92 543.123 611.589 533.786 615.457C524.449 619.325 514.441 621.316 504.334 621.316C494.227 621.316 484.22 619.325 474.882 615.457C465.545 611.589 457.061 605.92 449.915 598.773C442.769 591.626 437.1 583.141 433.233 573.803C429.366 564.465 427.377 554.457 427.378 544.351V541.908" fill="#F49F83"/>
<path d="M465.734 457.133C465.183 462.159 462.797 466.804 459.032 470.179C455.267 473.553 450.39 475.419 445.334 475.419C440.279 475.419 435.401 473.553 431.636 470.179C427.872 466.804 425.485 462.159 424.935 457.133C424.62 454.267 424.914 451.366 425.796 448.621C426.678 445.876 428.128 443.347 430.053 441.2C431.978 439.053 434.333 437.335 436.966 436.159C439.599 434.984 442.451 434.376 445.334 434.376C448.218 434.376 451.069 434.984 453.702 436.159C456.335 437.335 458.691 439.053 460.615 441.2C462.54 443.347 463.991 445.876 464.873 448.621C465.754 451.366 466.048 454.267 465.734 457.133ZM595.705 457.133C595.705 461.192 594.501 465.16 592.246 468.535C589.991 471.909 586.786 474.54 583.036 476.093C579.286 477.646 575.16 478.053 571.179 477.261C567.198 476.469 563.542 474.514 560.672 471.644C557.802 468.774 555.847 465.118 555.055 461.137C554.264 457.156 554.67 453.03 556.223 449.28C557.777 445.53 560.407 442.325 563.782 440.07C567.156 437.815 571.124 436.612 575.183 436.612C580.626 436.612 585.845 438.774 589.694 442.622C593.542 446.471 595.705 451.691 595.705 457.133Z" fill="#030303"/>
</svg>
