<?xml version="1.0" standalone="no"?><!DOCTYPE svg PUBLIC "-//W3C//DTD SVG 1.1//EN" "http://www.w3.org/Graphics/SVG/1.1/DTD/svg11.dtd"><svg t="1731938348219" class="icon" viewBox="0 0 1024 1024" version="1.1" xmlns="http://www.w3.org/2000/svg" p-id="932" xmlns:xlink="http://www.w3.org/1999/xlink" width="200" height="200">
<path d="M490 40C241.465 40 40 240.475 40 487.93C39.9898 560.329 57.5712 631.646 91.2314 695.745C124.891 759.843 173.622 814.803 233.23 855.895C255.37 779.215 310.27 720.985 385.105 692.86C370.48 709.96 386.68 835.06 410.71 818.23L450.31 790.51L489.91 762.745L487.3 760.9L450.355 735.025L392.935 692.545C392.16 691.957 391.293 691.501 390.37 691.195L389.92 691.06L388.795 691.465C392.62 690.07 396.445 688.765 400.36 687.595L403.69 686.56C411.25 684.31 418.9 682.375 426.64 680.71L430.15 680.035C437.125 678.685 444.145 677.515 451.21 676.615L454.9 676.165C459.017 675.695 463.143 675.305 467.275 674.995H512.86C517 675.31 521.095 675.715 525.145 676.165L528.97 676.615C535.945 677.515 542.92 678.64 549.805 680.035L553.54 680.755C557.365 681.565 561.1 682.42 564.79 683.32L565.105 683.41C568.93 684.355 572.665 685.435 576.355 686.56L579.865 687.64C583.735 688.81 587.515 690.115 591.34 691.465L589.945 691.015H589.675C588.527 691.292 587.452 691.814 586.525 692.545L529.555 735.025L492.52 760.9L489.91 762.7L529.555 790.555L569.11 818.23C593.275 835.15 609.295 708.25 594.085 692.5C669.37 720.535 724.585 778.9 746.86 855.85C806.445 814.752 855.154 759.795 888.798 695.706C922.442 631.616 940.013 560.313 940 487.93C940 240.52 738.49 40 490 40ZM490 643.9C443.356 643.866 398.551 625.705 365.048 593.252C331.546 560.798 311.968 516.594 310.45 469.975L310.135 469.75C306.445 400.765 342.085 347.575 387.49 316.165L390.01 314.365L392.575 312.7L397.48 309.64L402.34 306.805L404.5 305.59C430.33 291.415 458.05 283.9 482.8 284.125C485.185 284.035 487.57 283.945 490 283.945C492.25 283.945 494.59 284.035 496.885 284.125C516.685 283.99 538.285 288.76 559.39 297.895C578.007 305.733 595.168 316.656 610.15 330.205C646.645 362.38 672.79 410.17 669.64 469.75L669.46 469.84C667.988 516.475 648.443 560.712 614.955 593.201C581.466 625.69 536.658 643.886 490 643.945V643.9Z" fill="#D3F2FB"/>
<path d="M502.24 260.455C499.665 259.445 496.946 258.852 494.185 258.7C491.293 258.846 488.447 259.485 485.77 260.59C488.47 260.725 491.17 261.625 493.87 263.2C496.398 261.59 499.293 260.646 502.285 260.455H502.24ZM380.11 292.99L385.825 288.49C383.89 289.93 382.045 291.46 380.11 292.99ZM575.545 274.765C597.19 284.17 617.26 296.905 635.035 312.52C617.47 296.666 597.358 283.887 575.545 274.72V274.765ZM459.49 383.62C419.08 454.585 350.59 517.45 283.945 475.87C285.742 530.444 308.688 582.182 347.933 620.147C387.178 658.113 439.647 679.333 494.251 679.321C548.855 679.309 601.315 658.067 640.544 620.085C679.772 582.102 702.696 530.355 704.47 475.78C648.85 510.475 502.87 460.165 459.49 383.62Z" fill="#FFE4D3"/>
<path d="M589.945 692.5L590.215 692.275L591.88 693.94C590.396 692.424 588.896 690.924 587.38 689.44C588.28 690.34 589.09 691.24 589.99 692.05L589.945 692.5ZM593.95 691.87C609.115 707.935 593.095 837.265 568.975 820.03L529.465 791.815L489.865 763.465L450.355 791.815L410.755 820.03C386.77 837.13 370.57 709.645 385.15 692.23C348.53 705.961 315.689 728.184 289.327 757.073C262.964 785.963 243.831 820.694 233.5 858.415C308.448 911.563 398.075 940.076 489.955 940C581.89 940.072 671.568 911.527 746.545 858.325C736.151 820.458 716.889 785.61 690.354 756.665C663.819 727.72 630.773 705.509 593.95 691.87ZM393.34 689.485L388.84 693.985L390.19 692.635L390.73 693.085L390.64 692.185L393.34 689.485Z" fill="#4980F4"/>
<path d="M489.865 761.575C488.965 761.575 488.065 761.44 487.165 761.395L489.775 765.895L492.34 761.395C491.53 761.395 490.72 761.575 489.865 761.575ZM524.47 679.27C526 680.62 527.485 682.285 528.97 683.77C527.485 682.24 526 680.62 524.47 679.27Z" fill="#D5E270"/>
<path d="M496.75 763.33L534.235 737.995L591.88 696.46C592.832 695.74 593.918 695.22 595.075 694.93L595.12 694.84L592.87 694.075C590.316 693.231 587.751 692.421 585.175 691.645C583.96 691.285 582.79 690.88 581.575 690.565C577.816 689.47 574.035 688.45 570.235 687.505L569.92 687.415C566.128 686.499 562.317 685.658 558.49 684.895L554.755 684.175C547.745 682.838 540.691 681.743 533.605 680.89C532.345 680.71 531.085 680.53 529.78 680.44C525.633 679.976 521.477 679.586 517.315 679.27H471.19C467.014 679.569 462.843 679.944 458.68 680.395L454.945 680.845C447.79 681.745 440.68 682.825 433.615 684.22L430.015 684.895C422.218 686.477 414.487 688.369 406.84 690.565L403.465 691.555L395.545 694.075L393.295 694.84L393.34 695.11C394.294 695.409 395.192 695.866 395.995 696.46L454.045 737.995L491.44 763.285L494.185 763.375L496.75 763.33Z" fill="#FEFEFE"/>
<path d="M452.155 382.99C495.22 459.175 640.255 509.215 695.605 474.655L695.785 474.565C699.475 405.265 669.01 349.69 626.575 312.295C608.942 296.767 588.992 284.089 567.445 274.72C542.875 264.055 517.675 258.52 494.68 258.7C491.845 258.7 489.055 258.835 486.31 259.015C493.51 284.665 479.11 335.605 452.155 382.99Z" fill="#454545"/>
<path d="M494.185 258.7C486.656 258.506 479.124 258.506 471.595 258.7C441.445 260.95 423.535 266.8 393.565 283.765L391.09 285.205C389.199 286.304 387.324 287.429 385.465 288.58C383.53 289.75 381.685 291.01 379.795 292.27L376.78 294.25L373.855 296.365C321.25 333.85 279.94 389.515 284.215 472L284.62 472.225C350.545 514.66 418.315 450.445 458.32 377.95C485.185 329.305 501.34 285.025 494.185 258.7Z" fill="#656565"/>
</svg>
