<?xml version="1.0" standalone="no"?><!DOCTYPE svg PUBLIC "-//W3C//DTD SVG 1.1//EN" "http://www.w3.org/Graphics/SVG/1.1/DTD/svg11.dtd"><svg t="1731938348219" class="icon" viewBox="0 0 1024 1024" version="1.1" xmlns="http://www.w3.org/2000/svg" p-id="932" xmlns:xlink="http://www.w3.org/1999/xlink" width="200" height="200">
<path d="M941.879 501.088C941.879 252.859 739.725 50.394 491.879 50.394C244.033 50.394 41.8789 252.859 41.8789 501.088C41.8789 724.354 205.264 910.179 418.494 946.234C450.34 919.886 419.879 861.642 419.879 861.642L561.11 856.095C543.11 897.698 559.725 933.753 568.033 946.234C779.879 910.179 941.879 724.354 941.879 501.088Z" fill="#E5E5E5"/>
<path d="M559.725 854.708L418.494 860.255C418.494 860.255 448.956 919.886 417.11 944.847C440.648 949.007 465.571 950.394 490.494 950.394C516.802 950.394 541.725 947.621 565.264 943.46C558.341 932.366 541.725 897.698 559.725 854.708Z" fill="#EFA873"/>
<path d="M289.725 628.668C289.725 670.271 260.648 704.939 223.263 704.939C187.263 704.939 156.802 671.657 156.802 628.668C156.802 587.066 185.879 552.397 223.263 552.397C260.648 552.397 289.725 587.066 289.725 628.668ZM817.263 628.668C817.263 670.271 788.186 704.939 750.802 704.939C714.802 704.939 684.34 671.657 684.34 628.668C684.34 587.066 713.417 552.397 750.802 552.397C788.186 552.397 817.263 587.066 817.263 628.668Z" fill="#FCBC85"/>
<path d="M750.802 483.06C750.802 372.12 669.11 290.302 487.725 290.302C306.34 290.302 224.648 372.12 224.648 483.06C224.648 594 205.263 887.99 487.725 887.99C770.187 889.377 750.802 595.386 750.802 483.06Z" fill="#FDCC9B"/>
<path d="M388.032 610.64C388.032 627.281 375.571 642.536 358.955 642.536C343.725 642.536 329.878 628.668 329.878 610.64C329.878 593.999 342.34 578.745 358.955 578.745C375.571 578.745 388.032 592.613 388.032 610.64Z" fill="#3B2519"/>
<path d="M354.802 596.773C354.802 600.934 350.648 605.094 346.494 605.094C342.34 605.094 338.187 600.934 338.187 596.773C338.187 592.613 342.34 588.453 346.494 588.453C352.033 587.066 354.802 591.226 354.802 596.773Z" fill="white"/>
<path d="M648.34 610.64C648.34 627.281 635.879 642.536 619.263 642.536C604.033 642.536 590.187 628.668 590.187 610.64C590.187 593.999 602.648 578.745 619.263 578.745C635.879 578.745 648.34 592.613 648.34 610.64Z" fill="#3B2519"/>
<path d="M615.11 596.773C615.11 600.934 610.956 605.094 606.802 605.094C602.648 605.094 598.494 600.934 598.494 596.773C598.494 592.613 602.648 588.453 606.802 588.453C612.34 587.066 615.11 591.226 615.11 596.773Z" fill="white"/>
<path d="M487.725 720.194C460.033 720.194 442.033 699.393 442.033 709.1C442.033 718.807 450.34 738.222 487.725 738.222C525.11 738.222 533.417 718.807 533.417 709.1C533.417 699.393 515.417 720.194 487.725 720.194Z" fill="#FCBC85"/>
<path d="M490.494 789.531C475.263 789.531 465.571 777.051 465.571 783.984C465.571 789.531 469.725 800.625 490.494 800.625C511.263 800.625 515.417 789.531 515.417 783.984C515.417 777.051 505.725 789.531 490.494 789.531Z" fill="#EFA873"/>
<path d="M705.11 266.727C705.11 266.727 606.802 141.919 404.648 189.069C201.109 236.218 185.879 358.252 192.802 477.513C198.34 596.773 214.956 666.111 234.34 657.79C253.725 649.47 244.033 570.425 245.417 552.397C246.802 534.369 266.186 452.551 389.417 465.032C512.648 477.513 617.879 431.75 617.879 431.75C617.879 431.75 659.417 484.447 687.11 495.541C742.494 516.342 724.494 650.856 745.263 650.856C766.033 650.856 871.263 337.451 705.11 266.727Z" fill="#3F3836"/>
</svg>
