<?xml version="1.0" standalone="no"?><!DOCTYPE svg PUBLIC "-//W3C//DTD SVG 1.1//EN" "http://www.w3.org/Graphics/SVG/1.1/DTD/svg11.dtd"><svg t="1731938348219" class="icon" viewBox="0 0 1024 1024" version="1.1" xmlns="http://www.w3.org/2000/svg" p-id="932" xmlns:xlink="http://www.w3.org/1999/xlink" width="200" height="200">
<path d="M50 502.5C50 619.858 96.5151 732.41 179.312 815.395C262.11 898.38 374.407 945 491.5 945C608.593 945 720.89 898.38 803.688 815.395C886.485 732.41 933 619.858 933 502.5C933 385.142 886.485 272.59 803.688 189.605C720.89 106.62 608.593 60 491.5 60C374.407 60 262.11 106.62 179.312 189.605C96.5151 272.59 50 385.142 50 502.5Z" fill="#044878"/>
<path d="M641.034 491.534C621.839 519.43 624.142 554.061 645.641 568.49C667.14 582.919 700.349 572.915 719.352 545.018C738.356 517.122 736.437 482.491 714.746 468.062C693.054 453.633 660.23 464.022 641.034 491.534Z" fill="#FFD1CA"/>
<path d="M674.243 554.638C672.95 554.692 671.688 554.24 670.721 553.379C669.754 552.518 669.158 551.314 669.06 550.021C667.456 541.583 668.262 532.862 671.387 524.863C674.511 516.864 679.826 509.913 686.72 504.809C690.22 502.044 694.323 500.15 698.694 499.28C703.065 498.411 707.579 498.591 711.866 499.807C712.502 500.078 713.077 500.474 713.557 500.972C714.038 501.469 714.415 502.057 714.665 502.703C714.915 503.348 715.034 504.037 715.015 504.729C714.996 505.421 714.839 506.102 714.554 506.733C713.933 507.954 712.886 508.904 711.611 509.4C710.337 509.897 708.924 509.906 707.643 509.426C705.005 509.019 702.31 509.168 699.732 509.864C697.154 510.559 694.749 511.787 692.671 513.467C687.368 517.524 683.313 522.997 680.971 529.258C678.628 535.519 678.093 542.315 679.426 548.867C679.506 549.549 679.45 550.241 679.261 550.902C679.072 551.563 678.754 552.18 678.325 552.717C677.897 553.254 677.366 553.7 676.764 554.03C676.162 554.36 675.501 554.567 674.819 554.638H674.243Z" fill="#FFBAB3"/>
<path d="M330.64 491.534C349.836 519.43 347.725 554.061 326.034 568.49C304.342 582.919 271.326 572.915 252.322 545.018C233.319 517.122 235.238 482.491 256.929 468.062C278.62 453.633 311.445 464.022 330.64 491.534Z" fill="#FFD1CA"/>
<path d="M297.432 554.638C296.75 554.566 296.088 554.359 295.486 554.029C294.885 553.7 294.354 553.253 293.925 552.716C293.497 552.18 293.179 551.563 292.99 550.902C292.801 550.241 292.745 549.549 292.825 548.866C294.135 542.314 293.589 535.526 291.248 529.27C288.907 523.013 284.865 517.539 279.58 513.466C277.502 511.786 275.097 510.559 272.519 509.863C269.941 509.167 267.246 509.018 264.607 509.426C263.307 509.94 261.858 509.926 260.568 509.387C259.278 508.848 258.248 507.827 257.697 506.54C257.414 505.923 257.26 505.256 257.243 504.577C257.226 503.899 257.347 503.225 257.599 502.595C257.85 501.965 258.227 501.393 258.706 500.914C259.184 500.434 259.756 500.057 260.384 499.806C264.678 498.651 269.179 498.502 273.539 499.369C277.9 500.237 282.003 502.098 285.531 504.808C292.424 509.912 297.74 516.864 300.864 524.862C303.989 532.861 304.795 541.582 303.191 550.02C303.119 550.704 302.913 551.367 302.584 551.97C302.255 552.573 301.809 553.105 301.274 553.535C300.738 553.964 300.123 554.283 299.463 554.472C298.804 554.662 298.113 554.718 297.432 554.638Z" fill="#FFBAB3"/>
<path d="M711.098 945C711.098 839.569 599.188 753.955 494.188 752.608C389.187 751.262 271.71 839.569 271.71 945H711.098Z" fill="#5858AF"/>
<path d="M538.337 764.345C524.529 774.813 507.661 780.426 490.348 780.313C472.096 780.775 454.207 775.16 439.479 764.345V668.149H538.337V764.345Z" fill="#FFD1CA"/>
<path d="M680.577 535.399C678.989 586.104 657.775 634.198 621.428 669.502C585.081 704.806 536.452 724.547 485.837 724.547C435.222 724.547 386.594 704.806 350.247 669.502C313.899 634.198 292.686 586.104 291.097 535.399V424.004C290.278 397.857 294.709 371.812 304.127 347.414C313.545 323.016 327.758 300.764 345.922 281.978C364.087 263.192 385.832 248.256 409.867 238.055C433.902 227.855 459.736 222.599 485.837 222.599C511.938 222.599 537.773 227.855 561.808 238.055C585.843 248.256 607.588 263.192 625.752 281.978C643.917 300.764 658.129 323.016 667.547 347.414C676.965 371.812 681.396 397.857 680.577 424.004V535.399Z" fill="#FFE6E1"/>
<path d="M481.902 601.197H480.942C476.206 600.752 471.618 599.305 467.481 596.95C463.345 594.595 459.754 591.387 456.948 587.537L455.22 585.228V469.793C455.269 467.462 456.215 465.239 457.861 463.59C459.506 461.941 461.724 460.992 464.05 460.943C466.359 460.994 468.556 461.948 470.17 463.602C471.785 465.257 472.689 467.479 472.688 469.793V579.456C475.049 582.026 478.249 583.664 481.71 584.074C484.014 583.817 486.235 583.065 488.223 581.87C490.21 580.675 491.917 579.064 493.228 577.148C493.969 576.247 494.881 575.503 495.91 574.957C496.94 574.411 498.067 574.075 499.226 573.968C500.386 573.861 501.556 573.984 502.668 574.332C503.779 574.68 504.812 575.244 505.705 575.993C507.447 577.549 508.521 579.72 508.7 582.052C508.879 584.384 508.149 586.695 506.665 588.499C503.725 592.313 499.982 595.429 495.701 597.624C491.42 599.82 486.708 601.039 481.902 601.197Z" fill="#F47A8F"/>
<path d="M560.412 485.762C561.005 490.51 562.954 494.986 566.026 498.65C569.098 502.313 573.161 505.009 577.726 506.411C582.29 507.814 587.163 507.864 591.755 506.555C596.348 505.247 600.465 502.635 603.611 499.035C606.757 495.435 608.797 491 609.486 486.265C610.176 481.53 609.484 476.696 607.495 472.345C605.507 467.995 602.305 464.313 598.277 461.744C594.249 459.175 589.565 457.828 584.791 457.865C577.88 458.359 571.443 461.566 566.879 466.79C562.314 472.013 559.99 478.831 560.412 485.762ZM349.26 485.762C348.84 492.724 351.189 499.569 355.795 504.798C360.4 510.027 366.886 513.213 373.831 513.659C380.649 512.855 386.936 509.57 391.499 504.428C396.061 499.285 398.582 492.643 398.582 485.762C398.582 478.881 396.061 472.239 391.499 467.096C386.936 461.954 380.649 458.669 373.831 457.865C370.325 457.987 366.88 458.811 363.697 460.288C360.515 461.764 357.659 463.864 355.298 466.463C352.937 469.063 351.118 472.109 349.95 475.424C348.781 478.738 348.285 482.253 348.492 485.762H349.26ZM400.129 436.702H347.724C347.027 436.703 346.337 436.562 345.696 436.289C345.054 436.016 344.474 435.616 343.99 435.113C343.506 434.61 343.129 434.015 342.88 433.362C342.631 432.71 342.516 432.013 342.542 431.315C342.542 429.937 343.088 428.616 344.06 427.642C345.032 426.668 346.35 426.121 347.724 426.121H400.321C401.548 426.356 402.656 427.014 403.452 427.979C404.248 428.945 404.684 430.159 404.684 431.411C404.684 432.664 404.248 433.878 403.452 434.844C402.656 435.809 401.548 436.466 400.321 436.702H400.129ZM611.281 436.702H558.685C557.293 436.652 555.974 436.063 555.008 435.058C554.041 434.053 553.501 432.711 553.502 431.315C553.552 429.92 554.14 428.599 555.142 427.63C556.145 426.661 557.484 426.12 558.877 426.121H611.473C612.7 426.356 613.808 427.014 614.604 427.979C615.401 428.945 615.836 430.159 615.836 431.411C615.836 432.664 615.401 433.878 614.604 434.844C613.808 435.809 612.7 436.466 611.473 436.702H611.281Z" fill="#31296B"/>
<path d="M515.686 652.565L450.997 651.603C449.846 651.604 448.707 651.373 447.647 650.926C446.586 650.479 445.625 649.824 444.82 649C444.016 648.176 443.383 647.198 442.961 646.126C442.538 645.053 442.333 643.906 442.359 642.753C442.409 640.44 443.362 638.238 445.012 636.619C446.663 635.001 448.88 634.095 451.189 634.096L515.878 635.058C517.134 634.871 518.415 634.957 519.634 635.311C520.853 635.665 521.982 636.278 522.943 637.109C523.905 637.94 524.676 638.969 525.204 640.125C525.733 641.282 526.007 642.539 526.007 643.811C526.007 645.084 525.733 646.341 525.204 647.498C524.676 648.654 523.905 649.683 522.943 650.514C521.982 651.344 520.853 651.958 519.634 652.312C518.415 652.666 517.134 652.752 515.878 652.565H515.686Z" fill="#E83F63"/>
<path d="M683.456 460.751C676.738 475.758 606.674 335.889 485.549 335.12C359.434 334.158 295.512 476.335 288.602 460.751C279.772 441.512 273.245 262.781 486.125 262.781C699.005 262.781 691.903 441.512 683.456 460.751Z" fill="#7C4E2E"/>
<path d="M623.374 795.704V945H573.657V769.347C591.214 776.126 607.903 784.974 623.374 795.704ZM409.727 771.848V945H360.01V797.436C375.65 787.198 392.312 778.622 409.727 771.848Z" fill="#FFD77D"/>
<path d="M488.429 733.369C463.649 734.076 438.997 729.58 416.055 720.17C393.112 710.76 372.387 696.645 355.211 678.73C333.288 654.911 316.264 626.996 305.11 596.579C294.117 568.02 286.264 538.345 281.691 508.079C276.22 474.897 273.842 441.275 274.589 407.651C274.42 406.631 274.475 405.587 274.749 404.591C275.023 403.595 275.511 402.67 276.177 401.882C276.844 401.094 277.674 400.46 278.61 400.026C279.545 399.591 280.564 399.366 281.595 399.366C282.627 399.366 283.645 399.591 284.581 400.026C285.517 400.46 286.347 401.094 287.013 401.882C287.68 402.67 288.168 403.595 288.442 404.591C288.716 405.587 288.771 406.631 288.602 407.651C287.986 440.435 290.299 473.208 295.512 505.578C303.574 554.83 322.194 623.129 365.576 668.341C381.378 684.913 400.484 697.965 421.65 706.649C442.816 715.334 465.569 719.456 488.429 718.748C511.164 719.505 533.8 715.422 554.845 706.766C575.889 698.11 594.863 685.079 610.513 668.534C653.127 623.129 670.595 554.83 677.698 505.386C682.453 473.49 684.38 441.234 683.456 408.998C683.378 408.072 683.486 407.141 683.774 406.258C684.062 405.375 684.524 404.56 685.133 403.86C685.742 403.16 686.485 402.59 687.318 402.183C688.151 401.777 689.058 401.543 689.983 401.494C691.836 401.388 693.657 402.013 695.057 403.236C696.456 404.458 697.322 406.181 697.469 408.036C698.887 441.607 697.087 475.237 692.094 508.464C688.029 538.736 680.692 568.475 670.211 597.156C659.542 627.503 642.969 655.426 621.454 679.308C604.352 697.229 583.654 711.313 560.724 720.632C537.795 729.951 513.154 734.292 488.429 733.369Z" fill="#E29C6D"/>
<path d="M526.052 726.829C526.052 731.931 524.03 736.825 520.43 740.433C516.83 744.041 511.948 746.068 506.856 746.068H464.434C461.913 746.068 459.416 745.571 457.087 744.604C454.758 743.638 452.641 742.221 450.858 740.434C449.075 738.647 447.661 736.526 446.696 734.192C445.731 731.857 445.234 729.355 445.234 726.829C445.234 724.302 445.731 721.8 446.696 719.465C447.661 717.131 449.075 715.01 450.858 713.223C452.641 711.436 454.758 710.019 457.087 709.053C459.416 708.086 461.913 707.589 464.434 707.589H507.24C512.265 707.69 517.049 709.761 520.566 713.359C524.084 716.956 526.053 721.792 526.052 726.829Z" fill="#D07735"/>
<path d="M707.451 401.495C703.804 273.362 620.878 170.625 492.46 170.625C364.041 170.625 281.307 273.17 277.468 401.495H707.451Z" fill="#FFC440"/>
<path d="M491.5 156.196C469.598 156.393 447.9 160.43 427.386 168.124L493.419 409.383L558.301 168.124C536.931 160.151 514.301 156.11 491.5 156.196Z" fill="#FFD77D"/>
<path d="M280.348 348.587H702.652C708.075 347.817 713.602 348.321 718.796 350.06C723.991 351.798 728.711 354.724 732.584 358.605C736.456 362.487 739.375 367.217 741.11 372.424C742.845 377.63 743.348 383.17 742.579 388.604C743.381 394.054 742.903 399.616 741.183 404.847C739.463 410.079 736.549 414.836 732.672 418.74C728.795 422.644 724.063 425.588 718.851 427.337C713.64 429.086 708.093 429.592 702.652 428.814H280.348C274.998 429.308 269.606 428.578 264.578 426.68C259.55 424.782 255.017 421.765 251.321 417.857C247.625 413.949 244.862 409.251 243.24 404.117C241.618 398.984 241.179 393.548 241.957 388.22C241.3 382.958 241.832 377.616 243.511 372.588C245.191 367.559 247.977 362.974 251.662 359.169C255.348 355.365 259.839 352.438 264.804 350.607C269.769 348.775 275.081 348.085 280.348 348.587Z" fill="#FFD77D"/>
</svg>
