<?xml version="1.0" standalone="no"?><!DOCTYPE svg PUBLIC "-//W3C//DTD SVG 1.1//EN" "http://www.w3.org/Graphics/SVG/1.1/DTD/svg11.dtd"><svg t="1731938348219" class="icon" viewBox="0 0 1024 1024" version="1.1" xmlns="http://www.w3.org/2000/svg" p-id="932" xmlns:xlink="http://www.w3.org/1999/xlink" width="200" height="200">
<path d="M933 462.707C933.033 537.725 914.207 611.555 878.242 677.444C842.276 743.334 790.321 799.181 727.125 839.879C718.8 845.039 710.475 850.2 701.925 854.912C632.618 893.37 554.349 912.878 475.048 911.46C395.746 910.041 318.229 887.746 250.35 846.834C246.3 844.591 242.25 841.898 238.425 839.43C172.937 797.146 119.598 738.609 83.6412 669.565C47.6849 600.52 30.3471 523.339 33.3288 445.596C36.3106 367.853 59.5097 292.219 100.649 226.115C141.789 160.011 199.456 105.708 267.992 68.5357C336.528 31.3633 413.578 12.5981 491.581 14.0816C569.584 15.5651 645.86 37.2462 712.924 76.9976C779.989 116.749 835.538 173.205 874.12 240.825C912.703 308.445 932.993 384.907 933 462.707Z" fill="#ADEAE8"/>
<path d="M684.92 773.745H324.256C324.256 773.745 184.016 728.218 266.478 582.059C266.478 582.059 292.821 538.193 302.681 452.447C307.416 411.188 304.715 370.876 330.195 337.239C351.933 308.554 384.183 279.216 431.092 261.893C478.381 244.523 530.747 244.523 578.036 261.893C624.945 279.201 657.194 308.554 678.932 337.239C704.413 370.876 701.712 411.188 706.479 452.416C716.307 538.146 742.747 582.059 742.747 582.059C825.16 728.234 684.92 773.745 684.92 773.745Z" fill="#40596B"/>
<path d="M852.838 894.789H147L156.632 854.105C162.493 820.904 176.902 789.61 198.568 763.033C220.233 736.455 248.477 715.425 280.764 701.83C308.239 690.039 338.029 683.96 368.156 683.995H639.231C670.634 683.995 700.573 690.514 727.583 702.311C791.04 729.475 838.405 785.356 850.755 854.105L852.838 894.789Z" fill="#FF7058"/>
<path d="M496.144 675.504H496.176V675.566H496.144V675.504ZM504.149 491.377H504.181V491.439H504.149V491.377Z" fill="#FFD15C"/>
<path d="M365.292 482.327C371.768 508.731 368.351 532.077 357.694 534.436C347.02 536.796 333.157 517.299 326.681 490.911C320.238 464.492 323.622 441.162 334.312 438.787C344.954 436.428 358.833 455.924 365.292 482.327ZM642.779 482.327C636.335 508.731 639.72 532.077 650.41 534.436C661.051 536.796 673.075 516.834 681.39 490.911C686.385 475.435 684.091 443.816 673.759 438.787C664.045 434.053 649.238 455.924 642.779 482.327Z" fill="#F8B64C"/>
<path d="M656.869 559.086C612.026 694.783 504.621 705.09 504.621 705.09C504.621 705.09 397.2 694.783 352.373 559.086C352.373 559.086 328.373 488.288 348.533 429.318C348.533 429.318 360.834 328.687 504.637 328.687C648.441 328.687 660.774 429.318 660.774 429.318C680.82 488.304 656.869 559.086 656.869 559.086Z" fill="#FFD15C"/>
<path d="M504.605 705.105C504.605 705.105 443.914 699.253 394.71 638.716V683.948L499.87 750.043L613.702 683.948V639.647C564.661 699.284 504.605 705.105 504.605 705.105Z" fill="#F8B64C"/>
<path d="M578.996 349.114C578.996 349.114 497.739 439.609 313.827 491.423L330.261 376.464C341.487 343.008 363.09 313.589 392.214 292.093C421.338 270.598 456.613 258.037 493.378 256.072C609.749 249.863 719.513 357.48 693.626 465.904L687.589 486.642C687.589 486.627 572.325 438.181 578.996 349.114Z" fill="#40596B"/>
<path d="M665.249 343.293C561.414 307.638 447.797 307.638 343.961 343.293L306.245 243.36C365.358 206.261 433.175 178.522 506.769 163C576.668 178.397 643.11 205.613 702.949 243.36L665.249 343.293Z" fill="#ACB3BA"/>
<path d="M332.832 686.789V845.707H298.483V695.155C309.548 691.445 321.116 688.636 332.832 686.789ZM701.354 692.827V845.707H667.039V685.842C678.754 687.239 690.29 689.583 701.354 692.827ZM298.483 845.707H701.387V896H298.483V845.707Z" fill="#CDD6E0"/>
<path d="M504.604 705.105C504.604 705.105 481.727 702.839 452.716 687.161L511.536 743.275L613.701 683.948V639.647C564.661 699.284 504.604 705.105 504.604 705.105Z" fill="#40596B"/>
<path d="M555.011 715.226L499.901 743.182L444.791 715.226C442.834 714.236 440.641 713.745 438.426 713.802C436.212 713.859 434.05 714.461 432.151 715.549C430.252 716.638 428.68 718.176 427.587 720.015C426.495 721.854 425.92 723.931 425.917 726.045V774.009C425.923 776.122 426.5 778.197 427.593 780.033C428.687 781.87 430.259 783.407 432.158 784.493C434.056 785.58 436.217 786.181 438.431 786.237C440.644 786.293 442.835 785.802 444.791 784.813L499.901 756.872L555.011 784.813C556.968 785.802 559.159 786.293 561.372 786.237C563.586 786.181 565.746 785.58 567.645 784.493C569.544 783.407 571.116 781.87 572.209 780.033C573.303 778.197 573.88 776.122 573.886 774.009V726.045C573.883 723.931 573.308 721.854 572.215 720.015C571.123 718.176 569.551 716.638 567.652 715.549C565.753 714.461 563.591 713.859 561.376 713.802C559.161 713.745 556.969 714.236 555.011 715.226Z" fill="#CDD6E0"/>
</svg>
