<?xml version="1.0" standalone="no"?><!DOCTYPE svg PUBLIC "-//W3C//DTD SVG 1.1//EN" "http://www.w3.org/Graphics/SVG/1.1/DTD/svg11.dtd"><svg t="1731938348219" class="icon" viewBox="0 0 1024 1024" version="1.1" xmlns="http://www.w3.org/2000/svg" p-id="932" xmlns:xlink="http://www.w3.org/1999/xlink" width="200" height="200">
<path d="M490.074 939.914C401.075 939.902 314.079 913.502 240.085 864.053C166.091 814.604 108.423 744.327 74.3735 662.108C40.3238 579.889 31.4213 489.42 48.7917 402.142C66.1622 314.864 109.025 234.696 171.962 171.776C234.898 108.855 315.08 66.0073 402.37 48.6509C489.66 31.2945 580.136 40.2087 662.359 74.2664C744.582 108.324 814.859 165.996 864.303 239.989C913.747 313.981 940.137 400.973 940.137 489.962C940.12 609.303 892.696 723.75 808.295 808.13C723.893 892.511 609.427 939.914 490.074 939.914Z" fill="#E5E7E9"/>
<path d="M600.708 733.537C598.239 732.672 595.735 731.913 593.201 731.26C592.4 731.26 590.924 733.537 589.448 736.49L586.486 743.996C586.486 743.996 585.694 746.273 585.01 749.225V750.017C585.01 751.493 584.209 752.294 584.209 753.77C581.932 761.96 579.771 770.943 577.503 779.124C576.027 785.037 573.75 792.543 572.273 799.933C572.095 801.498 571.592 803.009 570.797 804.37C570.797 805.171 570.005 805.846 570.005 806.647C569.204 809.599 568.529 812.56 567.728 816.313V817.114C566.156 822.814 564.676 828.539 563.29 834.287C559.537 847.706 555.783 861.801 552.147 876.813C548.51 891.826 542.137 916.415 537.024 936.17C613.966 927.61 687.542 899.934 751.047 855.663C723.769 815.53 688.911 781.113 648.433 754.346C645.303 752.437 642.076 750.692 638.766 749.117C632.852 746.156 626.821 743.204 620.907 740.927C618.63 740.126 617.154 739.451 614.993 738.65L620.223 741.602C615.785 739.325 611.222 737.849 606.01 735.688C604.417 735.004 602.257 734.212 600.663 733.528L600.708 733.537Z" fill="#051B2F"/>
<path d="M495.115 759.719L559.258 720.946V664.316C618.162 638.962 665.131 580.856 685.942 516.711C711.298 512.958 741.893 437.679 707.545 414.603C707.22 420.767 705.171 426.717 701.631 431.775L699.353 434.052C695.017 449.448 688.751 464.232 680.703 478.055C674.789 463.843 678.426 447.454 679.227 431.892C675.167 428.451 671.642 424.426 668.767 419.949C650.909 396.071 627.028 387.881 600.988 373.786C555.495 348.432 505.574 329.1 452.692 331.26C420.028 332.839 388.381 343.124 361.032 361.051C347.377 370.204 334.654 380.677 323.047 392.318C316.873 399.668 311.138 407.377 305.872 415.404C305.208 418.355 304.942 421.382 305.08 424.404C304.288 442.26 310.994 461.701 303.604 478.073C295.318 463.241 288.828 447.475 284.269 431.109C279.832 429.633 278.356 422.109 278.356 414.738C240.37 439.299 279.148 526.512 305.197 516.846C325.324 580.982 371.501 638.287 429.613 663.65H430.405C450.598 672.604 472.459 677.178 494.548 677.07C516.132 677.26 537.492 672.678 557.098 663.65V682.299C520.588 702.423 475.105 699.471 429.613 683.091V719.596L430.405 718.804L495.115 759.737V759.719Z" fill="#FCE9E0"/>
<path d="M697.967 279.931C693.262 270.541 687.376 261.79 680.451 253.893C658.47 227.855 630.044 208.406 599.35 205.453C583.532 204.067 567.731 208.295 554.721 217.397C553.938 217.397 552.489 217.397 551.823 216.605C546.628 207.172 539.659 198.832 531.3 192.043C518.691 181.152 503.837 173.172 487.794 168.672C471.751 164.172 454.914 163.261 438.479 166.005C423.693 169.96 409.453 175.728 396.083 183.178C377.986 191.86 360.404 201.578 343.426 212.285C327.359 223.427 311.3 236.162 292.218 236.846C278.397 235.68 265.089 231.066 253.512 223.427C254.24 240.517 258.908 257.208 267.152 272.196C275.397 287.184 286.994 300.064 301.039 309.83C303.083 310.899 305.023 312.156 306.836 313.583C297.386 330.527 290.719 348.878 287.087 367.936C283.672 384.611 282.434 401.659 283.405 418.653V433.512C284.189 441.018 284.855 448.408 289.202 449.884C293.663 466.227 300.028 481.989 308.168 496.847C315.531 480.476 308.168 461.026 309.617 443.178C309.617 440.226 310.4 437.265 310.4 434.178C315.52 426.135 321.145 418.424 327.242 411.092C338.256 399.099 350.782 388.589 364.507 379.825C391.229 361.935 422.31 351.638 454.429 350.034C506.304 347.757 555.243 367.207 599.908 392.561C625.453 406.772 648.883 414.963 666.4 438.723C669.182 443.211 672.643 447.24 676.661 450.667C675.878 466.363 671.531 482.735 678.111 496.838C686.019 482.99 692.166 468.208 696.41 452.836L698.642 450.559C701.794 445.321 703.775 439.462 704.448 433.386C704.448 431.109 705.231 428.157 705.231 425.196C711.145 381.193 710.479 305.231 697.976 279.877L697.967 279.931Z" fill="#5B534F"/>
<path d="M557.719 679.185V660.536C537.975 669.261 516.647 673.829 495.061 673.955C473.013 673.674 451.229 669.117 430.918 660.536H430.126V680.661C476.5 696.249 521.993 699.201 557.719 679.185Z" fill="#F7D6C4"/>
<path d="M622.564 737.966L560.698 707.365L559.222 708.166L495.079 746.939L431.737 706.68L430.936 707.482L361.68 741.026C366.773 738.709 372.014 736.734 377.369 735.112C378.846 734.32 381.123 733.636 382.599 732.835C384.876 732.043 387.037 731.359 390.106 730.558C390.898 730.558 392.383 732.835 393.86 735.787L396.812 743.294C396.812 743.294 397.604 745.571 398.288 748.523V749.315C398.288 750.791 399.08 751.592 399.08 753.068C401.358 761.258 403.518 770.241 405.786 778.422C407.263 784.335 409.54 791.841 411.016 799.231C411.195 800.796 411.698 802.307 412.492 803.668C413.284 807.421 414.77 811.858 415.445 815.611V816.412L442.962 793.326L458.66 779.907L437.732 758.981L494.368 748.523L553.272 758.981L527.231 785.019L540.652 799.231L563.056 823.792L577.269 805.936C577.269 805.144 578.061 804.46 578.061 803.659C578.854 802.183 578.854 800.698 579.538 799.222C581.815 791.715 583.291 785.01 584.767 778.413C587.045 770.232 589.205 761.24 591.473 753.059C591.473 751.583 592.274 750.782 592.274 749.306V748.514C593.076 745.562 593.751 743.285 593.751 743.285L596.703 735.778C598.179 732.826 599.664 730.549 600.457 730.549C602.734 731.35 604.894 732.025 607.964 732.826C609.44 733.627 611.717 734.302 613.193 735.103C618.04 736.802 622.785 738.776 627.406 741.017L622.564 737.966Z" fill="white"/>
<path d="M403.428 742.394L400.466 734.887C398.99 731.935 397.514 729.658 396.713 729.658C394.435 730.45 392.275 731.134 389.206 731.935C387.729 732.727 385.452 733.411 383.976 734.212C378.746 736.489 373.516 737.965 368.287 740.126C367.486 740.918 366.009 740.918 365.325 741.602C362.373 743.078 358.619 744.563 355.658 746.039C354.866 746.831 353.381 746.831 352.696 747.515C349.544 748.981 346.531 750.732 343.695 752.744C339.539 754.957 335.547 757.466 331.751 760.25C321.003 767.134 311.015 775.138 301.956 784.128C278.476 808.063 258.456 835.161 242.476 864.636C305.659 905.864 377.972 931.007 453.105 937.871C447.642 917.171 441.404 890.791 437.641 874.986C433.888 860.775 430.134 845.879 426.498 832.46C425.022 826.546 423.545 821.317 422.06 815.287V814.72C421.259 810.283 419.783 806.53 419.099 802.777C418.307 801.301 418.307 799.825 417.623 798.34C415.345 790.833 413.869 784.128 412.393 777.414C410.115 769.224 407.955 760.241 405.687 752.06C405.687 750.584 404.895 749.783 404.895 748.307V747.623C404.103 744.662 403.419 742.394 403.419 742.394H403.428Z" fill="#051B2F"/>
<path opacity="0.53" d="M629.225 740.918C628.433 740.918 628.433 740.126 627.748 740.126C623.311 737.849 618.747 736.373 613.535 734.212C612.059 733.42 609.782 732.736 608.306 731.935C605.837 731.07 603.332 730.311 600.799 729.658C600.007 729.658 598.521 731.935 597.045 734.888L594.084 742.394C594.084 742.394 593.283 744.671 592.608 747.623V748.415C592.608 749.891 591.815 750.692 591.815 752.168C589.538 760.358 587.378 769.341 585.109 777.522C583.633 783.435 581.356 790.941 579.88 798.448C579.701 800.013 579.198 801.524 578.404 802.885C578.404 803.677 577.611 804.361 577.611 805.162C576.819 808.114 576.135 811.075 575.334 814.828V815.62C573.762 821.32 572.283 827.045 570.897 832.793C566.932 846.902 563.217 861.079 559.753 875.319C554.617 895.934 549.349 916.515 543.947 937.061C559.419 935.249 574.791 932.669 590.006 929.33L617.19 867.129L612.752 861.216L591.149 831.425L641.871 836.654V747.281C638.526 746.087 635.291 744.602 632.204 742.844C631.385 741.719 629.909 741.719 629.225 740.918ZM430.891 875.103C427.137 860.892 423.384 845.996 419.747 832.577C418.271 826.664 416.786 821.434 415.31 815.404V814.72C414.518 810.283 413.032 806.53 412.357 802.777C411.565 801.301 411.565 799.825 410.881 798.34C408.604 790.833 407.128 784.128 405.651 777.414C403.374 769.224 401.214 760.241 398.945 752.051C398.945 750.575 398.153 749.774 398.153 748.298V747.614C397.361 744.653 396.677 742.385 396.677 742.385L393.725 734.878C392.249 731.917 390.763 729.649 389.971 729.649C387.694 730.441 385.534 731.125 382.464 731.926C380.988 732.727 378.711 733.402 377.234 734.203C372.005 736.481 366.775 737.957 361.545 740.117C360.744 740.909 359.268 740.909 358.584 741.593C355.631 743.069 351.878 744.545 348.917 746.03V834.719L399.639 829.49L378.828 859.398L374.39 866.112L401.232 931.499C416.012 934.377 430.928 936.504 445.923 937.871C440.991 916.93 435.98 896.007 430.891 875.103Z" fill="white"/>
<path d="M541.228 799.024L527.808 784.92L512.911 799.816L506.205 806.521L507.681 817.663L509.157 831.083L515.863 880.323L524.279 938.654C530.624 938.216 536.957 937.616 543.272 936.854C548.501 916.613 555.216 890.683 559.078 875.112C562.831 860.901 566.585 846.005 570.222 832.586C571.698 826.673 573.174 821.443 574.659 815.413V814.729C575.451 811.777 576.135 808.024 576.936 805.063L563.516 823.711L541.228 799.042V799.024ZM458.552 779.691L442.854 793.11L415.337 816.196C416.813 821.425 418.298 827.339 419.775 833.369C423.528 846.788 427.282 860.883 430.918 875.895C434.555 890.908 440.468 916.946 445.248 937.871C452.296 938.555 459.461 939.005 466.626 939.464L472.54 881.133L478.454 830.417L479.93 817.816L481.406 804.397L477.653 800.644L458.552 779.718V779.691Z" fill="#EDEDED"/>
<path d="M516.664 879.531L509.958 830.291L508.482 816.988L507.005 805.846L513.711 799.132L527.924 784.92L553.965 758.882L495.061 748.424L438.425 758.882L459.353 779.808L478.687 799.141L482.441 802.894L480.965 816.313L479.489 828.914L473.575 879.63L467.544 939.446C486.831 940.406 506.16 940.139 525.413 938.645L516.655 879.513L516.664 879.531Z" fill="#051B2F"/>
</svg>
