<?xml version="1.0" standalone="no"?><!DOCTYPE svg PUBLIC "-//W3C//DTD SVG 1.1//EN" "http://www.w3.org/Graphics/SVG/1.1/DTD/svg11.dtd"><svg t="1731938348219" class="icon" viewBox="0 0 1024 1024" version="1.1" xmlns="http://www.w3.org/2000/svg" p-id="932" xmlns:xlink="http://www.w3.org/1999/xlink" width="200" height="200">
<path d="M40 490C40 609.347 87.4106 723.807 171.802 808.198C256.193 892.589 370.653 940 490 940C609.347 940 723.807 892.589 808.198 808.198C892.589 723.807 940 609.347 940 490C940 370.652 892.59 256.193 808.198 171.802C723.807 87.4106 609.348 40 490 40C370.653 40 256.194 87.4106 171.803 171.802C87.4114 256.193 40 370.652 40 490Z" fill="#66CBFF"/>
<path d="M781.862 783.716V939.516H199.138V783.716C199.13 755.219 209.049 727.465 227.447 704.512C245.846 681.558 271.758 664.606 301.399 656.135L330.25 647.843L388.526 631.135L432.224 618.558C432.224 625.583 433.732 632.539 436.66 639.03C439.589 645.52 443.882 651.417 449.293 656.385C454.704 661.352 461.129 665.293 468.199 667.981C475.269 670.67 482.847 672.053 490.5 672.053C498.153 672.053 505.731 670.67 512.801 667.981C519.872 665.293 526.296 661.352 531.707 656.385C537.119 651.417 541.411 645.52 544.34 639.03C547.268 632.539 548.776 625.583 548.776 618.558L592.474 631.135L650.75 647.843L679.601 656.135C709.242 664.606 735.155 681.558 753.553 704.512C771.951 727.465 781.871 755.219 781.862 783.716Z" fill="#5AAAE7"/>
<path d="M650.75 752.328H330.25C322.528 752.344 315.127 755.167 309.666 760.18C304.206 765.193 301.13 771.986 301.112 779.075V939.516H679.888V779.044C679.861 771.961 676.782 765.175 671.322 760.169C665.862 755.163 658.466 752.344 650.75 752.328Z" fill="#FFAB15"/>
<path d="M548.776 538.314V618.558C548.776 625.583 547.268 632.539 544.34 639.03C541.411 645.52 537.118 651.417 531.707 656.385C526.296 661.352 519.871 665.293 512.801 667.981C505.731 670.67 498.153 672.053 490.5 672.053C482.847 672.053 475.269 670.67 468.199 667.981C461.128 665.293 454.704 661.352 449.293 656.385C443.881 651.417 439.589 645.52 436.66 639.03C433.731 632.539 432.224 625.583 432.224 618.558V538.314H548.776Z" fill="#FFD6CF"/>
<path d="M548.776 538.314V580.61C530.406 588.015 510.562 591.839 490.5 591.839C470.437 591.839 450.593 588.015 432.224 580.61V538.314H548.776Z" fill="#FFC1B6"/>
<path d="M694.415 404.591C694.415 415.23 689.811 425.433 681.616 432.956C673.421 440.479 662.306 444.705 650.717 444.705H621.612V364.462H650.75C662.336 364.474 673.442 368.707 681.629 376.232C689.816 383.756 694.415 393.956 694.415 404.591ZM359.388 364.462V444.705H330.251C318.807 444.499 307.909 440.181 299.895 432.679C291.882 425.177 287.394 415.09 287.394 404.583C287.394 394.077 291.882 383.989 299.895 376.487C307.909 368.986 318.807 364.668 330.251 364.462H359.388Z" fill="#FFD6CF"/>
<path d="M679.888 859.272H781.862V939.516H679.888V859.272Z" fill="#FFE9E5"/>
<path d="M802.405 813.666C799.732 811.154 796.536 809.161 793.007 807.806C789.477 806.45 785.687 805.76 781.862 805.777H679.888V859.272H781.862C789.583 859.252 796.981 856.427 802.441 851.415C807.9 846.404 810.977 839.612 811 832.524C811.011 829.014 810.256 825.536 808.78 822.298C807.304 819.059 805.136 816.124 802.405 813.666Z" fill="#3D9AE2"/>
<path d="M592.474 631.135V779.044C592.474 786.138 595.543 792.942 601.008 797.958C606.472 802.974 613.884 805.792 621.611 805.792C629.339 805.792 636.751 802.974 642.215 797.958C647.679 792.942 650.749 786.138 650.749 779.044V647.843L592.474 631.135ZM330.25 752.328V779.075C330.25 786.169 333.319 792.973 338.784 797.989C344.248 803.005 351.66 805.823 359.387 805.823C367.115 805.823 374.527 803.005 379.991 797.989C385.455 792.973 388.525 786.169 388.525 779.075V631.135L330.25 647.843V752.328Z" fill="#FFD112"/>
<path d="M636.189 361.12V431.339C636.189 435.887 635.886 440.296 635.448 444.705C631.811 477.669 614.972 508.22 588.195 530.436C561.418 552.653 526.61 564.953 490.517 564.953C454.424 564.953 419.616 552.653 392.839 530.436C366.062 508.22 349.223 477.669 345.586 444.705C345.148 440.296 344.844 435.887 344.844 431.339V361.12C347.176 361.366 349.536 361.277 351.838 360.857L459.205 342.943C479.919 339.462 501.149 339.462 521.862 342.943L629.196 360.935C631.502 361.329 633.862 361.391 636.189 361.12ZM199.138 859.272H301.112V939.516H199.138V859.272Z" fill="#FFE9E5"/>
<path d="M199.138 805.777C191.41 805.777 183.999 808.595 178.534 813.611C173.07 818.627 170 825.431 170 832.525C170 839.619 173.07 846.422 178.534 851.438C183.999 856.454 191.41 859.272 199.138 859.272H301.112V805.777H199.138Z" fill="#3D9AE2"/>
<path d="M199.138 859.272H301.112V886.02H199.138V859.272ZM679.888 859.272H781.862V886.02H679.888V859.272Z" fill="#FFC1B6"/>
<path d="M640.487 305.366C645.012 306.022 649.306 307.646 653.02 310.109C656.735 312.571 659.765 315.802 661.865 319.54C663.966 323.277 665.078 327.417 665.112 331.623C665.145 335.828 664.099 339.982 662.058 343.747L660.592 346.548C658.264 350.705 654.798 354.234 650.534 356.79C646.271 359.345 641.356 360.837 636.274 361.12V304.825L640.487 305.366ZM636.189 304.825V361.12C633.857 361.366 631.498 361.277 629.195 360.857L521.829 342.943C501.115 339.462 479.885 339.462 459.171 342.943L351.804 360.935C349.502 361.355 347.143 361.443 344.811 361.198V304.825L416.939 294.522L455.11 289.184C478.573 285.97 502.427 285.97 525.89 289.184L564.044 294.522L636.189 304.825Z" fill="#3D9AE2"/>
<path d="M636.19 297.6V304.825L564.061 294.522L588.548 181.93L612.731 186.339C619.337 187.547 625.284 190.818 629.56 195.596C633.837 200.373 636.179 206.362 636.19 212.546V297.6Z" fill="#78B9EB"/>
<path d="M588.547 181.93L564.061 294.522L525.89 289.184C502.426 285.97 478.573 285.97 455.11 289.184L416.939 294.522L392.452 181.93L467.631 168.007C482.737 165.331 498.262 165.331 513.368 168.007L588.547 181.93Z" fill="#1E81CE"/>
<path d="M392.452 181.93L416.922 294.522L344.811 304.825V212.546C344.821 206.362 347.163 200.373 351.44 195.596C355.716 190.818 361.663 187.547 368.269 186.339L392.452 181.93Z" fill="#78B9EB"/>
<path d="M344.811 304.825V361.12C339.728 360.837 334.814 359.345 330.55 356.79C326.286 354.234 322.82 350.705 320.493 346.548L319.026 343.747C316.974 339.983 315.919 335.828 315.947 331.619C315.975 327.409 317.085 323.266 319.188 319.525C321.29 315.784 324.325 312.552 328.045 310.092C331.766 307.631 336.067 306.012 340.598 305.366L344.811 304.825Z" fill="#3D9AE2"/>
<path d="M490.5 485.732C474.338 485.732 459.289 480.766 449.228 472.087C446.225 469.5 444.464 465.924 444.333 462.145C444.201 458.367 445.711 454.695 448.529 451.938C451.347 449.18 455.243 447.564 459.359 447.443C463.476 447.323 467.476 448.709 470.479 451.296C473.85 454.173 480.81 457.236 490.5 457.236C500.19 457.236 507.184 454.142 510.521 451.296C513.522 448.709 517.52 447.322 521.635 447.441C525.75 447.56 529.645 449.175 532.463 451.93C535.281 454.685 536.791 458.355 536.661 462.132C536.532 465.91 534.773 469.485 531.772 472.072C521.66 480.751 506.661 485.732 490.5 485.732Z" fill="#FFC1B6"/>
</svg>
