<?xml version="1.0" standalone="no"?><!DOCTYPE svg PUBLIC "-//W3C//DTD SVG 1.1//EN" "http://www.w3.org/Graphics/SVG/1.1/DTD/svg11.dtd"><svg t="1731938348219" class="icon" viewBox="0 0 1024 1024" version="1.1" xmlns="http://www.w3.org/2000/svg" p-id="932" xmlns:xlink="http://www.w3.org/1999/xlink" width="200" height="200">
<path d="M940.053 480.879C940.087 554.581 921.26 627.115 885.295 691.848C849.33 756.582 797.374 811.449 734.178 851.432C725.853 856.502 717.528 861.572 708.978 866.201C639.671 903.984 561.402 923.15 482.101 921.756C402.799 920.363 325.283 898.46 257.403 858.265C253.353 856.061 249.303 853.416 245.478 850.991C179.99 809.449 126.651 751.94 90.6944 684.107C54.7382 616.274 37.4003 540.448 40.3821 464.069C43.3639 387.69 66.5629 313.383 107.703 248.439C148.843 183.495 206.51 130.146 275.045 93.6258C343.581 57.1057 420.631 38.6699 498.634 40.1274C576.637 41.5848 652.913 62.8854 719.977 101.939C787.042 140.993 842.591 196.458 881.173 262.891C919.756 329.325 940.046 404.445 940.053 480.879Z" fill="#FFC2B0"/>
<path d="M844.653 587.79C832.503 567.29 832.053 557.37 833.628 552.521C836.728 545.389 839.212 538.015 841.053 530.477C853.428 460.819 833.628 430.62 790.878 411.662C761.276 397.042 736.882 373.988 720.903 345.531C718.834 339.6 716.43 333.787 713.703 328.117C693.953 290.223 665.163 257.557 629.778 232.889C569.928 187.258 465.978 173.15 366.528 232.889C328.312 255.079 297.45 287.611 277.653 326.574C274.903 332.207 272.572 338.027 270.678 343.988C254.652 372.486 230.172 395.547 200.478 410.119C157.953 429.077 138.153 459.276 150.303 528.934C152.241 536.445 154.722 543.812 157.728 550.978C159.528 555.827 157.728 565.747 146.703 586.247C125.778 623.942 98.5534 666.266 175.053 696.245C251.553 726.224 741.828 723.359 816.078 695.143C890.328 666.927 865.578 622.84 844.653 587.79Z" fill="#3B2143"/>
<path d="M526.054 791.473C526.054 791.473 336.154 733.278 245.704 940.047H767.028C767.028 940.047 729.678 749.37 526.054 791.473Z" fill="#FFEDD9"/>
<path d="M597.153 580.957L420.078 610.495L418.278 822.555C418.278 822.555 428.403 877.443 520.203 878.986C606.603 880.309 612.228 819.91 612.228 819.91L597.153 580.957Z" fill="#FFCDC2"/>
<path opacity="0.41" d="M418.954 730.853C453.86 732.542 488.681 726.136 520.584 712.155C552.487 698.174 580.571 677.014 602.554 650.394L598.054 580.957L420.979 610.495L418.954 730.853Z" fill="#EB7D7A"/>
<path d="M707.403 485.729C707.056 490.984 705.569 496.105 703.041 500.753C700.513 505.4 697.002 509.465 692.744 512.678C688.485 515.891 683.576 518.177 678.344 519.383C673.112 520.59 667.678 520.69 662.403 519.676C645.978 515.047 625.053 502.923 625.053 485.729C625.053 468.535 649.128 452.002 666.453 452.002C671.437 451.389 676.497 451.791 681.315 453.185C686.133 454.578 690.605 456.932 694.45 460.099C698.295 463.266 701.431 467.178 703.66 471.588C705.889 475.999 707.163 480.813 707.403 485.729Z" fill="#FFC2B0"/>
<path d="M676.353 498.294C674.078 494.421 673.058 489.962 673.428 485.508C673.642 482.866 674.461 480.304 675.824 478.014C677.188 475.724 679.06 473.765 681.303 472.282C683.494 470.723 686.133 469.883 688.841 469.883C691.549 469.883 694.187 470.723 696.378 472.282C697.639 473.568 698.769 474.971 699.753 476.47C701.079 478.332 701.641 480.614 701.328 482.863C700.832 485.208 699.859 487.432 698.467 489.401C697.076 491.37 695.294 493.045 693.228 494.326C690.303 490.358 688.278 486.39 686.928 484.627C685.578 482.863 685.803 484.627 686.928 486.17C688.053 487.713 691.878 487.492 692.103 486.17C692.328 484.847 689.628 487.933 687.378 490.137C684.072 493.304 680.367 496.044 676.353 498.294Z" fill="#FFB09E"/>
<path d="M296.328 485.729C296.675 490.984 298.163 496.106 300.691 500.753C303.218 505.4 306.729 509.466 310.988 512.678C315.246 515.891 320.155 518.177 325.387 519.384C330.619 520.59 336.054 520.69 341.328 519.676C357.978 515.047 379.128 502.702 379.128 485.729C379.128 468.755 355.053 452.002 337.503 452.002C332.502 451.356 327.418 451.734 322.573 453.112C317.728 454.491 313.228 456.839 309.358 460.009C305.488 463.18 302.331 467.102 300.088 471.529C297.846 475.957 296.565 480.792 296.328 485.729Z" fill="#FFC2B0"/>
<path d="M327.378 498.293C323.672 496.412 320.199 494.119 317.028 491.46C314.778 489.256 312.078 486.61 312.303 487.492C312.528 488.374 317.253 487.492 317.478 487.492C317.703 487.492 317.478 485.508 317.478 485.949C317.478 486.39 314.103 491.68 311.178 495.648C309.112 494.368 307.331 492.693 305.939 490.723C304.548 488.754 303.575 486.531 303.078 484.186C302.765 481.937 303.328 479.654 304.653 477.793C305.637 476.293 306.768 474.89 308.028 473.605C310.219 472.045 312.858 471.206 315.566 471.206C318.274 471.206 320.912 472.045 323.103 473.605C325.346 475.088 327.219 477.047 328.582 479.337C329.946 481.627 330.765 484.188 330.978 486.831C330.883 490.904 329.636 494.872 327.378 498.293Z" fill="#FFB09E"/>
<path d="M666.003 441.862C670.053 559.575 612.228 672.217 512.553 674.642C412.878 677.067 342.228 576.548 339.303 458.835C336.378 341.123 402.528 250.744 501.303 248.319C600.078 245.894 663.078 324.149 666.003 441.862Z" fill="#FFD4CA"/>
<path d="M400.053 241.265C398.667 257.152 403.186 272.994 412.777 285.875C422.369 298.756 436.388 307.808 452.253 311.364C509.628 326.353 501.528 303.208 531.678 341.123C561.828 379.038 567.903 373.086 606.153 382.124C634.503 388.957 637.203 412.764 645.303 427.313C653.403 441.862 675.003 459.056 678.828 446.05C691.203 404.829 700.203 340.241 661.953 302.546C597.828 240.604 480.603 185.715 400.053 241.265Z" fill="#3B2143"/>
<path d="M425.028 262.427C425.028 262.427 411.978 262.427 411.978 308.939C411.638 319.999 408.846 330.854 403.795 340.751C398.744 350.648 391.556 359.35 382.728 366.252C369.453 375.29 378.003 410.34 369.678 422.684C362.036 434.428 351.908 444.427 339.978 452.002C339.978 452.002 296.328 309.6 425.028 262.427Z" fill="#3B2143"/>
<path d="M565.879 535.106V536.87C566.381 544.917 565.197 552.979 562.4 560.561C559.602 568.143 555.25 575.083 549.612 580.955C543.974 586.827 537.169 591.507 529.615 594.705C522.062 597.904 513.92 599.554 505.691 599.554C497.462 599.554 489.321 597.904 481.767 594.705C474.214 591.507 467.408 586.827 461.77 580.955C456.132 575.083 451.78 568.143 448.983 560.561C446.185 552.979 445.001 544.917 445.504 536.87V535.106" fill="#F28383"/>
<path d="M475.428 469.857C475.428 474.008 473.745 477.989 470.75 480.924C467.754 483.859 463.69 485.508 459.454 485.508C455.217 485.508 451.153 483.859 448.157 480.924C445.162 477.989 443.479 474.008 443.479 469.857C443.479 465.706 445.162 461.725 448.157 458.79C451.153 455.855 455.217 454.206 459.454 454.206C463.69 454.206 467.754 455.855 470.75 458.79C473.745 461.725 475.428 465.706 475.428 469.857ZM577.128 469.857C577.128 472.953 576.192 475.979 574.436 478.552C572.681 481.126 570.186 483.132 567.267 484.317C564.348 485.501 561.136 485.811 558.037 485.207C554.938 484.604 552.092 483.113 549.857 480.924C547.623 478.735 546.102 475.947 545.485 472.911C544.869 469.875 545.185 466.728 546.395 463.868C547.604 461.008 549.651 458.564 552.278 456.844C554.905 455.124 557.994 454.206 561.153 454.206C563.251 454.206 565.329 454.611 567.267 455.398C569.205 456.184 570.966 457.337 572.45 458.79C573.933 460.244 575.11 461.969 575.912 463.868C576.715 465.767 577.128 467.802 577.128 469.857Z" fill="#030303"/>
</svg>
