<?xml version="1.0" standalone="no"?><!DOCTYPE svg PUBLIC "-//W3C//DTD SVG 1.1//EN" "http://www.w3.org/Graphics/SVG/1.1/DTD/svg11.dtd"><svg t="1731938348219" class="icon" viewBox="0 0 1024 1024" version="1.1" xmlns="http://www.w3.org/2000/svg" p-id="932" xmlns:xlink="http://www.w3.org/1999/xlink" width="200" height="200">
<path d="M940 488.727C940 577.477 913.608 664.234 864.161 738.027C814.715 811.819 744.434 869.334 662.208 903.297C579.981 937.26 489.501 946.146 402.209 928.832C314.918 911.518 234.736 868.781 171.802 806.025C108.868 743.27 66.0102 663.314 48.6468 576.27C31.2835 489.225 40.195 399.001 74.2544 317.007C108.314 235.013 165.991 164.931 239.994 115.624C313.996 66.3174 400.999 40 490 40C549.095 40 607.611 51.6067 662.208 74.1573C716.804 96.708 766.412 129.761 808.198 171.429C849.984 213.097 883.131 262.565 905.746 317.007C928.36 371.449 940 429.8 940 488.727Z" fill="#EFEFEF"/>
<path d="M753.925 473.47V750.56H476.275C456.532 750.54 436.847 748.434 417.55 744.277V473.47H753.925Z" fill="black"/>
<path d="M476.275 750.56H417.55V744.277C436.847 748.434 456.532 750.54 476.275 750.56ZM753.925 473.471H417.55V744.277C355.306 731.115 299.484 697.033 259.427 647.736C219.37 598.439 197.508 536.919 197.5 473.471C197.396 438.672 203.964 404.174 216.85 371.834C237.418 320.043 273.187 275.65 319.475 244.465C365.763 213.28 420.413 196.755 476.275 197.055C500.987 197.015 525.588 200.336 549.4 206.927C608.244 222.789 660.189 257.581 697.172 305.899C734.154 354.218 754.104 413.36 753.925 474.144" fill="black"/>
<path d="M708.925 883.383C639.618 921.839 561.349 941.346 482.048 939.928C402.746 938.509 325.229 916.216 257.35 875.306C273.307 827.65 304.097 786.316 345.241 757.316C386.384 728.316 435.734 713.165 486.11 714.066C536.486 714.967 585.26 731.873 625.334 762.326C665.408 792.778 694.692 835.187 708.925 883.383Z" fill="#FCBF00"/>
<path d="M552.325 678.988V755.271C551.384 770.671 544.585 785.132 533.317 795.705C522.049 806.278 507.159 812.164 491.687 812.164C476.215 812.164 461.326 806.278 450.058 795.705C438.789 785.132 431.991 770.671 431.05 755.271V675.173C451.686 684.216 473.984 688.877 496.525 688.86C515.57 688.96 534.476 685.615 552.325 678.988Z" fill="#F7BEA9"/>
<path d="M657.85 383.276V526.645C658.443 560.999 648.71 594.744 629.903 623.535C611.096 652.325 584.077 674.842 552.325 688.186C532.899 695.814 512.107 699.371 491.243 698.638C470.378 697.904 449.889 692.896 431.05 683.924C401.901 669.354 377.454 646.898 360.503 619.124C343.553 591.35 334.784 559.379 335.2 526.869V383.276C333.803 339.149 349.993 296.267 380.228 264.016C410.463 231.764 452.279 212.77 496.525 211.189C518.005 211.289 539.231 215.827 558.865 224.515C578.499 233.204 596.114 245.855 610.6 261.671C641.276 294.746 658.17 338.227 657.85 383.276Z" fill="#FBD1BB"/>
<path d="M366.475 526.196C366.88 533.813 364.985 541.376 361.036 547.908C357.087 554.44 351.264 559.642 344.32 562.841C337.376 566.04 329.63 567.089 322.082 565.853C314.534 564.618 307.531 561.154 301.977 555.909C296.423 550.664 292.574 543.879 290.926 536.43C289.279 528.982 289.909 521.212 292.735 514.124C295.56 507.036 300.453 500.956 306.779 496.669C313.106 492.382 320.576 490.084 328.225 490.073C338.094 489.832 347.657 493.496 354.824 500.265C361.992 507.034 366.181 516.357 366.475 526.196Z" fill="#FBD1BB"/>
<path d="M573.925 559.402V561.197C573.925 569.387 572.307 577.498 569.164 585.066C566.02 592.633 561.413 599.509 555.604 605.301C549.796 611.093 542.901 615.687 535.312 618.822C527.723 621.956 519.589 623.57 511.375 623.57C503.161 623.57 495.027 621.956 487.438 618.822C479.849 615.687 472.954 611.093 467.145 605.301C461.337 599.509 456.73 592.633 453.586 585.066C450.443 577.498 448.825 569.387 448.825 561.197V559.402" fill="#F49F83"/>
<path d="M479.875 495.009C479.875 498.293 478.898 501.503 477.069 504.234C475.239 506.964 472.639 509.092 469.597 510.348C466.554 511.605 463.206 511.934 459.977 511.293C456.747 510.653 453.78 509.071 451.451 506.749C449.123 504.427 447.537 501.469 446.895 498.248C446.252 495.028 446.582 491.69 447.842 488.656C449.102 485.622 451.237 483.029 453.975 481.205C456.713 479.38 459.932 478.406 463.225 478.406C467.641 478.406 471.876 480.156 474.998 483.269C478.121 486.383 479.875 490.606 479.875 495.009ZM585.625 495.009C585.625 498.293 584.648 501.503 582.819 504.234C580.989 506.964 578.389 509.092 575.346 510.348C572.304 511.605 568.956 511.934 565.727 511.293C562.497 510.653 559.53 509.071 557.201 506.749C554.873 504.427 553.287 501.469 552.645 498.248C552.002 495.028 552.332 491.69 553.592 488.656C554.852 485.622 556.986 483.029 559.725 481.205C562.463 479.38 565.682 478.406 568.975 478.406C573.391 478.406 577.626 480.156 580.748 483.269C583.871 486.383 585.625 490.606 585.625 495.009Z" fill="#030303"/>
<path d="M742 392.475C703.948 417.579 658.362 428.79 612.968 424.211C567.574 419.631 525.164 399.541 492.925 367.347C456.649 403.632 407.624 424.396 356.25 425.234C304.876 426.071 255.196 406.917 217.75 371.834C238.262 320.186 273.893 275.892 320.003 244.718C366.113 213.545 420.567 196.936 476.275 197.055C500.987 197.015 525.588 200.336 549.4 206.927C594.628 219.29 635.994 242.84 669.663 275.394C703.332 307.947 728.213 348.45 742 393.148" fill="black"/>
</svg>
