<?xml version="1.0" standalone="no"?><!DOCTYPE svg PUBLIC "-//W3C//DTD SVG 1.1//EN" "http://www.w3.org/Graphics/SVG/1.1/DTD/svg11.dtd"><svg t="1731938348219" class="icon" viewBox="0 0 1024 1024" version="1.1" xmlns="http://www.w3.org/2000/svg" p-id="932" xmlns:xlink="http://www.w3.org/1999/xlink" width="200" height="200">
<path d="M40.6938 490.451C40.6938 609.798 88.1044 724.257 172.496 808.649C256.887 893.04 371.346 940.451 490.694 940.451C610.041 940.451 724.501 893.04 808.892 808.649C893.283 724.257 940.694 609.798 940.694 490.451C940.694 371.103 893.283 256.644 808.892 172.253C724.501 87.8613 610.042 40.4507 490.694 40.4507C371.347 40.4507 256.888 87.8613 172.497 172.253C88.1053 256.644 40.6938 371.103 40.6938 490.451Z" fill="#66CBFF"/>
<path d="M699.537 785.369C678.49 777.165 653.746 770.22 626.295 764.841C610.927 761.829 594.725 759.299 577.808 757.337C553.045 763.994 523.039 767.894 490.695 767.894C458.313 767.894 428.277 763.985 403.498 757.315C385.271 759.424 367.878 762.192 351.462 765.514C352.92 766.013 354.412 766.43 355.892 766.878C354.412 766.43 352.92 766.014 351.463 765.515C325.562 770.756 302.138 777.398 282.06 785.185C281.67 784.05 233.341 810.981 205.568 838.675C283.175 902.264 382.399 940.45 490.557 940.45C598.841 940.45 698.176 902.182 775.822 838.459C748.065 810.928 699.946 784.188 699.537 785.369Z" fill="#4D846D"/>
<path d="M688.139 430.742C682.422 428.582 676.08 429.618 669.819 433.096C670.373 396.033 664.886 362.492 653.95 335.875H327.162C315.793 363.546 310.276 398.678 311.354 437.498C305.073 433.993 298.709 432.944 292.974 435.111C276.716 441.252 271.692 470.463 281.754 500.356C291.814 530.241 313.144 549.492 329.399 543.364C344.031 590.832 365.749 631.743 390.689 662.34C395.07 667.714 399.547 672.777 404.104 677.493V757.243C403.902 757.266 403.701 757.292 403.497 757.316C428.276 763.986 458.312 767.895 490.694 767.895C523.038 767.895 553.044 763.994 577.807 757.339L577.006 757.242V677.529C581.596 672.784 586.104 667.689 590.513 662.279C615.4 631.737 637.076 590.924 651.691 543.577C652.126 542.173 690.385 543.577 699.357 495.985C709.421 466.093 704.398 436.881 688.139 430.742Z" fill="#EED5A1"/>
<path d="M653.95 337.415C653.95 337.415 651.977 378.999 669.819 438.825C669.819 438.825 747.759 212.335 601.272 212.335C601.272 212.335 221.905 80.4311 311.355 443.417C311.355 443.417 313.865 453.527 318.312 461.776C378.408 372.882 577.482 401.679 653.95 337.415Z" fill="#5C4948"/>
<path d="M322.743 861.433H404.088V875.344H322.743V861.433ZM490.269 767.885C490.269 767.885 508.903 799.263 555.231 808.446C555.231 808.446 579.082 776.744 577.382 757.327L490.269 767.885ZM490.227 767.898C490.227 767.898 471.592 799.277 425.264 808.459C425.264 808.459 401.413 776.757 403.113 757.34L490.227 767.898Z" fill="#B9C9C2"/>
<path d="M482.076 791.093C482.076 793.266 482.94 795.351 484.476 796.887C486.013 798.424 488.097 799.287 490.27 799.287C492.444 799.287 494.528 798.424 496.065 796.887C497.601 795.351 498.464 793.266 498.464 791.093C498.464 788.92 497.601 786.836 496.065 785.299C494.528 783.762 492.444 782.899 490.27 782.899C488.097 782.899 486.013 783.762 484.476 785.299C482.94 786.836 482.076 788.92 482.076 791.093ZM482.033 822.535C482.033 824.708 482.897 826.793 484.433 828.329C485.97 829.866 488.054 830.729 490.227 830.729C492.401 830.729 494.485 829.866 496.021 828.329C497.558 826.793 498.421 824.708 498.421 822.535C498.421 820.362 497.558 818.278 496.021 816.741C494.485 815.204 492.401 814.341 490.227 814.341C488.054 814.341 485.97 815.204 484.433 816.741C482.897 818.278 482.033 820.362 482.033 822.535ZM482.033 854.533C482.033 856.706 482.897 858.79 484.433 860.327C485.97 861.864 488.054 862.727 490.227 862.727C492.401 862.727 494.485 861.864 496.021 860.327C497.558 858.79 498.421 856.706 498.421 854.533C498.421 852.36 497.558 850.276 496.021 848.739C494.485 847.202 492.401 846.339 490.227 846.339C488.054 846.339 485.97 847.202 484.433 848.739C482.897 850.276 482.033 852.36 482.033 854.533Z" fill="#56A57E"/>
</svg>
