<?xml version="1.0" standalone="no"?><!DOCTYPE svg PUBLIC "-//W3C//DTD SVG 1.1//EN" "http://www.w3.org/Graphics/SVG/1.1/DTD/svg11.dtd"><svg t="1731938348219" class="icon" viewBox="0 0 1024 1024" version="1.1" xmlns="http://www.w3.org/2000/svg" p-id="932" xmlns:xlink="http://www.w3.org/1999/xlink" width="200" height="200">
<path d="M940.053 478.461C940.087 551.324 921.26 623.033 885.295 687.029C849.33 751.026 797.374 805.269 734.179 844.797C725.854 849.809 717.529 854.822 708.979 859.398C639.672 896.751 561.403 915.699 482.101 914.321C402.8 912.943 325.283 891.289 257.404 851.553L245.479 844.361C179.99 803.292 126.651 746.437 90.6947 679.376C54.7384 612.315 37.4005 537.352 40.3823 461.843C43.3641 386.333 66.5631 312.872 107.703 248.667C148.843 184.462 206.51 131.72 275.046 95.6151C343.582 59.5106 420.631 41.2846 498.634 42.7255C576.637 44.1664 652.913 65.2246 719.978 103.834C787.042 142.443 842.591 197.277 881.174 262.954C919.756 328.632 940.046 402.897 940.053 478.461Z" fill="#EFEFEF"/>
<path d="M536.403 802.955C536.403 802.955 355.053 747.165 267.978 942.646H767.028C767.028 942.646 731.253 762.203 536.403 802.955Z" fill="#FFEDD9"/>
<path d="M604.353 602.898L434.703 630.792L433.128 831.503C433.128 831.503 442.803 883.37 530.553 884.896C613.353 886.203 618.978 829.106 618.978 829.106L604.353 602.898Z" fill="#FFCDC2"/>
<path opacity="0.41" d="M433.803 744.768C467.075 746.204 500.23 740.05 530.597 726.802C560.963 713.553 587.691 693.581 608.628 668.494L604.353 603.115L434.703 630.792L433.803 744.768Z" fill="#EB7D7A"/>
<path d="M416.478 83.7949C547.878 60.4767 549.453 219.346 547.878 236.344C625.728 260.752 727.878 315.016 705.378 454.271C700.054 497.45 677.633 536.941 642.838 564.422C608.043 591.904 563.592 605.229 518.853 601.59C406.353 596.36 248.853 525.098 354.603 284.288C355.053 285.378 276.303 109.728 416.478 83.7949Z" fill="#644646"/>
<path d="M710.103 512.894C709.719 517.856 708.256 522.683 705.811 527.059C703.366 531.435 699.993 535.261 695.914 538.286C691.835 541.311 687.141 543.466 682.142 544.611C677.142 545.756 671.949 545.864 666.903 544.929C651.153 540.352 630.903 528.802 630.903 512.894C630.903 496.985 653.403 480.858 670.503 480.858C675.315 480.217 680.213 480.556 684.881 481.854C689.55 483.152 693.888 485.38 697.616 488.396C701.344 491.412 704.38 495.149 706.531 499.367C708.681 503.586 709.898 508.193 710.103 512.894Z" fill="#FFC2B0"/>
<path d="M680.179 524.662C677.865 520.927 676.84 516.576 677.253 512.24C677.4 509.721 678.147 507.269 679.435 505.076C680.723 502.883 682.518 501.009 684.678 499.6C686.872 498.167 689.458 497.401 692.104 497.401C694.75 497.401 697.335 498.167 699.529 499.6C700.856 500.813 701.993 502.208 702.904 503.741C704.194 505.514 704.756 507.69 704.478 509.843C704.016 512.116 703.053 514.266 701.655 516.146C700.257 518.026 698.458 519.593 696.379 520.739C693.454 517.034 691.429 513.112 689.854 511.586C688.279 510.061 689.854 511.586 689.854 513.112C689.854 514.637 694.804 514.201 695.029 513.112C695.254 512.022 693.004 514.855 690.529 516.598C687.578 519.838 684.078 522.565 680.179 524.662Z" fill="#FFB09E"/>
<path d="M316.354 512.894C316.742 517.833 318.199 522.639 320.631 526.997C323.062 531.356 326.414 535.17 330.467 538.191C334.52 541.213 339.185 543.374 344.157 544.535C349.13 545.696 354.299 545.83 359.329 544.929C375.079 540.353 395.329 528.802 395.329 512.894C395.329 496.985 372.829 480.858 355.729 480.858C350.928 480.215 346.042 480.555 341.385 481.855C336.728 483.154 332.405 485.386 328.694 488.405C324.984 491.424 321.968 495.163 319.842 499.382C317.717 503.6 316.528 508.203 316.354 512.894Z" fill="#FFC2B0"/>
<path d="M346.054 524.662C342.38 522.951 338.972 520.75 335.929 518.124C333.679 516.38 330.979 513.765 331.429 514.637C331.879 515.509 336.379 514.637 336.829 514.637C337.279 514.637 336.829 512.894 336.829 513.112C336.829 513.329 333.229 518.56 330.304 522.265C328.227 521.142 326.439 519.579 325.075 517.691C323.711 515.804 322.807 513.642 322.429 511.368C322.228 510.301 322.265 509.205 322.536 508.153C322.808 507.1 323.308 506.116 324.004 505.266C324.828 503.737 325.89 502.341 327.154 501.126C329.347 499.692 331.933 498.926 334.579 498.926C337.225 498.926 339.81 499.692 342.004 501.126C344.202 502.496 346.026 504.361 347.319 506.562C348.612 508.763 349.336 511.235 349.429 513.765C349.482 517.646 348.304 521.45 346.054 524.662Z" fill="#FFB09E"/>
<path d="M670.053 471.27C673.203 582.63 618.528 689.197 524.028 691.594C429.528 693.991 361.128 598.757 357.978 487.396C354.828 376.035 418.728 291.262 513.228 287.993C607.728 284.724 667.353 359.691 670.053 471.27Z" fill="#FFC2B0"/>
<path d="M670.053 471.27C673.203 582.63 618.528 689.197 524.028 691.594C429.528 693.991 361.128 598.757 357.978 487.396C354.828 376.035 418.728 291.262 513.228 287.993C607.728 284.724 667.353 359.691 670.053 471.27Z" fill="#FFD4CA"/>
<path d="M530.103 309.349C530.103 309.349 453.603 460.373 358.203 466.911C358.203 466.911 322.428 274.263 536.178 274.263C536.178 274.263 698.853 301.94 680.178 470.398C680.178 469.744 557.553 418.095 530.103 309.349Z" fill="#644646"/>
<path d="M586.578 557.569V559.748C586.578 577.954 579.111 595.415 565.819 608.289C552.528 621.163 534.5 628.395 515.703 628.395C496.906 628.395 478.879 621.163 465.587 608.289C452.295 595.415 444.828 577.954 444.828 559.748V557.569" fill="#F28383"/>
<path d="M480.154 481.73C480.153 485.36 479.039 488.908 476.952 491.923C474.865 494.937 471.9 497.283 468.433 498.662C464.967 500.041 461.155 500.391 457.483 499.667C453.811 498.942 450.443 497.177 447.809 494.595C445.175 492.013 443.393 488.731 442.69 485.166C441.986 481.601 442.393 477.913 443.858 474.572C445.323 471.231 447.78 468.388 450.918 466.403C454.055 464.418 457.731 463.381 461.479 463.424C466.452 463.482 471.202 465.435 474.698 468.862C478.194 472.289 480.154 476.913 480.154 481.73ZM599.854 481.73C599.854 485.351 598.745 488.89 596.668 491.9C594.592 494.911 591.64 497.257 588.186 498.642C584.733 500.028 580.933 500.391 577.266 499.684C573.6 498.978 570.232 497.234 567.589 494.674C564.946 492.114 563.146 488.852 562.417 485.301C561.687 481.75 562.062 478.07 563.492 474.725C564.923 471.38 567.345 468.521 570.453 466.509C573.561 464.498 577.215 463.424 580.954 463.424C583.436 463.424 585.893 463.898 588.186 464.818C590.479 465.738 592.563 467.086 594.318 468.786C596.073 470.486 597.465 472.504 598.415 474.725C599.365 476.946 599.854 479.326 599.854 481.73Z" fill="#030303"/>
</svg>
