<?xml version="1.0" standalone="no"?><!DOCTYPE svg PUBLIC "-//W3C//DTD SVG 1.1//EN" "http://www.w3.org/Graphics/SVG/1.1/DTD/svg11.dtd"><svg t="1731938348219" class="icon" viewBox="0 0 1024 1024" version="1.1" xmlns="http://www.w3.org/2000/svg" p-id="932" xmlns:xlink="http://www.w3.org/1999/xlink" width="200" height="200">
<path d="M951 479.727C951 568.477 924.608 655.234 875.161 729.027C825.715 802.819 755.434 860.334 673.208 894.297C590.981 928.26 500.501 937.146 413.209 919.832C325.918 902.518 245.736 859.781 182.802 797.025C119.868 734.27 77.0102 654.314 59.6468 567.269C42.2835 480.225 51.195 390.001 85.2544 308.007C119.314 226.013 176.991 155.931 250.994 106.624C324.996 57.3174 411.999 31 501 31C560.095 31 618.611 42.6067 673.208 65.1573C727.804 87.708 777.412 120.761 819.198 162.429C860.984 204.097 894.131 253.565 916.746 308.007C939.36 362.449 951 420.799 951 479.727Z" fill="#FFCE8B"/>
<path d="M781.038 934V768.25C781.038 654.52 655.254 561.19 501.519 561.19C347.783 561.19 222 654.52 222 768.25V934H781.038Z" fill="#8A4434"/>
<path d="M498.723 580.06C391.388 580.06 257.219 543.34 257.219 482.65C257.219 482.65 353.374 161.86 389.711 161.86H608.854C645.191 161.86 741.346 485.71 741.346 485.71C741.346 541.3 606.618 580.06 498.723 580.06Z" fill="#E3E3E3"/>
<path d="M374.058 443.38H321.509C308.758 443.38 296.529 438.759 287.513 430.534C278.497 422.308 273.432 411.152 273.432 399.52C273.432 387.887 278.497 376.731 287.513 368.506C296.529 360.281 308.758 355.66 321.509 355.66H374.058C386.809 355.66 399.038 360.281 408.054 368.506C417.07 376.731 422.136 387.887 422.136 399.52C422.136 411.152 417.07 422.308 408.054 430.534C399.038 438.759 386.809 443.38 374.058 443.38ZM673.143 439.3H620.594C607.843 439.3 595.614 434.679 586.598 426.454C577.582 418.228 572.517 407.072 572.517 395.44C572.517 383.807 577.582 372.651 586.598 364.426C595.614 356.201 607.843 351.58 620.594 351.58H673.143C685.894 351.58 698.123 356.201 707.139 364.426C716.155 372.651 721.221 383.807 721.221 395.44C721.221 407.072 716.155 418.228 707.139 426.454C698.123 434.679 685.894 439.3 673.143 439.3Z" fill="#F7C9A4"/>
<path d="M741.905 934V765.7C740.293 708.885 714.112 654.958 669.076 615.688C624.041 576.418 563.806 554.993 501.519 556.09C439.232 554.993 378.997 576.418 333.962 615.688C288.926 654.958 262.745 708.885 261.133 765.7V934H741.905Z" fill="#8A4C34"/>
<path d="M626.743 659.11C631.775 773.35 502.078 934 502.078 934C502.078 934 374.058 765.7 377.412 659.11C378.434 629.663 392.053 601.752 415.354 581.353C438.655 560.954 469.785 549.689 502.078 549.97C518.129 549.632 534.096 552.19 549.06 557.499C564.024 562.807 577.691 570.76 589.276 580.902C600.86 591.044 610.134 603.174 616.563 616.595C622.993 630.017 626.453 644.465 626.743 659.11Z" fill="#EFF2F4"/>
<path d="M502.078 614.23C488.534 614.096 475.596 609.093 466.071 600.309C456.546 591.524 451.205 579.666 451.205 567.31V490.3C450.459 483.831 451.211 477.292 453.414 471.105C455.616 464.919 459.22 459.224 463.99 454.39C468.76 449.556 474.591 445.691 481.105 443.045C487.618 440.399 494.668 439.032 501.798 439.032C508.928 439.032 515.978 440.399 522.492 443.045C529.005 445.691 534.836 449.556 539.606 454.39C544.377 459.224 547.98 464.919 550.183 471.105C552.385 477.292 553.137 483.831 552.391 490.3V567.31C552.465 573.405 551.222 579.453 548.733 585.11C546.245 590.766 542.559 595.92 537.887 600.277C533.215 604.634 527.648 608.109 521.504 610.503C515.359 612.897 508.758 614.164 502.078 614.23Z" fill="#F7C9A4"/>
<path d="M502.077 536.2C408.718 536.2 334.366 488.77 334.366 402.07V286.81C334.366 245.691 352.271 206.256 384.143 177.18C416.014 148.105 459.241 131.77 504.314 131.77C549.387 131.77 592.613 148.105 624.485 177.18C656.356 206.256 674.261 245.691 674.261 286.81V402.07C674.261 488.77 597.673 536.2 506.55 536.2H502.077Z" fill="#FFD9B6"/>
<path d="M561.895 284.26C525.558 355.66 348.343 373 285.171 391.87V311.29C288.087 265.565 309.683 222.498 345.698 190.586C381.713 158.674 429.531 140.236 479.716 138.91H517.172C567.357 140.236 615.175 158.674 651.19 190.586C687.205 222.498 708.801 265.565 711.717 311.29V391.87C573.635 359.74 561.895 284.26 561.895 284.26Z" fill="#F7CCA5"/>
<path d="M556.863 239.38C547.919 322 342.193 352.09 281.258 373L285.171 290.38C288.087 244.655 309.683 201.587 345.698 169.676C381.713 137.764 429.531 119.326 479.716 118H517.172C567.357 119.326 615.175 137.764 651.19 169.676C687.205 201.587 708.801 244.655 711.717 290.38L716.748 367.39C681.347 358.229 648.629 341.987 620.972 319.844C593.315 297.701 571.415 270.213 556.863 239.38Z" fill="#E3E3E3"/>
<path d="M502.077 934L491.456 919.72V622.9C491.083 621.406 491.083 619.855 491.457 618.361C491.831 616.868 492.569 615.47 493.617 614.272C494.664 613.075 495.994 612.108 497.507 611.443C499.02 610.778 500.678 610.433 502.357 610.433C504.036 610.433 505.694 610.778 507.207 611.443C508.72 612.108 510.05 613.075 511.097 614.272C512.145 615.47 512.883 616.868 513.257 618.361C513.631 619.855 513.631 621.406 513.258 622.9V919.72L502.077 934Z" fill="#E5E5DB"/>
<path d="M400.892 382.18C400.863 385.768 401.699 389.319 403.342 392.58C404.984 395.841 407.392 398.732 410.395 401.05C413.192 402.804 416.505 403.744 419.899 403.744C423.293 403.744 426.607 402.804 429.403 401.05C432.211 398.62 434.447 395.693 435.975 392.449C437.503 389.205 438.292 385.711 438.292 382.18C438.292 378.649 437.503 375.155 435.975 371.911C434.447 368.666 432.211 365.74 429.403 363.31C426.714 361.322 423.359 360.238 419.899 360.238C416.439 360.238 413.084 361.322 410.395 363.31C407.392 365.628 404.984 368.519 403.342 371.78C401.699 375.041 400.863 378.591 400.892 382.18ZM564.69 382.18C564.536 385.785 565.317 389.373 566.968 392.652C568.62 395.93 571.095 398.808 574.194 401.05C576.904 402.761 580.122 403.677 583.418 403.677C586.714 403.677 589.931 402.761 592.642 401.05C595.603 398.704 597.978 395.805 599.606 392.55C601.233 389.294 602.076 385.758 602.076 382.18C602.076 378.602 601.233 375.065 599.606 371.81C597.978 368.554 595.603 365.656 592.642 363.31C590.042 361.362 586.782 360.298 583.418 360.298C580.053 360.298 576.793 361.362 574.194 363.31C571.095 365.552 568.62 368.43 566.968 371.708C565.317 374.987 564.536 378.575 564.69 382.18Z" fill="#694B4B"/>
<path d="M332.69 934V832C333.721 830.056 334.195 827.905 334.066 825.749C333.938 823.592 333.211 821.501 331.953 819.671C330.696 817.841 328.95 816.332 326.878 815.287C324.807 814.241 322.479 813.692 320.111 813.692C317.744 813.692 315.415 814.241 313.344 815.287C311.273 816.332 309.526 817.841 308.269 819.671C307.012 821.501 306.285 823.592 306.156 825.749C306.027 827.905 306.501 830.056 307.533 832V934H332.69ZM698.859 934V832C699.271 830.148 699.227 828.236 698.73 826.402C698.233 824.567 697.295 822.857 695.984 821.394C694.673 819.931 693.022 818.752 691.151 817.942C689.279 817.133 687.234 816.713 685.163 816.713C683.092 816.713 681.046 817.133 679.175 817.942C677.303 818.752 675.652 819.931 674.342 821.394C673.031 822.857 672.093 824.567 671.596 826.402C671.098 828.236 671.054 830.148 671.466 832V934H698.859Z" fill="#8A4434"/>
</svg>
