<?xml version="1.0" standalone="no"?><!DOCTYPE svg PUBLIC "-//W3C//DTD SVG 1.1//EN" "http://www.w3.org/Graphics/SVG/1.1/DTD/svg11.dtd"><svg t="1731938348219" class="icon" viewBox="0 0 1024 1024" version="1.1" xmlns="http://www.w3.org/2000/svg" p-id="932" xmlns:xlink="http://www.w3.org/1999/xlink" width="200" height="200">
<path d="M40 490C40 609.347 87.4106 723.807 171.802 808.198C256.193 892.589 370.653 940 490 940C609.347 940 723.807 892.589 808.198 808.198C892.589 723.807 940 609.347 940 490C940 370.653 892.589 256.193 808.198 171.802C723.807 87.4106 609.347 40 490 40C370.653 40 256.193 87.4106 171.802 171.802C87.4106 256.193 40 370.653 40 490Z" fill="#FFCE8B"/>
<path d="M704.453 655.234C732.578 655.234 757.188 630.625 757.188 598.984C757.188 577.891 746.641 556.797 729.062 549.766C732.578 539.219 732.578 525.156 732.578 511.094C732.578 430.234 707.969 261.484 504.062 261.484C286.094 261.484 275.547 430.234 275.547 511.094C275.547 525.156 275.547 535.703 279.062 549.766C261.484 560.312 250.938 577.891 250.938 598.984C250.938 630.625 275.547 655.234 303.672 655.234C310.703 655.234 314.219 655.234 321.25 651.719C324.766 665.781 345.859 679.844 331.797 693.906C324.766 700.938 293.125 732.578 296.641 771.25C300.156 795.859 314.219 813.438 342.344 831.016C345.859 831.016 345.859 834.531 349.375 834.531C352.891 834.531 359.922 831.016 363.438 827.5C366.953 820.469 363.438 813.438 359.922 806.406C342.344 795.859 328.281 781.797 328.281 767.734C324.766 750.156 338.828 729.062 345.859 722.031L356.406 711.484C356.406 711.484 370.469 697.422 352.891 676.328C349.375 672.812 335.312 662.266 328.281 655.234C317.734 641.172 314.219 627.109 314.219 609.531C317.734 588.438 324.766 574.375 328.281 570.859C328.281 567.344 331.797 563.828 335.312 563.828C398.594 542.734 395.078 472.422 395.078 472.422C395.078 465.391 402.109 458.359 409.141 458.359C412.656 458.359 423.203 465.391 423.203 465.391C423.203 465.391 440.781 490 479.453 511.094C514.609 532.188 574.375 556.797 658.75 556.797H662.266C665.781 556.797 669.297 560.312 672.812 560.312C679.844 563.828 686.875 574.375 693.906 584.922C704.453 602.5 700.938 627.109 690.391 644.688C683.359 651.719 665.781 665.781 665.781 665.781C662.266 669.297 648.203 679.844 648.203 690.391C648.203 697.422 655.234 707.969 662.266 718.516C669.297 729.062 683.359 750.156 679.844 767.734C676.328 781.797 665.781 795.859 648.203 806.406C641.172 809.922 637.656 820.469 644.688 827.5C648.203 831.016 651.719 834.531 658.75 834.531C662.266 834.531 662.266 834.531 665.781 831.016C693.906 813.438 707.969 795.859 711.484 771.25C715 732.578 683.359 700.938 676.328 693.906C655.234 672.812 686.875 662.266 690.391 648.203C693.906 655.234 697.422 655.234 704.453 655.234ZM616.562 250.938C616.562 191.172 563.828 145.469 504.062 145.469C444.297 145.469 395.078 191.172 391.562 247.422C423.203 236.875 458.359 229.844 504.062 229.844C546.25 233.359 584.922 240.391 616.562 250.938Z" fill="#E27E92"/>
<path d="M641.172 743.125C623.594 725.547 616.563 707.969 616.563 690.391C616.563 665.781 634.141 651.719 644.688 644.688C648.203 644.688 648.203 641.172 651.719 641.172C655.234 641.172 658.75 637.656 662.266 630.625C669.297 620.078 669.297 609.531 665.781 598.984C662.266 591.953 655.234 584.922 655.234 584.922C616.563 584.922 581.406 577.891 546.25 570.859C518.125 563.828 490 549.766 465.391 535.703C447.813 525.156 433.75 514.609 423.203 504.062C423.203 507.578 419.688 514.609 419.688 521.641C409.141 553.281 384.531 577.891 352.891 591.953C352.891 591.953 349.375 598.984 345.859 609.531V637.656C345.859 637.656 345.859 641.172 349.375 641.172L356.406 648.203C359.922 651.719 388.047 669.297 388.047 697.422C388.047 715 381.016 729.062 363.438 743.125H356.406C398.594 809.922 465.391 866.172 507.578 866.172C546.25 866.172 609.531 813.438 648.203 750.156C648.203 746.641 644.688 746.641 641.172 743.125Z" fill="#F9E9CF"/>
</svg>
