<?xml version="1.0" standalone="no"?><!DOCTYPE svg PUBLIC "-//W3C//DTD SVG 1.1//EN" "http://www.w3.org/Graphics/SVG/1.1/DTD/svg11.dtd"><svg t="1731938348219" class="icon" viewBox="0 0 1024 1024" version="1.1" xmlns="http://www.w3.org/2000/svg" p-id="932" xmlns:xlink="http://www.w3.org/1999/xlink" width="200" height="200">
<path d="M78.0938 522.539C78.0938 634.575 122.6 742.023 201.822 821.245C281.043 900.466 388.491 944.973 500.527 944.973C612.564 944.973 720.011 900.466 799.233 821.245C878.455 742.023 922.961 634.575 922.961 522.539C922.961 410.503 878.455 303.055 799.233 223.833C720.011 144.612 612.564 100.105 500.527 100.105C388.491 100.105 281.043 144.612 201.822 223.833C122.6 303.055 78.0938 410.503 78.0938 522.539Z" fill="#E3F0D5"/>
<path d="M499.527 968.324C380.473 968.324 268.5 922.004 184.281 837.785C100.063 753.566 53.7422 641.594 53.7422 522.539C53.7422 403.484 100.063 291.512 184.281 207.293C268.5 123.074 380.473 76.7539 499.527 76.7539C618.582 76.7539 730.555 123.074 814.773 207.293C898.992 291.512 945.312 403.484 945.312 522.539C945.312 641.594 898.992 753.566 814.773 837.785C730.555 921.813 618.582 968.324 499.527 968.324ZM499.527 123.648C279.602 123.648 100.637 302.613 100.637 522.539C100.637 742.465 279.602 921.43 499.527 921.43C719.645 921.43 898.609 742.465 898.609 522.539C898.609 302.613 719.645 123.648 499.527 123.648Z" fill="white"/>
<path d="M273.519 362.907C273.519 362.907 219.926 358.313 230.836 402.91C230.836 402.91 249.977 477.367 289.789 494.594C289.789 494.594 298.785 497.274 311.609 495.551C324.434 493.828 273.519 362.907 273.519 362.907ZM728.684 379.367C728.684 379.367 782.277 374.774 771.367 419.371C771.367 419.371 752.227 493.828 712.414 511.055C712.414 511.055 703.418 513.735 690.594 512.012C677.769 509.906 728.684 379.367 728.684 379.367Z" fill="#E5BAA7"/>
<path d="M458.418 602.547L460.332 640.637L516.797 681.406L555.27 668.773L558.906 591.637L458.418 602.547Z" fill="#BD8E8E"/>
<path d="M269.691 335.152C269.691 335.152 288.832 555.652 396.785 601.781C396.785 601.781 450.379 628.004 503.016 624.367C503.016 624.367 582.832 620.73 633.746 588C633.746 588 713.563 539.957 736.34 391.043C736.34 391.043 679.109 280.41 638.34 254.953C638.34 254.953 595.656 329.41 493.254 332.09L489.617 311.227L384.344 350.273V324.816C384.344 324.816 346.254 313.906 344.34 347.402C344.34 347.402 329.793 269.309 347.977 261.27C347.594 261.652 294 302.422 269.691 335.152Z" fill="#EBCAB4"/>
<path d="M260.504 355.633C260.504 355.633 317.734 283.09 342.234 273.902C342.234 273.902 325.965 329.219 341.277 351.039C341.277 351.039 350.273 318.309 384.918 327.496C384.918 327.496 383.195 351.996 385.875 355.633C388.555 359.27 490.191 318.5 490.191 318.5L491.914 338.406C491.914 338.406 602.547 345.68 643.508 263.184C643.508 263.184 697.676 328.453 742.082 402.719C742.082 402.719 766.773 281.367 758.734 236.004L780.555 227.773C780.555 227.773 766.965 156.953 710.691 108.91C710.691 108.91 699.781 96.2773 717.965 82.6875C717.965 82.6875 729.832 63.5469 594.508 50.9141C594.508 50.9141 502.059 -8.03906 383.195 12.8242L381.09 36.3672C381.09 36.3672 327.496 39.0469 318.5 49.957L324.625 69.0977C324.625 69.0977 292.086 80.9648 282.133 83.6445L307.59 98.1914C307.59 98.1914 231.41 174.371 224.137 268.734L258.59 269.691C258.59 269.5 254.188 329.41 260.504 355.633Z" fill="#5F3327"/>
<path d="M237.152 197.723C237.152 197.723 319.84 298.019 457.652 297.062C457.652 297.062 616.328 299.742 675.473 165.566C675.473 165.566 713.945 129.582 726.578 83.2616C726.578 83.2616 689.063 56.0819 601.016 60.2929C601.016 60.2929 532.109 3.06238 380.516 18.5663L382.621 44.9804L321.562 60.2929C321.562 60.2929 325.199 77.5194 326.156 82.8788L292.66 85.3671L302.613 125.562C302.613 125.562 251.699 157.719 237.152 197.723Z" fill="#926558"/>
<path d="M240.789 189.109C240.789 189.109 315.246 285.195 453.059 284.43C453.059 284.43 611.734 287.109 670.879 152.933C670.879 152.933 708.203 126.328 721.027 80.0077C721.027 80.0077 677.387 47.66 596.613 47.66C596.613 47.66 527.707 -9.57043 376.113 5.93348L378.219 32.3475L317.16 47.66C317.16 47.66 320.797 64.8866 321.754 70.246L280.027 82.8788L294 112.738C293.809 112.93 255.336 149.105 240.789 189.109Z" fill="#7A4A3D"/>
<path d="M404.824 635.852C404.824 635.852 356.207 651.93 352.379 690.402L292.852 873.195C292.852 873.195 318.691 895.398 362.523 905.16C431.047 920.473 544.359 931 661.883 886.977C676.047 881.617 692.125 871.281 703.609 863.625L653.844 671.453C653.844 671.453 649.633 644.465 561.203 623.027L509.523 653.27L456.504 624.559C456.504 624.75 450.188 619.773 404.824 635.852Z" fill="white"/>
<path d="M455.355 626.09C455.355 626.09 399.656 621.305 386.449 687.723L365.969 871.664L362.332 905.543C362.332 905.543 417.648 921.812 440.617 923.344C463.586 924.875 503.398 925.641 513.734 925.449C524.07 925.258 561.203 920.281 570.965 917.602C580.535 915.113 655.566 897.312 657.672 888.699C659.969 880.086 632.98 697.293 628.004 681.598C622.453 664.371 622.453 635.66 558.332 624.75L504.93 656.715L455.355 626.09Z" fill="#1C3B72"/>
<path d="M454.398 625.133C454.398 625.133 398.699 620.348 385.492 686.766L365.012 870.707L362.332 905.352C362.332 905.352 495.742 865.73 551.441 812.52C607.141 759.309 623.602 683.32 623.602 683.32L623.984 680.641C623.984 680.641 627.812 632.98 557.375 623.793L503.973 655.758L454.398 625.133Z" fill="#5F7AB0"/>
<path d="M438.512 626.09C438.512 626.09 436.215 699.016 457.461 716.625C457.461 716.625 480.43 743.805 514.883 743.23C514.883 743.23 571.73 737.105 584.363 674.324C584.363 674.324 588.574 646.762 584.363 629.918C584.363 629.918 560.82 622.07 556.609 622.07C554.887 622.07 510.097 653.078 510.097 653.078C510.097 653.078 473.922 630.301 459.183 623.793C451.527 623.602 438.512 626.09 438.512 626.09Z" fill="#4F6899"/>
<path d="M459.184 658.82C459.184 658.82 456.121 705.906 504.547 720.453C504.547 720.453 550.484 727.152 563.883 664.18L513.734 651.547L459.184 658.82Z" fill="#A2ABB8"/>
<path d="M458.801 622.453L510.672 650.016L556.227 620.539L582.641 667.051L510.289 653.078L431.43 665.137L458.801 622.453Z" fill="#F4F1D0"/>
<path d="M501.676 679.109C501.676 681.444 502.603 683.684 504.255 685.335C505.906 686.986 508.145 687.914 510.48 687.914C512.816 687.914 515.055 686.986 516.706 685.335C518.358 683.684 519.285 681.444 519.285 679.109C519.285 676.774 518.358 674.535 516.706 672.883C515.055 671.232 512.816 670.305 510.48 670.305C508.145 670.305 505.906 671.232 504.255 672.883C502.603 674.535 501.676 676.774 501.676 679.109Z" fill="#25497A"/>
<path d="M463.586 550.293C463.586 553.083 464.581 555.846 466.515 558.423C468.448 561.001 471.282 563.343 474.854 565.316C478.427 567.289 482.668 568.854 487.336 569.922C492.003 570.99 497.006 571.539 502.059 571.539C507.111 571.539 512.114 570.99 516.781 569.922C521.449 568.854 525.69 567.289 529.263 565.316C532.835 563.343 535.669 561.001 537.603 558.423C539.536 555.846 540.531 553.083 540.531 550.293C540.531 547.503 539.536 544.74 537.603 542.162C535.669 539.585 532.835 537.243 529.263 535.27C525.69 533.297 521.449 531.732 516.781 530.664C512.114 529.596 507.111 529.047 502.059 529.047C497.006 529.047 492.003 529.596 487.336 530.664C482.668 531.732 478.427 533.297 474.854 535.27C471.282 537.243 468.448 539.585 466.515 542.162C464.581 544.74 463.586 547.503 463.586 550.293Z" fill="#DD6965"/>
<path d="M352.953 432.004C352.953 437.994 355.333 443.739 359.568 447.975C363.804 452.21 369.549 454.59 375.539 454.59C381.529 454.59 387.274 452.21 391.51 447.975C395.745 443.739 398.125 437.994 398.125 432.004C398.125 426.014 395.745 420.269 391.51 416.033C387.274 411.798 381.529 409.418 375.539 409.418C369.549 409.418 363.804 411.798 359.568 416.033C355.333 420.269 352.953 426.014 352.953 432.004ZM612.309 432.004C612.309 437.994 614.688 443.739 618.924 447.975C623.16 452.21 628.904 454.59 634.895 454.59C640.885 454.59 646.63 452.21 650.865 447.975C655.101 443.739 657.48 437.994 657.48 432.004C657.48 426.014 655.101 420.269 650.865 416.033C646.63 411.798 640.885 409.418 634.895 409.418C628.904 409.418 623.16 411.798 618.924 416.033C614.688 420.269 612.309 426.014 612.309 432.004Z" fill="#63482F"/>
<path d="M375.539 521.391C326.348 521.391 286.152 481.387 286.152 432.004C286.152 382.812 326.156 342.617 375.539 342.617C424.73 342.617 464.926 382.621 464.926 432.004C464.926 481.195 424.73 521.391 375.539 521.391ZM375.539 350.848C330.75 350.848 294.383 387.215 294.383 432.004C294.383 476.793 330.75 513.16 375.539 513.16C420.328 513.16 456.695 476.793 456.695 432.004C456.695 387.215 420.328 350.848 375.539 350.848ZM634.895 521.391C585.703 521.391 545.508 481.387 545.508 432.004C545.508 382.812 585.512 342.617 634.895 342.617C684.086 342.617 724.281 382.621 724.281 432.004C724.281 481.195 684.277 521.391 634.895 521.391ZM634.895 350.848C590.105 350.848 553.738 387.215 553.738 432.004C553.738 476.793 590.105 513.16 634.895 513.16C679.684 513.16 716.051 476.793 716.051 432.004C716.051 387.215 679.684 350.848 634.895 350.848Z" fill="#2A2A2F"/>
<path d="M456.695 431.43H547.422V441H456.695V431.43ZM750.504 381.281L724.281 426.262L716.625 420.328L746.676 379.941L750.504 381.281ZM268.543 363.098L290.937 408.27L298.402 402.336L273.52 362.906L268.543 363.098Z" fill="#2A2A2F"/>
</svg>
