<?xml version="1.0" standalone="no"?><!DOCTYPE svg PUBLIC "-//W3C//DTD SVG 1.1//EN" "http://www.w3.org/Graphics/SVG/1.1/DTD/svg11.dtd"><svg t="1731938348219" class="icon" viewBox="0 0 1024 1024" version="1.1" xmlns="http://www.w3.org/2000/svg" p-id="932" xmlns:xlink="http://www.w3.org/1999/xlink" width="200" height="200">
<path d="M936.229 523.789C936.215 445.005 915.518 367.606 876.208 299.331C836.898 231.056 780.352 174.299 712.226 134.735C609.303 74.9534 486.888 58.3858 371.778 88.6591C256.668 118.932 158.241 193.58 98.0419 296.262C37.8362 398.941 20.7617 521.291 50.5562 636.531C80.3507 751.77 154.587 850.511 257.015 911.138C279.247 883.376 307.438 860.968 339.501 845.574C371.564 830.179 406.678 822.193 442.244 822.204H484.769C524.029 822.183 562.681 831.901 597.263 850.488C631.849 869.068 661.286 895.937 682.937 928.689C758.897 891.769 822.935 834.218 867.727 762.615C912.519 691.012 936.258 608.249 936.229 523.789Z" fill="#A6D4AE"/>
<path d="M484.769 822.148H442.245C406.672 822.139 371.554 830.133 339.49 845.537C307.426 860.942 279.239 883.362 257.015 911.139C321.043 948.999 393.448 970.416 467.769 973.478C542.089 976.541 616.011 961.153 682.937 928.689C661.292 895.927 631.859 869.046 597.275 850.452C562.69 831.859 524.035 822.134 484.769 822.148Z" fill="#4D846D"/>
<path d="M527.519 722.92H404.389V836.943C407.571 850.143 415.192 861.85 425.974 870.103C436.756 878.357 450.046 882.656 463.619 882.282C477.893 882.089 491.744 877.412 503.212 868.912C514.68 860.411 523.184 848.519 527.519 834.918V722.92Z" fill="#FFC6A2"/>
<path d="M527.519 722.92H404.389V836.718C407.562 849.937 415.174 861.667 425.954 869.949C436.734 878.232 450.029 882.565 463.619 882.225C477.886 882.037 491.732 877.368 503.199 868.878C514.666 860.388 523.174 848.508 527.519 834.917V722.92ZM290.596 555.571C290.596 566.223 286.364 576.439 278.832 583.971C271.3 591.504 261.085 595.735 250.433 595.735C239.782 595.735 229.566 591.504 222.034 583.971C214.502 576.439 210.271 566.223 210.271 555.571V535.489C210.271 524.837 214.502 514.622 222.034 507.089C229.566 499.557 239.782 495.326 250.433 495.326C261.085 495.326 271.3 499.557 278.832 507.089C286.364 514.622 290.596 524.837 290.596 535.489V555.571Z" fill="#FFC6A2"/>
<path d="M290.596 555.571C290.596 566.223 286.364 576.439 278.832 583.971C271.3 591.504 261.085 595.735 250.433 595.735C239.782 595.735 229.566 591.504 222.034 583.971C214.502 576.439 210.271 566.223 210.271 555.571V535.489C210.271 524.837 214.502 514.622 222.034 507.089C229.566 499.557 239.782 495.326 250.433 495.326C261.085 495.326 271.3 499.557 278.832 507.089C286.364 514.622 290.596 524.837 290.596 535.489V555.571ZM718.768 555.571C718.768 566.223 714.536 576.439 707.004 583.971C699.473 591.504 689.257 595.735 678.605 595.735C667.954 595.735 657.738 591.504 650.207 583.971C642.675 576.439 638.443 566.223 638.443 555.571V535.489C638.443 524.837 642.675 514.622 650.207 507.089C657.738 499.557 667.954 495.326 678.605 495.326C689.257 495.326 699.473 499.557 707.004 507.089C714.536 514.622 718.768 524.837 718.768 535.489V555.571Z" fill="#FFC6A2"/>
<path d="M718.768 555.571C718.768 566.223 714.536 576.439 707.005 583.971C699.473 591.504 689.257 595.735 678.606 595.735C667.954 595.735 657.739 591.504 650.207 583.971C642.675 576.439 638.443 566.223 638.443 555.571V535.489C638.443 524.837 642.675 514.622 650.207 507.089C657.739 499.557 667.954 495.326 678.606 495.326C689.257 495.326 699.473 499.557 707.005 507.089C714.536 514.622 718.768 524.837 718.768 535.489V555.571Z" fill="#FFC6A2"/>
<path d="M692.218 558.046C692.219 587.595 686.4 616.855 675.094 644.155C663.787 671.454 647.214 696.26 626.321 717.154C605.427 738.048 580.623 754.622 553.324 765.929C526.025 777.236 496.767 783.055 467.219 783.053H462.269C402.597 783.05 345.369 759.343 303.175 717.147C260.98 674.951 237.274 617.721 237.271 558.046V459.325C237.271 399.649 260.976 342.418 303.171 300.221C345.367 258.024 402.596 234.318 462.269 234.318H467.219C496.767 234.316 526.025 240.135 553.324 251.442C580.623 262.749 605.427 279.323 626.321 300.217C647.214 321.111 663.787 345.917 675.094 373.216C686.4 400.516 692.219 429.776 692.218 459.325V558.046Z" fill="#FFC6A2"/>
<path d="M656.218 383.329L629.387 387.998C629.387 387.998 667.918 606.986 637.037 645.293C583.769 711.164 357.983 705.201 298.133 645.293C263.315 610.473 293.408 386.872 293.408 386.872L237.158 448.749V558.328C237.157 587.877 242.976 617.136 254.282 644.436C265.589 671.736 282.162 696.541 303.056 717.435C323.949 738.329 348.753 754.903 376.052 766.21C403.351 777.517 432.609 783.336 462.157 783.335H467.107C496.654 783.336 525.912 777.516 553.21 766.208C580.508 754.9 605.311 738.325 626.203 717.43C647.097 696.537 663.672 671.733 674.979 644.434C686.287 617.135 692.106 587.876 692.105 558.328V459.325C692.105 455.668 656.274 386.985 656.106 383.329" fill="#442A1C"/>
<path d="M685.018 396.21C672.543 347.892 644.36 305.092 604.902 274.543C565.444 243.994 516.951 227.43 467.051 227.455H462.101C412.2 227.43 363.707 243.994 324.249 274.543C284.792 305.092 256.609 347.892 244.133 396.21H685.018Z" fill="#442A1C"/>
<path d="M254.708 473.219C273.292 441.811 286.719 407.626 294.477 371.966V302.495C257.432 343.719 236.971 397.206 237.046 452.631V496.901C243.773 489.669 249.695 481.728 254.708 473.219ZM675.399 473.219C656.815 441.811 643.388 407.626 635.631 371.966V302.495C672.676 343.719 693.136 397.206 693.062 452.631V496.901C686.334 489.669 680.412 481.729 675.399 473.219Z" fill="#442A1C"/>
<path d="M713.986 186.616C713.986 186.616 564.194 227.511 455.688 227.511C347.183 227.511 393.42 375.285 578.144 391.654C737.893 407.686 715.618 193.873 714.043 186.616M565.094 677.075C565.094 695.863 545.238 709.532 521.444 709.532H407.876C384.082 709.532 364.226 695.863 364.226 677.075V656.487C364.226 637.699 384.082 622.736 407.876 622.736H521.388C545.181 622.736 565.037 637.924 565.037 656.487L565.094 677.075Z" fill="#442A1C"/>
<path d="M411.701 668.412C411.701 681.72 416.987 694.482 426.397 703.892C435.806 713.302 448.569 718.589 461.876 718.589C475.183 718.589 487.945 713.302 497.355 703.892C506.764 694.482 512.05 681.72 512.05 668.412H411.701Z" fill="#FCFCFC"/>
<path d="M601.937 511.245C601.537 500.389 596.944 490.112 589.124 482.572C581.304 475.033 570.865 470.819 560.003 470.816C549.141 470.819 538.702 475.033 530.882 482.572C523.062 490.112 518.469 500.389 518.069 511.245H518.35C518.203 511.72 518.109 512.211 518.069 512.707C518.156 513.612 518.422 514.49 518.851 515.291C519.28 516.092 519.863 516.8 520.568 517.374C521.272 517.948 522.083 518.377 522.954 518.636C523.825 518.894 524.739 518.978 525.642 518.881C526.546 518.785 527.421 518.51 528.218 518.073C529.014 517.635 529.716 517.045 530.283 516.335C530.85 515.624 531.27 514.809 531.52 513.935C531.77 513.061 531.844 512.147 531.738 511.245H532.075C532.075 503.785 535.038 496.631 540.313 491.357C545.587 486.082 552.741 483.119 560.2 483.119C567.659 483.119 574.813 486.082 580.087 491.357C585.362 496.631 588.325 503.785 588.325 511.245H588.719C588.527 511.768 588.415 512.313 588.381 512.876C588.416 513.78 588.632 514.667 589.015 515.487C589.399 516.306 589.942 517.04 590.614 517.646C591.283 518.256 592.067 518.725 592.92 519.027C593.773 519.328 594.678 519.455 595.581 519.401C597.285 519.32 598.899 518.607 600.105 517.4C601.312 516.194 602.025 514.58 602.106 512.876C602.05 512.322 601.937 511.775 601.768 511.245H601.937ZM409.001 511.245C408.444 500.491 403.78 490.361 395.972 482.947C388.163 475.532 377.807 471.398 367.039 471.398C356.271 471.398 345.914 475.532 338.106 482.947C330.298 490.361 325.634 500.491 325.077 511.245C325.023 511.731 325.023 512.221 325.077 512.707C325.144 514.031 325.593 515.307 326.37 516.381C327.146 517.455 328.218 518.282 329.454 518.76C330.69 519.238 332.039 519.348 333.336 519.077C334.633 518.805 335.825 518.164 336.765 517.23C337.98 516.026 338.705 514.414 338.801 512.707C338.828 512.22 338.828 511.732 338.801 511.245H339.139C339.139 503.785 342.102 496.631 347.377 491.357C352.651 486.082 359.805 483.119 367.264 483.119C374.723 483.119 381.877 486.082 387.151 491.357C392.425 496.631 395.389 503.785 395.389 511.245H395.782C395.614 511.773 395.501 512.319 395.445 512.876C395.445 514.696 396.168 516.441 397.455 517.728C398.742 519.015 400.487 519.739 402.307 519.739C404.127 519.739 405.873 519.015 407.16 517.728C408.447 516.441 409.17 514.696 409.17 512.876C409.139 512.318 409.025 511.769 408.832 511.245H409.001Z" fill="#4C362A"/>
<path d="M447.251 578.297C447.251 595.172 457.432 608.616 469.751 608.616C482.069 608.616 492.25 595.06 492.25 578.297C492.25 561.534 482.069 548.033 469.751 548.033C457.432 548.033 447.251 561.59 447.251 578.297Z" fill="#FF9A67"/>
<path d="M289.696 591.685C290.056 600.819 293.939 609.458 300.53 615.791C307.121 622.124 315.908 625.66 325.048 625.655C332.106 625.655 339.003 623.544 344.852 619.594C350.7 615.643 355.234 610.034 357.87 603.486C360.505 596.939 361.123 589.753 359.642 582.852C358.162 575.95 354.652 569.65 349.562 564.76C344.473 559.869 338.038 556.613 331.083 555.409C324.129 554.205 316.973 555.109 310.536 558.004C304.099 560.899 298.676 565.653 294.962 571.655C291.248 577.657 289.414 584.632 289.696 591.685ZM566.922 599.172C567.282 608.306 571.165 616.945 577.756 623.278C584.347 629.611 593.134 633.147 602.275 633.142C611.415 633.145 620.201 629.61 626.792 623.277C633.382 616.944 637.266 608.305 637.628 599.172C637.816 594.41 637.041 589.66 635.349 585.205C633.658 580.75 631.085 576.682 627.784 573.246C624.485 569.807 620.524 567.072 616.14 565.204C611.756 563.336 607.04 562.375 602.275 562.378C597.509 562.377 592.793 563.339 588.408 565.206C584.024 567.073 580.062 569.807 576.76 573.244C573.459 576.68 570.885 580.748 569.195 585.203C567.504 589.659 566.731 594.41 566.922 599.172Z" fill="#FDB18F"/>
</svg>
