<?xml version="1.0" standalone="no"?><!DOCTYPE svg PUBLIC "-//W3C//DTD SVG 1.1//EN" "http://www.w3.org/Graphics/SVG/1.1/DTD/svg11.dtd"><svg t="1731938348219" class="icon" viewBox="0 0 1024 1024" version="1.1" xmlns="http://www.w3.org/2000/svg" p-id="932" xmlns:xlink="http://www.w3.org/1999/xlink" width="200" height="200">
<path d="M939.053 488.755C939.087 563.773 920.26 637.603 884.295 703.493C848.33 769.382 796.374 825.229 733.178 865.927C724.853 871.087 716.528 876.248 707.978 880.96C638.671 919.418 560.403 938.926 481.101 937.508C401.8 936.089 324.283 913.795 256.403 872.882C252.353 870.639 248.303 867.946 244.478 865.478C178.99 823.194 125.651 764.657 89.6947 695.613C53.7384 626.568 36.4005 549.387 39.3823 471.644C42.3641 393.901 65.5631 318.267 106.703 252.163C147.843 186.059 205.51 131.756 274.046 94.5837C342.581 57.4113 419.631 38.6462 497.634 40.1296C575.637 41.6131 651.913 63.2943 718.978 103.046C786.042 142.797 841.591 199.253 880.174 266.873C918.756 334.493 939.046 410.955 939.053 488.755Z" fill="#ADEAE8"/>
<path d="M733.178 868.395C724.853 873.556 716.528 878.716 707.978 883.428C638.671 921.886 560.402 941.394 481.101 939.976C401.799 938.557 324.283 916.263 256.403 875.351L244.478 867.946C263.935 828.194 294.212 794.7 331.85 771.291C369.488 747.883 412.97 735.503 457.328 735.566H520.103C564.56 735.575 608.118 748.057 645.797 771.585C683.477 795.114 713.757 828.74 733.178 868.619" fill="#7AE3DE"/>
<path d="M687.953 409.102V524.879C688.613 563.797 677.591 602.024 656.302 634.649C635.012 667.274 604.428 692.806 568.478 707.968C548.326 715.808 526.886 719.841 505.253 719.86C479.557 719.826 454.191 714.077 431.003 703.032C397.946 686.524 370.232 661.047 351.047 629.532C331.862 598.017 321.986 561.742 322.553 524.879V409.102C320.914 359.102 339.228 310.495 373.478 273.943C407.728 237.391 455.118 215.877 505.253 214.121C529.558 214.223 553.579 219.339 575.806 229.147C598.032 238.954 617.983 253.243 634.403 271.112C669.117 308.696 688.253 358.006 687.953 409.102Z" fill="#FBD1BB"/>
<path d="M384.428 259.445V405.288C384.457 434.561 374.143 462.908 355.298 485.353C336.453 507.797 310.281 522.904 281.378 528.02V344.258C281.373 313.474 288.425 283.097 301.996 255.448C315.567 227.798 335.297 203.609 359.678 184.728C375.78 206.327 384.461 232.531 384.428 259.445Z" fill="#8D2F13"/>
<path d="M568.478 706.397V748.579C567.474 766.081 559.794 782.536 547.014 794.573C534.233 806.609 517.32 813.314 499.741 813.314C482.162 813.314 465.249 806.609 452.468 794.573C439.688 782.536 432.008 766.081 431.003 748.579V701.91C454.374 712.284 479.672 717.635 505.253 717.616C526.825 717.6 548.226 713.803 568.478 706.397Z" fill="#F7BEA9"/>
<path d="M357.878 513.436C358.328 522.038 356.182 530.576 351.717 537.95C347.252 545.323 340.672 551.192 332.829 554.799C324.985 558.407 316.237 559.586 307.715 558.186C299.192 556.786 291.286 552.87 285.017 546.945C278.749 541.019 274.405 533.356 272.548 524.944C270.69 516.532 271.404 507.757 274.597 499.754C277.79 491.751 283.316 484.886 290.46 480.045C297.605 475.205 306.041 472.611 314.678 472.6C320.204 472.45 325.705 473.388 330.868 475.36C336.03 477.332 340.752 480.299 344.764 484.091C348.775 487.884 351.999 492.427 354.249 497.462C356.499 502.497 357.732 507.925 357.878 513.436Z" fill="#FBD1BB"/>
<path d="M763.328 372.978C763.27 378.196 761.165 383.185 757.464 386.875C753.764 390.565 748.761 392.664 743.528 392.723H281.378V344.258C281.376 317.738 286.613 291.478 296.789 266.976C306.965 242.475 321.88 220.212 340.684 201.459C359.488 182.706 381.812 167.83 406.382 157.681C430.951 147.532 457.284 142.308 483.878 142.308C510.472 142.308 536.805 147.532 561.375 157.681C585.944 167.83 608.268 182.706 627.072 201.459C645.876 220.212 660.792 242.475 670.968 266.976C681.143 291.478 686.38 317.738 686.378 344.258V354.13H742.853C745.472 354.13 748.066 354.648 750.483 355.655C752.9 356.661 755.092 358.135 756.934 359.993C758.776 361.85 760.229 364.053 761.211 366.475C762.193 368.896 762.683 371.488 762.653 374.1" fill="#FF7032"/>
<path d="M592.778 556.067V558.31C592.779 567.593 590.947 576.784 587.386 585.36C583.824 593.936 578.604 601.728 572.022 608.292C565.441 614.856 557.627 620.063 549.028 623.615C540.428 627.168 531.211 628.996 521.903 628.996C512.595 628.996 503.378 627.168 494.779 623.615C486.179 620.063 478.366 614.856 471.784 608.292C465.203 601.728 459.982 593.936 456.421 585.36C452.86 576.784 451.027 567.593 451.028 558.31V556.067" fill="#F49F83"/>
<path d="M486.353 478.209C485.846 482.825 483.648 487.091 480.181 490.19C476.714 493.289 472.222 495.003 467.566 495.003C462.91 495.003 458.418 493.289 454.95 490.19C451.483 487.091 449.286 482.825 448.778 478.209C448.489 475.577 448.759 472.913 449.571 470.391C450.384 467.87 451.72 465.548 453.492 463.576C455.265 461.604 457.434 460.026 459.859 458.946C462.284 457.866 464.91 457.308 467.566 457.308C470.221 457.308 472.847 457.866 475.272 458.946C477.697 460.026 479.867 461.604 481.639 463.576C483.412 465.548 484.748 467.87 485.56 470.391C486.372 472.913 486.643 475.577 486.353 478.209ZM606.053 478.209C606.053 481.937 604.945 485.581 602.868 488.68C600.791 491.78 597.84 494.195 594.386 495.622C590.932 497.048 587.132 497.422 583.466 496.694C579.8 495.967 576.432 494.172 573.789 491.536C571.146 488.9 569.346 485.542 568.616 481.886C567.887 478.23 568.261 474.44 569.692 470.997C571.122 467.553 573.545 464.609 576.653 462.538C579.761 460.467 583.415 459.362 587.153 459.362C592.166 459.362 596.973 461.347 600.518 464.882C604.062 468.417 606.053 473.21 606.053 478.209Z" fill="#030303"/>
</svg>
