<?xml version="1.0" standalone="no"?><!DOCTYPE svg PUBLIC "-//W3C//DTD SVG 1.1//EN" "http://www.w3.org/Graphics/SVG/1.1/DTD/svg11.dtd"><svg t="1731938348219" class="icon" viewBox="0 0 1024 1024" version="1.1" xmlns="http://www.w3.org/2000/svg" p-id="932" xmlns:xlink="http://www.w3.org/1999/xlink" width="200" height="200">
<path d="M448.154 322.714C448.154 325.027 449.073 327.246 450.709 328.881C452.345 330.517 454.563 331.436 456.876 331.436C459.19 331.436 461.408 330.517 463.044 328.881C464.679 327.246 465.598 325.027 465.598 322.714C465.598 320.401 464.679 318.182 463.044 316.547C461.408 314.911 459.19 313.992 456.876 313.992C454.563 313.992 452.345 314.911 450.709 316.547C449.073 318.182 448.154 320.401 448.154 322.714Z" fill="#F1BC19"/>
<path d="M207.466 573.006C207.466 575.319 208.385 577.538 210.02 579.174C211.656 580.809 213.875 581.728 216.188 581.728C218.501 581.728 220.72 580.809 222.355 579.174C223.991 577.538 224.91 575.319 224.91 573.006C224.91 570.693 223.991 568.474 222.355 566.839C220.72 565.203 218.501 564.284 216.188 564.284C213.875 564.284 211.656 565.203 210.02 566.839C208.385 568.474 207.466 570.693 207.466 573.006Z" fill="white"/>
<path d="M788.214 329.28C788.214 331.047 788.916 332.742 790.166 333.992C791.415 335.242 793.11 335.944 794.878 335.944C796.645 335.944 798.34 335.242 799.59 333.992C800.84 332.742 801.542 331.047 801.542 329.28C801.542 327.513 800.84 325.818 799.59 324.568C798.34 323.318 796.645 322.616 794.878 322.616C793.11 322.616 791.415 323.318 790.166 324.568C788.916 325.818 788.214 327.513 788.214 329.28Z" fill="white"/>
<path d="M760.382 142.786C760.382 145.099 761.301 147.318 762.936 148.953C764.572 150.589 766.791 151.508 769.104 151.508C771.417 151.508 773.636 150.589 775.271 148.953C776.907 147.318 777.826 145.099 777.826 142.786C777.826 140.473 776.907 138.254 775.271 136.619C773.636 134.983 771.417 134.064 769.104 134.064C766.791 134.064 764.572 134.983 762.936 136.619C761.301 138.254 760.382 140.473 760.382 142.786Z" fill="#F1BC19"/>
<path d="M212.366 648.27C212.366 650.583 213.285 652.802 214.921 654.437C216.557 656.073 218.775 656.992 221.088 656.992C223.401 656.992 225.62 656.073 227.256 654.437C228.891 652.802 229.81 650.583 229.81 648.27C229.81 645.957 228.891 643.738 227.256 642.102C225.62 640.467 223.401 639.548 221.088 639.548C218.775 639.548 216.557 640.467 214.921 642.102C213.285 643.738 212.366 645.957 212.366 648.27Z" fill="#F1BC19"/>
<path d="M79 471C79 526.155 89.8636 580.77 110.971 631.727C132.078 682.684 163.015 728.984 202.015 767.985C241.016 806.986 287.316 837.922 338.273 859.029C389.23 880.136 443.845 891 499 891C554.155 891 608.77 880.136 659.727 859.029C710.684 837.922 756.984 806.986 795.985 767.985C834.985 728.984 865.922 682.684 887.029 631.727C908.136 580.77 919 526.155 919 471C919 359.609 874.75 252.78 795.985 174.015C717.22 95.2499 610.391 51 499 51C387.609 51 280.78 95.2499 202.015 174.015C123.25 252.78 79 359.609 79 471Z" fill="#F9DBD2"/>
<path d="M783.216 163.856C783.216 174.279 787.356 184.274 794.726 191.644C802.096 199.014 812.091 203.154 822.514 203.154C832.936 203.154 842.932 199.014 850.302 191.644C857.672 184.274 861.812 174.279 861.812 163.856C861.812 153.434 857.672 143.438 850.302 136.068C842.932 128.698 832.936 124.558 822.514 124.558C812.091 124.558 802.096 128.698 794.726 136.068C787.356 143.438 783.216 153.434 783.216 163.856Z" fill="#F1BC19"/>
<path d="M843.29 252.742C843.29 257.628 845.231 262.314 848.686 265.77C852.141 269.225 856.828 271.166 861.714 271.166C866.6 271.166 871.287 269.225 874.742 265.77C878.197 262.314 880.138 257.628 880.138 252.742C880.138 247.856 878.197 243.169 874.742 239.714C871.287 236.259 866.6 234.318 861.714 234.318C856.828 234.318 852.141 236.259 848.686 239.714C845.231 243.169 843.29 247.856 843.29 252.742Z" fill="#F8AB97"/>
<path d="M755.286 766.458C755.286 768.878 755.763 771.273 756.689 773.509C757.615 775.744 758.972 777.775 760.682 779.486C762.393 781.197 764.424 782.554 766.66 783.48C768.895 784.406 771.291 784.882 773.71 784.882C776.13 784.882 778.525 784.406 780.761 783.48C782.996 782.554 785.027 781.197 786.738 779.486C788.449 777.775 789.806 775.744 790.732 773.509C791.658 771.273 792.134 768.878 792.134 766.458C792.134 764.039 791.658 761.643 790.732 759.408C789.806 757.172 788.449 755.141 786.738 753.43C785.027 751.72 782.996 750.362 780.761 749.437C778.525 748.511 776.13 748.034 773.71 748.034C771.291 748.034 768.895 748.511 766.66 749.437C764.424 750.362 762.393 751.72 760.682 753.43C758.972 755.141 757.615 757.172 756.689 759.408C755.763 761.643 755.286 764.039 755.286 766.458Z" fill="#FBCD59"/>
<path d="M115.444 639.548C115.444 644.709 116.46 649.819 118.435 654.587C120.41 659.355 123.305 663.687 126.954 667.336C130.603 670.985 134.935 673.88 139.703 675.855C144.471 677.83 149.581 678.846 154.742 678.846C159.903 678.846 165.013 677.83 169.781 675.855C174.548 673.88 178.881 670.985 182.53 667.336C186.179 663.687 189.074 659.355 191.048 654.587C193.023 649.819 194.04 644.709 194.04 639.548C194.04 634.387 193.023 629.277 191.048 624.509C189.074 619.741 186.179 615.409 182.53 611.76C178.881 608.111 174.548 605.216 169.781 603.241C165.013 601.266 159.903 600.25 154.742 600.25C149.581 600.25 144.471 601.266 139.703 603.241C134.935 605.216 130.603 608.111 126.954 611.76C123.305 615.409 120.41 619.741 118.435 624.509C116.46 629.277 115.444 634.387 115.444 639.548Z" fill="#FBCD59"/>
<path d="M236.572 876.12C236.572 878.539 237.049 880.935 237.975 883.17C238.901 885.406 240.258 887.437 241.969 889.148C243.679 890.858 245.71 892.215 247.946 893.141C250.181 894.067 252.577 894.544 254.996 894.544C257.416 894.544 259.812 894.067 262.047 893.141C264.282 892.215 266.313 890.858 268.024 889.148C269.735 887.437 271.092 885.406 272.018 883.17C272.944 880.935 273.42 878.539 273.42 876.12C273.42 873.7 272.944 871.305 272.018 869.069C271.092 866.834 269.735 864.803 268.024 863.092C266.313 861.381 264.282 860.024 262.047 859.098C259.812 858.172 257.416 857.696 254.996 857.696C252.577 857.696 250.181 858.172 247.946 859.098C245.71 860.024 243.679 861.381 241.969 863.092C240.258 864.803 238.901 866.834 237.975 869.069C237.049 871.305 236.572 873.7 236.572 876.12Z" fill="#F8AB97"/>
<path d="M742.84 314.482C742.84 319.16 744.698 323.647 748.006 326.955C751.315 330.264 755.801 332.122 760.48 332.122C765.158 332.122 769.645 330.264 772.953 326.955C776.261 323.647 778.12 319.16 778.12 314.482C778.12 309.804 776.261 305.317 772.953 302.009C769.645 298.701 765.158 296.842 760.48 296.842C755.801 296.842 751.315 298.701 748.006 302.009C744.698 305.317 742.84 309.804 742.84 314.482Z" fill="white"/>
<path d="M166.502 520.87C166.502 527.472 169.125 533.803 173.793 538.471C178.461 543.14 184.792 545.762 191.394 545.762C197.996 545.762 204.327 543.14 208.995 538.471C213.663 533.803 216.286 527.472 216.286 520.87C216.286 514.268 213.663 507.937 208.995 503.269C204.327 498.601 197.996 495.978 191.394 495.978C184.792 495.978 178.461 498.601 173.793 503.269C169.125 507.937 166.502 514.268 166.502 520.87Z" fill="white"/>
<path d="M693.644 482.552C691.648 476.961 687.528 472.383 682.178 469.812L680.708 469.126V467.95C682.451 464.421 683.293 460.516 683.158 456.582V454.426C683.122 448.973 681.634 443.628 678.846 438.942L674.142 433.062L676.396 430.808C681.435 425.005 684.279 417.618 684.432 409.934V407.68C684.277 402.433 682.72 397.324 679.924 392.882L674.828 386.708C673.697 385.623 672.448 384.67 671.104 383.866L673.554 382.2C678.104 377.804 680.833 371.856 681.198 365.54C681.495 362.343 680.919 359.125 679.532 356.23C678.634 353.053 676.949 350.154 674.632 347.802C672.53 345.446 669.867 343.659 666.89 342.608C664.139 341.056 661.032 340.246 657.874 340.256H654.934C658.083 334.441 659.479 327.837 658.952 321.244C657.977 313.195 654.11 305.775 648.07 300.366C642.03 294.957 634.229 291.928 626.122 291.844C626.17 290.897 626.17 289.949 626.122 289.002C626.472 279.52 623.101 270.276 616.729 263.245C610.357 256.213 601.489 251.952 592.018 251.37C587.248 251.706 582.573 252.867 578.2 254.8C575.906 248.307 571.576 242.728 565.854 238.896C560.132 235.064 553.325 233.183 546.448 233.534C542.132 233.57 537.904 234.753 534.198 236.964L530.376 231.672C525.936 226.817 519.791 223.867 513.226 223.44C509.87 223.144 506.495 223.718 503.426 225.106C498.095 226.7 493.53 230.185 490.588 234.906C487.645 230.185 483.08 226.7 477.75 225.106C474.68 223.718 471.305 223.144 467.95 223.44C461.385 223.867 455.239 226.817 450.8 231.672L446.978 236.964C443.271 234.753 439.043 233.57 434.728 233.534C427.657 232.917 420.581 234.673 414.619 238.524C408.656 242.374 404.146 248.101 401.8 254.8C397.083 252.955 392.067 251.991 387.002 251.958C377.548 252.515 368.685 256.738 362.297 263.73C355.91 270.721 352.502 279.929 352.8 289.394C352.751 290.341 352.751 291.289 352.8 292.236C344.692 292.32 336.892 295.349 330.852 300.758C324.812 306.167 320.944 313.587 319.97 321.636C319.443 328.229 320.838 334.833 323.988 340.648H321.048C317.889 340.638 314.782 341.448 312.032 343C309.054 344.051 306.391 345.838 304.29 348.194C301.973 350.546 300.287 353.445 299.39 356.622C298.002 359.517 297.426 362.735 297.724 365.932C298.089 372.248 300.818 378.196 305.368 382.592L307.818 384.258C306.473 385.062 305.224 386.015 304.094 387.1L298.998 393.274C296.201 397.716 294.644 402.825 294.49 408.072V410.326C294.832 418.098 297.923 425.495 303.212 431.2L305.466 433.454L300.762 439.334C297.974 444.02 296.485 449.365 296.45 454.818V456.974C296.314 460.908 297.156 464.813 298.9 468.342V469.518L297.43 470.204C294.791 471.423 292.422 473.156 290.461 475.302C288.501 477.448 286.988 479.964 286.011 482.702C285.035 485.439 284.614 488.344 284.774 491.247C284.934 494.149 285.672 496.99 286.944 499.604L289.1 504.014C291.792 509.309 296.373 513.401 301.938 515.48C304.192 516.314 306.593 516.681 308.994 516.558C309.383 518.177 310.011 519.729 310.856 521.164C311.802 523.683 313.431 525.888 315.56 527.534C317.49 529.362 319.849 530.677 322.42 531.356C324.851 532.427 327.522 532.833 330.162 532.532H332.024C329.602 536.377 328.311 540.826 328.3 545.37V547.624C328.09 551.04 328.873 554.443 330.554 557.424C331.568 560.555 333.394 563.362 335.846 565.558C338.118 567.85 340.908 569.564 343.98 570.556C347.013 572.079 350.39 572.788 353.78 572.614L360.444 571.634L362.306 571.046C362.47 573.222 362.932 575.365 363.678 577.416C364.59 581.031 366.258 584.411 368.572 587.333C370.886 590.256 373.794 592.654 377.104 594.37C380.355 596.603 384.145 597.923 388.08 598.192H395.528C397.646 597.892 399.72 597.333 401.702 596.526C402.445 598.252 403.472 599.842 404.74 601.23C409.154 606.257 415.253 609.498 421.89 610.344H428.75C431.793 609.784 434.713 608.689 437.374 607.11C440.486 612.226 444.904 616.42 450.175 619.262C455.445 622.104 461.377 623.491 467.362 623.28C475.607 623.569 483.657 620.734 489.902 615.342C496.146 620.734 504.196 623.569 512.442 623.28C518.426 623.491 524.358 622.104 529.629 619.262C534.899 616.42 539.318 612.226 542.43 607.11C545.09 608.689 548.01 609.784 551.054 610.344H557.914C564.55 609.498 570.649 606.257 575.064 601.23C576.331 599.842 577.358 598.252 578.102 596.526C580.083 597.333 582.157 597.892 584.276 598.192H591.724C595.658 597.923 599.449 596.603 602.7 594.37C606.009 592.654 608.917 590.256 611.231 587.333C613.546 584.411 615.214 581.031 616.126 577.416C616.871 575.365 617.333 573.222 617.498 571.046L619.36 571.634L626.024 572.614C629.413 572.788 632.79 572.079 635.824 570.556C638.896 569.564 641.685 567.85 643.958 565.558C646.41 563.362 648.236 560.555 649.25 557.424C650.931 554.443 651.713 551.04 651.504 547.624V545.37C651.492 540.826 650.201 536.377 647.78 532.532H649.642C652.281 532.833 654.953 532.427 657.384 531.356C659.954 530.677 662.313 529.362 664.244 527.534C666.372 525.888 668.001 523.683 668.948 521.164C669.792 519.729 670.42 518.177 670.81 516.558C673.21 516.681 675.611 516.314 677.866 515.48C683.43 513.401 688.011 509.309 690.704 504.014L692.86 499.604C695.346 494.243 695.628 488.119 693.644 482.552Z" fill="#472B29"/>
<path d="M602.7 431.2C603.974 416.304 599.564 403.564 600.544 396.116C587.51 379.946 579.278 360.934 561.344 349.37C540.767 336.738 518.351 327.381 494.9 321.636C439.04 307.622 384.16 348.488 366.912 401.31L366.324 402.29C368.129 411.836 369.275 421.496 369.754 431.2C354.662 431.2 347.018 439.138 352.212 455.014C352.212 455.014 358.092 480.788 362.012 493.136C362.675 496.481 364.489 499.489 367.138 501.637C369.788 503.785 373.105 504.938 376.516 504.896V529.494C376.164 539.358 379.132 549.054 384.944 557.032C399.742 578.396 475.398 627.592 493.724 625.632C523.124 625.632 581.924 575.26 597.506 550.172C600.248 545.06 601.821 539.403 602.112 533.61V504.21C605.136 503.788 607.956 502.44 610.184 500.352C612.412 498.264 613.94 495.538 614.558 492.548C618.38 480.2 624.358 454.72 624.358 454.426C629.16 438.844 617.4 431.2 602.7 431.2Z" fill="#D8AD8F"/>
<path d="M647.976 681.59L644.644 680.414L638.96 678.062C626.906 672.868 548.212 646.016 548.212 646.016C545.55 645.268 543.091 643.928 541.021 642.095C538.95 640.262 537.321 637.984 536.256 635.432C533.897 626.089 533.134 616.413 534.002 606.816C520.694 612.878 506.805 617.573 492.548 620.83C474.222 622.594 442.078 598.584 442.078 598.584C442.078 598.584 441.196 627.984 439.922 634.942C439.028 637.715 437.414 640.202 435.244 642.147C433.075 644.093 430.428 645.428 427.574 646.016L351.722 671.3C344.203 673.213 337.005 676.217 330.358 680.218C314.264 690.907 302.814 707.293 298.312 726.082H297.822C297.387 728.051 297.092 730.049 296.94 732.06C295.979 736.237 295.518 740.514 295.568 744.8C295.568 749.406 294.686 803.6 294.294 808.696C364.854 862.89 451.878 869.652 555.072 869.652C600.446 869.652 645.428 842.31 685.51 827.316C681.296 735.784 689.724 694.428 647.976 681.59Z" fill="#B2876B"/>
<path d="M399.35 515.872C399.35 521.07 401.384 526.056 405.004 529.731C408.625 533.407 413.535 535.472 418.656 535.472C423.776 535.472 428.686 533.407 432.307 529.731C435.928 526.056 437.962 521.07 437.962 515.872C437.962 510.674 435.928 505.688 432.307 502.013C428.686 498.337 423.776 496.272 418.656 496.272C413.535 496.272 408.625 498.337 405.004 502.013C401.384 505.688 399.35 510.674 399.35 515.872Z" fill="#F4989E"/>
<path d="M547.526 515.872C547.526 521.07 549.56 526.056 553.181 529.731C556.802 533.407 561.712 535.472 566.832 535.472C571.953 535.472 576.863 533.407 580.484 529.731C584.104 526.056 586.138 521.07 586.138 515.872C586.138 513.298 585.639 510.749 584.669 508.371C583.699 505.993 582.276 503.833 580.484 502.013C578.691 500.193 576.563 498.749 574.22 497.764C571.878 496.779 569.368 496.272 566.832 496.272C564.297 496.272 561.787 496.779 559.444 497.764C557.102 498.749 554.974 500.193 553.181 502.013C551.388 503.833 549.966 505.993 548.996 508.371C548.026 510.749 547.526 513.298 547.526 515.872Z" fill="#F4989E"/>
<path d="M618.772 668.066C625.828 766.066 358.092 757.148 361.032 669.438L353.094 670.222L340.746 837.606C479.22 910.518 639.842 849.66 639.842 849.66L627.2 671.594C624.327 670.576 621.513 669.398 618.772 668.066Z" fill="#C0D078"/>
<path d="M499.8 603.386C500.034 603.386 500.259 603.293 500.424 603.128C500.589 602.962 500.682 602.738 500.682 602.504C500.682 602.27 500.589 602.046 500.424 601.88C500.259 601.715 500.034 601.622 499.8 601.622H481.866C481.632 601.622 481.408 601.715 481.243 601.88C481.077 602.046 480.984 602.27 480.984 602.504C480.984 602.738 481.077 602.962 481.243 603.128C481.408 603.293 481.632 603.386 481.866 603.386H499.8Z" fill="#472B29"/>
<path d="M610.638 354.172C613.614 351.203 615.333 347.202 615.44 343C615.281 339.383 613.899 335.928 611.52 333.2C613.154 331.66 614.464 329.809 615.372 327.756C616.281 325.703 616.77 323.489 616.812 321.244C616.394 316.332 614.26 311.724 610.783 308.23C607.306 304.735 602.709 302.577 597.8 302.134C595.774 301.154 593.634 300.43 591.43 299.978C592.134 298.302 592.5 296.504 592.508 294.686C591.702 289.041 588.741 283.928 584.246 280.419C579.751 276.911 574.071 275.281 568.4 275.87C562.843 275.79 557.386 277.359 552.72 280.378C550.229 275.364 546.317 271.194 541.472 268.389C536.628 265.583 531.064 264.265 525.476 264.6C509.894 264.6 497.252 274.4 497.252 286.748C497.236 290.22 498.223 293.623 500.094 296.548C497.251 297.064 494.506 298.023 491.96 299.39V298.802C491.816 295.466 490.788 292.228 488.979 289.421C487.171 286.613 484.648 284.338 481.67 282.828C481.766 281.85 481.766 280.866 481.67 279.888C481.67 268.128 469.42 258.622 454.426 258.622H452.956C450.658 258.228 448.33 258.031 445.998 258.034C438.181 257.926 430.519 260.218 424.046 264.6C418.254 264.432 412.606 266.427 408.204 270.195C403.802 273.963 400.96 279.235 400.232 284.984C396.679 285.141 393.21 286.106 390.085 287.804C386.961 289.502 384.264 291.889 382.2 294.784C378.594 296.213 375.471 298.641 373.197 301.783C370.923 304.925 369.592 308.65 369.362 312.522C365.013 313.213 361.023 315.349 358.037 318.585C355.05 321.82 353.24 325.968 352.898 330.358C352.912 331.893 353.177 333.416 353.682 334.866C350.808 336.721 348.418 339.237 346.714 342.203C345.009 345.169 344.038 348.5 343.882 351.918C344.097 356.092 345.453 360.127 347.804 363.583C350.154 367.039 353.407 369.784 357.21 371.518C357.065 372.689 357.065 373.874 357.21 375.046C357.21 388.374 371.126 399.252 388.178 399.252C395.867 399.324 403.381 396.957 409.64 392.49C413.537 392.112 417.252 390.656 420.368 388.284C423.484 385.913 425.878 382.72 427.28 379.064C432.888 379.652 438.506 378.039 442.949 374.565C447.391 371.092 450.312 366.029 451.094 360.444C454.525 359.825 457.775 358.449 460.606 356.414C463.438 354.38 465.779 351.739 467.46 348.684L470.89 347.9C473.886 352.947 478.215 357.072 483.401 359.82C488.587 362.569 494.431 363.836 500.29 363.482C501.577 368.609 504.656 373.106 508.969 376.161C513.282 379.217 518.546 380.629 523.81 380.142H525.966C525.918 380.892 525.918 381.645 525.966 382.396C526.318 385.299 527.238 388.104 528.675 390.651C530.112 393.198 532.037 395.436 534.34 397.238C536.643 399.041 539.278 400.371 542.096 401.154C544.913 401.937 547.857 402.156 550.76 401.8C554.807 401.923 558.827 401.101 562.501 399.4C566.175 397.699 569.403 395.165 571.928 392C578.276 396.856 586.085 399.413 594.076 399.252C611.324 399.252 625.24 388.374 625.24 374.948C625.003 370.463 623.507 366.136 620.925 362.461C618.342 358.787 614.777 355.914 610.638 354.172Z" fill="#472B29"/>
<path d="M468.734 401.8C444.309 403.064 420.309 408.707 397.88 418.46C397.397 418.637 396.992 418.982 396.741 419.431C396.489 419.88 396.407 420.405 396.508 420.91C396.718 421.364 397.072 421.736 397.515 421.966C397.959 422.197 398.466 422.273 398.958 422.184C398.958 422.184 448.546 413.952 464.716 414.05H465.598C465.959 413.957 466.296 413.786 466.584 413.549C466.872 413.312 467.104 413.015 467.264 412.678L470.694 404.446C470.863 404.201 470.953 403.91 470.953 403.613C470.953 403.316 470.863 403.025 470.694 402.78C470.478 402.463 470.184 402.207 469.841 402.036C469.498 401.864 469.117 401.783 468.734 401.8ZM509.6 411.6C533.415 405.983 558.044 404.688 582.316 407.778C582.828 407.802 583.313 408.016 583.676 408.379C584.038 408.741 584.252 409.226 584.276 409.738C584.232 410.243 584.011 410.716 583.653 411.075C583.295 411.433 582.821 411.654 582.316 411.698C560.333 414.097 538.485 417.597 516.852 422.184H516.068C515.698 422.182 515.332 422.103 514.995 421.951C514.657 421.799 514.355 421.578 514.108 421.302L508.424 414.344C508.278 414.091 508.201 413.803 508.201 413.511C508.201 413.219 508.278 412.931 508.424 412.678C508.679 412.193 509.095 411.811 509.6 411.6ZM436.394 433.748C433.87 433.87 431.43 434.696 429.351 436.134C427.273 437.571 425.639 439.563 424.634 441.882C425.284 441.781 425.945 441.781 426.594 441.882C428.585 442.102 430.425 443.048 431.761 444.54C433.098 446.032 433.837 447.964 433.837 449.967C433.837 451.97 433.098 453.902 431.761 455.394C430.425 456.886 428.585 457.833 426.594 458.052C425.306 458.056 424.045 457.681 422.968 456.974C423.478 460.276 425.076 463.313 427.508 465.603C429.94 467.893 433.068 469.306 436.394 469.616C440.388 468.671 443.947 466.405 446.493 463.186C449.039 459.967 450.424 455.982 450.424 451.878C450.424 447.774 449.039 443.789 446.493 440.57C443.947 437.351 440.388 435.085 436.394 434.14V433.748ZM543.606 433.748C541.493 433.819 539.43 434.411 537.601 435.471C535.772 436.531 534.233 438.026 533.12 439.824C533.928 439.479 534.791 439.28 535.668 439.236C537.659 439.456 539.499 440.402 540.835 441.894C542.172 443.386 542.911 445.318 542.911 447.321C542.911 449.324 542.172 451.256 540.835 452.748C539.499 454.24 537.659 455.187 535.668 455.406C534.438 455.39 533.232 455.057 532.167 454.439C531.103 453.821 530.216 452.939 529.592 451.878C530.286 454.472 531.691 456.82 533.649 458.657C535.606 460.495 538.039 461.749 540.671 462.277C543.303 462.806 546.031 462.589 548.546 461.65C551.061 460.711 553.264 459.088 554.906 456.964C556.548 454.84 557.564 452.299 557.839 449.628C558.114 446.957 557.637 444.263 556.462 441.849C555.287 439.435 553.46 437.397 551.189 435.966C548.917 434.534 546.291 433.766 543.606 433.748Z" fill="#472B29"/>
<path d="M491.862 531.356C494.467 531.266 497.014 530.562 499.296 529.302C501.578 528.042 503.53 526.261 504.994 524.104C505.353 523.604 505.546 523.004 505.546 522.389C505.546 521.774 505.353 521.174 504.994 520.674C504.83 520.451 504.616 520.27 504.369 520.145C504.122 520.02 503.849 519.955 503.573 519.955C503.296 519.955 503.023 520.02 502.776 520.145C502.53 520.27 502.316 520.451 502.152 520.674C500.92 522.172 499.371 523.379 497.618 524.207C495.864 525.035 493.948 525.465 492.009 525.465C490.069 525.465 488.154 525.035 486.4 524.207C484.646 523.379 483.098 522.172 481.866 520.674C481.702 520.451 481.488 520.27 481.241 520.145C480.994 520.02 480.721 519.955 480.445 519.955C480.168 519.955 479.895 520.02 479.648 520.145C479.402 520.27 479.188 520.451 479.024 520.674C478.665 521.174 478.472 521.774 478.472 522.389C478.472 523.004 478.665 523.604 479.024 524.104C480.458 526.222 482.364 527.979 484.591 529.237C486.819 530.496 489.307 531.221 491.862 531.356Z" fill="#472B29"/>
<path d="M458.15 554.876C457.756 556.38 457.558 557.928 457.562 559.482C457.562 573.104 472.654 584.178 491.274 584.178C509.894 584.178 524.888 573.104 524.888 559.482C524.891 557.928 524.693 556.38 524.3 554.876H458.15Z" fill="#6D1B18"/>
<path d="M509.012 580.356C503.897 576.469 497.65 574.365 491.226 574.365C484.801 574.365 478.554 576.469 473.438 580.356C479.03 582.874 485.093 584.177 491.226 584.177C497.358 584.177 503.421 582.874 509.012 580.356Z" fill="#EE3E54"/>
<path d="M467.852 554.876V559.09C467.852 562.716 472.654 565.656 478.534 565.656H504.112C509.992 565.656 514.794 562.716 514.794 559.09V554.876H467.852Z" fill="#FDFCEF"/>
<path d="M486.766 268.324C414.834 268.324 356.622 317.814 356.622 378.966C356.945 384.848 358.515 390.593 361.228 395.822C377.104 341.53 449.428 315.56 486.766 315.56C524.104 315.56 595.742 338.1 612.304 395.822C614.95 390.573 616.485 384.835 616.812 378.966C616.812 317.814 558.6 268.324 486.766 268.324Z" fill="#EE8670"/>
<path d="M600.054 424.928C593.004 422.64 585.607 421.612 578.2 421.89C566.825 422.072 555.47 422.923 544.194 424.438C529.334 427.039 514.873 431.552 501.172 437.864C496.137 440.559 490.517 441.972 484.806 441.98C479.064 441.972 473.412 440.559 468.342 437.864C454.675 431.55 440.247 427.037 425.418 424.438C414.109 422.926 402.722 422.075 391.314 421.89C383.941 421.639 376.58 422.667 369.558 424.928C366.716 426.692 365.638 427.77 368.186 437.864C370.506 446.764 374.104 455.281 378.868 463.148C386.836 475.509 398.202 485.309 411.6 491.372C422.251 495.703 434.172 495.703 444.822 491.372C455.103 486.292 463.708 478.367 469.616 468.538C472.752 462.756 476.966 453.25 481.67 452.858H487.648C492.45 452.858 496.664 462.658 499.8 468.538C505.668 478.363 514.242 486.291 524.496 491.372C535.179 495.709 547.133 495.709 557.816 491.372C571.248 485.362 582.627 475.55 590.548 463.148C595.357 455.292 598.989 446.774 601.328 437.864C603.974 427.77 602.994 426.692 600.054 424.928ZM468.538 459.522C465.181 468.272 459.444 475.91 451.976 481.572C447.179 484.984 441.688 487.298 435.896 488.348C430.103 489.398 424.15 489.159 418.46 487.648C407.23 484.209 397.227 477.609 389.648 468.636C386.495 463.731 384.604 458.122 384.142 452.308C383.68 446.495 384.663 440.658 387.002 435.316C390.432 428.848 402.486 427.672 409.052 427.28C422.331 427.469 435.521 429.48 448.252 433.258C465.892 437.962 468.832 447.174 468.832 447.174C470.142 451.204 470.038 455.56 468.538 459.522ZM580.062 468.636C572.502 477.585 562.538 484.182 551.348 487.648C545.659 489.166 539.705 489.408 533.911 488.358C528.117 487.307 522.627 484.99 517.832 481.572C510.343 475.908 504.575 468.274 501.172 459.522C499.768 455.526 499.768 451.17 501.172 447.174C501.172 447.174 504.112 437.962 521.752 433.258C534.485 429.488 547.674 427.476 560.952 427.28C567.42 427.28 579.572 428.848 583.002 435.316C585.316 440.678 586.258 446.531 585.745 452.348C585.232 458.165 583.279 463.763 580.062 468.636Z" fill="#F94E32"/>
</svg>
