<?xml version="1.0" standalone="no"?><!DOCTYPE svg PUBLIC "-//W3C//DTD SVG 1.1//EN" "http://www.w3.org/Graphics/SVG/1.1/DTD/svg11.dtd"><svg t="1731938348219" class="icon" viewBox="0 0 1024 1024" version="1.1" xmlns="http://www.w3.org/2000/svg" p-id="932" xmlns:xlink="http://www.w3.org/1999/xlink" width="200" height="200">
<path d="M940.053 483.267C940.087 557.368 921.26 630.296 885.295 695.38C849.33 760.464 797.374 815.628 734.178 855.828C725.853 860.925 717.528 866.023 708.978 870.677C639.672 908.665 561.403 927.934 482.101 926.533C402.8 925.132 325.283 903.11 257.404 862.698C253.354 860.482 249.303 857.822 245.478 855.384C179.99 813.617 126.651 755.797 90.6947 687.596C54.7384 619.396 37.4005 543.159 40.3823 466.366C43.3641 389.574 66.5631 314.864 107.703 249.568C148.843 184.273 206.51 130.634 275.046 93.9162C343.581 57.1983 420.631 38.6626 498.634 40.128C576.637 41.5933 652.913 63.0094 719.978 102.275C787.042 141.54 842.591 197.305 881.174 264.099C919.756 330.892 940.046 406.419 940.053 483.267Z" fill="#EFEFEF"/>
<path d="M546.078 800.42C546.078 800.42 368.328 745.678 283.503 940.047H771.753C771.753 940.047 737.553 760.748 546.078 800.42Z" fill="#782440"/>
<path d="M679.053 342.311C656.553 282.692 600.078 215.317 497.253 225.512C467.38 226.968 438.47 236.399 413.62 252.796C388.77 269.193 368.914 291.938 356.178 318.596C336.763 360.348 306.2 396.122 267.753 422.097C220.053 452.682 182.478 503.657 187.203 590.536C187.255 635.814 205.338 679.264 237.566 711.548C269.794 743.833 313.595 762.374 359.553 763.186C557.553 770.057 782.553 612.035 679.053 342.311Z" fill="#000C38"/>
<path d="M612.678 602.283L446.628 629.987L445.278 829.454C445.278 829.454 454.728 882.202 540.453 882.202C621.453 883.532 626.853 826.573 626.853 826.573L612.678 602.283Z" fill="#FFCDC2"/>
<path opacity="0.41" d="M445.053 743.24C477.599 744.736 510.044 738.653 539.755 725.483C569.466 712.313 595.606 692.428 616.053 667.442L612.003 602.283L445.953 629.987L445.053 743.24Z" fill="#EB7D7A"/>
<path d="M721.353 511.193C720.996 516.121 719.585 520.919 717.212 525.271C714.838 529.624 711.557 533.432 707.583 536.446C703.609 539.461 699.033 541.613 694.154 542.761C689.276 543.909 684.206 544.027 679.278 543.108C663.753 538.675 643.953 527.15 643.953 511.193C643.953 495.236 666.453 479.278 682.653 479.278C687.359 478.658 692.144 479.01 696.705 480.312C701.265 481.614 705.5 483.836 709.14 486.838C712.781 489.841 715.746 493.556 717.849 497.749C719.952 501.942 721.145 506.521 721.353 511.193Z" fill="#FFC2B0"/>
<path d="M692.553 522.939C690.26 519.297 689.233 515.018 689.628 510.75C689.782 508.214 690.508 505.745 691.753 503.521C692.999 501.297 694.733 499.375 696.828 497.895C699.022 496.437 701.607 495.658 704.253 495.658C706.899 495.658 709.485 496.437 711.678 497.895C712.949 499.041 714.014 500.39 714.828 501.884C715.517 502.796 716.012 503.835 716.283 504.939C716.554 506.044 716.594 507.191 716.403 508.312C715.994 510.585 715.074 512.74 713.712 514.618C712.349 516.497 710.579 518.053 708.528 519.172C705.603 515.404 703.353 511.636 702.003 510.085C700.653 508.533 702.003 510.085 702.003 511.636C702.003 513.188 707.178 512.966 707.403 511.636C707.628 510.306 705.378 513.188 703.128 514.961C700.089 518.193 696.513 520.891 692.553 522.939Z" fill="#FFB09E"/>
<path d="M336.378 511.193C336.751 516.032 338.14 520.741 340.458 525.023C342.775 529.305 345.972 533.066 349.843 536.067C353.715 539.067 358.177 541.243 362.947 542.455C367.717 543.667 372.691 543.889 377.553 543.108C392.853 538.675 412.653 527.15 412.653 511.193C412.653 495.235 390.153 479.278 373.953 479.278C369.329 478.789 364.651 479.24 360.211 480.604C355.77 481.968 351.661 484.216 348.139 487.208C344.616 490.2 341.755 493.872 339.732 497.998C337.709 502.124 336.567 506.615 336.378 511.193Z" fill="#FFC2B0"/>
<path d="M365.403 522.939C361.696 521.229 358.219 519.07 355.054 516.512C352.804 514.739 350.329 512.301 350.779 513.187C351.229 514.074 355.953 513.187 356.178 513.187C356.403 513.187 356.178 511.414 356.178 511.636C356.178 511.858 352.578 516.955 349.653 520.723C347.603 519.604 345.832 518.048 344.47 516.17C343.108 514.291 342.188 512.136 341.778 509.863C341.528 508.759 341.519 507.614 341.751 506.506C341.984 505.398 342.454 504.351 343.128 503.436C344.105 501.99 345.236 500.653 346.503 499.446C348.651 497.978 351.202 497.192 353.816 497.192C356.43 497.192 358.981 497.978 361.128 499.446C363.289 500.879 365.084 502.785 366.372 505.015C367.66 507.246 368.407 509.739 368.553 512.301C368.533 516.067 367.441 519.752 365.403 522.939Z" fill="#FFB09E"/>
<path d="M682.653 469.97C685.353 580.785 632.253 686.724 539.553 688.94C446.853 691.157 380.253 596.742 377.553 485.927C374.853 375.112 436.953 289.784 529.428 286.46C621.903 283.135 679.728 358.933 682.653 469.97Z" fill="#FFD4CA"/>
<path d="M458.553 370.014C626.853 345.413 604.803 410.129 662.403 458.666C667.255 463.514 673.443 466.854 680.201 468.272C686.96 469.69 693.993 469.125 700.428 466.645C700.428 466.645 715.953 279.589 570.153 274.713C424.353 269.838 397.128 344.749 397.128 344.749C397.128 344.749 404.553 377.993 458.553 370.014Z" fill="#000C38"/>
<path d="M413.553 352.062C407.181 359.784 402.445 368.685 399.624 378.239C396.803 387.794 395.954 397.809 397.128 407.692C402.078 424.536 403.653 469.748 365.403 474.181C365.403 475.067 360.903 382.869 413.553 352.062Z" fill="#000C38"/>
<path d="M588.828 545.767V547.54C587.915 561.889 581.484 575.355 570.846 585.197C560.208 595.04 546.161 600.519 531.566 600.519C516.971 600.519 502.924 595.04 492.286 585.197C481.648 575.355 475.217 561.889 474.303 547.54V545.767" fill="#F28383"/>
<path d="M502.878 483.268C502.426 486.922 500.632 490.286 497.834 492.727C495.036 495.167 491.428 496.514 487.691 496.514C483.954 496.514 480.346 495.167 477.548 492.727C474.75 490.286 472.956 486.922 472.503 483.268C472.241 481.15 472.438 479.002 473.082 476.965C473.725 474.929 474.8 473.05 476.236 471.452C477.672 469.855 479.435 468.577 481.41 467.701C483.384 466.825 485.525 466.373 487.691 466.373C489.856 466.373 491.997 466.825 493.972 467.701C495.947 468.577 497.71 469.855 499.146 471.452C500.581 473.05 501.656 474.929 502.3 476.965C502.943 479.002 503.14 481.15 502.878 483.268ZM599.403 483.268C599.403 485.218 599.013 487.149 598.256 488.95C597.498 490.752 596.388 492.389 594.988 493.768C593.588 495.147 591.926 496.24 590.097 496.987C588.268 497.733 586.308 498.117 584.328 498.117C580.309 498.117 576.451 496.56 573.588 493.781C570.725 491.003 569.087 487.226 569.028 483.268C569.086 479.288 570.717 475.488 573.574 472.674C576.431 469.86 580.289 468.254 584.328 468.197C588.347 468.255 592.181 469.869 595.002 472.689C597.823 475.509 599.404 479.309 599.403 483.268Z" fill="#030303"/>
</svg>
