<?xml version="1.0" standalone="no"?><!DOCTYPE svg PUBLIC "-//W3C//DTD SVG 1.1//EN" "http://www.w3.org/Graphics/SVG/1.1/DTD/svg11.dtd"><svg t="1726536813723" class="icon" viewBox="0 0 1024 1024" version="1.1" xmlns="http://www.w3.org/2000/svg" p-id="8448" xmlns:xlink="http://www.w3.org/1999/xlink" width="200" height="200">
<path fill-rule="evenodd" clip-rule="evenodd" d="M901.719 257.172L925.741 205.545C925.741 205.545 895.169 176.853 858.047 144.341C820.942 111.828 742.342 130.956 742.342 130.956L652.837 42H338.454L248.949 130.956C248.949 130.956 244.036 129.761 236.088 128.476C214.726 125.021 171.437 120.919 142.643 137.632C139.295 139.576 136.142 141.8 133.243 144.341H133.244C96.1218 176.853 65.566 205.545 65.566 205.545L89.5878 257.172L59 333.671C59 333.671 148.906 631.915 159.443 668.346C180.182 740.056 194.371 767.779 253.321 804.126C312.255 840.458 419.232 903.559 436.688 913.137C440.463 915.201 444.441 917.579 448.558 920.039C463.496 928.966 480.249 938.979 495.654 938.979C511.062 938.979 527.809 928.962 542.737 920.033L542.738 920.033C546.847 917.575 550.819 915.199 554.587 913.137C572.059 903.573 679.02 840.458 737.986 804.126C796.92 767.793 811.125 740.056 831.864 668.346C842.385 631.915 932.275 333.671 932.275 333.671L901.719 257.172ZM725.3 210.254C725.3 210.254 628.14 226.503 615.04 226.503C604.598 226.503 584.404 220.422 563.377 214.074C562.585 213.836 561.792 213.598 560.998 213.359C556.444 211.991 551.862 210.614 547.362 209.299C521.162 201.645 503.707 201.589 503.707 201.589C503.707 201.589 486.235 201.645 460.051 209.299C455.728 210.559 451.353 211.874 446.993 213.185C446.006 213.482 445.021 213.778 444.036 214.074C422.993 220.422 402.815 226.503 392.357 226.503C379.257 226.503 282.113 210.254 282.113 210.254C282.113 210.254 166.984 332.172 166.984 358.224C166.984 379.768 176.881 388.209 188.54 398.138L188.955 398.492C191.261 400.461 193.648 402.498 196.034 404.711L282.353 485.002C283.274 485.855 284.209 486.698 285.156 487.53C293.787 495.114 306.471 506.293 297.519 524.859L295.677 528.651C285.86 548.749 273.753 573.579 289.175 598.732C305.574 625.487 333.696 643.337 351.696 640.387C369.713 637.438 412.023 618.085 427.557 609.237C443.123 600.389 492.416 564.759 492.416 551.136C492.416 539.76 456.96 520.857 439.728 511.672L439.644 511.627C436.257 509.823 433.598 508.406 432.041 507.487C430.353 506.486 427.581 504.979 424.164 503.121L423.618 502.824L423.441 502.728C407.68 494.142 379.511 478.797 378.809 471.969C377.928 463.514 378.264 461.042 390.932 440.172C393.638 435.734 396.777 430.988 400.044 426.072L400.084 426.012C412.133 407.84 425.616 387.505 422.625 372.929C419.268 356.487 389.911 347.068 364.992 339.073L364.844 339.026C363.873 338.711 362.909 338.401 361.954 338.093C359.839 337.412 357.767 336.744 355.748 336.076C348.582 333.696 339.565 330.742 330.153 327.659L329.74 327.523C304.838 319.35 277.164 310.263 272.6 308.423C266.29 305.881 267.908 303.438 287.061 301.851C289.371 301.658 292.188 301.396 295.415 301.095L296.35 301.008L296.434 301C320.155 298.793 363.764 294.736 384.991 299.927C388.868 300.881 393.203 301.909 397.751 302.987L398.763 303.227C422.641 308.887 451.883 315.825 454.67 319.827C455.135 320.459 455.616 321.082 456.111 321.695C458.802 325.038 460.547 327.229 457.585 341.441C456.704 345.655 454.894 353.941 452.652 364.193C446.054 394.346 435.741 441.521 434.444 452.096C434.267 453.571 434.075 455.003 433.883 456.38L433.881 456.396C432.233 468.184 431.136 476.029 446.759 479.159L450.826 479.974C468.475 483.527 494.354 488.724 503.707 488.724C512.928 488.724 538.272 483.641 555.899 480.105L556.555 479.974L560.638 479.159C576.269 476.027 575.18 468.177 573.53 456.38C573.493 456.111 573.455 455.842 573.416 455.57C573.258 454.448 573.095 453.295 572.954 452.096C571.721 442.063 562.367 399.104 555.805 368.969C555.46 367.381 555.122 365.829 554.793 364.319L554.611 363.486C552.437 353.563 550.686 345.568 549.829 341.441C546.85 327.229 548.595 325.038 551.286 321.695C551.75 321.133 552.231 320.529 552.711 319.827C555.528 315.827 584.752 308.895 608.606 303.237L608.65 303.227C613.567 302.061 618.243 300.952 622.423 299.927C643.658 294.744 687.362 298.803 711.063 301.008C714.158 301.303 717.254 301.584 720.352 301.851C739.489 303.438 741.123 305.881 734.813 308.423C730.233 310.263 702.56 319.35 677.641 327.523L651.649 336.076C648.735 337.046 645.676 338.029 642.569 339.012L642.489 339.037C617.556 347.037 588.148 356.472 584.788 372.929C581.778 387.521 595.294 407.885 607.369 426.072L607.913 426.895C610.971 431.517 613.925 435.983 616.465 440.172C629.149 461.042 629.485 463.514 628.604 471.969C627.887 478.772 599.791 494.093 584.031 502.687L583.779 502.824L583.233 503.121C579.816 504.979 577.044 506.486 575.356 507.487C573.927 508.339 571.522 509.62 568.478 511.241L567.669 511.672L567.558 511.731C550.286 520.951 514.981 539.799 514.981 551.136C514.981 564.773 564.29 600.389 579.84 609.237C595.39 618.071 637.701 637.438 655.701 640.387C673.717 643.351 701.823 625.487 718.238 598.718C733.658 573.581 721.539 548.753 711.723 528.643L711.72 528.637L709.878 524.859C700.942 506.293 713.626 495.114 722.242 487.53C723.194 486.698 724.133 485.855 725.06 485.002L811.379 404.711C813.648 402.581 815.93 400.635 818.143 398.748C818.382 398.544 818.62 398.341 818.858 398.138L818.903 398.099C830.542 388.173 840.429 379.74 840.429 358.224C840.429 332.158 725.3 210.254 725.3 210.254ZM599.142 658.095L598.369 657.746C592.331 655.036 585.781 652.058 578.799 648.884C548.019 634.938 509.68 623.085 503.707 623.085C497.717 623.085 459.362 634.952 428.614 648.884L409.076 657.718C388.514 667.001 373.924 673.588 368.415 676.594C361.289 680.526 365.645 687.885 372.131 691.902C378.617 695.918 465.848 755.101 474.336 761.646L477.747 764.328L477.881 764.433C486.028 770.85 496.364 778.99 503.691 778.99C511.073 778.99 521.483 770.774 529.634 764.328L533.077 761.646C541.533 755.101 628.78 695.918 635.266 691.916C641.768 687.885 646.108 680.512 638.982 676.608C633.542 673.626 619.265 667.18 599.142 658.095Z" />
</svg>
