<?xml version="1.0" standalone="no"?><!DOCTYPE svg PUBLIC "-//W3C//DTD SVG 1.1//EN" "http://www.w3.org/Graphics/SVG/1.1/DTD/svg11.dtd"><svg t="1732756593513" class="icon" viewBox="0 0 1024 1024" version="1.1" xmlns="http://www.w3.org/2000/svg" p-id="4425" xmlns:xlink="http://www.w3.org/1999/xlink" width="200" height="200">
<path d="M863.333 420V793.333C863.333 802.526 861.523 811.628 858.005 820.121C854.487 828.614 849.331 836.331 842.831 842.831C836.331 849.331 828.614 854.487 820.121 858.005C811.628 861.523 802.526 863.333 793.333 863.333H186.667C168.101 863.333 150.297 855.958 137.169 842.831C124.041 829.703 116.667 811.898 116.667 793.333V420H863.333ZM373.333 630H256.667V700H373.333V630ZM548.333 630H431.667V700H548.333V630ZM723.333 630H606.667V700H723.333V630ZM373.333 490H256.667V560H373.333V490ZM548.333 490H431.667V560H548.333V490ZM723.333 490H606.667V560H723.333V490ZM186.667 163.333H256.667V280H408.333V163.333H583.333V280H735V163.333H793.333C802.526 163.333 811.628 165.144 820.121 168.662C828.614 172.179 836.331 177.336 842.831 183.836C849.331 190.336 854.487 198.053 858.005 206.545C861.523 215.038 863.333 224.141 863.333 233.333V350H116.667V233.333C116.667 214.768 124.041 196.963 137.169 183.836C150.297 170.708 168.101 163.333 186.667 163.333ZM693.14 116.667V233.333H623.14V116.667H693.14ZM363.72 116.667V233.333H293.72V116.667H363.72Z" />
</svg>
