<?xml version="1.0" standalone="no"?><!DOCTYPE svg PUBLIC "-//W3C//DTD SVG 1.1//EN" "http://www.w3.org/Graphics/SVG/1.1/DTD/svg11.dtd"><svg t="1741875182144" class="icon" viewBox="0 0 1024 1024" version="1.1" xmlns="http://www.w3.org/2000/svg" p-id="3493" xmlns:xlink="http://www.w3.org/1999/xlink" width="200" height="200">
<path d="M404.462 97.1724V377.502C404.308 409.599 380.568 435.676 351.16 435.676H94.3017C64.8938 435.508 41 409.599 41 377.504V97.1737C41 65.0772 64.8938 39 94.3005 39H351.159C380.568 39 404.462 65.2454 404.462 97.1724ZM404.462 600.496V880.826C404.308 912.923 380.568 939 351.16 939H94.3017C64.8938 938.832 41 912.923 41 880.659V600.496C41 568.403 64.8938 542.324 94.3005 542.324H351.159C380.568 542.324 404.462 568.234 404.462 600.496ZM905.007 174.067H516.731C496.82 174.067 480.738 156.515 480.738 134.784V112.05C480.738 90.486 496.973 72.7671 516.732 72.7671H905.007C924.765 72.7671 941 90.486 941 112.05V134.784C940.847 156.348 924.918 173.899 905.007 174.067ZM905.007 406.757H516.731C496.82 406.757 480.738 389.205 480.738 367.473V344.741C480.738 323.177 496.973 305.458 516.732 305.458H905.007C924.765 305.458 941 323.177 941 344.741V367.473C940.847 389.205 924.918 406.757 905.007 406.757ZM905.007 674.884H516.731C496.82 674.884 480.738 657.332 480.738 635.6V612.867C480.738 591.303 496.973 573.584 516.732 573.584H905.007C924.765 573.584 941 591.303 941 612.867V635.6C940.847 657.165 924.918 674.716 905.007 674.884ZM905.007 907.74H516.731C496.82 907.74 480.738 890.188 480.738 868.457V845.723C480.738 824.159 496.973 806.44 516.732 806.44H905.007C924.765 806.44 941 824.159 941 845.723V868.457C940.847 890.021 924.918 907.572 905.007 907.74Z"/>
</svg>
