<?xml version="1.0" standalone="no"?><!DOCTYPE svg PUBLIC "-//W3C//DTD SVG 1.1//EN" "http://www.w3.org/Graphics/SVG/1.1/DTD/svg11.dtd"><svg t="1731938348219" class="icon" viewBox="0 0 1024 1024" version="1.1" xmlns="http://www.w3.org/2000/svg" p-id="932" xmlns:xlink="http://www.w3.org/1999/xlink" width="200" height="200">
<path fill-rule="evenodd" clip-rule="evenodd" d="M105.985 298.458H874.014C891.708 298.458 906.142 312.892 906.142 330.469V874.538C906.142 892.232 891.708 906.549 874.014 906.549H105.985C88.2914 906.549 73.8574 892.115 73.8574 874.538V330.469C73.8574 312.776 88.2914 298.458 105.985 298.458ZM746.087 138.404H233.912C225.065 138.404 217.848 131.303 217.965 122.223V90.5618C217.965 81.5987 225.182 74.3817 233.912 74.3817H746.087C754.934 74.3817 762.034 81.4823 762.034 90.5618V122.223C762.034 131.187 754.817 138.404 746.087 138.404ZM826.056 250.384H153.943C145.096 250.384 137.879 243.283 137.879 234.204V202.542C137.879 193.579 145.096 186.362 153.943 186.362H826.056C834.903 186.362 842.12 193.462 842.12 202.542V234.204C842.12 243.167 834.903 250.384 826.056 250.384ZM669.844 594.588C676.595 597.266 682.415 600.991 687.421 605.88C692.426 610.652 696.384 616.356 698.828 622.758C701.622 629.277 703.019 636.144 703.019 643.594C703.019 650.811 701.622 657.679 698.828 664.081C696.034 670.6 692.077 676.187 687.071 680.843C682.066 685.616 676.129 689.341 669.494 692.018C662.859 694.695 655.759 696.092 648.309 696.092C640.859 696.092 633.759 694.695 627.124 692.018C620.489 689.224 614.668 685.499 609.779 680.843C604.891 676.071 601.049 670.483 598.256 664.081C595.462 657.563 594.065 650.811 594.065 643.594C594.065 637.89 594.996 632.536 596.742 627.414C598.605 622.292 600.933 617.636 603.727 613.446L566.361 549.191L501.292 689.69C504.667 694.346 507.228 699.351 509.207 704.706C511.186 709.944 512.117 715.648 512.117 721.584C512.117 728.801 510.72 735.669 507.927 742.071C505.133 748.59 501.292 754.177 496.403 758.834C491.514 763.606 485.693 767.331 479.059 770.008C472.423 772.686 465.323 774.082 457.873 774.082C450.423 774.082 443.323 772.686 436.688 770.008C430.053 767.215 424.233 763.49 419.344 758.834C414.455 754.061 410.613 748.474 407.82 742.071C405.026 735.553 403.629 728.801 403.629 721.584C403.629 718.325 403.862 715.299 404.211 712.272C404.677 709.362 405.492 706.568 406.772 704.124L331.692 616.356C330.411 616.356 329.131 616.472 327.851 616.589C326.57 616.705 325.173 616.821 323.66 616.821C316.21 616.821 309.11 615.425 302.475 612.747C295.84 609.954 290.019 606.229 285.13 601.573C280.242 596.916 276.4 591.329 273.607 585.043C270.813 578.758 269.416 572.006 269.416 564.789C269.416 557.572 270.813 550.704 273.607 544.302C276.4 537.784 280.242 532.196 285.13 527.54C290.019 522.768 295.84 519.043 302.475 516.365C309.11 513.688 316.21 512.291 323.66 512.291C331.343 512.291 338.56 513.688 345.078 516.365C351.597 519.159 357.417 522.884 362.422 527.54C367.428 532.313 371.385 537.9 374.179 544.302C376.973 550.821 378.37 557.572 378.37 564.789C378.37 569.911 377.555 575.033 376.042 579.805C374.528 584.694 372.433 589.234 369.872 593.424L435.756 673.743C439.132 672.229 442.624 671.065 446.349 670.018C450.074 668.97 454.032 668.504 458.106 668.504C459.619 668.504 461.714 668.737 464.275 669.203L530.509 526.143C524.921 521.254 520.498 515.318 517.239 508.683C514.096 502.048 512.466 494.714 512.466 486.799C512.466 479.582 513.863 472.714 516.657 466.312C519.451 459.91 523.292 454.322 528.181 449.433C533.07 444.661 538.773 440.82 545.292 438.142C551.927 435.465 559.028 434.068 566.71 434.068C574.509 434.068 581.61 435.465 588.128 438.142C594.647 440.82 600.467 444.661 605.473 449.433C610.478 454.206 614.436 459.91 617.229 466.312C620.023 472.83 621.42 479.582 621.42 486.799C621.42 494.714 619.79 501.931 616.414 508.683C613.039 515.318 608.615 521.138 602.912 526.143L639.462 590.514H648.658C656.108 590.514 663.209 591.911 669.844 594.588Z"/>
</svg>
