<?xml version="1.0" standalone="no"?><!DOCTYPE svg PUBLIC "-//W3C//DTD SVG 1.1//EN" "http://www.w3.org/Graphics/SVG/1.1/DTD/svg11.dtd"><svg t="1715411846345" class="icon" viewBox="0 0 1024 1024" version="1.1" xmlns="http://www.w3.org/2000/svg" p-id="5225" xmlns:xlink="http://www.w3.org/1999/xlink" width="200" height="200">
<path d="M725.75 54C790.532 54 843.05 106.517 843.05 171.3C843.05 236.082 790.532 288.6 725.75 288.6C704.657 288.6 684.864 283.032 667.761 273.287C666.533 275.295 665.087 277.16 663.449 278.85L663.077 279.227L633.95 308.355C658.169 341.739 672.45 382.802 672.45 427.2C672.45 472.31 657.707 513.977 632.777 547.645L732.161 671.876C755.441 658.652 782.363 651.1 811.05 651.1C899.388 651.1 971 722.712 971 811.05C971 899.388 899.388 971 811.05 971C722.712 971 651.1 899.388 651.1 811.05C651.1 774.555 663.323 740.914 683.898 713.999L586.817 592.646C553.777 616.047 513.419 629.8 469.85 629.8C442.26 629.8 415.958 624.285 391.986 614.297L338.386 667.895C360.597 695.36 373.9 730.327 373.9 768.4C373.9 856.738 302.288 928.35 213.95 928.35C125.612 928.35 54 856.738 54 768.4C54 680.062 125.612 608.45 213.95 608.45C240.982 608.45 266.447 615.156 288.773 626.994L336.254 579.516C293.953 542.384 267.25 487.91 267.25 427.2C267.25 393.903 275.282 362.483 289.515 334.77L228.485 273.74C211.567 283.205 192.063 288.6 171.3 288.6C106.517 288.6 54 236.082 54 171.3C54 106.517 106.517 54 171.3 54C236.082 54 288.6 106.517 288.6 171.3C288.6 192.063 283.205 211.567 273.74 228.485L327.899 282.643C364.454 246.743 414.566 224.6 469.85 224.6C514.248 224.6 555.31 238.881 588.695 263.1L617.823 233.973C619.612 232.181 621.606 230.608 623.765 229.285C614.017 212.185 608.45 192.392 608.45 171.3C608.45 106.517 660.968 54 725.75 54Z"/>
</svg>
