<?xml version="1.0" standalone="no"?><!DOCTYPE svg PUBLIC "-//W3C//DTD SVG 1.1//EN" "http://www.w3.org/Graphics/SVG/1.1/DTD/svg11.dtd"><svg t="1732756593513" class="icon" viewBox="0 0 1024 1024" version="1.1" xmlns="http://www.w3.org/2000/svg" p-id="4425" xmlns:xlink="http://www.w3.org/1999/xlink" width="200" height="200">
<path d="M745.127 81.6665C769.494 81.6665 792.862 91.3462 810.092 108.576C827.322 125.806 837.002 149.175 837.002 173.542V806.662C837.002 831.029 827.322 854.398 810.092 871.628C792.862 888.858 769.494 898.537 745.127 898.537L306.25 898.497V81.6665H745.127ZM245 82.2382V897.925C222.541 895.414 201.796 884.714 186.73 867.87C171.664 851.026 163.334 829.22 163.333 806.622V173.542C163.329 152.068 170.846 131.272 184.578 114.764C198.311 98.2567 217.392 87.0807 238.508 83.1773L245.041 82.2382H245ZM663.542 510.417H479.628C472.228 510.417 465.078 513.097 459.5 517.961C453.923 522.825 450.296 529.545 449.289 536.877L449.003 541.042V561.132C449.003 622.259 495.349 653.292 571.585 653.292C644.881 653.292 690.573 624.627 693.963 568.073L694.167 561.132V541.042C694.166 533.641 691.486 526.491 686.622 520.914C681.758 515.336 675.039 511.709 667.707 510.702L663.542 510.417ZM571.585 326.667C552.628 326.667 534.447 334.197 521.042 347.602C507.637 361.007 500.106 379.188 500.106 398.145C500.106 417.103 507.637 435.283 521.042 448.688C534.447 462.093 552.628 469.624 571.585 469.624C590.543 469.624 608.723 462.093 622.128 448.688C635.533 435.283 643.064 417.103 643.064 398.145C643.064 379.188 635.533 361.007 622.128 347.602C608.723 334.197 590.543 326.667 571.585 326.667Z" />
</svg>
