<?xml version="1.0" standalone="no"?><!DOCTYPE svg PUBLIC "-//W3C//DTD SVG 1.1//EN" "http://www.w3.org/Graphics/SVG/1.1/DTD/svg11.dtd"><svg t="1715411846345" class="icon" viewBox="0 0 1024 1024" version="1.1" xmlns="http://www.w3.org/2000/svg" p-id="5225" xmlns:xlink="http://www.w3.org/1999/xlink" width="200" height="200">
<path fill-rule="evenodd" clip-rule="evenodd" d="M81.7406 161.841C115.819 -43.2538 913.653 -43.2538 947.731 161.841L949.736 848.043C949.736 954.419 728.427 1015.26 514.736 1015.26C301.045 1015.26 79.736 956.433 79.736 848.043V161.841H81.7406ZM147.758 169.094H146.543V175.095C146.549 173.188 146.955 171.183 147.758 169.094ZM146.543 175.182V266.202C228.339 315.763 374.605 342.357 517.244 342.357C659.314 342.357 802.983 315.975 886.939 266.795V180.66C874.553 216.046 748.111 275.872 517.244 275.872C275.987 275.872 146.652 209.444 146.543 175.182ZM886.939 169.659V169.094H886.73C886.803 169.283 886.872 169.471 886.939 169.659ZM886.939 408.68C874.46 444.06 746.292 503.935 517.244 503.935C275.987 503.935 146.652 437.506 146.543 403.244L146.543 494.264C228.339 543.826 374.605 570.419 517.244 570.419C659.314 570.419 802.983 544.038 886.939 494.857V408.68ZM886.939 636.742C874.46 672.122 746.292 731.997 517.244 731.997C275.987 731.997 146.652 665.569 146.543 631.306L146.543 724.341C228.339 773.903 374.605 800.497 517.244 800.497C659.314 800.497 802.983 774.115 886.939 724.934V636.742ZM760.501 391.918C760.501 407.633 773.331 420.527 788.967 420.527C804.603 420.527 817.432 407.633 817.432 391.918C817.432 376.204 804.603 363.31 788.967 363.31C773.331 363.31 760.501 376.204 760.501 391.918ZM760.501 608.699C760.501 624.413 773.331 637.307 788.967 637.307C804.603 637.307 817.432 624.413 817.432 608.699C817.432 592.984 804.603 580.09 788.967 580.09C773.331 580.09 760.501 592.581 760.501 608.699ZM760.501 830.717C760.501 846.432 773.331 859.326 788.967 859.326C804.603 859.326 817.432 846.432 817.432 830.717C817.432 815.002 804.603 802.108 788.967 802.108C773.331 802.511 760.501 815.002 760.501 830.717Z" />
</svg>
