<?xml version="1.0" standalone="no"?><!DOCTYPE svg PUBLIC "-//W3C//DTD SVG 1.1//EN" "http://www.w3.org/Graphics/SVG/1.1/DTD/svg11.dtd"><svg t="1692150809646" class="icon" viewBox="0 0 1024 1024" version="1.1" xmlns="http://www.w3.org/2000/svg" p-id="4424" xmlns:xlink="http://www.w3.org/1999/xlink" width="200" height="200"><path d="M822.591009 893.262435c-12.131471 9.654466-30.328677 7.996629-41.075366-3.315676-8.825548-9.644714-17.651095-19.572236-24.818805-29.21695-20.401155-27.295809-37.769443-56.239705-51.548999-86.568382-7.450517-15.993257-4.680953-35.009631 7.713821-47.141102 107.242593-105.867563 122.679987-277.902352 29.499759-401.684312-49.34505-65.338308-121.022149-107.515648-201.807603-118.818201-81.048758-11.312304-161.551404 9.361907-226.889712 58.716709-65.338308 49.071995-107.515648 121.022149-118.8182 201.807603-11.312304 81.048758 9.361907 161.551404 58.716709 226.889712 49.34505 65.338308 121.022149 107.5254 201.807603 118.827952 28.397784 3.861787 56.51276 3.861787 84.081625 0 17.651095-2.486756 35.292438 6.611847 42.733204 22.87816 17.651095 37.769443 38.871417 73.8908 64.509389 107.798456 8.279436 10.756441 14.891283 21.50313 12.677582 29.772814-4.12509 16.822176-25.355164 21.50313-47.687213 28.670839C310.075373 1095.070038-19.922089 879.473126 17.574298 613.711997l45.210208-322.556696C100.007838 25.38442 476.873346-91.229831 740.986389 81.624125c333.859249 218.073916 344.888745 601.834078 81.60462 811.63831z m-301.336374-553.317947a170.786535 170.786535 0 0 0-127.087885 32.815434c-36.667468 27.568865-60.101491 67.815312-66.723089 113.02552a170.786535 170.786535 0 0 0 32.815433 127.097637c27.568865 36.667468 67.815312 60.101491 113.025521 66.713337 54.035756 7.723573 107.5254-10.473633 146.95268-50.173969 51.822055-52.377918 63.407414-135.357569 28.114976-200.149765-26.739946-49.34505-73.334936-81.331565-127.36094-89.045386l0.273056-0.282808z" p-id="4425"></path></svg>