<?xml version="1.0" standalone="no"?><!DOCTYPE svg PUBLIC "-//W3C//DTD SVG 1.1//EN" "http://www.w3.org/Graphics/SVG/1.1/DTD/svg11.dtd"><svg t="1717661678247" class="icon" viewBox="0 0 1024 1024" version="1.1" xmlns="http://www.w3.org/2000/svg" p-id="5038" xmlns:xlink="http://www.w3.org/1999/xlink" width="200" height="200"><path d="M513.024 765.44c0.256-139.776 113.664-253.184 253.44-253.44 140.032 0 253.44 113.408 253.44 253.44s-113.408 253.44-253.44 253.44-253.44-113.408-253.44-253.44z m72.448 0c0 19.968 16.128 36.096 36.096 36.096h108.544v108.544c0 19.968 16.128 36.096 36.096 36.096s36.096-16.128 36.096-36.096v-108.544H911.36c19.968 0 36.096-16.128 36.096-36.096s-16.128-36.096-36.096-36.096h-108.544v-108.544c0-19.968-16.128-36.096-36.096-36.096s-36.096 16.128-36.096 36.096v108.544H622.08c-20.48 0-36.608 16.128-36.608 36.096z m-24.064 253.44H151.04c-79.872 0-144.896-64.768-144.896-144.896V150.016C6.144 69.888 70.912 5.12 151.04 5.12h579.328c79.872 0 144.896 64.768 144.896 144.896V458.24c-34.816-12.288-71.68-18.432-108.544-18.432-179.968 0.256-325.632 145.92-325.888 325.888-0.512 98.304 44.032 191.488 120.576 253.184zM151.04 837.888c0 19.968 16.128 36.096 36.096 36.096H404.48c19.968 0 36.096-16.128 36.096-36.096s-16.128-36.096-36.096-36.096H187.136c-19.968-0.256-36.096 16.128-36.096 36.096z m0-289.792c0 19.968 16.128 36.096 36.096 36.096H404.48c19.968 0 36.096-16.128 36.096-36.096S424.448 512 404.48 512H187.136c-19.968 0-36.096 16.128-36.096 36.096zM151.04 258.56c0 19.968 16.128 36.096 36.096 36.096h506.88c19.968 0 36.096-16.128 36.096-36.096s-16.128-36.096-36.096-36.096h-506.88C167.168 222.464 151.04 238.592 151.04 258.56z" p-id="5039"></path></svg>