<?xml version="1.0" standalone="no"?><!DOCTYPE svg PUBLIC "-//W3C//DTD SVG 1.1//EN" "http://www.w3.org/Graphics/SVG/1.1/DTD/svg11.dtd"><svg t="1620303925601" class="icon" viewBox="0 0 1024 1024" version="1.1" xmlns="http://www.w3.org/2000/svg" p-id="3879" xmlns:xlink="http://www.w3.org/1999/xlink" width="200" height="200"><defs><style type="text/css"></style></defs><path d="M516.608 961.024c-6.656 0-12.8-2.048-17.92-6.144-7.68-6.144-153.088-132.096-153.088-132.096-6.144-6.144-9.216-13.824-9.216-22.016V430.08l-268.8-309.76c-10.752-13.312-8.704-33.28 5.12-43.52 5.12-4.096 12.8-6.656 18.944-6.656h710.656c8.704 0 15.872 3.072 22.016 9.216s9.216 13.824 9.216 22.016c0 7.168-2.56 14.336-7.168 20.48L547.84 430.592v499.2c0 17.408-13.824 31.232-31.232 31.232z" p-id="3880"></path><path d="M707.072 898.048c-7.68 0-15.872-3.072-22.016-9.216s-9.216-13.824-9.216-22.016c0-17.408 13.824-31.232 31.232-31.232h240.64c17.408 0 31.232 13.824 31.232 31.232s-13.824 31.232-31.232 31.232h-240.64z m0-194.048c-17.408 0-31.232-13.824-31.232-31.232s13.824-31.232 31.232-31.232h240.64c17.408 0 31.232 13.824 31.232 31.232S965.12 704 947.712 704h-240.64z m0-192c-17.408 0-31.232-14.336-30.208-31.744 0-17.408 13.824-30.208 30.208-30.208h239.616c17.408 0 31.232 13.824 31.232 31.232s-13.824 31.232-31.232 31.232L707.072 512z" p-id="3881"></path></svg>