<?xml version="1.0" standalone="no"?><!DOCTYPE svg PUBLIC "-//W3C//DTD SVG 1.1//EN" "http://www.w3.org/Graphics/SVG/1.1/DTD/svg11.dtd"><svg t="1731938743067" class="icon" viewBox="0 0 1024 1024" version="1.1" xmlns="http://www.w3.org/2000/svg" p-id="1462" xmlns:xlink="http://www.w3.org/1999/xlink" width="200" height="200"><path d="M448.01024 92.83072c-107.61728 36.58752-135.424 183.22432-67.75296 267.86304 44.09856 55.15776 130.28864 70.05696 195.7376 47.81056 107.61216-36.59264 135.424-183.22432 67.74784-267.86304-44.09856-55.15776-130.28864-70.06208-195.7376-47.81056z" p-id="1463"></path><path d="M341.33504 202.66496l10.66496 10.67008-10.66496-10.67008m330.66496 0l10.66496 10.67008-10.66496-10.67008M341.33504 288l10.66496 10.66496-10.66496-10.66496m330.66496 0l10.66496 10.66496-10.66496-10.66496z" p-id="1464"></path><path d="M298.66496 906.66496c-57.58464-135.89504-40.93952-351.0272 106.67008-416-39.60832-16.14848-79.7184-4.14208-117.33504 14.69952-106.22464 53.1968-138.624 151.52128-138.66496 262.63552-0.01536 33.60256-12.96896 103.8848 17.1008 127.70304 29.71648 23.53664 96.41984 10.96192 132.22912 10.96192z" p-id="1465"></path><path d="M412.53376 526.53056c-120.98048 35.29216-116.8128 148.5824-116.80768 247.68512 0 31.8464-8.4992 82.01216 16.95744 107.12576 17.84832 17.60256 47.37536 14.90944 70.65088 15.06304 64.96256 0.4352 141.49632 10.15808 204.41088-7.41376 125.76256-35.10784 158.208-217.22624 81.39776-311.17824-52.69504-64.45056-179.5328-73.76896-256.60928-51.28192z" p-id="1466"></path><path d="M597.33504 490.66496c43.33568 29.32736 85.92896 48.34816 113.41312 96.04096 66.9184 116.1216 17.13664 281.18016-113.41312 319.95904 87.90016 36.8896 212.33664 5.36576 253.0304-85.37088 17.80224-39.7056 13.70112-85.54496 13.63456-127.95904-0.09216-58.98752-3.98336-111.8464-47.77984-156.36992-57.7536-58.7264-143.79008-46.30016-218.88512-46.30016z" p-id="1467"></path></svg>