<?xml version="1.0" standalone="no"?><!DOCTYPE svg PUBLIC "-//W3C//DTD SVG 1.1//EN" "http://www.w3.org/Graphics/SVG/1.1/DTD/svg11.dtd"><svg t="1734653793682" class="icon" viewBox="0 0 1024 1024" version="1.1" xmlns="http://www.w3.org/2000/svg" p-id="4271" xmlns:xlink="http://www.w3.org/1999/xlink" width="200" height="200"><path d="M928.853333 672L825.173333 853.333333a85.333333 85.333333 0 0 1-74.24 42.666667H358.4a21.333333 21.333333 0 0 1-17.066667-32L442.453333 682.666667a85.333333 85.333333 0 0 1 74.24-42.666667h393.813334a21.333333 21.333333 0 0 1 18.346666 32z m-492.373333-243.2L331.52 246.613333a20.906667 20.906667 0 0 0-36.693333 0L93.866667 597.333333a65.28 65.28 0 0 0-8.533334 32v9.386667a65.28 65.28 0 0 0 8.533334 32l107.946666 188.586667a21.76 21.76 0 0 0 37.12 0L436.48 512a85.333333 85.333333 0 0 0 0-83.2zM586.666667 512a85.333333 85.333333 0 0 0 73.813333 42.666667h208.64a21.333333 21.333333 0 0 0 18.773333-32L686.933333 170.666667a85.333333 85.333333 0 0 0-74.24-42.666667H404.053333a21.333333 21.333333 0 0 0-20.053333 32z" p-id="4272"></path></svg>