<?xml version="1.0" standalone="no"?><!DOCTYPE svg PUBLIC "-//W3C//DTD SVG 1.1//EN" "http://www.w3.org/Graphics/SVG/1.1/DTD/svg11.dtd"><svg t="1726536798242" class="icon" viewBox="0 0 1024 1024" version="1.1" xmlns="http://www.w3.org/2000/svg" p-id="6460" xmlns:xlink="http://www.w3.org/1999/xlink" width="200" height="200"><path d="M597.333333 85.333333H256c-47.146667 0-85.333333 38.186667-85.333333 85.333334v682.666666c0 47.146667 38.186667 85.333333 85.333333 85.333334h512c47.146667 0 85.333333-38.186667 85.333333-85.333334V341.333333zM384 853.333333H298.666667v-85.333333h85.333333z m0-128H298.666667v-85.333333h85.333333z m0-128H298.666667v-85.333333h85.333333z m341.333333 256h-256v-85.333333h256z m0-128h-256v-85.333333h256z m0-128h-256v-85.333333h256z m-170.666666-213.333333V149.333333L789.333333 384z"  p-id="6461"></path></svg>