<?xml version="1.0" standalone="no"?><!DOCTYPE svg PUBLIC "-//W3C//DTD SVG 1.1//EN" "http://www.w3.org/Graphics/SVG/1.1/DTD/svg11.dtd"><svg t="1726536813723" class="icon" viewBox="0 0 1024 1024" version="1.1" xmlns="http://www.w3.org/2000/svg" p-id="8448" xmlns:xlink="http://www.w3.org/1999/xlink" width="200" height="200"><path d="M597.333333 85.333333H256c-47.146667 0-85.333333 38.186667-85.333333 85.333334v682.666666c0 47.146667 38.186667 85.333333 85.333333 85.333334h512c47.146667 0 85.333333-38.186667 85.333333-85.333334V341.333333z m-128 768H298.666667v-85.333333h170.666666z m0-128H298.666667v-85.333333h170.666666z m0-128H298.666667v-85.333333h170.666666z m256 256h-170.666666v-85.333333h170.666666z m0-128h-170.666666v-85.333333h170.666666z m0-128h-170.666666v-85.333333h170.666666z m-170.666666-213.333333V149.333333L789.333333 384z" p-id="8449"></path></svg>