<?xml version="1.0" standalone="no"?><!DOCTYPE svg PUBLIC "-//W3C//DTD SVG 1.1//EN" "http://www.w3.org/Graphics/SVG/1.1/DTD/svg11.dtd"><svg t="1706575522451" class="icon" viewBox="0 0 1024 1024" version="1.1" xmlns="http://www.w3.org/2000/svg" p-id="12055" xmlns:xlink="http://www.w3.org/1999/xlink" width="200" height="200"><path d="M403.456 98.816c-175.104 0-316.928 52.224-316.928 116.736v93.184c0 64.512 141.824 116.736 316.928 116.736l61.952-2.048c7.68-26.624 25.6-65.536 64-83.968 53.76-25.088 80.896-8.192 119.808 7.68 0 0 14.848-12.288 33.792-16.384 12.288-4.608 30.208-4.096 37.376-2.048V215.552c0.512-64-141.824-116.736-316.928-116.736zM339.456 739.84c-5.632-6.656-10.24-35.84-29.184-37.888-130.56-14.336-223.744-59.392-223.744-112.64v140.288c0 64 141.824 116.736 316.928 116.736h18.944c-14.336-5.632-25.088-12.288-40.96-34.816-27.136-29.696-31.232-36.864-41.984-71.68zM350.208 566.784c-2.56-15.872-3.584-47.616 15.872-72.704C205.824 488.448 86.528 439.808 86.528 378.88v140.288c0 52.736 94.208 97.28 224.768 111.104 3.584-9.216-4.608-46.592 38.912-63.488z" p-id="12056"></path><path d="M930.304 616.96h-242.688c-20.992 0-37.888 16.896-37.888 37.888v193.024c0 20.992 16.896 37.888 37.888 37.888h242.688c20.992 0 37.888-16.896 37.888-37.888v-193.024c-0.512-20.992-17.408-37.888-37.888-37.888z m-140.288 198.656c-10.752 10.752-29.184 18.944-51.712 18.944-43.52 0-75.264-30.72-75.264-83.968 0-53.248 32.768-84.992 75.776-84.992 23.04 0 38.4 10.24 48.64 20.48l-13.824 16.384c-8.192-8.192-17.92-14.848-33.792-14.848-30.208 0-50.688 23.552-50.688 61.952 0 38.912 17.92 62.464 51.712 62.464 9.728 0 19.968-3.072 25.6-8.192v-38.4h-32.256v-20.992h55.808v71.168z m80.896 15.872h-43.52v-162.816h42.496c50.176 0 78.848 27.648 78.848 80.896-0.512 52.736-29.184 81.92-77.824 81.92z"   p-id="12057"></path><path d="M867.84 689.664h-14.848v121.344h14.848c34.816 0 53.76-20.48 53.76-60.928 0-41.472-18.944-60.416-53.76-60.416z" p-id="12058"></path><path d="M587.776 373.248c-47.104 0-74.24 38.912-74.24 93.184 0 84.992 130.56 256 130.56 256V438.784s1.536-65.536-56.32-65.536z m-148.48 91.648c-17.92-3.584-56.832 14.336-56.832 90.112 0 89.088 239.104 180.736 239.104 180.736S481.792 473.6 439.296 464.896zM382.464 742.4c60.928 34.816 224.768 17.92 224.768 17.92S377.856 619.52 352.768 619.52c-22.016 0-19.456 95.232 29.696 122.88zM481.28 842.752c46.08 0 119.296-64 119.296-64H402.944s21.504 64 78.336 64z m238.08-469.504c-57.856 0-56.32 65.536-56.32 65.536v173.056c6.656-5.632 14.336-9.216 22.528-9.216H742.4c27.648-47.616 51.712-99.84 51.712-136.192-0.512-54.272-27.648-93.184-74.752-93.184z m148.48 91.648c-20.992 4.096-66.048 71.168-106.496 137.216h142.848c12.288-15.36 19.968-31.232 19.968-47.104 0.512-75.776-38.4-93.696-56.32-90.112z" p-id="12059"></path></svg>