<?xml version="1.0" standalone="no"?><!DOCTYPE svg PUBLIC "-//W3C//DTD SVG 1.1//EN" "http://www.w3.org/Graphics/SVG/1.1/DTD/svg11.dtd"><svg t="1731938348219" class="icon" viewBox="0 0 1024 1024" version="1.1" xmlns="http://www.w3.org/2000/svg" p-id="932" xmlns:xlink="http://www.w3.org/1999/xlink" width="200" height="200">
<path d="M835.492 494.001C802.322 475.999 764.73 467 724.927 467C587.826 467 477.261 579.499 477.261 718.999C477.261 811.25 525.91 892.249 598.883 935H211.904C114.607 935 35 854 35 755V215C35 116 114.607 35 211.904 35H658.588C755.886 35 835.492 116 835.492 215V494.001ZM214.116 277.999H656.376C674.067 277.999 689.547 262.25 689.547 244.25C689.547 226.251 674.067 210.5 656.376 210.5H214.116C196.425 210.5 180.946 226.251 180.946 244.25C180.946 262.25 194.214 278 214.116 278V277.999ZM214.116 451.249H461.782C479.472 451.249 494.952 435.5 494.952 417.5C494.952 399.5 479.472 383.749 461.782 383.749H214.116C196.425 383.749 180.946 399.5 180.946 417.5C180.946 435.5 194.214 451.25 214.116 451.25V451.249ZM214.116 606.5H324.681C342.371 606.5 357.851 590.75 357.851 572.749C357.851 554.749 342.371 539 324.681 539H214.116C196.425 539 180.946 554.75 180.946 572.75C180.946 590.751 194.214 606.5 214.116 606.5ZM214.116 779.75H324.681C342.371 779.75 357.851 764 357.851 745.999C357.851 727.998 342.371 712.25 324.681 712.25H214.116C196.425 712.25 180.946 727.999 180.946 746C178.735 764 194.214 779.75 214.116 779.75ZM510.43 718.999C510.43 599.75 605.517 503 722.715 503C839.914 503 935 599.75 935 718.999C935 838.249 839.915 935 722.715 935C605.516 935 510.431 838.25 510.431 718.999H510.43ZM740.405 624.5C740.405 611 729.349 597.5 713.87 597.5C700.603 597.5 687.335 608.75 687.335 624.5V741.5L771.364 826.999C782.421 838.25 797.9 838.25 806.745 826.999C817.801 815.75 817.801 800 806.745 791L738.194 721.25V624.499L740.405 624.5Z"/>
</svg>
