<?xml version="1.0" standalone="no"?><!DOCTYPE svg PUBLIC "-//W3C//DTD SVG 1.1//EN" "http://www.w3.org/Graphics/SVG/1.1/DTD/svg11.dtd"><svg t="1715411846345" class="icon" viewBox="0 0 1024 1024" version="1.1" xmlns="http://www.w3.org/2000/svg" p-id="5225" xmlns:xlink="http://www.w3.org/1999/xlink" width="200" height="200">
<path fill-rule="evenodd" clip-rule="evenodd" d="M174.933 870.4H857.6C930.133 870.4 985.6 814.933 985.6 742.4V486.4C985.6 477.867 985.6 473.6 977.067 469.333L832 174.933C810.667 128 763.733 102.4 716.8 102.4H311.467C264.533 102.4 221.867 128 196.267 174.933L51.2 469.333C46.9333 473.6 46.9333 477.867 46.9333 486.4V742.4C46.9333 814.933 102.4 870.4 174.933 870.4ZM432.667 682.667H603.333C616.133 682.667 628.933 674.133 633.2 665.6L705.733 554.667H940.4C966 554.667 983.067 537.6 983.067 512C983.067 486.4 966 469.333 940.4 469.333H684.4C671.6 469.333 658.8 473.6 650.267 486.4L577.733 597.333H454L381.467 486.4C372.933 477.867 360.133 469.333 347.333 469.333H91.3333C65.7333 469.333 48.6666 486.4 48.6666 512C48.6666 537.6 65.7333 554.667 91.3333 554.667H326L398.533 665.6C407.067 674.133 419.867 682.667 432.667 682.667Z" />
</svg>
