<?xml version="1.0" standalone="no"?><!DOCTYPE svg PUBLIC "-//W3C//DTD SVG 1.1//EN" "http://www.w3.org/Graphics/SVG/1.1/DTD/svg11.dtd"><svg t="1731938348219" class="icon" viewBox="0 0 1024 1024" version="1.1" xmlns="http://www.w3.org/2000/svg" p-id="932" xmlns:xlink="http://www.w3.org/1999/xlink" width="200" height="200">
<path d="M822.252 69.8824H815.486C795.934 69.8824 779.626 81.9315 769.749 98.7944C759.806 115.772 741.373 127.17 720.28 127.17C702.451 127.17 686.516 119.026 676.008 106.25C658.284 84.6973 633.784 69.8824 605.877 69.8824H605.619C577.711 69.8824 553.212 84.6973 535.487 106.25C524.979 119.026 509.054 127.17 491.215 127.17C473.386 127.17 457.451 119.026 446.952 106.25C429.228 84.6973 404.728 69.8824 376.821 69.8824C348.914 69.8824 324.414 84.6973 306.69 106.25C296.182 119.026 280.257 127.17 262.427 127.17C241.334 127.17 222.902 115.772 212.958 98.7944C203.082 81.9315 186.774 69.8824 167.222 69.8824H159.661C131.697 69.8824 109.034 92.5545 109.034 120.509V859.491C109.034 887.455 131.706 910.118 159.661 910.118H167.222C186.774 910.118 203.082 898.069 212.958 881.206C222.902 864.228 241.334 852.83 262.427 852.83C280.257 852.83 296.191 860.974 306.69 873.75C324.414 895.303 348.914 910.118 376.821 910.118C404.728 910.118 429.228 895.303 446.952 873.75C457.461 860.974 473.386 852.83 491.215 852.83C509.045 852.83 524.979 860.974 535.487 873.75C553.212 895.303 577.711 910.118 605.619 910.118H605.877C633.784 910.118 658.284 895.303 676.008 873.75C686.516 860.974 702.441 852.83 720.28 852.83C741.373 852.83 759.806 864.228 769.749 881.206C779.626 898.078 795.934 910.118 815.486 910.118H822.252C850.217 910.118 872.879 887.446 872.879 859.491V120.509C872.889 92.5449 850.217 69.8824 822.252 69.8824ZM629.755 574.362C629.755 585.875 620.414 595.216 608.901 595.216H230.606C219.093 595.216 209.752 585.875 209.752 574.362V545.843C209.752 534.32 219.093 524.989 230.606 524.989H608.901C620.414 524.989 629.755 534.33 629.755 545.843V574.362ZM769.788 399.245C769.788 410.758 760.447 420.098 748.934 420.098H230.74C219.227 420.098 209.886 410.758 209.886 399.245V370.955C209.886 359.432 219.227 350.101 230.74 350.101H748.934C760.447 350.101 769.788 359.432 769.788 370.955V399.245Z"/>
</svg>
