<?xml version="1.0" standalone="no"?><!DOCTYPE svg PUBLIC "-//W3C//DTD SVG 1.1//EN" "http://www.w3.org/Graphics/SVG/1.1/DTD/svg11.dtd"><svg t="1745400008214" class="icon" viewBox="0 0 1024 1024" version="1.1" xmlns="http://www.w3.org/2000/svg" p-id="15663" xmlns:xlink="http://www.w3.org/1999/xlink" width="200" height="200"><path d="M725.333333 581.525333l-98.944-34.453333a42.666667 42.666667 0 0 1-26.56-53.461333l109.056-336.213334A73.365333 73.365333 0 0 1 778.666667 106.666667 53.333333 53.333333 0 0 1 832 160v704a53.333333 53.333333 0 1 1-106.666667 0V581.525333zM384 445.866667a117.333333 117.333333 0 0 0 64-104.533334V160a53.333333 53.333333 0 1 1 106.666667 0V341.333333c0 105.322667-72.704 193.685333-170.666667 217.6v305.066667a53.333333 53.333333 0 1 1-106.666667 0V558.933333C179.370667 535.04 106.666667 446.677333 106.666667 341.333333V160a53.333333 53.333333 0 0 1 106.666666 0V341.333333a117.333333 117.333333 0 0 0 64 104.533334V160a53.333333 53.333333 0 1 1 106.666667 0v285.866667z" p-id="15664"></path></svg>