<?xml version="1.0" standalone="no"?><!DOCTYPE svg PUBLIC "-//W3C//DTD SVG 1.1//EN" "http://www.w3.org/Graphics/SVG/1.1/DTD/svg11.dtd"><svg t="1741875182144" class="icon" viewBox="0 0 1024 1024" version="1.1" xmlns="http://www.w3.org/2000/svg" p-id="3493" xmlns:xlink="http://www.w3.org/1999/xlink" width="200" height="200">
<path d="M847.437 924H358.313V64H847.437C887.212 64 920 96.25 920 136.025V852.513C920 891.75 887.212 924 847.437 924ZM748 414.988C758.75 404.238 758.75 388.112 748 377.362C745.529 374.726 742.526 372.644 739.191 371.254C735.855 369.864 732.262 369.198 728.65 369.3C721.662 369.3 714.675 371.987 709.3 377.362L638.35 447.238L567.4 377.362C564.929 374.726 561.926 372.644 558.591 371.254C555.255 369.864 551.662 369.198 548.05 369.3C541.062 369.3 534.075 371.987 528.7 377.362C526.118 379.762 524.067 382.676 522.678 385.916C521.29 389.156 520.595 392.65 520.637 396.175C520.637 403.162 523.325 410.15 528.7 414.988L599.65 484.862L528.7 554.738C526.118 557.137 524.067 560.051 522.678 563.291C521.29 566.531 520.595 570.025 520.637 573.55C520.637 580.537 523.325 587.525 528.7 592.362C539.45 603.112 556.113 603.112 566.863 592.362L637.812 522.487L708.762 592.362C719.512 603.112 736.175 603.112 746.925 592.362C757.675 581.612 757.675 565.488 746.925 554.738L675.975 484.862L748 414.988ZM130.412 852.513V781.025H165.35C204.05 781.025 235.762 748.775 235.762 709.538C235.762 669.763 204.05 638.05 165.35 638.05H130.412V565.487H165.35C204.05 565.487 235.762 533.238 235.762 494C235.762 454.225 204.05 422.513 165.35 422.513H130.412V350.487H165.35C204.05 350.487 235.762 318.775 235.762 279C235.762 239.225 204.05 207.513 165.35 207.513H130.412V135.488C130.412 96.25 162.125 64 200.825 64H306.175V924H200.825C162.125 924 130.412 891.75 130.412 852.513ZM200.287 275.775C200.287 295.663 184.7 311.788 165.35 311.788H94.9375C76.125 311.788 60 295.663 60 275.775C60 255.888 76.125 239.762 94.9375 239.762H165.35C184.7 239.762 200.287 255.888 200.287 275.775ZM94.9375 457.987H165.35C184.163 457.987 200.287 474.65 200.287 494C200.287 513.35 184.7 530.013 165.35 530.013H94.9375C76.125 530.013 60 513.888 60 494C60 474.112 76.125 457.987 94.9375 457.987ZM94.9375 676.213H165.35C184.163 676.213 200.287 692.338 200.287 712.225C200.287 732.113 184.7 748.237 165.35 748.237H94.9375C76.125 748.237 60 732.113 60 712.225C60 692.338 75.5875 676.213 94.9375 676.213Z"/>
</svg>
