<?xml version="1.0" standalone="no"?><!DOCTYPE svg PUBLIC "-//W3C//DTD SVG 1.1//EN" "http://www.w3.org/Graphics/SVG/1.1/DTD/svg11.dtd"><svg t="1732756593513" class="icon" viewBox="0 0 1024 1024" version="1.1" xmlns="http://www.w3.org/2000/svg" p-id="4425" xmlns:xlink="http://www.w3.org/1999/xlink" width="200" height="200">
<path d="M338.508 256.841C321.358 256.841 307.883 242.958 307.883 226.217V112.292C307.883 104.169 311.11 96.3797 316.853 90.6364C322.596 84.8931 330.386 81.6665 338.508 81.6665C346.631 81.6665 354.42 84.8931 360.163 90.6364C365.907 96.3797 369.133 104.169 369.133 112.292V225.808C369.133 242.958 355.658 256.841 338.508 256.841ZM641.492 256.841C624.342 256.841 610.867 242.958 610.867 226.217V112.292C610.867 104.169 614.093 96.3797 619.836 90.6364C625.58 84.8931 633.369 81.6665 641.492 81.6665C649.614 81.6665 657.404 84.8931 663.147 90.6364C668.89 96.3797 672.117 104.169 672.117 112.292V225.808C672.117 242.958 658.642 256.841 641.492 256.841Z" />
<path d="M799.109 183.75C772.159 163.742 733.367 182.933 733.367 216.825V220.908C733.367 268.683 699.067 312.783 651.292 317.683C596.167 323.4 549.617 280.117 549.617 226.217V183.75C549.617 161.292 531.242 142.917 508.783 142.917H471.217C448.758 142.917 430.384 161.292 430.384 183.75V226.217C430.384 258.475 413.642 287.058 388.325 302.983C384.65 305.433 380.567 307.475 376.483 309.517C372.808 311.558 368.725 313.192 364.234 314.417C359.334 316.05 354.025 317.275 348.308 317.683C341.775 318.5 335.242 318.5 328.709 317.683C322.992 317.275 317.683 316.05 312.783 314.417C304.319 311.596 296.229 307.757 288.692 302.983C262.967 285.017 246.634 253.983 246.634 220.908V216.825C246.634 185.383 213.15 166.6 186.608 180.075C186.2 180.483 185.792 180.483 185.383 180.892C183.75 181.708 182.525 182.525 180.892 183.75C179.667 184.975 178.034 185.792 176.809 187.017C165.375 196 155.167 206.208 146.592 217.233C142.1 222.133 138.425 227.442 135.159 232.75C131.011 238.721 127.325 245.001 124.133 251.533C123.317 252.35 122.908 252.758 122.908 253.575C120.458 258.475 118.008 263.375 116.375 268.683C115.15 270.725 114.742 272.358 113.925 274.4C111.475 280.525 109.842 286.65 108.208 292.775C106.575 298.492 105.35 304.617 104.534 310.742C103.049 321.022 102.231 331.388 102.083 341.775V699.475C102.083 752.215 123.035 802.796 160.328 840.089C197.621 877.382 248.201 898.333 300.942 898.333H679.059C731.799 898.333 782.379 877.382 819.673 840.089C856.966 802.796 877.917 752.215 877.917 699.475V341.775C877.917 276.85 846.884 220.092 799.109 183.75ZM490 711.317H300.534C292.357 711.317 284.516 708.068 278.734 702.287C272.952 696.505 269.704 688.664 269.704 680.487C269.704 672.311 272.952 664.469 278.734 658.688C284.516 652.906 292.357 649.658 300.534 649.658H490C507.15 649.658 520.625 663.542 520.625 680.692C520.625 697.433 507.15 711.317 490 711.317ZM603.517 559.825H300.534C292.357 559.825 284.516 556.577 278.734 550.795C272.952 545.014 269.704 537.172 269.704 528.996C269.704 520.819 272.952 512.978 278.734 507.196C284.516 501.415 292.357 498.167 300.534 498.167H603.517C620.667 498.167 634.55 512.05 634.55 529.2C634.55 545.942 620.667 559.825 603.517 559.825Z"/>
</svg>
