<?xml version="1.0" standalone="no"?><!DOCTYPE svg PUBLIC "-//W3C//DTD SVG 1.1//EN" "http://www.w3.org/Graphics/SVG/1.1/DTD/svg11.dtd"><svg t="1706575306114" class="icon" viewBox="0 0 1024 1024" version="1.1" xmlns="http://www.w3.org/2000/svg" p-id="7209" xmlns:xlink="http://www.w3.org/1999/xlink" width="200" height="200"><path d="M403.307 721.557h2.197l92.523 160.512H323.563c-16.15 0-35.499-11.264-43.563-25.066L91.392 530.112c-8.085-13.803-8.085-36.523 0-50.304l188.587-326.57c8.106-13.803 27.434-25.067 43.584-25.067h171.946l-92.202 159.317c-16.15 0-29.099 13.12-29.099 28.95 0 5.205 1.515 10.24 4.053 14.634l-83.797 145.024a28.928 28.928 0 1 0 0 57.877h2.688l82.261 142.336a28.928 28.928 0 0 0 23.894 45.248z m213.013-56.533s-0.17 0 0 0l-82.133-141.29a27.812 27.812 0 0 0 5.717-11.265h162.517a9.13 9.13 0 0 0 1.515 4.032l-14.635 25.387-70.634 123.328c-0.683 0-1.515 0.17-2.198 0.17l-0.149-0.32z m316.288-185.067c8.085 13.803 8.085 36.523 0 50.304L744.021 856.832c-8.106 13.803-27.434 25.067-43.584 25.067H531.18L433.94 712.98h165.206c5.226 6.059 13.12 9.6 21.717 9.6a28.928 28.928 0 0 0 26.41-40.725l85.12-147.883a28.907 28.907 0 0 0 26.923-28.928c0-15.146-11.264-27.434-26.069-28.949l-85.483-148.395a28.928 28.928 0 0 0-26.922-39.53c-13.12 0-24.384 8.746-27.926 20.864H431.253a24.256 24.256 0 0 0-3.029-7.062L528.832 128h171.605c16.15 0 35.499 11.264 43.563 25.067l188.608 326.89zM402.475 664.021l-83.286-143.85 1.515-3.03c0.341-0.853 0.683-1.834 1.003-2.688 0.17 0 0.17-0.17 0.17-0.341a14.016 14.016 0 0 0 0.683-2.517v-0.342c0.341-1.002 0.341-1.834 0.512-2.858v-0.342a29.867 29.867 0 0 0-1.344-12.458 43.584 43.584 0 0 0-2.368-4.864l0.17-0.342 83.777-145.024c3.712 0 7.082-0.661 10.261-2.005l80.256 138.965c0 0.171-0.17 0.171-0.17 0.171l0.17 0.17c-6.55 5.377-10.752 13.44-10.752 22.529 0 6.912 2.517 13.461 6.72 18.517l-0.17 0.341-81.089 140.48c-1.685-0.17-3.541-0.512-5.546-0.512h-0.512z m24.554 12.8a30.784 30.784 0 0 0-5.205-6.058l-0.341-0.342 79.914-138.304h0.171c1.515 0.683 3.2 1.174 4.885 1.515 1.686 0.341 3.52 0.512 5.376 0.512 1.003 0 2.027 0 3.03-0.17a35.126 35.126 0 0 0 7.573-1.857c0.853-0.341 1.493-0.661 2.347-1.002l80.768 138.133c-5.547 3.52-9.92 8.576-12.118 14.805H430.4a23.616 23.616 0 0 0-3.37-7.253zM689.835 458.24l17.322 30.293a27.392 27.392 0 0 0-4.544 9.75l-162.517-0.342h-0.17a29.27 29.27 0 0 0-10.091-15.637c0-0.17-0.171-0.17-0.171-0.17-0.341-0.342-0.661-0.513-1.003-0.854a28.267 28.267 0 0 0-21.546-4.544l-81.771-141.483c0.17-0.17 0.17-0.341 0.341-0.512 0.512-0.661 1.174-1.344 1.707-2.176 1.664-2.688 3.008-5.546 3.69-8.576h0.171c0-0.17 0.15-0.341 0.15-0.512h161.194a29.376 29.376 0 0 0 28.416 22.72c1.366 0 2.859 0 4.054-0.17l64.768 112.213z" p-id="7210"></path></svg>