<?xml version="1.0" standalone="no"?><!DOCTYPE svg PUBLIC "-//W3C//DTD SVG 1.1//EN" "http://www.w3.org/Graphics/SVG/1.1/DTD/svg11.dtd"><svg t="1721094711206" class="icon" viewBox="0 0 1024 1024" version="1.1" xmlns="http://www.w3.org/2000/svg" p-id="13019" xmlns:xlink="http://www.w3.org/1999/xlink" width="200" height="200"><path d="M853.333333 938.666667H170.666667a42.666667 42.666667 0 0 1-42.666667-42.666667V341.333333h768v554.666667a42.666667 42.666667 0 0 1-42.666667 42.666667z m42.666667-682.666667H128V128a42.666667 42.666667 0 0 1 42.666667-42.666667h682.666666a42.666667 42.666667 0 0 1 42.666667 42.666667v128zM298.666667 469.333333v170.666667h170.666666v-170.666667h-170.666666z m0 256v85.333334h426.666666v-85.333334H298.666667z m256-213.333333v85.333333h170.666666v-85.333333h-170.666666z" p-id="13020"></path></svg>