<?xml version="1.0" standalone="no"?><!DOCTYPE svg PUBLIC "-//W3C//DTD SVG 1.1//EN" "http://www.w3.org/Graphics/SVG/1.1/DTD/svg11.dtd"><svg t="1745406844432" class="icon" viewBox="0 0 1024 1024" version="1.1" xmlns="http://www.w3.org/2000/svg" p-id="18776" xmlns:xlink="http://www.w3.org/1999/xlink" width="200" height="200"><path d="M1023.149312 332.8c-3.584 61.44-27.136 111.104-47.104 135.168-14.336 17.408-52.224 58.88-73.216 80.384L671.405312 307.2l-117.76 109.056-0.512 0.512C501.933312 465.92 434.349312 468.992 433.837312 468.992h-1.024c-2.56 0-5.632 0.512-8.192 0.512-55.296 0-109.568-41.472-134.144-62.464C342.189312 353.28 532.653312 157.184 605.869312 93.696c27.136-23.552 82.944-51.2 149.504-51.2 69.632 0 132.608 29.184 186.88 87.04 72.192 75.776 83.968 152.576 80.896 203.264zM239.277312 408.064l12.288 12.8c3.584 3.584 83.968 86.016 174.08 86.016 3.584 0 7.168 0 10.752-0.512 7.168-0.512 83.456-5.12 143.36-62.464l90.112-83.968 128 133.632 117.76 124.416 0.512 0.512c16.384 16.384 15.36 49.152-2.56 68.608-20.48 20.48-51.2 23.04-68.096 6.144L691.373312 547.328l-14.848 15.872-11.264 11.264 149.504 149.504c16.896 16.896 14.336 47.616-6.144 68.096-10.24 10.24-23.04 16.384-36.352 16.896-12.288 1.024-23.552-3.072-31.744-11.264L587.437312 645.12l-26.624 26.624 150.016 155.648c7.68 8.192 11.776 18.944 11.264 31.744-1.024 13.312-7.168 26.112-17.408 36.352s-23.04 16.384-36.352 16.896c-12.288 1.024-23.552-3.072-31.744-11.264l-16.384-16.384c24.576-25.6 29.184-64 12.288-95.232-16.896-31.232-52.224-47.616-87.04-40.96 2.56-23.04-4.608-46.08-19.968-63.488-15.36-17.408-37.376-27.136-60.928-27.136-5.12 0-10.24 0.512-15.36 1.536 2.56-24.576-6.144-49.152-23.552-66.56-19.968-19.968-48.64-28.16-75.776-21.504 3.584-25.088-5.12-50.688-23.552-68.608-15.36-15.36-35.84-23.552-57.344-23.552-21.504 0-42.496 8.704-57.856 24.064L138.413312 576.512l5.632-6.144c-20.48-17.92-77.312-70.144-94.72-99.84-1.024-1.536-1.536-3.072-2.56-4.608C-25.938688 345.6-13.650688 229.888 82.093312 131.584 150.701312 60.928 229.037312 50.688 282.797312 54.272c71.168 4.608 128.512 34.816 156.16 59.392 9.216 8.192 24.576 23.04 46.592 44.544C384.173312 257.536 258.733312 387.584 251.565312 395.264l-12.288 12.8z m-0.512 121.856c8.192-8.192 19.456-12.8 31.232-12.8s22.528 4.608 30.72 12.8c8.192 8.192 12.8 19.456 12.8 30.72 0 11.776-4.608 22.528-12.8 31.232l-114.688 115.712c-8.192 8.192-19.456 12.8-31.232 12.8s-22.528-4.608-30.72-12.8c-8.192-8.192-12.8-19.456-12.8-30.72 0-11.776 4.608-22.528 12.8-31.232l114.688-115.712zM338.093312 620.032c8.192-8.192 19.456-12.8 31.232-12.8s22.528 4.608 30.72 12.8c8.192 8.192 12.8 19.456 12.8 30.72 0 11.776-4.608 22.528-12.8 31.232l-114.688 115.712c-8.192 8.192-19.456 12.8-31.232 12.8s-22.528-4.608-30.72-12.8c-8.192-8.192-12.8-19.456-12.8-30.72 0-11.776 4.608-22.528 12.8-31.232L338.093312 620.032z m95.744 89.088c8.192-8.192 19.456-12.8 31.232-12.8 17.92 0 33.792 10.752 40.448 27.136 6.656 16.384 3.072 35.328-9.216 47.616l-114.688 115.712c-8.192 8.192-19.456 12.8-31.232 12.8s-22.528-4.608-30.72-12.8c-8.192-8.192-12.8-19.456-12.8-30.72 0-11.776 4.608-22.528 12.8-31.232l114.176-115.712z m96.768 89.088c8.192-8.192 19.456-12.8 31.232-12.8s22.528 4.608 30.72 12.8c17.408 16.896 17.408 45.056 0 61.952l-114.688 115.712c-8.192 8.192-19.456 12.8-31.232 12.8s-22.528-4.608-30.72-12.8c-8.192-8.192-12.8-19.456-12.8-30.72 0-11.776 4.608-22.528 12.8-31.232l114.688-115.712z m76.288 134.656c16.896 16.896 14.848 47.104-5.632 67.584-19.968 19.968-50.176 22.528-67.584 5.12l-16.384-16.384 72.704-73.216 16.896 16.896z" p-id="18777"></path></svg>