<?xml version="1.0" standalone="no"?><!DOCTYPE svg PUBLIC "-//W3C//DTD SVG 1.1//EN" "http://www.w3.org/Graphics/SVG/1.1/DTD/svg11.dtd"><svg t="1718799224226" class="icon" viewBox="0 0 1024 1024" version="1.1" xmlns="http://www.w3.org/2000/svg" p-id="36525" xmlns:xlink="http://www.w3.org/1999/xlink" width="200" height="200"><path d="M294.804682 1023.70142H162.405965c-28.322406 0-46.322489-22.564085-39.924355-50.331986l6.355479-28.748948h88.336902c28.407714 0 56.986046-22.734702 63.213563-50.417295l45.384096-195.868205c6.398134-27.639938 34.805848-50.331987 63.128254-50.331987h37.663682c161.616862 0 287.233557-33.227642 377.063356-99.810888s134.787354-153.555213 134.787354-261.683676c0-47.986004-8.317574-87.654434-25.080685-118.962636 0-0.682468-0.682468-1.322281-0.682468-1.962094l5.758321 3.199067c31.990669 19.834215 56.303578 45.384096 72.98138 77.374765 17.232307 31.990669 25.507227 71.659099 25.507227 119.047945 0 108.128463-44.744283 195.100429-134.95797 261.683675-89.573874 65.900779-215.617112 99.128421-376.807431 99.128421h-38.388804c-28.151789 0-56.900737 22.393469-63.298871 50.587912L358.018245 973.0282c-6.35548 27.511976-34.549923 49.905444-62.701712 49.905444L294.804682 1023.70142z m-114.185363-114.953138H48.177948c-28.279752 0-46.237181-22.564085-39.924355-50.331987L194.780522 50.417295C201.22131 22.564085 229.543716 0 257.951431 0h275.75957c59.502645 0 111.284875 4.180114 155.602616 12.327071 44.147124 8.061649 81.896114 22.137543 114.483942 42.227684 31.39351 19.834215 56.388887 45.72533 72.384221 77.545382 16.592494 31.905361 24.910068 71.659099 24.910068 119.30387 0 108.128463-44.829591 195.100429-134.95797 261.001208-89.573874 66.583247-215.659766 99.213729-376.89274 99.213729h-37.663681c-28.151789 0-56.644812 22.350814-63.042946 49.86279L243.278377 857.221977c-6.35548 27.55463-34.848503 49.990753-63.341525 49.990753l0.682467 1.535552z m317.603366-740.861249h-43.251385c-28.407714 0-56.815429 22.564085-63.128254 50.246678l-39.66843 171.469988c-6.398134 27.639938 11.516641 50.289332 39.66843 50.289332h32.673137c70.976632 0 126.683051-14.630399 166.351481-43.549964 39.625776-29.260799 59.502645-70.55009 59.502645-124.209106 0-35.403007-12.838922-61.635356-38.388804-78.483776-25.592536-17.232307-63.981339-25.805807-114.56925-25.805806l0.81043 0.042654z" p-id="36526"></path></svg>