<?xml version="1.0" standalone="no"?><!DOCTYPE svg PUBLIC "-//W3C//DTD SVG 1.1//EN" "http://www.w3.org/Graphics/SVG/1.1/DTD/svg11.dtd"><svg t="1731938348219" class="icon" viewBox="0 0 1024 1024" version="1.1" xmlns="http://www.w3.org/2000/svg" p-id="932" xmlns:xlink="http://www.w3.org/1999/xlink" width="200" height="200">
<path fill-rule="evenodd" clip-rule="evenodd" d="M876.845 938.634H109.315C88.8313 938.634 69.5522 930.155 56.2987 914.408C45.4544 901.083 40.6348 884.125 43.0447 867.167C43.0447 851.42 49.0692 776.319 116.545 707.275C193.659 628.54 320.174 588.566 492.477 588.566C664.78 588.566 791.295 628.54 868.409 707.275C937.09 777.53 941.909 853.843 941.909 868.379C944.319 886.547 938.294 903.507 927.451 916.83C915.402 931.366 897.328 938.634 876.845 938.634ZM493.682 571.608C346.683 571.608 228.601 451.689 228.601 305.121C228.601 158.553 347.887 38.6338 493.682 38.6338H732.255C746.714 38.6338 759.967 50.7463 759.967 66.4941V306.333C758.762 451.689 639.476 571.608 493.682 571.608ZM392.226 304.405C392.226 323.553 413.32 338.282 436.333 338.282C461.263 338.282 480.441 323.553 480.441 304.405V229.284C480.441 210.137 461.263 195.407 436.333 195.407C411.402 195.407 392.226 211.609 392.226 229.284V304.405ZM562.76 304.405C562.76 323.553 583.856 338.282 606.868 338.282C631.799 338.282 650.975 323.553 650.975 304.405V229.284C650.975 210.137 631.799 195.407 606.868 195.407C581.937 195.407 562.76 211.609 562.76 229.284V304.405Z" fill="#051B2F"/>
</svg>
