<?xml version="1.0" standalone="no"?><!DOCTYPE svg PUBLIC "-//W3C//DTD SVG 1.1//EN" "http://www.w3.org/Graphics/SVG/1.1/DTD/svg11.dtd"><svg t="1620304019089" class="icon" viewBox="0 0 1024 1024" version="1.1" xmlns="http://www.w3.org/2000/svg" p-id="4018" xmlns:xlink="http://www.w3.org/1999/xlink" width="200" height="200"><defs><style type="text/css"></style></defs><path d="M381.9 98.2H185.4c-48.3 0-87.4 39.1-87.4 87.4v196.6c0 48.3 39.1 87.4 87.4 87.4H382c48.3 0 87.4-39.1 87.4-87.4V185.6c-0.1-48.3-39.2-87.4-87.5-87.4z m458.7 0H644.1c-48.3 0-87.4 39.1-87.4 87.4v196.6c0 48.3 39.1 87.4 87.4 87.4h196.6c48.3 0 87.4-39.1 87.4-87.4V185.6c-0.1-48.3-39.2-87.4-87.5-87.4zM381.9 556.9H185.4c-48.3 0-87.4 39.1-87.4 87.4v196.6c0 48.3 39.1 87.4 87.4 87.4H382c48.3 0 87.4-39.1 87.4-87.4V644.3c-0.1-48.3-39.2-87.4-87.5-87.4z m458.7 0H644.1c-48.3 0-87.4 39.1-87.4 87.4v196.6c0 48.3 39.1 87.4 87.4 87.4h196.6c48.3 0 87.4-39.1 87.4-87.4V644.3c-0.1-48.3-39.2-87.4-87.5-87.4z" p-id="4019"></path></svg>