<?xml version="1.0" standalone="no"?><!DOCTYPE svg PUBLIC "-//W3C//DTD SVG 1.1//EN" "http://www.w3.org/Graphics/SVG/1.1/DTD/svg11.dtd"><svg t="1715411846345" class="icon" viewBox="0 0 1024 1024" version="1.1" xmlns="http://www.w3.org/2000/svg" p-id="5225" xmlns:xlink="http://www.w3.org/1999/xlink" width="200" height="200">
<g clip-path="url(#clip0_23_7)">
<path d="M427.774 40.1206C433.446 40.1206 438.887 42.374 442.898 46.3852C446.909 50.3964 449.162 55.8367 449.162 61.5093V467.894C449.162 473.567 446.909 479.007 442.898 483.018C438.887 487.029 433.446 489.283 427.774 489.283H21.3887C15.7161 489.283 10.2758 487.029 6.2646 483.018C2.25345 479.007 0 473.567 0 467.894V61.5093C0 55.8367 2.25345 50.3964 6.2646 46.3852C10.2758 42.374 15.7161 40.1206 21.3887 40.1206H427.774ZM1017.74 248.246C1021.75 252.257 1024 257.695 1024 263.365C1024 269.035 1021.75 274.473 1017.74 278.484L775.754 520.47C771.743 524.478 766.305 526.73 760.635 526.73C754.965 526.73 749.527 524.478 745.516 520.47L503.53 278.484C499.522 274.473 497.27 269.035 497.27 263.365C497.27 257.695 499.522 252.257 503.53 248.246L745.516 6.25964C749.527 2.25151 754.965 0 760.635 0C766.305 0 771.743 2.25151 775.754 6.25964L1017.74 248.246ZM427.774 574.838C433.446 574.838 438.887 577.091 442.898 581.102C446.909 585.113 449.162 590.554 449.162 596.226V1002.61C449.162 1008.28 446.909 1013.72 442.898 1017.74C438.887 1021.75 433.446 1024 427.774 1024H21.3887C15.7161 1024 10.2758 1021.75 6.2646 1017.74C2.25345 1013.72 0 1008.28 0 1002.61V596.226C0 590.554 2.25345 585.113 6.2646 581.102C10.2758 577.091 15.7161 574.838 21.3887 574.838H427.774ZM962.491 574.838C968.163 574.838 973.604 577.091 977.615 581.102C981.626 585.113 983.879 590.554 983.879 596.226V1002.61C983.879 1008.28 981.626 1013.72 977.615 1017.74C973.604 1021.75 968.163 1024 962.491 1024H556.106C550.433 1024 544.993 1021.75 540.982 1017.74C536.971 1013.72 534.717 1008.28 534.717 1002.61V596.226C534.717 590.554 536.971 585.113 540.982 581.102C544.993 577.091 550.433 574.838 556.106 574.838H962.491Z" />
</g>
<defs>
<clipPath id="clip0_23_7">
<rect width="1024" height="1024" fill="white"/>
</clipPath>
</defs>
</svg>
