<?xml version="1.0" standalone="no"?><!DOCTYPE svg PUBLIC "-//W3C//DTD SVG 1.1//EN" "http://www.w3.org/Graphics/SVG/1.1/DTD/svg11.dtd"><svg t="1731938348219" class="icon" viewBox="0 0 1024 1024" version="1.1" xmlns="http://www.w3.org/2000/svg" p-id="932" xmlns:xlink="http://www.w3.org/1999/xlink" width="200" height="200">
<path d="M628.865 183.559H310.939C304.623 183.559 299.551 178.391 299.551 172.17V71.6816C299.551 65.3652 304.719 60.293 310.939 60.293H628.77C635.086 60.293 640.158 65.4609 640.158 71.6816V172.074C640.254 178.391 635.086 183.559 628.865 183.559Z"/>
<path d="M314.959 650.781C284.334 650.781 259.451 675.664 259.451 706.289C259.451 736.914 284.334 761.797 314.959 761.797C345.584 761.797 370.467 736.914 370.467 706.289C370.467 675.664 345.68 650.781 314.959 650.781ZM798.93 122.5H660.16V198.105C660.16 204.326 654.992 209.398 648.676 209.398H290.746C284.43 209.398 279.262 204.326 279.262 198.105V122.5H140.492C124.223 122.5 110.824 135.707 110.824 151.785V889.082C110.824 905.16 124.223 918.367 140.492 918.367H798.93C815.199 918.367 828.598 905.16 828.598 889.082V151.785C828.598 135.707 815.295 122.5 798.93 122.5ZM314.959 805.246C260.313 805.246 216.002 760.936 216.002 706.289C216.002 651.643 260.313 607.332 314.959 607.332C369.605 607.332 413.916 651.643 413.916 706.289C413.916 760.936 369.605 805.246 314.959 805.246ZM421.189 374.295L314.098 481.387C309.6 485.885 303.666 488.086 297.732 488.086C291.799 488.086 285.865 485.885 281.367 481.387L204.996 405.016C196.096 396.115 196.096 381.473 204.996 372.572C213.896 363.672 228.539 363.672 237.439 372.572L297.637 432.77L388.65 341.756C397.551 332.855 412.193 332.855 421.094 341.756C430.186 350.752 430.186 365.299 421.189 374.295ZM730.215 757.395C730.215 770.027 719.879 780.363 707.246 780.363H512.969C500.336 780.363 490 770.027 490 757.395C490 744.762 500.336 734.426 512.969 734.426H707.246C719.879 734.426 730.215 744.762 730.215 757.395ZM730.215 660.734C730.215 673.367 719.879 683.703 707.246 683.703H512.969C500.336 683.703 490 673.367 490 660.734C490 648.102 500.336 637.766 512.969 637.766H707.246C719.879 637.766 730.215 648.102 730.215 660.734ZM730.215 459.758C730.215 472.391 719.879 482.727 707.246 482.727H512.969C500.336 482.727 490 472.391 490 459.758C490 447.125 500.336 436.789 512.969 436.789H707.246C719.879 436.789 730.215 447.125 730.215 459.758ZM730.215 360.227C730.215 372.859 719.879 383.195 707.246 383.195H512.969C500.336 383.195 490 372.859 490 360.227C490 347.594 500.336 337.258 512.969 337.258H707.246C719.879 337.258 730.215 347.594 730.215 360.227Z"/>
</svg>
