<?xml version="1.0" standalone="no"?><!DOCTYPE svg PUBLIC "-//W3C//DTD SVG 1.1//EN" "http://www.w3.org/Graphics/SVG/1.1/DTD/svg11.dtd"><svg t="1710648000162" class="icon" viewBox="0 0 1024 1024" version="1.1" xmlns="http://www.w3.org/2000/svg" p-id="6030" xmlns:xlink="http://www.w3.org/1999/xlink" width="200" height="200"><path d="M627.346286 0c25.6 0 44.690286 21.869714 44.690285 51.126857V285.257143c0 29.257143-19.090286 51.2-44.690285 51.2H544.182857V438.857143h230.473143c102.4 0 153.673143 87.771429 153.673143 204.8v87.844571h51.2c25.6 0 44.909714 29.257143 44.617143 51.2v190.171429c0 29.257143-19.163429 51.126857-44.763429 51.126857h-166.473143c-25.6 0-44.690286-21.869714-44.690285-51.126857v-190.171429c0-29.330286 19.090286-51.2 44.690285-51.2h51.2v-117.028571C861.769143 557.714286 838.582857 512 755.419429 512H544.182857v219.501714h51.2c25.6 0 44.763429 21.869714 44.763429 51.2v190.171429c0 29.257143-19.163429 51.126857-44.763429 51.126857H396.946286c-25.6 0-44.690286-21.869714-44.690286-51.126857v-190.171429c0-29.330286 19.090286-51.2 44.690286-51.2h51.2V512h-179.2C153.746286 512 160.109714 614.4 160.109714 614.4v117.101714h51.2c25.6 0 44.763429 21.869714 44.763429 51.2v190.025143c0 29.257143-19.090286 51.126857-44.690286 51.126857H44.909714c-25.6 0-44.763429-21.942857-44.763428-51.2v-190.171428c0-29.257143 19.163429-51.2 44.763428-51.2h51.2v-87.771429c0-109.860571 31.963429-204.8 134.363429-204.8h217.526857v-109.714286H364.909714c-25.6 0-44.763429-21.869714-44.763428-51.2V51.2c0-29.257143 19.090286-51.126857 44.763428-51.126857z"  p-id="6031"></path></svg>