<?xml version="1.0" standalone="no"?><!DOCTYPE svg PUBLIC "-//W3C//DTD SVG 1.1//EN" "http://www.w3.org/Graphics/SVG/1.1/DTD/svg11.dtd"><svg t="1718799190971" class="icon" viewBox="0 0 1024 1024" version="1.1" xmlns="http://www.w3.org/2000/svg" p-id="35532" xmlns:xlink="http://www.w3.org/1999/xlink" width="200" height="200"><path d="M596.32 390.4c-92.672-34.4-143.2-60.832-143.2-102.784 0-35.456 29.152-55.68 81.12-55.68 95.008 0 192.64 36.608 259.84 69.6l37.984-234.4C778.784 41.632 669.76 0.032 519.072 0.032c-106.592 0-195.232 27.904-258.592 79.872-65.888 54.4-100.128 133.12-100.128 228.096 0 172.32 105.248 245.76 276.32 308 110.304 39.264 146.976 67.168 146.976 110.208 0 41.824-35.84 65.92-100.448 65.92-80 0-211.84-39.296-298.24-89.984l-38.4 237.024c74.272 41.76 211.232 84.864 353.28 84.864 112.672 0 206.624-26.624 269.984-77.344 71.008-55.68 107.744-138.08 107.744-244.576 0-176.128-107.68-249.632-281.344-311.68h0.128z" p-id="35533"></path></svg>