<?xml version="1.0" standalone="no"?><!DOCTYPE svg PUBLIC "-//W3C//DTD SVG 1.1//EN" "http://www.w3.org/Graphics/SVG/1.1/DTD/svg11.dtd"><svg t="1741875182144" class="icon" viewBox="0 0 1024 1024" version="1.1" xmlns="http://www.w3.org/2000/svg" p-id="3493" xmlns:xlink="http://www.w3.org/1999/xlink" width="200" height="200">
<path d="M900.375 514.5L557.375 171.5C548.188 162.312 529.812 153.125 514.5 153.125H122.5C88.8125 153.125 61.25 183.75 61.25 217.437V422.625C61.25 437.938 67.375 456.312 79.625 465.5L422.625 808.5C434.875 820.75 450.187 826.875 465.5 826.875C480.812 826.875 496.125 820.75 508.375 808.5L557.375 759.5L606.375 808.5C618.625 820.75 633.938 826.875 649.25 826.875C664.563 826.875 679.875 820.75 692.125 808.5L897.312 603.313C924.875 578.813 924.875 539 900.375 514.5ZM251.125 398.125C217.437 398.125 189.875 370.563 189.875 336.875C189.875 303.187 217.437 275.625 251.125 275.625C284.812 275.625 312.375 303.187 312.375 336.875C312.375 370.563 284.812 398.125 251.125 398.125ZM652.312 762.562L603.313 713.562L713.562 603.313C738.062 578.813 738.062 539 713.562 514.5L416.5 217.437H514.5L857.5 557.375L652.312 762.562Z"/>
</svg>
