<?xml version="1.0" standalone="no"?><!DOCTYPE svg PUBLIC "-//W3C//DTD SVG 1.1//EN" "http://www.w3.org/Graphics/SVG/1.1/DTD/svg11.dtd"><svg t="1715411846345" class="icon" viewBox="0 0 1024 1024" version="1.1" xmlns="http://www.w3.org/2000/svg" p-id="5225" xmlns:xlink="http://www.w3.org/1999/xlink" width="200" height="200">
<g clip-path="url(#clip0_56_68)">
<path fill-rule="evenodd" clip-rule="evenodd" d="M186.646 1023.97C180.203 1023.96 174.025 1021.55 169.467 1017.25C164.91 1012.95 162.345 1007.13 162.335 1001.05V925.19C162.335 925.19 139.347 756.727 77.6643 670.03C77.3626 669.605 76.8902 668.945 76.8902 668.945C-62.985 471.508 -6.71318 204.486 202.576 72.5346C411.865 -59.4167 694.918 -6.33392 834.791 191.102C883.199 259.431 909.835 339.416 911.546 421.585L911.59 423.934L1020.68 600.627C1022.84 604.102 1023.98 608.055 1024 612.084C1024.02 616.112 1022.9 620.073 1020.77 623.563C1018.63 627.053 1015.56 629.949 1011.86 631.954C1008.15 633.96 1003.95 635.005 999.682 634.982H909.31L887.161 891.052C886.698 896.803 883.946 902.176 879.457 906.091C874.968 910.006 869.075 912.174 862.961 912.159H661.823V1001.08C661.816 1007.16 659.254 1012.98 654.698 1017.28C650.143 1021.58 643.967 1023.99 637.525 1024L186.646 1023.97ZM519.762 704.836L505.975 744.341H418.271L404.495 704.836H519.762ZM513.919 423.853C499.817 412.5 481.885 406.266 463.347 406.27V406.26C444.808 406.255 426.876 412.49 412.775 423.842C398.673 435.195 389.327 450.921 386.418 468.193C383.508 485.464 387.225 503.149 396.901 518.066C406.577 532.984 421.577 544.155 439.203 549.573L445.824 551.614V658.991H385.957L323.655 522.884L323.481 522.288C322.983 520.549 322.269 518.871 321.353 517.29C307.783 494.222 300.817 468.217 301.14 441.836C301.463 415.456 309.065 389.609 323.197 366.843C337.328 344.076 357.502 325.175 381.731 312C405.961 298.825 433.41 291.831 461.376 291.707C489.342 291.583 516.86 298.333 541.22 311.292C565.58 324.251 585.941 342.972 600.299 365.612C614.658 388.252 622.517 414.03 623.104 440.406C623.69 466.783 616.984 492.849 603.645 516.037C602.762 517.592 602.075 519.239 601.595 520.944L601.385 521.649L601.063 522.314C600.987 522.48 600.899 522.639 600.801 522.814L538.294 658.991H480.854V551.624L487.49 549.583C505.117 544.166 520.116 532.994 529.792 518.077C539.468 503.159 543.186 485.475 540.276 468.203C537.366 450.931 528.02 435.205 513.919 423.853ZM439.542 446.126C446.589 441.686 454.873 439.317 463.347 439.319C474.704 439.333 485.592 443.592 493.622 451.169C501.652 458.745 506.17 469.017 506.183 479.731V479.746C506.181 487.74 503.667 495.554 498.957 502.2C494.248 508.846 487.555 514.025 479.726 517.083C471.896 520.141 463.281 520.94 454.97 519.378C446.659 517.817 439.026 513.966 433.035 508.312C427.044 502.658 422.965 495.456 421.314 487.615C419.662 479.774 420.513 471.647 423.757 464.262C427.002 456.877 432.495 450.566 439.542 446.126ZM169.195 356.486C171.21 357.025 173.295 357.297 175.39 357.295L175.379 357.293C181.279 357.3 186.982 355.285 191.427 351.623C195.871 347.962 198.755 342.902 199.542 337.386C200.33 331.869 198.967 326.27 195.707 321.63C192.447 316.99 187.513 313.624 181.82 312.159L151.719 304.482C145.511 302.943 138.911 303.78 133.355 306.811C127.798 309.841 123.737 314.821 122.055 320.664C120.373 326.507 121.206 332.74 124.373 338.006C127.541 343.272 132.786 347.144 138.966 348.778L169.195 356.486ZM463.351 193.755C456.908 193.749 450.732 191.331 446.176 187.034C441.62 182.736 439.057 176.91 439.049 170.832V141.405C439.044 138.395 439.667 135.413 440.884 132.631C442.1 129.848 443.885 127.318 446.138 125.186C448.391 123.054 451.066 121.362 454.012 120.205C456.958 119.049 460.117 118.451 463.308 118.446C466.498 118.442 469.659 119.03 472.609 120.177C475.559 121.325 478.24 123.009 480.5 125.134C482.76 127.259 484.554 129.783 485.78 132.562C487.006 135.341 487.639 138.321 487.644 141.331V170.832C487.637 176.908 485.076 182.734 480.522 187.032C475.967 191.329 469.793 193.747 463.351 193.755ZM622.775 233.72C626.768 236.259 631.47 237.624 636.285 237.644C639.485 237.654 642.656 237.067 645.614 235.916C648.572 234.765 651.26 233.074 653.522 230.939L675.611 210.227C675.675 210.169 675.739 210.11 675.802 210.051L675.871 209.986L675.927 209.933L675.977 209.884L676.003 209.86C680.514 205.514 683.014 199.658 682.954 193.576C682.893 187.495 680.278 181.684 675.682 177.418C671.086 173.153 664.884 170.782 658.437 170.825C651.99 170.869 645.824 173.323 641.293 177.649L619.212 198.361C615.797 201.564 613.465 205.65 612.511 210.103C611.556 214.556 612.022 219.176 613.848 223.379C615.675 227.582 618.782 231.181 622.775 233.72ZM281.063 237.644C277.89 237.652 274.747 237.065 271.816 235.918C268.885 234.772 266.225 233.088 263.989 230.964L241.839 210.208C239.568 208.093 237.765 205.572 236.536 202.793C235.306 200.014 234.676 197.033 234.68 194.021C234.666 190.999 235.283 188.003 236.498 185.206C237.713 182.409 239.501 179.865 241.759 177.721C244.005 175.575 246.683 173.874 249.636 172.718C252.588 171.562 255.756 170.975 258.953 170.99C265.405 170.972 271.602 173.371 276.181 177.66L298.268 198.38C302.842 202.679 305.421 208.515 305.437 214.607C305.453 220.698 302.905 226.547 298.353 230.867C293.753 235.175 287.544 237.608 281.063 237.644ZM725.979 351.558C730.396 355.229 736.073 357.268 741.96 357.295C744.138 357.272 746.303 356.992 748.406 356.461L778.523 348.783C784.702 347.146 789.945 343.274 793.111 338.008C796.277 332.743 797.109 326.51 795.428 320.668C793.746 314.826 789.686 309.847 784.131 306.816C778.577 303.784 771.977 302.946 765.77 304.482L735.653 312.161C729.975 313.626 725.052 316.983 721.794 321.609C718.537 326.235 717.166 331.817 717.935 337.323C718.705 342.829 721.562 347.886 725.979 351.558Z" />
</g>
<defs>
<clipPath id="clip0_56_68">
<rect width="1024" height="1024" fill="white"/>
</clipPath>
</defs>
</svg>
