<?xml version="1.0" standalone="no"?><!DOCTYPE svg PUBLIC "-//W3C//DTD SVG 1.1//EN" "http://www.w3.org/Graphics/SVG/1.1/DTD/svg11.dtd"><svg t="1731938348219" class="icon" viewBox="0 0 1024 1024" version="1.1" xmlns="http://www.w3.org/2000/svg" p-id="932" xmlns:xlink="http://www.w3.org/1999/xlink" width="200" height="200">
<path d="M401.653 140.452H580.084C604.152 140.452 623.655 120.949 623.655 96.8811C623.655 72.8136 604.152 53.3105 580.084 53.3105H401.653C377.585 53.3105 358.082 72.8136 358.082 96.8811C358.082 120.949 377.585 140.452 401.653 140.452Z"/>
<path d="M806.339 84.2249H700.317C701.044 88.3744 701.459 92.524 701.459 96.8811C701.459 135.057 670.544 165.972 632.368 165.972H349.367C311.191 165.972 280.276 135.057 280.276 96.8811C280.276 92.524 280.691 88.3744 281.418 84.2249H175.396C129.543 84.2249 92.4043 121.364 92.4043 167.216V830.319C92.4043 876.172 129.543 913.31 175.396 913.31H806.339C852.192 913.31 889.331 876.172 889.331 830.319V167.216C889.331 121.364 852.192 84.2249 806.339 84.2249ZM224.153 761.643C201.227 761.643 182.658 743.074 182.658 720.148C182.658 697.221 201.227 678.652 224.153 678.652C247.08 678.652 265.649 697.221 265.649 720.148C265.649 743.074 247.08 761.643 224.153 761.643ZM224.153 578.543C201.227 578.543 182.658 559.974 182.658 537.048C182.658 514.121 201.227 495.552 224.153 495.552C247.08 495.552 265.649 514.121 265.649 537.048C265.649 559.974 247.08 578.543 224.153 578.543ZM224.153 395.547C201.227 395.547 182.658 376.978 182.658 354.051C182.658 331.125 201.227 312.555 224.153 312.555C247.08 312.555 265.649 331.125 265.649 354.051C265.649 376.978 247.08 395.547 224.153 395.547ZM520.018 740.896H354.243C342.831 740.896 333.495 731.559 333.495 720.148C333.495 708.736 342.831 699.4 354.243 699.4H520.018C531.43 699.4 540.766 708.736 540.766 720.148C540.766 731.559 531.43 740.896 520.018 740.896ZM520.018 557.795H354.243C342.831 557.795 333.495 548.459 333.495 537.048C333.495 525.636 342.831 516.3 354.243 516.3H520.018C531.43 516.3 540.766 525.636 540.766 537.048C540.766 548.459 531.43 557.795 520.018 557.795ZM733.825 663.091V827.622C733.825 837.269 726.045 845.05 717.019 844.427H660.793C651.767 844.946 643.987 837.166 643.987 827.622V663.091C605.707 646.285 578.735 607.383 578.735 563.086C578.735 515.262 609.857 474.493 652.39 459.554V563.709H725.422V459.554C767.955 474.493 799.077 515.159 799.077 563.086C799.077 607.279 772.105 646.285 733.825 663.091ZM778.329 374.799H354.243C342.831 374.799 333.495 365.462 333.495 354.051C333.495 342.64 342.831 333.303 354.243 333.303H778.329C789.741 333.303 799.077 342.64 799.077 354.051C799.077 365.462 789.741 374.799 778.329 374.799Z"/>
</svg>
