<?xml version="1.0" standalone="no"?><!DOCTYPE svg PUBLIC "-//W3C//DTD SVG 1.1//EN" "http://www.w3.org/Graphics/SVG/1.1/DTD/svg11.dtd"><svg t="1732756593513" class="icon" viewBox="0 0 1024 1024" version="1.1" xmlns="http://www.w3.org/2000/svg" p-id="4425" xmlns:xlink="http://www.w3.org/1999/xlink" width="200" height="200">
<path d="M680.512 544.488C770.77 544.488 843.878 617.596 843.878 707.854C843.878 798.112 770.77 871.22 680.512 871.22C590.254 871.22 517.146 798.112 517.146 707.854C517.244 617.498 590.352 544.488 680.512 544.488ZM760.48 788.704C771.064 778.12 771.064 760.872 760.48 750.19L707.756 697.368V627.592C707.756 612.598 695.604 600.348 680.512 600.348C665.518 600.348 653.268 612.598 653.268 627.592V697.368C653.268 711.774 659.05 725.69 669.242 735.882L721.966 788.704C732.648 799.288 749.896 799.288 760.48 788.704ZM381.122 544.39C396.116 544.39 408.366 532.238 408.366 517.146C408.366 502.152 396.214 489.902 381.122 489.902H272.244C257.25 489.902 245 502.054 245 517.146C245 532.14 257.152 544.39 272.244 544.39H381.122ZM272.244 381.122C257.25 381.122 245 393.274 245 408.366C245 423.36 257.152 435.61 272.244 435.61H490C504.994 435.61 517.244 423.458 517.244 408.366C517.244 393.372 505.092 381.122 490 381.122H272.244ZM272.244 272.244C257.25 272.244 245 284.396 245 299.488C245 314.482 257.152 326.732 272.244 326.732H598.878C613.872 326.732 626.122 314.58 626.122 299.488C626.122 284.494 613.97 272.244 598.878 272.244H272.244ZM680.61 490C560.364 490 462.854 587.51 462.854 707.756C462.854 773.122 492.352 831.138 538.02 871.122H190.61C160.524 871.122 136.122 846.818 136.122 816.634V163.366C136.122 133.28 160.426 108.878 190.61 108.878H735C765.086 108.878 789.488 133.182 789.488 163.366V520.282C757.246 501.466 720.398 490 680.61 490Z" />
</svg>
