<?xml version="1.0" standalone="no"?><!DOCTYPE svg PUBLIC "-//W3C//DTD SVG 1.1//EN" "http://www.w3.org/Graphics/SVG/1.1/DTD/svg11.dtd"><svg t="1719977425476" class="icon" viewBox="0 0 1024 1024" version="1.1" xmlns="http://www.w3.org/2000/svg" p-id="4274" xmlns:xlink="http://www.w3.org/1999/xlink" width="200" height="200"><path d="M885.333333 512c0 8.533333-0.298667 17.024-0.853333 25.386667l74.112 10.624c0.938667-11.904 1.408-23.893333 1.408-36.010667 0-247.424-200.576-448-448-448S64 264.576 64 512 264.576 960 512 960c27.52 0 54.442667-2.474667 80.554667-7.253333l-20.608-72.192A373.333333 373.333333 0 1 1 885.333333 512zM512 711.125333c3.84 0 7.68-0.128 11.434667-0.341333l-19.584-68.437333a112.896 112.896 0 0 1-1.578667-6.272 124.458667 124.458667 0 1 1 133.76-134.144l75.093333 10.709333V512A199.125333 199.125333 0 1 0 512 711.125333z m104.405333-133.376a34.133333 34.133333 0 0 0-37.674666 43.178667l99.584 348.458667a34.133333 34.133333 0 0 0 64.170666 4.053333l70.912-165.461333 166.442667-118.869334a34.133333 34.133333 0 0 0-15.018667-61.568l-348.416-49.792z m101.12 280.576L658.858667 652.8l212.053333 30.293333-104.96 74.922667a34.133333 34.133333 0 0 0-11.52 14.336l-36.821333 85.973333z" p-id="4275"></path></svg>