<?xml version="1.0" standalone="no"?><!DOCTYPE svg PUBLIC "-//W3C//DTD SVG 1.1//EN" "http://www.w3.org/Graphics/SVG/1.1/DTD/svg11.dtd"><svg t="1731938348219" class="icon" viewBox="0 0 1024 1024" version="1.1" xmlns="http://www.w3.org/2000/svg" p-id="932" xmlns:xlink="http://www.w3.org/1999/xlink" width="200" height="200">
<path d="M904.691 772.472C882.115 721.952 849.353 676.062 808.229 637.359C767.231 598.545 718.664 567.599 665.212 546.229C664.733 546.003 664.254 545.889 663.775 545.663C738.336 494.784 786.807 411.907 786.807 318.402C786.807 163.503 653.962 38 490 38C326.038 38 193.193 163.503 193.193 318.402C193.193 411.907 241.664 494.784 316.225 545.776C315.746 546.003 315.267 546.116 314.788 546.342C261.172 567.711 213.06 598.352 171.771 637.472C130.686 676.205 97.9287 722.087 75.3086 772.585C53.0867 822.024 41.1019 875.028 40.003 928.729C39.971 929.935 40.1951 931.136 40.6619 932.26C41.1288 933.383 41.8289 934.407 42.7212 935.271C43.6135 936.135 44.6798 936.822 45.8573 937.291C47.0348 937.759 48.2997 938 49.5774 938H121.385C126.651 938 132.974 938 138.602 938C245.522 938 216.76 935.166 285.54 935.166C362.447 935.166 394.017 928.729 490 928.729C585.983 928.729 691.963 933.394 691.963 933.394C822.019 938 836.4 938 845.779 938C852.657 938 853.349 938 858.615 938H930.423C931.7 938 932.965 937.759 934.143 937.291C935.32 936.822 936.386 936.135 937.279 935.271C938.171 934.407 938.871 933.383 939.338 932.26C939.805 931.136 940.029 929.935 939.997 928.729C938.8 874.683 926.952 822.108 904.691 772.472Z" />
</svg>
