<?xml version="1.0" standalone="no"?><!DOCTYPE svg PUBLIC "-//W3C//DTD SVG 1.1//EN" "http://www.w3.org/Graphics/SVG/1.1/DTD/svg11.dtd"><svg t="1732756593513" class="icon" viewBox="0 0 1024 1024" version="1.1" xmlns="http://www.w3.org/2000/svg" p-id="4425" xmlns:xlink="http://www.w3.org/1999/xlink" width="200" height="200">
<path d="M702.493 789H204.865C186.512 789.576 172.329 802.37 173.025 817.585C173.72 831.877 187.624 843.403 204.865 843.98H702.493C720.847 844.556 736.28 832.799 736.975 817.585C737.671 802.37 723.488 789.576 705.135 789H702.493Z"/>
<path fill-rule="evenodd" clip-rule="evenodd" d="M822.074 206.339C823.07 191.017 838.165 179.372 855.966 180.23V180.352H856.25C874.478 181.333 889.003 193.958 890 209.648V840.923C887.152 899.515 830.76 945.727 762.549 944.991H197.065C137.113 940.579 87.8416 902.58 76.0221 851.832V177.533C75.3101 147.992 91.8289 120.167 119.882 103.251C147.936 86.703 181.543 78.1226 215.577 78.7355H638.373C643.357 78.1226 648.484 78 653.468 78C716.41 78.7355 766.679 123.231 765.824 177.41V701.675C765.967 702.778 765.967 703.759 765.824 704.862C764.685 720.062 749.59 731.706 731.79 730.848H209.739C174.565 730.848 138.11 745.925 138.11 771.176V830.014C138.11 854.407 178.837 881.006 216.005 881.006H762.834C794.59 878.922 819.653 857.226 822.074 830.014V206.339ZM470.679 240H404.193L257 589H319.131L355 499.12H519.487L555.357 589H618L470.679 240ZM501.809 455.057H372.679L436.475 297.154H438.653L501.809 455.057Z" />
</svg>
