<?xml version="1.0" standalone="no"?><!DOCTYPE svg PUBLIC "-//W3C//DTD SVG 1.1//EN" "http://www.w3.org/Graphics/SVG/1.1/DTD/svg11.dtd"><svg t="1731938348219" class="icon" viewBox="0 0 1024 1024" version="1.1" xmlns="http://www.w3.org/2000/svg" p-id="932" xmlns:xlink="http://www.w3.org/1999/xlink" width="200" height="200">
<path fill-rule="evenodd" clip-rule="evenodd" d="M476.864 315.506L441.661 141.221C426.747 135.413 414.165 124.849 405.865 111.164C397.564 97.4795 394.009 81.4399 395.75 65.5298C397.491 49.6196 404.431 34.728 415.494 23.1626C426.558 11.5972 441.127 4.00389 456.944 1.55858C472.761 -0.886242 488.943 1.95409 502.982 9.63915C517.021 17.3242 528.133 29.4258 534.597 44.0674C541.061 58.709 542.514 75.0737 538.733 90.6255C534.952 106.178 526.147 120.048 513.683 130.088L547.859 299.724C573.605 300.534 598.67 308.193 620.471 321.912L770.516 160.206C758.618 137.378 755.173 111.079 760.791 85.957C766.408 60.8349 780.726 38.5078 801.214 22.9219C821.702 7.33593 847.041 -0.504406 872.751 0.785633C898.461 2.07616 922.887 12.4141 941.712 29.9726C960.536 47.5312 972.547 71.1797 975.621 96.7383C978.695 122.296 972.635 148.119 958.511 169.64C944.387 191.162 923.109 206.998 898.438 214.348C873.767 221.698 847.292 220.089 823.693 209.806L670.507 374.933C679.496 391.238 685.251 409.125 687.455 427.612L853.826 450.671C863.655 438.028 877.381 428.981 892.875 424.936C908.37 420.89 924.766 422.07 939.521 428.294C954.277 434.518 966.565 445.437 974.481 459.357C982.397 473.278 985.498 489.422 983.302 505.285C981.107 521.148 973.737 535.843 962.338 547.09C950.938 558.337 936.146 565.508 920.255 567.49C904.364 569.472 888.263 566.154 874.45 558.052C860.637 549.949 849.884 537.515 843.859 522.677L677.924 499.774C669.882 519.565 657.588 537.348 641.913 551.862L691.265 629.149C713.312 620.664 737.345 616 762.5 616C869.367 616 956 700.17 956 804C956 883.91 904.686 952.175 832.326 979.387C810.433 988 786.997 992.315 763.313 991.999L762.5 992C655.633 992 569 907.83 569 804C569 750.268 592.201 701.8 629.401 667.539L577.619 586.551C545.787 594.319 512.267 591.143 482.461 577.533L324.844 747.325C338.009 769.439 342.933 795.495 338.747 820.889C334.562 846.283 321.535 869.38 301.97 886.1C282.404 902.819 257.558 912.085 231.822 912.26C206.086 912.436 181.117 903.508 161.325 887.057C141.534 870.605 128.194 847.687 123.663 822.353C119.132 797.019 123.702 770.898 136.564 748.606C149.427 726.314 169.754 709.286 193.956 700.53C218.157 691.774 244.674 691.854 268.822 700.756L425.864 531.555C414.112 515.688 405.729 497.586 401.228 478.361C396.728 459.137 396.207 439.194 399.695 419.76L332.004 380.285C296.863 415.275 247.793 437 193.5 437C86.6329 437 0 352.83 0 249C0 145.17 86.6329 61 193.5 61C300.367 61 387 145.17 387 249C387 274.059 381.954 297.972 372.795 319.833L430.171 353.274C442.968 337.604 458.864 324.746 476.864 315.506Z" />
</svg>
