<?xml version="1.0" standalone="no"?><!DOCTYPE svg PUBLIC "-//W3C//DTD SVG 1.1//EN" "http://www.w3.org/Graphics/SVG/1.1/DTD/svg11.dtd"><svg t="1745408519516" class="icon" viewBox="0 0 1024 1024" version="1.1" xmlns="http://www.w3.org/2000/svg" p-id="27511" xmlns:xlink="http://www.w3.org/1999/xlink" width="200" height="200"><path d="M754.3 174.44a32.12 32.12 0 0 1-0.44 9.33c-14 68.26-44.79 130.88-89.12 181.06a384.6 384.6 0 0 1-62.38 56.43 31.46 31.46 0 0 1-9.32 4.62L593 618l52.17 73.22A36.92 36.92 0 0 1 636 743l-0.71 0.49c-1.08 0.74-2.19 1.42-3.32 2l-55.66 70a36.93 36.93 0 0 1-51.38 6.31l-0.63-0.49a36.91 36.91 0 0 1-6.41-52.25l48-60.41-33.66-47.24H507.2v208.71c0 1.21-0.06 2.42-0.18 3.62a33.22 33.22 0 0 1-0.53 3.58 35.5 35.5 0 0 1-0.88 3.52 36.56 36.56 0 0 1-2.77 6.68 36 36 0 0 1-1.86 3.11 37 37 0 0 1-4.59 5.59c-0.85 0.86-1.75 1.67-2.68 2.44s-1.91 1.48-2.91 2.15a35.09 35.09 0 0 1-3.11 1.87 36.07 36.07 0 0 1-3.27 1.54c-1.12 0.47-2.26 0.87-3.41 1.23a35.45 35.45 0 0 1-3.52 0.87 35.94 35.94 0 0 1-3.58 0.54c-1.2 0.12-2.41 0.17-3.62 0.17H469c-1.21 0-2.41 0-3.61-0.17a38.7 38.7 0 0 1-7.1-1.41c-1.16-0.36-2.29-0.76-3.41-1.23s-2.21-1-3.28-1.54a34.92 34.92 0 0 1-3.1-1.87c-1-0.67-2-1.39-2.91-2.15s-1.83-1.58-2.69-2.44-1.66-1.75-2.43-2.68a34.23 34.23 0 0 1-2.16-2.91 36 36 0 0 1-1.86-3.11 34.92 34.92 0 0 1-1.55-3.27c-0.46-1.12-0.87-2.25-1.22-3.41s-0.64-2.33-0.88-3.52-0.41-2.38-0.53-3.58-0.18-2.41-0.18-3.62V607.79v-1l0.07-180.9a31.8 31.8 0 0 1-9.21-4.6 378.89 378.89 0 0 1-62.38-56.43c-44.33-50.09-75.17-112.72-89.2-181.07a30.33 30.33 0 0 1-0.37-9.16 31 31 0 0 1 24.9-26.94c16.89-3.39 33.45 7.44 36.82 24 11.87 57.85 37.84 110.77 75 152.83A311.36 311.36 0 0 0 452 365.78a33.34 33.34 0 0 1 7.77-0.91h105.84a33.25 33.25 0 0 1 7.69 0.9 327.12 327.12 0 0 0 44.28-41.25c37.25-42.15 63.23-95 75-152.83a31.26 31.26 0 0 1 36.83-24 30.78 30.78 0 0 1 24.89 26.75zM512.57 340.19c-44.45 0-80.49-35.41-80.49-79.1s36-79.09 80.49-79.09 80.48 35.41 80.48 79.09-36.05 79.1-80.48 79.1z" p-id="27512"></path></svg>