<?xml version="1.0" standalone="no"?><!DOCTYPE svg PUBLIC "-//W3C//DTD SVG 1.1//EN" "http://www.w3.org/Graphics/SVG/1.1/DTD/svg11.dtd"><svg t="1741240066155" class="icon" viewBox="0 0 1170 1024" version="1.1" xmlns="http://www.w3.org/2000/svg" p-id="7491" xmlns:xlink="http://www.w3.org/1999/xlink" width="228.515625" height="200">
<path fill-rule="evenodd" clip-rule="evenodd" d="M216.417 611.753C124.412 565.352 61.25 469.922 61.25 359.676C61.25 203.929 187.345 77.584 343 77.584C498.655 77.584 624.75 203.929 624.75 359.676C624.75 466.638 565.283 559.655 477.75 607.466V647.857L688.577 691.104C751.254 703.962 796.25 759.122 796.25 823.102V882C796.25 902.3 779.793 918.75 759.5 918.75C739.207 918.75 722.75 902.3 722.75 882V823.102C722.75 794.024 702.296 768.95 673.808 763.105L448.192 716.821C422.612 711.578 404.25 689.065 404.25 662.954V396.084C404.25 364.511 378.656 338.917 347.083 338.917C315.511 338.917 289.917 364.511 289.917 396.084V882C289.917 902.3 273.463 918.75 253.167 918.75C232.87 918.75 216.417 902.3 216.417 882V611.753ZM134.75 359.676C134.75 244.425 228.035 151.084 343 151.084C457.965 151.084 551.25 244.425 551.25 359.676C551.25 423.383 522.741 480.447 477.75 518.727V396.084C477.75 323.919 419.248 265.417 347.083 265.417C274.918 265.417 216.417 323.919 216.417 396.084V525.332C166.75 487.194 134.75 427.162 134.75 359.676Z" />
</svg>
