<?xml version="1.0" standalone="no"?><!DOCTYPE svg PUBLIC "-//W3C//DTD SVG 1.1//EN" "http://www.w3.org/Graphics/SVG/1.1/DTD/svg11.dtd"><svg t="1700466254708" class="icon" viewBox="0 0 1024 1024" version="1.1" xmlns="http://www.w3.org/2000/svg" p-id="19513" xmlns:xlink="http://www.w3.org/1999/xlink" width="200" height="200">
<path fill-rule="evenodd" clip-rule="evenodd" d="M433.378 101.732C425.861 96.1773 416.874 93.9511 408.06 95.4611C399.264 96.9754 391.231 102.11 385.423 109.928C379.616 117.746 376.422 127.728 376.423 138.052V431.869L510.323 363.056L448.99 125.711C446.436 115.8 440.894 107.287 433.378 101.732ZM548.795 511.933L554.379 533.541V509.064L628.527 470.957V826.857C628.547 837.211 625.352 847.225 619.529 855.065C613.706 862.906 605.644 868.047 596.822 869.546C588 871.045 579.008 868.803 571.494 863.229C563.981 857.655 558.448 849.124 555.912 839.198L480.453 547.055L548.795 511.933ZM450.571 562.412L376.423 600.518V826.857C376.423 838.275 380.329 849.225 387.282 857.299C394.235 865.372 403.665 869.908 413.497 869.908C423.33 869.908 432.76 865.372 439.713 857.299C446.665 849.225 450.571 838.275 450.571 826.857V562.412ZM317.104 462.354V310.254C317.104 258.421 306.526 206.646 285.764 166.351C265.201 126.515 232.328 95.0019 191.052 95.0019C149.727 95.0019 116.904 126.515 96.34 166.351C75.5291 206.646 65 258.421 65 310.254V591.914L194.222 525.505H139.148V310.254C139.148 270.647 147.354 234.944 159.91 210.664C172.713 185.867 185.12 181.103 191.052 181.103C196.984 181.103 209.342 185.867 222.195 210.664C234.75 234.944 242.956 270.705 242.956 310.254V500.46L317.104 462.354ZM65 760.563V826.857C65 838.275 68.906 849.225 75.8588 857.299C82.8115 865.372 92.2415 869.908 102.074 869.908C111.907 869.908 121.337 865.372 128.29 857.299C135.242 849.225 139.148 838.275 139.148 826.857V722.457L65 760.563ZM242.956 669.109L317.104 631.003V826.857C317.104 838.275 313.198 849.225 306.246 857.299C299.293 865.372 289.863 869.908 280.03 869.908C270.198 869.908 260.768 865.372 253.815 857.299C246.862 849.225 242.956 838.275 242.956 826.857V669.109ZM628.527 302.309L554.379 340.415V138.052C554.379 126.635 558.285 115.685 565.238 107.611C572.191 99.5376 581.621 95.0019 591.453 95.0019C601.286 95.0019 610.716 99.5376 617.669 107.611C624.621 115.685 628.527 126.635 628.527 138.052V302.309ZM687.896 440.447V826.857C687.896 838.275 691.802 849.225 698.754 857.299C705.707 865.372 715.137 869.908 724.97 869.908H813.948C855.224 869.908 888.047 838.395 908.66 798.559C929.471 758.264 940 706.431 940 654.656V310.887L865.802 349.018V654.656C865.802 694.205 857.646 729.965 845.041 754.246C832.287 778.985 819.83 783.807 813.898 783.807H761.995V402.367L687.896 440.447ZM761.995 233.718L687.896 271.798V138.052H687.846C687.846 126.635 691.752 115.685 698.705 107.611C705.658 99.5376 715.088 95.0019 724.92 95.0019H813.898C853.031 95.0019 884.539 123.259 905.276 160.083L835.79 195.793C826.562 183.814 818.373 181.103 813.898 181.103H761.995V233.718Z"/>
</svg>
