<?xml version="1.0" standalone="no"?><!DOCTYPE svg PUBLIC "-//W3C//DTD SVG 1.1//EN" "http://www.w3.org/Graphics/SVG/1.1/DTD/svg11.dtd"><svg t="1700466254708" class="icon" viewBox="0 0 1024 1024" version="1.1" xmlns="http://www.w3.org/2000/svg" p-id="19513" xmlns:xlink="http://www.w3.org/1999/xlink" width="200" height="200">
<path d="M408.06 95.4611C416.874 93.9511 425.861 96.1773 433.378 101.732C440.894 107.287 446.436 115.8 448.99 125.711L554.379 533.541V138.052C554.379 126.635 558.285 115.685 565.238 107.611C572.191 99.5376 581.621 95.0019 591.453 95.0019C601.286 95.0019 610.716 99.5376 617.669 107.611C624.621 115.685 628.527 126.635 628.527 138.052V826.857C628.547 837.211 625.352 847.225 619.529 855.065C613.706 862.906 605.644 868.047 596.822 869.546C588 871.045 579.008 868.803 571.494 863.229C563.981 857.655 558.448 849.124 555.912 839.198L450.571 431.368V826.857C450.571 838.275 446.665 849.225 439.713 857.299C432.76 865.372 423.33 869.908 413.497 869.908C403.665 869.908 394.235 865.372 387.282 857.299C380.329 849.225 376.423 838.275 376.423 826.857V138.052C376.422 127.728 379.616 117.746 385.423 109.928C391.231 102.11 399.264 96.9754 408.06 95.4611ZM687.846 138.052C687.846 126.635 691.752 115.685 698.705 107.611C705.658 99.5376 715.088 95.0019 724.92 95.0019H813.898C855.224 95.0019 888.047 126.515 908.66 166.351C929.422 206.646 940 258.421 940 310.254V654.656C940 706.431 929.471 758.264 908.66 798.559C888.047 838.395 855.224 869.908 813.948 869.908H724.97C715.137 869.908 705.707 865.372 698.754 857.299C691.802 849.225 687.896 838.275 687.896 826.857V138.052H687.846ZM761.994 181.103V783.807H813.898C819.83 783.807 832.287 778.985 845.041 754.246C857.646 729.965 865.802 694.205 865.802 654.656V310.254C865.802 270.705 857.597 234.944 845.041 210.664C832.287 185.867 819.83 181.103 813.898 181.103H761.994ZM317.104 310.254V826.857C317.104 838.275 313.198 849.225 306.246 857.299C299.293 865.372 289.863 869.908 280.03 869.908C270.198 869.908 260.768 865.372 253.815 857.299C246.862 849.225 242.956 838.275 242.956 826.857V611.606H139.148V826.857C139.148 838.275 135.242 849.225 128.29 857.299C121.337 865.372 111.907 869.908 102.074 869.908C92.2415 869.908 82.8115 865.372 75.8588 857.299C68.906 849.225 65 838.275 65 826.857V310.254C65 258.421 75.5291 206.646 96.34 166.351C116.904 126.515 149.727 95.0019 191.052 95.0019C232.328 95.0019 265.201 126.515 285.764 166.351C306.526 206.646 317.104 258.421 317.104 310.254ZM159.91 210.664C147.354 234.944 139.148 270.647 139.148 310.254V525.505H242.956V310.254C242.956 270.705 234.75 234.944 222.195 210.664C209.342 185.867 196.984 181.103 191.052 181.103C185.12 181.103 172.713 185.867 159.91 210.664Z"/>
</svg>
