<?xml version="1.0" standalone="no"?><!DOCTYPE svg PUBLIC "-//W3C//DTD SVG 1.1//EN" "http://www.w3.org/Graphics/SVG/1.1/DTD/svg11.dtd"><svg t="1700466254708" class="icon" viewBox="0 0 1024 1024" version="1.1" xmlns="http://www.w3.org/2000/svg" p-id="19513" xmlns:xlink="http://www.w3.org/1999/xlink" width="200" height="200">
<path d="M955.986 895.298C922.533 905.261 892.717 910.626 866.537 910.626C779.27 910.626 720.365 843.184 690.548 707.534H686.912C614.917 853.913 513.833 926.72 386.568 926.72C291.302 926.72 214.943 889.167 157.492 813.295C100.042 737.423 71.6799 642.391 71.6799 527.434C71.6799 393.316 104.405 286.023 169.128 202.487C233.851 118.951 321.845 76.7998 433.111 76.7998C492.743 76.7998 546.558 94.4266 593.1 128.914C639.643 164.168 675.277 213.216 700.002 276.826H702.911L754.544 92.8939H940.714L785.088 500.61C802.541 595.642 820.722 660.785 841.084 695.272C858.537 729.759 883.263 747.386 913.806 747.386C931.26 747.386 945.077 744.32 957.44 738.956L955.986 895.298ZM646.188 493.713C630.916 407.111 606.19 339.67 572.738 293.686C540.013 246.937 500.015 223.946 454.2 223.946C394.568 223.946 346.571 252.302 310.937 308.248C275.303 364.96 259.304 434.701 259.304 516.704C259.304 591.81 273.121 653.887 304.392 704.468C334.935 755.05 376.387 779.574 428.02 779.574C471.654 779.574 511.651 757.349 547.285 715.198C583.646 671.514 613.463 607.904 637.461 524.368L646.188 493.713Z"/>
</svg>
