<?xml version="1.0" standalone="no"?><!DOCTYPE svg PUBLIC "-//W3C//DTD SVG 1.1//EN" "http://www.w3.org/Graphics/SVG/1.1/DTD/svg11.dtd"><svg t="1700466254708" class="icon" viewBox="0 0 1024 1024" version="1.1" xmlns="http://www.w3.org/2000/svg" p-id="19513" xmlns:xlink="http://www.w3.org/1999/xlink" width="200" height="200">
<path fill-rule="evenodd" clip-rule="evenodd" d="M109.414 185.357C140.599 145.516 190.257 114 252.703 114C315.149 114 364.881 145.516 395.992 185.357C427.476 225.656 443.406 277.437 443.406 329.275V409.082L331.227 466.54V329.275C331.227 289.722 318.813 253.958 299.818 229.675C280.448 204.875 261.677 200.11 252.703 200.11C243.729 200.11 225.032 204.875 205.588 229.675C186.667 253.958 174.178 289.722 174.178 329.275V546.981L62 604.439V329.275C62 277.437 77.9293 225.656 109.414 185.357ZM76.4206 757.268C84.2614 779.023 95.2773 799.497 109.414 817.635C140.525 857.418 190.257 888.992 252.703 888.992C315.223 888.992 364.881 857.475 395.992 817.635C427.476 777.335 443.406 725.497 443.406 673.716V569.297L331.227 626.755V673.716C331.227 713.212 318.813 749.034 299.818 773.317C280.448 798.059 261.677 802.881 252.703 802.881C243.729 802.881 225.032 798.059 205.588 773.317C191.95 755.814 181.653 732.315 176.967 705.768L76.4206 757.268ZM555.584 511.84V845.937C555.584 857.355 561.493 868.307 572.012 876.381C582.53 884.456 596.797 888.992 611.673 888.992C626.548 888.992 640.815 884.456 651.334 876.381C661.852 868.307 667.762 857.355 667.762 845.937V587.262L829.747 863.618C835.856 874.032 847.104 882.157 861.017 886.205C874.929 890.253 890.367 889.892 903.934 885.203C910.651 882.881 916.707 879.566 921.756 875.447C926.805 871.329 930.747 866.487 933.358 861.199C938.632 850.52 938.162 838.669 932.053 828.255L765.132 543.575C818.753 537.949 861.605 508.959 889.575 473.194C921.06 432.952 936.989 381.114 936.989 329.275C936.989 325.063 936.883 320.851 936.672 316.646L818.502 377.173C813.038 397.22 804.303 414.939 793.401 428.876C773.957 453.676 755.261 458.441 746.286 458.441H677.708H667.762V454.382L555.584 511.84ZM793.479 229.774C793.453 229.741 793.427 229.708 793.401 229.675C773.957 204.932 755.261 200.11 746.286 200.11H667.762V294.167L555.584 351.625V157.055C555.584 145.636 561.493 134.685 572.012 126.611C582.53 118.536 596.797 114 611.673 114H746.286C806.941 114 855.6 143.734 886.852 181.949L793.479 229.774Z"/>
</svg>
