<?xml version="1.0" standalone="no"?><!DOCTYPE svg PUBLIC "-//W3C//DTD SVG 1.1//EN" "http://www.w3.org/Graphics/SVG/1.1/DTD/svg11.dtd"><svg t="1700466254708" class="icon" viewBox="0 0 1024 1024" version="1.1" xmlns="http://www.w3.org/2000/svg" p-id="19513" xmlns:xlink="http://www.w3.org/1999/xlink" width="200" height="200">
<path d="M107.414 191.357C138.599 151.516 188.257 120 250.703 120C313.149 120 362.881 151.516 393.992 191.357C425.476 231.656 441.406 283.437 441.406 335.275V679.716C441.406 731.497 425.476 783.335 393.992 823.635C362.881 863.475 313.223 894.992 250.703 894.992C188.257 894.992 138.525 863.418 107.414 823.635C76.0041 783.335 60 731.497 60 679.716V335.275C60 283.437 75.9293 231.656 107.414 191.357ZM250.703 206.11C241.729 206.11 223.032 210.875 203.588 235.675C184.667 259.958 172.178 295.722 172.178 335.275V679.716C172.178 719.212 184.667 755.034 203.588 779.317C223.032 804.059 241.729 808.881 250.703 808.881C259.677 808.881 278.448 804.059 297.818 779.317C316.813 755.034 329.227 719.212 329.227 679.716V335.275C329.227 295.722 316.813 259.958 297.818 235.675C278.448 210.875 259.677 206.11 250.703 206.11ZM553.584 163.055C553.584 151.636 559.493 140.685 570.012 132.611C580.53 124.536 594.797 120 609.673 120H744.286C806.732 120 856.464 151.516 887.575 191.357C918.985 231.656 934.989 283.437 934.989 335.275C934.989 387.114 919.06 438.952 887.575 479.194C859.605 514.959 816.753 543.949 763.132 549.575L930.053 834.255C936.162 844.669 936.632 856.52 931.358 867.199C928.747 872.487 924.805 877.329 919.756 881.447C914.707 885.566 908.651 888.881 901.934 891.203C888.367 895.892 872.929 896.252 859.017 892.204C845.104 888.156 833.856 880.032 827.747 869.618L665.762 593.262V851.936C665.762 863.355 659.852 874.307 649.334 882.381C638.815 890.455 624.548 894.992 609.673 894.992C594.797 894.992 580.53 890.455 570.012 882.381C559.493 874.307 553.584 863.355 553.584 851.936V163.055ZM675.708 464.441H744.286C753.261 464.441 771.957 459.676 791.401 434.876C810.397 410.593 822.811 374.829 822.811 335.275C822.811 295.722 810.397 259.958 791.401 235.675C771.957 210.932 753.261 206.11 744.286 206.11H665.762V464.441H675.708Z"/>
</svg>
