<?xml version="1.0" standalone="no"?><!DOCTYPE svg PUBLIC "-//W3C//DTD SVG 1.1//EN" "http://www.w3.org/Graphics/SVG/1.1/DTD/svg11.dtd"><svg t="1741240066155" class="icon" viewBox="0 0 1170 1024" version="1.1" xmlns="http://www.w3.org/2000/svg" p-id="7491" xmlns:xlink="http://www.w3.org/1999/xlink" width="228.515625" height="200">
<path fill-rule="evenodd" clip-rule="evenodd" d="M490.004 44.9164C400.959 44.9164 316.455 84.2541 254.799 152.76C193.258 221.139 159.254 313.125 159.254 408.333C159.254 456.216 167.847 503.208 184.171 546.776L87.1304 605.571C70.4851 615.657 64.5889 636.971 73.6848 654.177L213.769 919.177C223.196 937.013 245.237 943.915 263.152 934.64L494.089 815.101L725.025 934.64C742.945 943.915 764.981 937.013 774.41 919.177L914.494 654.177C923.587 636.971 917.693 615.657 901.047 605.571L804.006 546.776C820.33 503.208 828.926 456.216 828.926 408.333C828.926 313.125 794.92 221.139 733.383 152.76C671.724 84.2541 587.219 44.9164 498.175 44.9164C496.803 44.9164 495.44 44.9931 494.089 45.1441C492.74 44.9931 491.376 44.9164 490.004 44.9164ZM309.431 201.93C349.077 157.878 399.656 130.135 453.254 121.398V734.937L453.259 735.532L453.258 753.473L261.722 852.614L154.863 650.472L249.472 593.149C265.636 583.356 271.736 562.9 263.578 545.853C243.578 504.066 232.754 456.893 232.754 408.333C232.754 330.266 260.7 256.074 309.431 201.93ZM678.748 201.93C639.102 157.878 588.523 130.135 534.925 121.398V734.937L534.92 735.532L534.921 753.473L726.46 852.614L833.315 650.472L738.71 593.149C722.54 583.356 716.443 562.9 724.598 545.853C744.604 504.066 755.426 456.893 755.426 408.333C755.426 330.266 727.482 256.074 678.748 201.93Z" />
</svg>
