<?xml version="1.0" standalone="no"?><!DOCTYPE svg PUBLIC "-//W3C//DTD SVG 1.1//EN" "http://www.w3.org/Graphics/SVG/1.1/DTD/svg11.dtd"><svg t="1700466254708" class="icon" viewBox="0 0 1024 1024" version="1.1" xmlns="http://www.w3.org/2000/svg" p-id="19513" xmlns:xlink="http://www.w3.org/1999/xlink" width="200" height="200"><path d="M144 112h232a8 8 0 0 1 8 8v48a8 8 0 0 1-8 8H221.255l216.716 216.716a8 8 0 0 1 0 11.313l-33.942 33.942a8 8 0 0 1-11.313 0L176 221.255V376a8 8 0 0 1-8 8h-48a8 8 0 0 1-8-8V144c0-17.673 14.327-32 32-32z m-32 536v232c0 17.673 14.327 32 32 32h232a8 8 0 0 0 8-8v-48a8 8 0 0 0-8-8H221.884l215.901-215.901a8 8 0 0 0 0-11.314l-33.941-33.941a8 8 0 0 0-11.314 0L176 803.374V648a8 8 0 0 0-8-8h-48a8 8 0 0 0-8 8z m690.744 200L586.529 631.785a7.999 7.999 0 0 1 0-11.314l33.941-33.941a8 8 0 0 1 11.314 0L848 802.747V648a8 8 0 0 1 8-8h48a8 8 0 0 1 8 8v232c0 17.673-14.327 32-32 32H648a8 8 0 0 1-8-8v-48a8 8 0 0 1 8-8h154.744zM912 376V144c0-17.673-14.327-32-32-32H648a8 8 0 0 0-8 8v48a8 8 0 0 0 8 8h155.373l-217.03 217.029a8 8 0 0 0 0 11.314l33.941 33.941a8 8 0 0 0 11.314 0L848 221.882V376a8 8 0 0 0 8 8h48a8 8 0 0 0 8-8z"  p-id="19514"></path></svg>