<?xml version="1.0" standalone="no"?><!DOCTYPE svg PUBLIC "-//W3C//DTD SVG 1.1//EN" "http://www.w3.org/Graphics/SVG/1.1/DTD/svg11.dtd"><svg t="1741240066155" class="icon" viewBox="0 0 1170 1024" version="1.1" xmlns="http://www.w3.org/2000/svg" p-id="7491" xmlns:xlink="http://www.w3.org/1999/xlink" width="228.515625" height="200">
<path fill-rule="evenodd" clip-rule="evenodd" d="M152.429 110.251C129.132 110.251 110.246 129.137 110.246 152.433V326.668C110.246 326.93 110.249 327.191 110.255 327.452C110.249 327.719 110.246 327.986 110.246 328.254V499.304C110.246 523.483 129.848 543.084 154.027 543.084H416.496C486.407 543.084 543.08 486.411 543.08 416.501C543.08 357.424 502.61 307.8 447.882 293.839C456.537 276.707 461.413 257.34 461.413 236.834C461.413 166.924 404.74 110.251 334.83 110.251H152.429ZM334.83 289.918C364.147 289.918 387.913 266.151 387.913 236.834C387.913 207.517 364.147 183.751 334.83 183.751H183.746V289.918H334.83ZM183.746 363.418V469.585H416.496C445.814 469.585 469.58 445.818 469.58 416.501C469.58 387.184 445.814 363.418 416.496 363.418H183.746Z" />
<path d="M110.246 637.001C110.246 616.704 126.7 600.251 146.996 600.251H833C853.293 600.251 869.75 616.704 869.75 637.001C869.75 657.297 853.293 673.751 833 673.751H146.996C126.7 673.751 110.246 657.297 110.246 637.001Z" />
<path d="M408.33 796.25C388.033 796.25 371.58 812.707 371.58 833C371.58 853.3 388.033 869.75 408.33 869.75H816.662C836.962 869.75 853.412 853.3 853.412 833C853.412 812.707 836.962 796.25 816.662 796.25H408.33Z" />
</svg>
