<?xml version="1.0" standalone="no"?><!DOCTYPE svg PUBLIC "-//W3C//DTD SVG 1.1//EN" "http://www.w3.org/Graphics/SVG/1.1/DTD/svg11.dtd"><svg t="1741240066155" class="icon" viewBox="0 0 1170 1024" version="1.1" xmlns="http://www.w3.org/2000/svg" p-id="7491" xmlns:xlink="http://www.w3.org/1999/xlink" width="228.515625" height="200">
<path fill-rule="evenodd" clip-rule="evenodd" d="M490.004 118.416C302.826 118.416 151.088 270.154 151.088 457.333C151.088 553.325 190.947 639.946 255.118 701.652C256.373 702.863 257.603 704.046 258.809 705.201C275.829 721.56 287.923 733.18 294.41 741.769C301.265 750.841 304.211 755.741 309.017 766.045C313.556 775.782 316.896 787.493 321.246 802.739C321.516 803.684 321.79 804.643 322.068 805.616L325.366 817.159C332.879 843.451 356.912 861.581 384.259 861.581H595.75C623.096 861.581 647.13 843.451 654.643 817.159L657.94 805.616C658.218 804.643 658.493 803.684 658.762 802.739C663.113 787.493 666.452 775.782 670.992 766.045C675.797 755.741 678.744 750.841 685.599 741.769C692.086 733.18 704.179 721.56 721.203 705.201C722.407 704.046 723.639 702.863 724.892 701.652C789.061 639.946 828.919 553.325 828.919 457.333C828.919 270.154 677.183 118.416 490.004 118.416ZM77.5879 457.333C77.5879 229.561 262.233 44.9164 490.004 44.9164C717.773 44.9164 902.419 229.561 902.419 457.333C902.419 574.132 853.818 679.642 775.838 754.635C753.788 775.838 746.655 782.887 744.247 786.072C741.797 789.313 741.013 790.496 740.509 791.336C740.005 792.176 739.326 793.422 737.604 797.104C735.875 800.828 734.174 806.337 728.609 825.811L725.312 837.354C708.785 895.202 655.912 935.081 595.75 935.081H384.259C324.096 935.081 271.222 895.202 254.694 837.354L251.396 825.811C245.832 806.337 244.137 800.828 242.402 797.104C240.685 793.422 240.007 792.176 239.501 791.336C238.996 790.496 238.211 789.313 235.763 786.072C233.358 782.887 226.222 775.838 204.172 754.635C126.189 679.641 77.5879 574.132 77.5879 457.333Z"/>
<path fill-rule="evenodd" clip-rule="evenodd" d="M465.504 298.083C373.042 298.083 298.088 373.038 298.088 465.5C298.088 485.797 281.634 502.25 261.338 502.25C241.041 502.25 224.588 485.797 224.588 465.5C224.588 332.445 332.45 224.583 465.504 224.583C485.801 224.583 502.254 241.037 502.254 261.333C502.254 281.63 485.801 298.083 465.504 298.083Z" />
</svg>
