<?xml version="1.0" standalone="no"?><!DOCTYPE svg PUBLIC "-//W3C//DTD SVG 1.1//EN" "http://www.w3.org/Graphics/SVG/1.1/DTD/svg11.dtd"><svg t="1718109304270" class="icon" viewBox="0 0 1024 1024" version="1.1" xmlns="http://www.w3.org/2000/svg" p-id="14238" id="mx_n_1718109304271" xmlns:xlink="http://www.w3.org/1999/xlink" width="200" height="200"><path d="M873.244444 280.082963c36.02963 0 65.422222 29.392593 65.422223 65.422222v480.331852c0 36.02963-29.392593 65.422222-65.422223 65.422222H149.807407c-36.02963 0-65.422222-29.392593-65.422222-65.422222V345.505185c0-36.02963 29.392593-65.422222 65.422222-65.422222h723.437037m0-75.851852H149.807407c-77.748148 0-141.274074 63.525926-141.274074 141.274074v480.331852C8.533333 903.585185 72.059259 967.111111 149.807407 967.111111h723.626667c77.748148 0 141.274074-63.525926 141.274074-141.274074V345.505185c-0.18963-77.748148-63.715556-141.274074-141.463704-141.274074z"  p-id="14239"></path><path d="M360.296296 204.231111V125.155556c0-4.551111 3.982222-8.533333 8.533334-8.533334h286.151111c4.740741-0.18963 8.722963 3.792593 8.722963 8.533334v79.265185h75.851852V125.155556c0-46.459259-37.925926-84.385185-84.385186-84.385186h-286.34074C322.37037 40.580741 284.444444 78.696296 284.444444 125.155556v79.265185h75.851852z"  p-id="14240"></path><path d="M84.385185 454.731852h854.091852v37.925926H84.385185zM606.435556 622.554074h-189.62963c-10.42963 0-18.962963-8.533333-18.962963-18.962963s8.533333-18.962963 18.962963-18.962963h189.62963c10.42963 0 18.962963 8.533333 18.962963 18.962963s-8.533333 18.962963-18.962963 18.962963z" p-id="14241"></path></svg>