<?xml version="1.0" standalone="no"?><!DOCTYPE svg PUBLIC "-//W3C//DTD SVG 1.1//EN" "http://www.w3.org/Graphics/SVG/1.1/DTD/svg11.dtd"><svg t="1685076877605" class="icon" viewBox="0 0 1024 1024" version="1.1" xmlns="http://www.w3.org/2000/svg" p-id="1595" xmlns:xlink="http://www.w3.org/1999/xlink" width="200" height="200"><path d="M834.55 477.54l59.81-179.42A31.92 31.92 0 0 0 896 288 224 224 0 0 0 672 64H160a32 32 0 0 0-32 32v832a32 32 0 0 0 32 32h512a224 224 0 0 0 224-224V608a32 32 0 0 0-3.38-14.31zM831.92 283l-62.27 186.86v0.05c-1.39 4.19-1.87 6.46-1.54 7.6a31.89 31.89 0 0 0 3.29 16.8L832 615.55V624c0 79.4-64.6 144-144 144H320V384h64v288a32 32 0 0 0 32 32h256a96.11 96.11 0 0 0 96-96 32 32 0 0 0-3.38-14.31l-58.07-116.15 59.81-179.42A31.92 31.92 0 0 0 768 288v-16a207.14 207.14 0 0 0-52.51-138c65.64 18.57 114.26 78.06 116.43 149zM512 480a31.85 31.85 0 0 0 3.38 14.29l60 120A32.06 32.06 0 0 1 544 640h-96V384h32a32 32 0 0 1 32 32v64z m48-352c79.4 0 144 64.6 144 144v10.81l-62.35 187.05v0.05c-1.39 4.19-1.87 6.46-1.54 7.6a31.89 31.89 0 0 0 3.29 16.8l60 120A32.06 32.06 0 0 1 672 640h-37.49a95.56 95.56 0 0 0 5.49-32 32 32 0 0 0-3.38-14.31l-58.07-116.15 59.81-179.42A31.92 31.92 0 0 0 640 288a96.11 96.11 0 0 0-96-96H192v-64z m112 768H192V256h352a32.05 32.05 0 0 1 31.71 27.68l-23.17 69.51A95.8 95.8 0 0 0 480 320H288a32 32 0 0 0-32 32v448a32 32 0 0 0 32 32h400a207.12 207.12 0 0 0 138-52.51C807 846.65 745.16 896 672 896z" p-id="1596"></path></svg>