<?xml version="1.0" standalone="no"?><!DOCTYPE svg PUBLIC "-//W3C//DTD SVG 1.1//EN" "http://www.w3.org/Graphics/SVG/1.1/DTD/svg11.dtd"><svg t="1745397258435" class="icon" viewBox="0 0 1024 1024" version="1.1" xmlns="http://www.w3.org/2000/svg" p-id="3566" xmlns:xlink="http://www.w3.org/1999/xlink" width="200" height="200"><path d="M615.424 265.846154a211.652923 211.652923 0 0 1 138.082462 372.105846c124.297846 53.563077 211.416615 179.908923 211.416615 326.971077a39.384615 39.384615 0 1 1-78.769231 0c0-152.497231-119.335385-275.692308-265.846154-275.692308S354.461538 812.425846 354.461538 964.923077a39.384615 39.384615 0 1 1-78.76923 0c0-144.462769 84.125538-268.996923 204.957538-324.214154a211.652923 211.652923 0 0 1 134.695385-374.941538zM398.808615 39.384615c94.759385 0 174.946462 62.227692 201.964308 148.086154l14.651077-0.393846c-32.610462 0-63.881846 5.356308-93.105231 15.202462a132.883692 132.883692 0 1 0-177.782154 170.141538l-0.866461 2.205539c-11.815385 31.350154-18.432 65.142154-18.747077 100.509538C216.694154 509.794462 137.846154 614.4 137.846154 738.461538a39.384615 39.384615 0 1 1-78.769231 0c0-144.462769 84.125538-268.996923 204.957539-324.214153A211.652923 211.652923 0 0 1 398.729846 39.384615z m216.615385 305.23077a132.883692 132.883692 0 1 0 0 265.846153 132.883692 132.883692 0 0 0 0-265.846153z" p-id="3567"></path></svg>