<?xml version="1.0" standalone="no"?><!DOCTYPE svg PUBLIC "-//W3C//DTD SVG 1.1//EN" "http://www.w3.org/Graphics/SVG/1.1/DTD/svg11.dtd"><svg t="1731938348219" class="icon" viewBox="0 0 1024 1024" version="1.1" xmlns="http://www.w3.org/2000/svg" p-id="932" xmlns:xlink="http://www.w3.org/1999/xlink" width="200" height="200">
<path d="M329.77 336.875C352.947 336.875 374.213 350.007 384.552 370.783L428.75 459.375H826.875C860.685 459.375 888.125 486.815 888.125 520.625V826.875C888.125 860.685 860.685 888.125 826.875 888.125H153.125C119.315 888.125 91.875 860.685 91.875 826.875V398.125C91.875 364.315 119.315 336.875 153.125 336.875H329.721H329.77ZM329.77 398.125H153.076V826.875H826.826V520.625H390.873L329.721 398.125H329.77ZM829.766 91.875C862.008 91.875 888.125 119.805 888.125 154.203V403.466H826.875V154.154H336.875V278.81L275.625 278.761V154.154C275.625 119.805 301.742 91.875 333.935 91.875H829.815H829.766ZM735 336.875C743.122 336.875 750.912 340.102 756.655 345.845C762.398 351.588 765.625 359.378 765.625 367.5C765.625 375.622 762.398 383.412 756.655 389.155C750.912 394.898 743.122 398.125 735 398.125H551.25C543.128 398.125 535.338 394.898 529.595 389.155C523.852 383.412 520.625 375.622 520.625 367.5C520.625 359.378 523.852 351.588 529.595 345.845C535.338 340.102 543.128 336.875 551.25 336.875H735ZM735 214.375C743.122 214.375 750.912 217.602 756.655 223.345C762.398 229.088 765.625 236.878 765.625 245C765.625 253.122 762.398 260.912 756.655 266.655C750.912 272.398 743.122 275.625 735 275.625H398.125C390.003 275.625 382.213 272.398 376.47 266.655C370.727 260.912 367.5 253.122 367.5 245C367.5 236.878 370.727 229.088 376.47 223.345C382.213 217.602 390.003 214.375 398.125 214.375H735Z" />
</svg>
