<?xml version="1.0" standalone="no"?><!DOCTYPE svg PUBLIC "-//W3C//DTD SVG 1.1//EN" "http://www.w3.org/Graphics/SVG/1.1/DTD/svg11.dtd"><svg t="1715412068275" class="icon" viewBox="0 0 1024 1024" version="1.1" xmlns="http://www.w3.org/2000/svg" p-id="10141" xmlns:xlink="http://www.w3.org/1999/xlink" width="200" height="200"><path d="M725.75 54c64.782 0 117.3 52.517 117.3 117.3 0 64.782-52.518 117.3-117.3 117.3-21.093 0-40.886-5.568-57.989-15.313a31.936 31.936 0 0 1-4.312 5.563l-0.372 0.377-29.127 29.128c24.219 33.384 38.5 74.447 38.5 118.845 0 45.11-14.743 86.777-39.673 120.445l99.384 124.231c23.28-13.224 50.202-20.776 78.889-20.776 88.338 0 159.95 71.612 159.95 159.95S899.388 971 811.05 971 651.1 899.388 651.1 811.05c0-36.495 12.223-70.136 32.798-97.051l-97.081-121.353c-33.04 23.401-73.398 37.154-116.967 37.154-27.59 0-53.892-5.515-77.864-15.503l-53.6 53.598C360.597 695.36 373.9 730.327 373.9 768.4c0 88.338-71.612 159.95-159.95 159.95S54 856.738 54 768.4s71.612-159.95 159.95-159.95c27.032 0 52.497 6.706 74.823 18.544l47.481-47.478C293.953 542.384 267.25 487.91 267.25 427.2c0-33.297 8.032-64.717 22.265-92.43l-61.03-61.03c-16.918 9.465-36.422 14.86-57.185 14.86-64.783 0-117.3-52.518-117.3-117.3C54 106.517 106.517 54 171.3 54c64.782 0 117.3 52.517 117.3 117.3 0 20.763-5.395 40.267-14.86 57.185l54.159 54.158c36.555-35.9 86.667-58.043 141.951-58.043 44.398 0 85.46 14.281 118.845 38.5l29.128-29.127a32.083 32.083 0 0 1 5.942-4.688c-9.748-17.1-15.315-36.893-15.315-57.985 0-64.783 52.518-117.3 117.3-117.3z m85.3 661.1c-52.992 0-95.95 42.958-95.95 95.95 0 52.992 42.958 95.95 95.95 95.95 52.992 0 95.95-42.958 95.95-95.95 0-52.992-42.958-95.95-95.95-95.95z m-597.1-42.65c-52.992 0-95.95 42.958-95.95 95.95 0 52.992 42.958 95.95 95.95 95.95 52.992 0 95.95-42.958 95.95-95.95 0-52.992-42.958-95.95-95.95-95.95z m255.9-383.85c-76.547 0-138.6 62.053-138.6 138.6s62.053 138.6 138.6 138.6 138.6-62.053 138.6-138.6-62.053-138.6-138.6-138.6zM171.3 118c-29.437 0-53.3 23.863-53.3 53.3 0 29.436 23.864 53.3 53.3 53.3 29.436 0 53.3-23.864 53.3-53.3 0-29.436-23.864-53.3-53.3-53.3z m554.45 0c-29.436 0-53.3 23.864-53.3 53.3 0 29.436 23.864 53.3 53.3 53.3 29.436 0 53.3-23.864 53.3-53.3 0-29.436-23.864-53.3-53.3-53.3z" p-id="10142"></path></svg>