<?xml version="1.0" standalone="no"?><!DOCTYPE svg PUBLIC "-//W3C//DTD SVG 1.1//EN" "http://www.w3.org/Graphics/SVG/1.1/DTD/svg11.dtd"><svg t="1700131458503" class="icon" viewBox="0 0 1024 1024" version="1.1" xmlns="http://www.w3.org/2000/svg" p-id="5744" xmlns:xlink="http://www.w3.org/1999/xlink" width="200" height="200"><path d="M960 698L757.2 562.7v84.5H612.1l-88.8-108.6-65.5 80.1 91 111.3c9.6 11.8 24 18.6 39.2 18.6h169.1v84.6L960 698zM283.8 275.3H114.7C86.7 275.3 64 298 64 326c0 28 22.7 50.7 50.7 50.7l145-0.1 88.8 108.6 65.5-80.1-91-111.3c-9.6-11.7-24-18.5-39.2-18.5z" p-id="5745"></path><path d="M960 326L757.2 190.8v84.5H588.1c-15.3 0-29.7 6.8-39.2 18.6L259.7 647.2h-145c-28 0-50.7 22.7-50.7 50.7 0 28 22.7 50.7 50.7 50.7h169.1c15.2 0 29.6-6.8 39.2-18.6l289-353.3h145.1v84.6L960 326z" p-id="5746"></path></svg>