<?xml version="1.0" standalone="no"?><!DOCTYPE svg PUBLIC "-//W3C//DTD SVG 1.1//EN" "http://www.w3.org/Graphics/SVG/1.1/DTD/svg11.dtd"><svg t="1685088817280" class="icon" viewBox="0 0 1024 1024" version="1.1" xmlns="http://www.w3.org/2000/svg" p-id="1613" xmlns:xlink="http://www.w3.org/1999/xlink" width="200" height="200">
<path fill-rule="evenodd" clip-rule="evenodd" d="M386 199C363.909 199 346 216.909 346 239V698C346 720.091 363.909 738 386 738H614C636.091 738 654 720.091 654 698V239C654 216.909 636.091 199 614 199H386ZM503.041 244.118C561.584 244.118 586.746 278.02 586.746 347.103V363.095C586.746 409.151 575.449 438.575 550.286 453.288C580.584 468 592.396 501.902 592.396 549.238V585.699C592.396 654.781 563.124 691.882 506.636 691.882H417.795V244.118H503.041ZM506.636 627.916C525.636 627.916 535.908 617.042 535.908 583.779V544.76C535.908 503.181 525.123 490.388 499.446 490.388H474.283V627.916H506.636ZM496.365 426.423C517.42 426.423 530.258 414.909 530.258 379.088V354.141C530.258 322.157 521.528 308.084 501.5 308.084H474.283V426.423H496.365Z" />
<path d="M230.194 244.118L287.71 691.882H230.708L220.951 610.645H151.624L141.867 691.882H90L147.515 244.118H230.194ZM186.031 323.435L158.813 549.877H213.248L186.031 323.435ZM856.593 524.93H910V584.419C910 656.061 881.242 697 825.781 697C770.319 697 741.561 656.061 741.561 584.419V351.581C741.561 279.939 770.319 239 825.782 239C881.242 239 910 279.939 910 351.581V395.078H856.593V347.103C856.593 315.12 845.295 302.967 827.321 302.967C809.347 302.967 798.049 315.12 798.049 347.103V588.896C798.049 620.88 809.347 632.394 827.321 632.394C845.295 632.394 856.593 620.88 856.593 588.896V524.93Z" />
<path d="M230.194 244.118L287.71 691.882H230.708L220.951 610.645H151.624L141.867 691.882H90L147.515 244.118H230.194ZM186.031 323.435L158.813 549.877H213.248L186.031 323.435ZM856.593 524.93H910V584.419C910 656.061 881.242 697 825.781 697C770.319 697 741.561 656.061 741.561 584.419V351.581C741.561 279.939 770.319 239 825.782 239C881.242 239 910 279.939 910 351.581V395.078H856.593V347.103C856.593 315.12 845.295 302.967 827.321 302.967C809.347 302.967 798.049 315.12 798.049 347.103V588.896C798.049 620.88 809.347 632.394 827.321 632.394C845.295 632.394 856.593 620.88 856.593 588.896V524.93Z"  />
<path d="M230.194 244.118L287.71 691.882H230.708L220.951 610.645H151.624L141.867 691.882H90L147.515 244.118H230.194ZM186.031 323.435L158.813 549.877H213.248L186.031 323.435ZM856.593 524.93H910V584.419C910 656.061 881.242 697 825.781 697C770.319 697 741.561 656.061 741.561 584.419V351.581C741.561 279.939 770.319 239 825.782 239C881.242 239 910 279.939 910 351.581V395.078H856.593V347.103C856.593 315.12 845.295 302.967 827.321 302.967C809.347 302.967 798.049 315.12 798.049 347.103V588.896C798.049 620.88 809.347 632.394 827.321 632.394C845.295 632.394 856.593 620.88 856.593 588.896V524.93Z" />
</svg>
