<?xml version="1.0" standalone="no"?><!DOCTYPE svg PUBLIC "-//W3C//DTD SVG 1.1//EN" "http://www.w3.org/Graphics/SVG/1.1/DTD/svg11.dtd"><svg t="1741240066155" class="icon" viewBox="0 0 1170 1024" version="1.1" xmlns="http://www.w3.org/2000/svg" p-id="7491" xmlns:xlink="http://www.w3.org/1999/xlink" width="228.515625" height="200">
<path fill-rule="evenodd" clip-rule="evenodd" d="M859.404 120.604C800.401 61.6025 704.739 61.6027 645.741 120.604L120.609 645.737C61.607 704.739 61.607 800.401 120.609 859.404C179.61 918.4 275.272 918.4 334.273 859.397L859.404 334.268C918.407 275.266 918.407 179.606 859.404 120.604ZM697.713 172.576C728.014 142.278 777.133 142.278 807.429 172.576C837.732 202.875 837.732 251.998 807.429 282.296L750.519 339.21L640.799 229.491L697.713 172.576ZM588.827 281.463L172.581 697.709C142.283 728.007 142.283 777.133 172.581 807.429C202.879 837.725 252.002 837.725 282.3 807.429L698.546 391.182L588.827 281.463Z"/>
</svg>
