<?xml version="1.0" standalone="no"?><!DOCTYPE svg PUBLIC "-//W3C//DTD SVG 1.1//EN" "http://www.w3.org/Graphics/SVG/1.1/DTD/svg11.dtd"><svg t="1741240066155" class="icon" viewBox="0 0 1170 1024" version="1.1" xmlns="http://www.w3.org/2000/svg" p-id="7491" xmlns:xlink="http://www.w3.org/1999/xlink" width="228.515625" height="200">
<path fill-rule="evenodd" clip-rule="evenodd" d="M471.561 152.6L322.119 110.366C289.654 101.191 262.94 93.6411 241.043 89.5076C218.539 85.2593 196.752 83.6717 175.292 89.8065C143.032 99.0283 115.372 119.954 97.7241 148.49C85.9844 167.474 81.587 188.87 79.5549 211.683C77.5774 233.879 77.5781 261.639 77.5788 295.375L77.5746 625.669C77.5417 661.038 77.5158 688.616 86.8013 712.404C95.0998 733.67 107.841 751.506 125.261 766.255C136.384 775.67 148.878 782.131 162.484 787.801C175.552 793.254 191.805 798.826 211.265 805.504L212.378 805.882C281.471 829.577 372.403 862.596 453.845 898.023L455.587 898.786C461.725 901.481 469.95 905.093 478.653 906.535C486.272 907.795 493.718 907.795 501.337 906.535C510.041 905.093 518.265 901.481 524.403 898.786L526.146 898.023C607.587 862.596 698.519 829.577 767.613 805.882L768.726 805.504C788.186 798.826 804.44 793.254 817.509 787.801C831.11 782.131 843.605 775.67 854.728 766.255C872.151 751.506 884.891 733.67 893.193 712.404C902.475 688.616 902.447 661.038 902.419 625.669L902.412 295.374C902.412 261.639 902.412 233.878 900.438 211.683C898.401 188.87 894.005 167.474 882.266 148.49C864.619 119.954 836.962 99.0283 804.699 89.8065C783.237 83.6717 761.453 85.2593 738.948 89.5076C717.052 93.6411 690.337 101.191 657.873 110.366L508.43 152.6C496.717 155.91 494.796 156.333 493.138 156.516C491.049 156.748 488.942 156.748 486.853 156.516C485.194 156.333 483.274 155.91 471.561 152.6ZM195.494 160.476C200.815 158.954 209.353 158.323 227.41 161.731C245.704 165.185 269.256 171.805 303.777 181.562L453.245 223.803V817.88C377.6 786.282 297.895 757.512 236.223 736.358C215.367 729.204 201.384 724.388 190.776 719.964C180.457 715.666 175.708 712.663 172.752 710.157C164.658 703.304 159.127 695.561 155.27 685.681C151.7 676.534 151.079 664.237 151.079 619.191V297.087C151.079 261.213 151.113 236.749 152.765 218.205C154.395 199.902 157.324 191.857 160.236 187.15C168.258 174.179 180.83 164.667 195.494 160.476ZM526.745 817.88C602.39 786.282 682.096 757.512 743.771 736.358C764.624 729.204 778.61 724.388 789.215 719.964C799.533 715.666 804.279 712.663 807.24 710.157C815.332 703.304 820.862 695.561 824.719 685.681C828.289 676.534 828.912 664.237 828.912 619.191V297.087C828.912 261.213 828.877 236.749 827.225 218.205C825.594 199.902 822.668 191.857 819.756 187.15C811.734 174.179 799.162 164.667 784.497 160.476C779.177 158.954 770.637 158.323 752.584 161.731C734.286 165.185 710.738 171.805 676.213 181.562L526.745 223.803V817.88Z"/>
</svg>
