<?xml version="1.0" standalone="no"?><!DOCTYPE svg PUBLIC "-//W3C//DTD SVG 1.1//EN" "http://www.w3.org/Graphics/SVG/1.1/DTD/svg11.dtd"><svg t="1746945606825" class="icon" viewBox="0 0 1024 1024" version="1.1" xmlns="http://www.w3.org/2000/svg" p-id="8136" xmlns:xlink="http://www.w3.org/1999/xlink" width="200" height="200"><path d="M512 304.341333a62.506667 62.506667 0 1 1 0-125.013333 62.506667 62.506667 0 0 1 0 125.013333z m0 85.333334a147.84 147.84 0 1 0 0-295.68 147.84 147.84 0 0 0 0 295.68zM143.786667 603.52a170.666667 170.666667 0 0 1 170.666666-170.666667h409.642667a156.117333 156.117333 0 0 1 156.16 156.16h-85.333333c0-39.125333-31.701333-70.826667-70.826667-70.826666H314.453333a85.333333 85.333333 0 0 0-85.333333 85.333333v130.56a85.333333 85.333333 0 0 0 85.333333 85.333333h94.677334v85.333334h-94.72a170.666667 170.666667 0 0 1-170.666667-170.666667v-130.56z" fill="#000000" p-id="8137"></path><path d="M480.256 872.917333l-1.109333-78.506666a138.666667 138.666667 0 0 1 40.618666-100.010667l85.418667-85.376a137.856 137.856 0 1 1 194.986667 194.986667l-85.418667 85.333333a138.752 138.752 0 0 1-100.010667 40.661333l-78.506666-1.109333a56.746667 56.746667 0 0 1-55.978667-55.978667z m135.68-28.245333a53.333333 53.333333 0 0 0 38.442667-15.616l85.418666-85.418667a52.522667 52.522667 0 1 0-74.282666-74.282666l-85.418667 85.418666a53.333333 53.333333 0 0 0-15.616 38.4l0.725333 50.773334 50.730667 0.725333z" fill="#000000" p-id="8138"></path></svg>