<?xml version="1.0" standalone="no"?><!DOCTYPE svg PUBLIC "-//W3C//DTD SVG 1.1//EN" "http://www.w3.org/Graphics/SVG/1.1/DTD/svg11.dtd"><svg t="1734567883786" class="icon" viewBox="0 0 1024 1024" version="1.1" xmlns="http://www.w3.org/2000/svg" p-id="9482" xmlns:xlink="http://www.w3.org/1999/xlink" width="200" height="200"><path d="M512 64c-247.296 0-448 200.704-448 448s200.704 448 448 448 448-200.704 448-448-200.704-448-448-448z m0 820.224c-205.312 0-372.224-166.4-372.224-372.224S306.688 139.776 512 139.776s372.224 166.4 372.224 372.224-166.912 372.224-372.224 372.224z" p-id="9483"></path><path d="M668.16 500.736c13.824-19.456 22.016-44.032 22.016-70.144 0-63.488-47.616-115.2-105.984-115.2h-16.896V226.304c0-5.12-4.096-9.216-9.216-9.216h-30.72c-5.12 0-9.216 4.096-9.216 9.216v89.088h-49.152V226.304c0-5.12-4.096-9.216-9.216-9.216h-30.72c-5.12 0-9.216 4.096-9.216 9.216v89.088H318.464c-5.12 0-9.216 4.096-9.216 9.216v31.232c0 4.608 3.584 8.704 8.192 9.216 34.816 3.072 53.248 26.624 53.248 54.784v190.464c0 25.6-13.312 46.08-41.984 48.64-4.096 0.512-7.68 3.584-8.192 7.168l-5.632 31.232c-1.024 5.12 2.56 9.728 7.168 10.752H419.84v89.088c0 5.12 4.096 9.216 9.216 9.216h30.72c5.12 0 9.216-4.096 9.216-9.216v-89.088h49.152v89.088c0 5.12 4.096 9.216 9.216 9.216h30.72c5.12 0 9.216-4.096 9.216-9.216v-89.088h41.472c58.368 0 105.984-50.688 105.984-113.664 0-38.4-18.432-73.216-46.592-93.696zM468.992 389.12h75.264c28.16 0 50.688 22.528 50.688 50.688s-22.528 50.688-50.688 50.688H468.992V389.12z m101.376 248.832H468.992v-101.376h99.84c28.16-0.512 51.2 22.016 51.2 50.176s-21.504 50.688-49.664 51.2z" p-id="9484"></path></svg>