<?xml version="1.0" standalone="no"?><!DOCTYPE svg PUBLIC "-//W3C//DTD SVG 1.1//EN" "http://www.w3.org/Graphics/SVG/1.1/DTD/svg11.dtd"><svg t="1720063661182" class="icon" viewBox="0 0 1024 1024" version="1.1" xmlns="http://www.w3.org/2000/svg" p-id="4304" xmlns:xlink="http://www.w3.org/1999/xlink" width="200" height="200">
<path d="M896.666 133.332C915.076 133.332 930 118.408 930 99.999C930 81.5895 915.076 66.6656 896.666 66.6656H596.666C523.029 66.6656 463.334 126.361 463.334 199.998V799.998C463.334 873.637 523.029 933.332 596.666 933.332H896.666C915.076 933.332 930 918.408 930 899.998C930 881.59 915.076 866.666 896.666 866.666H596.666C559.848 866.666 530 836.818 530 799.998V199.998C530 163.18 559.848 133.332 596.666 133.332H896.666Z" />
<path d="M148.75 315.235C148.75 289.993 133.884 269.531 115.546 269.531C97.2094 269.531 82.3438 289.993 82.3438 315.235L82.3438 680.859C82.3438 706.101 97.2094 726.562 115.546 726.562C133.884 726.562 148.75 706.101 148.75 680.859L148.75 315.235Z" />
<path d="M894.063 336.197C912.473 336.197 927.396 321.273 927.396 302.863C927.396 284.455 912.473 269.531 894.063 269.531H627.396C608.986 269.531 594.062 284.455 594.062 302.863C594.062 321.273 608.986 336.197 627.396 336.197H894.063Z" />
<path d="M894.063 531.51C912.473 531.51 927.396 516.586 927.396 498.176C927.396 479.768 912.473 464.844 894.063 464.844H627.396C608.986 464.844 594.062 479.768 594.062 498.176C594.062 516.586 608.986 531.51 627.396 531.51H894.063Z" />
<path d="M894.063 726.822C912.473 726.822 927.396 711.898 927.396 693.488C927.396 675.08 912.473 660.156 894.063 660.156H627.396C608.986 660.156 594.062 675.08 594.062 693.488C594.062 711.898 608.986 726.822 627.396 726.822H894.063Z" />
<path d="M284.933 618.503C293.839 630.226 312.526 621.919 321.432 610.195L392.61 516.774C401.515 505.05 401.515 486.043 392.61 474.322L321.432 379.792C312.526 368.069 293.839 368.069 284.933 379.792C276.028 391.516 276.028 410.716 284.933 422.439L321.432 465.529H224.907C212.313 465.529 203 480.078 203 496.655C203 513.235 212.313 525.566 224.907 525.566H321.432L284.933 573.641C276.028 585.364 276.028 606.78 284.933 618.503Z" />
</svg>
