<?xml version="1.0" standalone="no"?><!DOCTYPE svg PUBLIC "-//W3C//DTD SVG 1.1//EN" "http://www.w3.org/Graphics/SVG/1.1/DTD/svg11.dtd"><svg t="1646105873010" class="icon" viewBox="0 0 1024 1024" version="1.1" xmlns="http://www.w3.org/2000/svg" p-id="4360" xmlns:xlink="http://www.w3.org/1999/xlink" width="200" height="200">
<path d="M510 706.512C543.153 706.512 570.557 696.989 594 724.299C617.443 751.608 631.522 766.264 631.522 804.885H235.687C216.53 804.89 197.561 800.499 179.862 791.961C162.163 783.424 146.081 770.908 132.536 755.129C118.99 739.349 108.246 720.615 100.918 699.997C93.5893 679.379 89.8196 657.281 89.8243 634.966V539.095H10L132.536 416.492L271 539.095H179.862V639.812C179.862 653.209 224.15 706.512 235.687 706.512H510Z" />
<path fill-rule="evenodd" clip-rule="evenodd" d="M153.5 266.215C182.468 266.215 203 243.622 203 219.358C203 195.094 182.468 172.5 153.5 172.5C124.532 172.5 104 195.094 104 219.358C104 243.622 124.532 266.215 153.5 266.215ZM153.5 356.215C230.544 356.215 293 294.942 293 219.358C293 143.773 230.544 82.5 153.5 82.5C76.4563 82.5 14 143.773 14 219.358C14 294.942 76.4563 356.215 153.5 356.215Z" fill="black"/>
<path fill-rule="evenodd" clip-rule="evenodd" d="M837.5 742.5C866.468 742.5 887 719.907 887 695.643C887 671.378 866.468 648.785 837.5 648.785C808.532 648.785 788 671.378 788 695.643C788 719.907 808.532 742.5 837.5 742.5ZM837.5 832.5C914.544 832.5 977 771.227 977 695.643C977 620.058 914.544 558.785 837.5 558.785C760.456 558.785 698 620.058 698 695.643C698 771.227 760.456 832.5 837.5 832.5Z" />
<path d="M476.522 225.339C443.369 225.339 415.965 234.862 392.522 207.552C369.079 180.243 355 165.587 355 126.966H750.835C769.991 126.961 788.961 131.352 806.66 139.889C824.359 148.427 840.44 160.943 853.986 176.722C867.531 192.502 878.275 211.235 885.604 231.853C892.932 252.471 896.702 274.569 896.697 296.885V392.756H976.522L853.986 515.359L715.522 392.756H806.66V292.038C806.66 278.641 762.371 225.339 750.835 225.339H476.522Z" />
</svg>
