<?xml version="1.0" standalone="no"?><!DOCTYPE svg PUBLIC "-//W3C//DTD SVG 1.1//EN" "http://www.w3.org/Graphics/SVG/1.1/DTD/svg11.dtd"><svg t="1720063661182" class="icon" viewBox="0 0 1024 1024" version="1.1" xmlns="http://www.w3.org/2000/svg" p-id="4304" xmlns:xlink="http://www.w3.org/1999/xlink" width="200" height="200">
<path d="M101.735 859.385C81.9989 859.385 66 874.297 66 892.692C66 911.088 81.9989 926 101.735 926L423.347 926C502.288 926 566.284 866.351 566.284 792.77L566.284 193.231C566.284 119.649 502.288 60 423.347 60L101.735 60C81.9989 60 66 74.9123 66 93.3083C66 111.702 81.9989 126.615 101.735 126.615L423.347 126.615C462.818 126.615 494.815 156.439 494.815 193.231L494.815 792.77C494.815 829.56 462.818 859.385 423.347 859.385H101.735Z" />
<path d="M104.526 656.676C84.7899 656.676 68.791 671.588 68.791 689.984C68.791 708.378 84.7899 723.29 104.526 723.29H390.403C410.139 723.29 426.138 708.378 426.138 689.984C426.138 671.588 410.139 656.676 390.403 656.676H104.526Z"/>
<path d="M104.526 461.513C84.7899 461.513 68.791 476.426 68.791 494.822C68.791 513.216 84.7899 528.128 104.526 528.128H390.403C410.139 528.128 426.138 513.216 426.138 494.822C426.138 476.426 410.139 461.513 390.403 461.513L104.526 461.513Z" />
<path d="M104.526 266.351C84.7899 266.351 68.791 281.263 68.791 299.659C68.791 318.053 84.7899 332.966 104.526 332.966L390.403 332.966C410.139 332.966 426.138 318.053 426.138 299.659C426.138 281.263 410.139 266.351 390.403 266.351L104.526 266.351Z" />
<path d="M913 312.14C913 286.91 900.159 272.997 884.318 272.997C868.478 272.997 855.637 286.91 855.637 312.14V677.596C855.637 702.827 868.478 715.339 884.318 715.339C900.159 715.339 913 702.827 913 677.596V312.14Z"/>
<path d="M700.496 615.788C709.402 627.511 728.089 619.203 736.995 607.48L808.173 514.058C817.078 502.335 817.078 483.328 808.173 471.607L736.995 377.077C728.089 365.354 709.402 365.354 700.496 377.077C691.59 388.8 691.59 408.001 700.496 419.724L736.995 462.814H640.47C627.876 462.814 618.563 477.362 618.563 493.94C618.563 510.52 627.876 522.851 640.47 522.851H736.995L700.496 570.926C691.59 582.649 691.59 604.065 700.496 615.788Z" />
</svg>
