<?xml version="1.0" standalone="no"?><!DOCTYPE svg PUBLIC "-//W3C//DTD SVG 1.1//EN" "http://www.w3.org/Graphics/SVG/1.1/DTD/svg11.dtd"><svg t="1646105873010" class="icon" viewBox="0 0 1024 1024" version="1.1" xmlns="http://www.w3.org/2000/svg" p-id="4360" xmlns:xlink="http://www.w3.org/1999/xlink" width="200" height="200">
            <path d="M0,225.806453 L0,376.129033 C0,376.129033 60,451.612904 419.354838,451.612904 C778.709677,451.612904 838.709678,376.129033 838.709678,376.129033 L838.709678,225.806453 C838.709678,225.806453 778.709678,301.290324 419.354838,301.290324 C60,301.290324 0,225.806453 0,225.806453 Z M838.709678,112.903226 C838.709678,50.3225807 651.612903,-5.68434189e-14 419.354838,-5.68434189e-14 C187.096774,-5.68434189e-14 0,48.3870968 0,112.903226 C0,177.419356 187.096774,225.806453 419.354838,225.806453 C651.612903,225.806453 838.709678,175.483872 838.709678,112.903226 Z M483.870968,751.612904 L419.354838,751.612904 C60,751.612904 0,676.129033 0,676.129033 L0,826.451613 C0,826.451613 60,901.935484 419.354838,901.935484 L518.709678,901.935484 C495.495182,862.928571 483.443691,818.293418 483.870968,772.903227 C483.309821,765.817545 483.309821,758.698586 483.870968,751.612904 Z M741.935485,548.387098 C866.644944,548.387098 967.741936,649.484089 967.741936,774.193549 C967.741936,898.903008 866.644944,1000 741.935485,1000 C617.226025,1000 516.129034,898.903008 516.129034,774.193549 C516.129034,649.484089 617.226025,548.387098 741.935485,548.387098 Z M774.193549,645.161291 L709.677419,645.161291 L709.677419,741.935485 L612.903226,741.935485 L612.903226,806.451614 L709.677419,806.451614 L709.677419,903.225808 L774.193549,903.225808 L774.193549,806.451614 L870.967742,806.451614 L870.967742,741.935485 L774.193549,741.935485 L774.193549,645.161291 Z M838.709678,451.612904 L838.709678,535.483872 C808.025833,522.771979 775.148224,516.196457 741.935485,516.129034 C636.968245,516.34166 542.588387,580.111833 503.225807,677.419355 L419.354838,677.419355 C60,677.419355 0,601.935484 0,601.935484 L0,451.612904 C0,451.612904 60,527.096775 419.354838,527.096775 C778.709678,527.096775 838.709678,451.612904 838.709678,451.612904 Z" id="形状"></path>
     
</svg>