<?xml version="1.0" standalone="no"?><!DOCTYPE svg PUBLIC "-//W3C//DTD SVG 1.1//EN" "http://www.w3.org/Graphics/SVG/1.1/DTD/svg11.dtd"><svg t="1715411814358" class="icon" viewBox="0 0 1024 1024" version="1.1" xmlns="http://www.w3.org/2000/svg" p-id="4234" xmlns:xlink="http://www.w3.org/1999/xlink" width="200" height="200"><path d="M952.32 156.4672c-34.816-208.4864-849.92-208.4864-884.736 0H65.536v697.5488c0 110.1824 226.0992 169.984 444.416 169.984S954.368 962.1504 954.368 854.016l-2.048-697.5488z m-442.368-88.8832c245.3504 0 376.832 67.584 376.832 102.4s-129.4336 102.4-376.832 102.4c-245.3504 0-376.832-67.584-376.832-102.4s131.4816-102.4 376.832-102.4z m0 888.832c-245.3504 0-376.832-67.584-376.832-102.4v-125.7472c83.1488 50.3808 231.8336 77.4144 376.832 77.4144s291.6352-27.0336 376.832-77.4144v125.7472c0 32.768-131.4816 102.4-376.832 102.4z m0-220.3648c-245.3504 0-376.832-67.584-376.832-102.4v-139.264c83.1488 50.3808 231.8336 77.4144 376.832 77.4144s291.6352-27.0336 376.832-77.4144v139.264c0 34.816-131.4816 102.4-376.832 102.4z m0-231.8336c-245.3504 0-376.832-67.584-376.832-102.4v-139.264C216.2688 312.9344 364.9536 339.968 509.952 339.968s291.6352-27.0336 376.832-77.4144v139.264c0 34.816-131.4816 102.4-376.832 102.4z"  p-id="4235"></path><path d="M761.0368 390.3488c0 15.9744 13.1072 29.0816 29.0816 29.0816 15.9744 0 29.0816-13.1072 29.0816-29.0816 0-15.9744-13.1072-29.0816-29.0816-29.0816-15.9744 0-29.0816 13.1072-29.0816 29.0816zM761.0368 610.7136c0 15.9744 13.1072 29.0816 29.0816 29.0816 15.9744 0 29.0816-13.1072 29.0816-29.0816 0-15.9744-13.1072-29.0816-29.0816-29.0816-15.9744 0-29.0816 12.6976-29.0816 29.0816 0-0.4096 0 0 0 0zM761.0368 836.4032c0 15.9744 13.1072 29.0816 29.0816 29.0816 15.9744 0 29.0816-13.1072 29.0816-29.0816 0-15.9744-13.1072-29.0816-29.0816-29.0816-15.9744 0.4096-29.0816 13.1072-29.0816 29.0816z"  p-id="4236"></path></svg>