<?xml version="1.0" standalone="no"?><!DOCTYPE svg PUBLIC "-//W3C//DTD SVG 1.1//EN" "http://www.w3.org/Graphics/SVG/1.1/DTD/svg11.dtd"><svg t="1693360185814" class="icon" viewBox="0 0 1024 1024" version="1.1" xmlns="http://www.w3.org/2000/svg" p-id="5828" xmlns:xlink="http://www.w3.org/1999/xlink" ><path d="M469.333333 380.586667c-237.653333 0-277.333333-49.92-277.333333-49.92v99.413333s39.68 49.92 277.333333 49.92 277.333333-49.92 277.333334-49.92V330.666667s-39.68 49.92-277.333334 49.92z m0-49.92c153.6 0 277.333333-33.28 277.333334-74.666667S622.933333 181.333333 469.333333 181.333333 192 213.333333 192 256 315.733333 330.666667 469.333333 330.666667z m42.666667 347.733333h-42.666667c-237.653333 0-277.333333-49.92-277.333333-49.92v99.413333s39.68 49.92 277.333333 49.92h65.706667a163.84 163.84 0 0 1-23.04-85.333333 89.173333 89.173333 0 0 1 0-14.08z m-42.666667-148.48c-237.653333 0-277.333333-49.92-277.333333-49.92v99.413333s39.68 49.92 277.333333 49.92h55.466667a170.666667 170.666667 0 0 1 157.866667-106.666666 168.106667 168.106667 0 0 1 64 12.8v-55.466667s-39.68 49.92-277.333334 49.92z m213.333334 14.08a149.333333 149.333333 0 1 0 149.333333 149.333333 149.333333 149.333333 0 0 0-149.333333-149.333333z m85.333333 170.666667h-64v64h-42.666667v-64H597.333333v-42.666667h64v-64h42.666667v64H768z" p-id="5829"></path></svg>