<?xml version="1.0" standalone="no"?><!DOCTYPE svg PUBLIC "-//W3C//DTD SVG 1.1//EN" "http://www.w3.org/Graphics/SVG/1.1/DTD/svg11.dtd"><svg t="1721290089655" class="icon" viewBox="0 0 1024 1024" version="1.1" xmlns="http://www.w3.org/2000/svg" p-id="8904" data-spm-anchor-id="a313x.search_index.0.i1.2c413a81acgAfm" xmlns:xlink="http://www.w3.org/1999/xlink" width="200" height="200"><path d="M512 160c-4.992 0-9.984 0.96-14.56 2.88l-395.2 182.24c-8.32 3.84-8.32 9.856 0 13.696l395.2 182.304a37.76 37.76 0 0 0 29.12 0l395.2-182.304c8.32-3.84 8.32-9.856 0-13.696L526.56 162.88A37.76 37.76 0 0 0 512 160z m0 66.624L783.744 352 512 477.376 240.256 352 512 226.624zM154.88 462.304l-52.64 26.336c-8.32 4.16-8.32 10.56 0 14.72l395.2 197.504a35.264 35.264 0 0 0 29.12 0l395.2-197.504c8.32-4.16 8.32-10.56 0-14.72l-52.64-26.336-342.56 171.2a35.264 35.264 0 0 1-29.12 0L154.88 462.304z m0 160l-52.64 26.336c-8.32 4.16-8.32 10.56 0 14.72l395.2 197.504a35.264 35.264 0 0 0 29.12 0l395.2-197.504c8.32-4.16 8.32-10.56 0-14.72l-52.64-26.336-342.56 171.2a35.264 35.264 0 0 1-29.12 0L154.88 622.304z" p-id="8905" data-spm-anchor-id="a313x.search_index.0.i0.2c413a81acgAfm" class=""></path></svg>