<?xml version="1.0" standalone="no"?><!DOCTYPE svg PUBLIC "-//W3C//DTD SVG 1.1//EN" "http://www.w3.org/Graphics/SVG/1.1/DTD/svg11.dtd"><svg t="1741240066155" class="icon" viewBox="0 0 1170 1024" version="1.1" xmlns="http://www.w3.org/2000/svg" p-id="7491" xmlns:xlink="http://www.w3.org/1999/xlink" width="228.515625" height="200">
<path fill-rule="evenodd" clip-rule="evenodd" d="M99.3783 136.535L99.3776 136.157C99.3776 116.456 114.927 100.243 134.612 99.4231L134.982 99.4077L135.976 99.3699C136.836 99.3377 138.092 99.2922 139.72 99.239C142.977 99.1312 147.727 98.9898 153.796 98.8484C165.934 98.5663 183.361 98.2856 204.692 98.2856C247.306 98.2856 305.726 99.4056 368.769 103.908C431.673 108.401 499.985 116.316 562.122 130.124C623.351 143.729 682.639 163.896 724.388 195.206C808.591 258.355 836.108 374.585 845.068 464.226C849.709 510.58 849.695 553.246 848.547 584.247C847.973 599.789 847.105 612.505 846.377 621.413C846.013 625.87 845.677 629.381 845.432 631.824C845.348 632.662 845.271 633.375 845.208 633.957L845.131 634.674L845.047 635.472L845.019 635.709L845.005 635.815C845.005 635.815 845.005 635.837 808.507 631.542L845.005 635.815C842.632 655.972 824.369 670.412 804.209 668.041C784.056 665.669 769.643 647.401 772.002 627.248L772.016 627.176L772.072 626.678L772.191 625.512L772.303 624.453C772.506 622.439 772.793 619.384 773.122 615.409C773.773 607.453 774.564 595.841 775.096 581.526C776.16 552.815 776.146 513.65 771.939 471.54C763.21 384.252 737.639 297.014 680.29 254.007C651.262 232.238 604.386 214.808 546.179 201.874C488.881 189.141 424.488 181.575 363.533 177.222C302.717 172.878 246.125 171.786 204.692 171.786C193.016 171.786 182.562 171.872 173.578 171.997C173.853 180.954 174.238 191.374 174.774 203.011C176.679 244.378 180.487 300.88 188.076 361.591C195.683 422.441 206.989 486.691 223.66 543.845C240.554 601.765 261.938 648.738 287.643 678.112C341.729 739.921 420.706 768.572 489.948 781.158C524.137 787.374 554.791 789.46 576.857 789.978C587.86 790.237 596.648 790.104 602.577 789.915C605.539 789.824 607.781 789.712 609.222 789.635C609.941 789.593 610.461 789.565 610.77 789.544L611.05 789.523C631.278 787.976 648.954 803.117 650.51 823.347C652.067 843.584 636.924 861.252 616.687 862.806C616.722 862.806 611.982 801.633 616.687 862.806L616.551 862.813L616.33 862.834L615.64 862.883C615.33 862.897 614.956 862.925 614.517 862.953C614.151 862.974 613.741 862.995 613.288 863.023C611.299 863.135 608.478 863.268 604.908 863.38C597.774 863.604 587.624 863.751 575.128 863.457C550.193 862.869 515.6 860.531 476.801 853.475C400.066 839.524 302.102 806.246 232.33 726.516C196.105 685.118 171.041 625.934 153.1 564.427C134.936 502.153 123.019 433.707 115.144 370.707C107.25 307.569 103.317 249.066 101.352 206.392C100.368 185.03 99.8746 167.574 99.6268 155.412C99.5029 149.329 99.4406 144.567 99.4091 141.299C99.3937 139.664 99.386 138.403 99.3818 137.536L99.3783 136.535Z"/>
<path d="M333.432 261.811C351.208 252.016 373.559 258.486 383.354 276.263C408.736 322.326 447.061 386.643 495.802 456.175L510.643 322.608C512.884 302.435 531.054 287.899 551.227 290.14C571.399 292.382 585.935 310.551 583.694 330.724L560.155 542.576L562.639 545.702C643.966 647.779 742.644 747.208 851.235 809.256C868.854 819.329 874.979 841.778 864.906 859.397C854.84 877.023 832.391 883.141 814.765 873.075C694.692 804.461 589.202 696.996 505.154 591.503C503.138 588.974 501.135 586.445 499.143 583.915H334.835C314.539 583.915 298.085 567.462 298.085 547.165C298.085 526.869 314.539 510.415 334.835 510.415H444.13C389.467 433.637 346.788 362.2 318.98 311.734C309.185 293.958 315.655 271.607 333.432 261.811Z"/>
</svg>
