<?xml version="1.0" standalone="no"?><!DOCTYPE svg PUBLIC "-//W3C//DTD SVG 1.1//EN" "http://www.w3.org/Graphics/SVG/1.1/DTD/svg11.dtd"><svg t="1741875182144" class="icon" viewBox="0 0 1024 1024" version="1.1" xmlns="http://www.w3.org/2000/svg" p-id="3493" xmlns:xlink="http://www.w3.org/1999/xlink" width="200" height="200">
<path d="M890.781 546.25H820.061C805.931 612.37 772.279 672.726 723.463 719.507C674.646 766.288 612.912 797.34 546.25 808.642V890.781C546.25 903.835 541.064 916.354 531.834 925.584C522.604 934.814 510.085 940 497.031 940C483.978 940 471.459 934.814 462.228 925.584C452.998 916.354 447.812 903.835 447.812 890.781V810.512C378.348 801.763 313.323 771.627 261.747 724.279C210.171 676.931 174.597 614.715 159.953 546.25H89.2188C76.1651 546.25 63.6461 541.064 54.4158 531.834C45.1855 522.604 40 510.085 40 497.031C40 483.978 45.1855 471.459 54.4158 462.228C63.6461 452.998 76.1651 447.812 89.2188 447.812H153.906C160.364 370.789 193.082 298.322 246.584 242.539C300.086 186.756 371.126 151.042 447.812 141.377V89.2188C447.812 76.1651 452.998 63.6461 462.228 54.4158C471.459 45.1855 483.978 40 497.031 40C510.085 40 522.604 45.1855 531.834 54.4158C541.064 63.6461 546.25 76.1651 546.25 89.2188V143.416C620.058 155.911 687.614 192.602 738.278 247.711C788.942 302.82 819.835 373.216 826.094 447.812H890.781C903.835 447.812 916.354 452.998 925.584 462.228C934.814 471.459 940 483.978 940 497.031C940 510.085 934.814 522.604 925.584 531.834C916.354 541.064 903.835 546.25 890.781 546.25ZM546.25 229.352V300.156C546.25 313.21 541.064 325.729 531.834 334.959C522.604 344.189 510.085 349.375 497.031 349.375C483.978 349.375 471.459 344.189 462.228 334.959C452.998 325.729 447.812 313.21 447.812 300.156V226.511C393.634 235.682 343.911 262.235 306.155 302.158C268.398 342.082 244.658 393.207 238.52 447.812H300.156C313.21 447.812 325.729 452.998 334.959 462.228C344.189 471.459 349.375 483.978 349.375 497.031C349.375 510.085 344.189 522.604 334.959 531.834C325.729 541.064 313.21 546.25 300.156 546.25H246.986C260.231 591.987 286.097 633.066 321.616 664.777C357.136 696.489 400.873 717.55 447.812 725.547V679.844C447.812 666.79 452.998 654.271 462.228 645.041C471.459 635.811 483.978 630.625 497.031 630.625C510.085 630.625 522.604 635.811 531.834 645.041C541.064 654.271 546.25 666.79 546.25 679.844V722.594C590.271 712.511 630.797 690.847 663.634 659.842C696.47 628.838 720.424 589.62 733.014 546.25H679.844C666.79 546.25 654.271 541.064 645.041 531.834C635.811 522.604 630.625 510.085 630.625 497.031C630.625 483.978 635.811 471.459 645.041 462.228C654.271 452.998 666.79 447.812 679.844 447.812H741.48C735.606 395.651 713.662 346.605 678.684 307.465C643.707 268.325 597.426 241.028 546.25 229.352Z" />
</svg>
