<?xml version="1.0" standalone="no"?><!DOCTYPE svg PUBLIC "-//W3C//DTD SVG 1.1//EN" "http://www.w3.org/Graphics/SVG/1.1/DTD/svg11.dtd"><svg t="1699585618074" class="icon" viewBox="0 0 1024 1024" version="1.1" xmlns="http://www.w3.org/2000/svg" p-id="24295" xmlns:xlink="http://www.w3.org/1999/xlink" width="200" height="200">
<path d="M186.224 758.284C179.984 750.872 172.345 744.763 163.743 740.304C155.141 735.845 145.745 733.124 136.092 732.296C126.438 731.469 116.717 732.551 107.481 735.481C98.2463 738.411 89.6788 743.132 82.2683 749.374C79.3108 751.812 76.5614 754.492 74.0485 757.386C45.383 786.052 43.2417 854.089 35.3673 893.116C35.0637 894.938 35.1286 896.802 35.5581 898.599C35.9876 900.395 36.7729 902.087 37.8677 903.575C38.9625 905.062 40.3445 906.315 41.9319 907.259C43.5193 908.204 45.28 908.82 47.1098 909.072C48.5239 909.349 49.9783 909.349 51.3924 909.072C90.419 901.336 158.457 899.056 187.122 870.46C201.845 857.559 210.844 839.341 212.139 819.808C213.434 800.276 206.92 781.028 194.029 766.297C191.631 763.435 189.022 760.756 186.224 758.284Z" />
<path d="M564.017 1003C551.562 1002.94 539.261 1000.23 527.929 995.063C514.978 989.19 503.568 980.391 494.595 969.359C485.622 958.327 479.331 945.364 476.218 931.488C469.852 898.99 459.088 867.512 444.223 837.921C423.506 838.673 395.102 839.341 376.139 838.84C362.45 838.75 348.925 835.857 336.396 830.34C323.868 824.822 312.602 816.797 303.294 806.759L217.249 720.628C207.232 711.338 199.219 700.099 193.703 687.6C188.187 675.101 185.283 661.607 185.17 647.946C184.502 629.065 185.17 600.494 186.006 579.775C156.497 564.875 125.066 554.135 92.6097 547.862C78.7429 544.758 65.7849 538.48 54.7541 529.522C43.7233 520.563 34.9203 509.169 29.0369 496.233C22.8177 483.099 20.1322 468.569 21.2456 454.079C22.359 439.589 27.2329 425.64 35.3859 413.61C70.0699 366.745 114.994 328.417 166.735 301.547C218.476 274.676 275.668 259.972 333.952 258.556C344.525 248.832 354.591 238.571 364.11 227.812C435.619 150.619 569.698 6.9268 928.412 24.4707C944.154 25.3953 959.333 30.6577 972.27 39.6753L984.383 51.7054C993.253 64.7107 998.474 79.8563 999.503 95.565C1017.21 455.214 873.444 588.464 796.254 659.892C785.408 669.374 775.116 679.471 765.429 690.135C764.021 748.42 749.312 805.614 722.426 857.347C695.54 909.08 657.187 953.984 610.298 988.631C596.679 997.991 580.542 1003 564.017 1003ZM490.253 752.374L503.201 773.092C529.575 816.363 548.073 863.967 557.835 913.693L564.017 919.374C601.187 890.624 631.205 853.668 651.725 811.394C672.245 769.119 682.712 722.672 682.308 675.682V664.654L687.821 655.214C702.151 633.899 719.516 614.789 739.365 598.489C810.539 532.574 929.498 423.05 916.383 108.848C601.443 94.3954 490.838 213.192 425.176 284.287C408.857 304.064 389.783 321.394 368.537 335.749L359.014 341.179H348.07C300.926 340.815 254.341 351.4 211.983 372.102C169.624 392.803 132.65 423.056 103.971 460.477C155.378 473.52 204.721 493.652 250.581 520.293L271.466 533.242L270.296 557.72C270.296 557.72 267.372 614.612 268.375 644.604C268.091 647.808 268.643 651.032 269.975 653.96C271.307 656.888 273.375 659.421 275.977 661.313L362.105 747.445C363.981 750.068 366.509 752.157 369.439 753.504C372.369 754.852 375.6 755.413 378.812 755.13C408.719 756.467 465.358 753.376 465.609 753.376L490.253 752.374Z" />
<path d="M576.131 298.958C576.131 317.351 583.437 334.99 596.443 347.996C609.448 361.002 627.088 368.308 645.481 368.308C663.873 368.308 681.513 361.002 694.518 347.996C707.524 334.99 714.831 317.351 714.831 298.958C714.831 289.851 713.037 280.833 709.552 272.419C706.066 264.005 700.958 256.36 694.518 249.921C688.079 243.481 680.434 238.372 672.02 234.887C663.606 231.402 654.588 229.608 645.481 229.608C636.373 229.608 627.355 231.402 618.942 234.887C610.528 238.372 602.883 243.481 596.443 249.921C590.003 256.36 584.895 264.005 581.41 272.419C577.924 280.833 576.131 289.851 576.131 298.958Z" />
</svg>
