<?xml version="1.0" standalone="no"?><!DOCTYPE svg PUBLIC "-//W3C//DTD SVG 1.1//EN" "http://www.w3.org/Graphics/SVG/1.1/DTD/svg11.dtd"><svg t="1718109333064" class="icon" viewBox="0 0 1024 1024" version="1.1" xmlns="http://www.w3.org/2000/svg" p-id="15250" xmlns:xlink="http://www.w3.org/1999/xlink" width="200" height="200"><path d="M281.024 758.144a68.352 68.352 0 0 0-96.32-8.256 64 64 0 0 0-7.616 7.424c-26.56 26.56-28.544 89.6-35.84 125.76a12.8 12.8 0 0 0 10.88 14.784 10.304 10.304 0 0 0 3.968 0c36.16-7.168 99.2-9.28 125.76-35.776a68.416 68.416 0 0 0 6.4-96.512 69.248 69.248 0 0 0-7.232-7.424z"  p-id="15251"></path><path d="M575.296 879.872a67.392 67.392 0 0 1-27.648-6.08 70.4 70.4 0 0 1-39.616-48.704 279.296 279.296 0 0 0-24.512-71.68c-15.872 0.576-37.632 1.088-52.16 0.704a76.8 76.8 0 0 1-55.808-24.576l-65.92-65.984a76.8 76.8 0 0 1-24.576-55.68c-0.512-14.464 0-36.352 0.64-52.224a274.176 274.176 0 0 0-71.552-24.448 70.4 70.4 0 0 1-48.704-39.552 64 64 0 0 1 4.864-63.296 293.44 293.44 0 0 1 228.736-118.784 320.832 320.832 0 0 0 23.104-23.552c54.784-59.136 157.504-169.216 432.32-155.776a65.472 65.472 0 0 1 33.6 11.648l9.28 9.216a67.456 67.456 0 0 1 11.584 33.6c13.568 275.52-96.576 377.6-155.712 432.32a288 288 0 0 0-23.616 23.168 293.12 293.12 0 0 1-118.848 228.672 62.592 62.592 0 0 1-35.456 11.008z m-56.512-192l9.92 15.872a328.576 328.576 0 0 1 41.856 107.712l4.736 4.352a233.472 233.472 0 0 0 90.624-186.688v-8.448l4.224-7.232a202.24 202.24 0 0 1 39.488-43.456c54.528-50.496 145.664-134.4 135.616-375.104-241.28-11.072-326.016 79.936-376.32 134.4a205.184 205.184 0 0 1-43.392 39.424l-7.296 4.16h-8.384a233.344 233.344 0 0 0-187.008 91.392 438.08 438.08 0 0 1 112.32 45.824l16 9.92-0.896 18.752s-2.24 43.584-1.472 66.56a14.272 14.272 0 0 0 5.824 12.8l65.984 65.984a14.208 14.208 0 0 0 12.8 5.888c22.912 1.024 66.304-1.344 66.496-1.344z"  p-id="15252"></path><path d="M675.2 363.904m-64.256 0a64.256 64.256 0 1 0 128.512 0 64.256 64.256 0 1 0-128.512 0Z" p-id="15253"></path></svg>