<?xml version="1.0" standalone="no"?><!DOCTYPE svg PUBLIC "-//W3C//DTD SVG 1.1//EN" "http://www.w3.org/Graphics/SVG/1.1/DTD/svg11.dtd"><svg t="1741240066155" class="icon" viewBox="0 0 1170 1024" version="1.1" xmlns="http://www.w3.org/2000/svg" p-id="7491" xmlns:xlink="http://www.w3.org/1999/xlink" width="228.515625" height="200">
<path d="M319.982 333.347C305.63 318.995 282.361 318.995 268.009 333.347C253.658 347.698 253.658 370.968 268.009 385.319L360.065 477.375C431.824 549.133 548.167 549.133 619.926 477.375L711.984 385.319C726.334 370.968 726.334 347.698 711.984 333.347C697.63 318.995 674.361 318.995 660.009 333.347L567.954 425.403C524.898 468.458 455.092 468.458 412.037 425.402L319.982 333.347Z" />
<path fill-rule="evenodd" clip-rule="evenodd" d="M664.702 110.25H315.289C275.46 110.249 243.335 110.249 217.32 112.375C190.535 114.563 167.008 119.187 145.242 130.278C110.666 147.894 82.5566 176.005 64.9397 210.579C53.8489 232.346 49.2254 255.872 47.0369 282.658C44.9115 308.673 44.9118 340.797 44.9121 380.626V599.373C44.9118 639.202 44.9115 671.327 47.0369 697.341C49.2254 724.129 53.8489 747.656 64.9397 769.419C82.5566 803.992 110.666 832.104 145.242 849.723C167.008 860.811 190.535 865.438 217.32 867.622C243.335 869.75 275.461 869.75 315.291 869.75H664.7C704.529 869.75 736.659 869.75 762.671 867.622C789.453 865.438 812.98 860.811 834.75 849.723C869.323 832.104 897.435 803.992 915.054 769.419C926.142 747.656 930.769 724.129 932.953 697.341C935.081 671.327 935.081 639.201 935.081 599.371V380.629C935.081 340.799 935.081 308.673 932.953 282.658C930.769 255.872 926.142 232.346 915.054 210.579C897.435 176.005 869.323 147.894 834.75 130.278C812.98 119.187 789.453 114.563 762.671 112.375C736.659 110.249 704.529 110.249 664.702 110.25ZM178.61 195.766C188.288 190.835 201.066 187.447 223.306 185.63C245.974 183.779 275.092 183.75 316.862 183.75H663.129C704.9 183.75 734.02 183.779 756.686 185.63C778.925 187.447 791.7 190.835 801.381 195.766C822.129 206.336 838.992 223.203 849.562 243.947C854.497 253.625 857.878 266.403 859.698 288.643C861.553 311.312 861.581 340.43 861.581 382.2V597.8C861.581 639.57 861.553 668.688 859.698 691.356C857.878 713.594 854.497 726.376 849.562 736.05C838.992 756.798 822.129 773.661 801.381 784.231C791.7 789.166 778.925 792.554 756.686 794.367C734.02 796.222 704.9 796.25 663.129 796.25H316.862C275.092 796.25 245.974 796.222 223.306 794.367C201.066 792.554 188.288 789.166 178.61 784.231C157.865 773.661 140.999 756.798 130.429 736.05C125.497 726.376 122.11 713.594 120.293 691.356C118.441 668.688 118.412 639.57 118.412 597.8V382.2C118.412 340.43 118.441 311.312 120.293 288.643C122.11 266.403 125.497 253.625 130.429 243.947C140.999 223.203 157.865 206.336 178.61 195.766Z" />
</svg>
