<?xml version="1.0" standalone="no"?><!DOCTYPE svg PUBLIC "-//W3C//DTD SVG 1.1//EN" "http://www.w3.org/Graphics/SVG/1.1/DTD/svg11.dtd"><svg t="1741875182144" class="icon" viewBox="0 0 1024 1024" version="1.1" xmlns="http://www.w3.org/2000/svg" p-id="3493" xmlns:xlink="http://www.w3.org/1999/xlink" width="200" height="200">
<path d="M113.762 331.036C92.4279 381.31 81.5096 435.387 81.6666 490C81.6666 545.37 92.365 598.331 113.762 648.964C134.233 697.487 163.97 741.551 201.308 778.692C238.465 816.019 282.543 845.742 331.077 866.198C381.335 887.541 435.398 898.473 490 898.333C544.613 898.49 598.69 887.572 648.964 866.238C697.497 845.783 741.576 816.059 778.732 778.733C816.059 741.576 845.783 697.497 866.238 648.964C887.572 598.69 898.49 544.613 898.333 490C898.492 435.387 887.573 381.309 866.238 331.036C845.767 282.513 816.03 238.449 778.692 201.308C741.536 163.981 697.457 134.257 648.923 113.803C598.665 92.4602 544.602 81.5281 490 81.6667C435.387 81.5097 381.31 92.428 331.036 113.762C282.513 134.233 238.449 163.97 201.308 201.308C163.981 238.464 134.257 282.543 113.802 331.077L113.762 331.036ZM259.006 720.994C195.224 657.213 163.333 580.201 163.333 490C163.333 399.758 195.224 322.788 259.006 259.006C322.787 195.224 399.799 163.333 490 163.333C580.242 163.333 657.212 195.224 720.994 259.006C784.776 322.788 816.667 399.799 816.667 490C816.667 580.242 784.776 657.213 720.994 720.994C657.212 784.776 580.201 816.667 490 816.667C399.758 816.667 322.787 784.776 259.006 720.994Z" />
<path d="M324.87 629.446C320.129 619.77 319.404 608.613 322.853 598.406C326.303 588.198 333.647 579.768 343.285 574.951C352.923 570.135 364.074 569.323 374.308 572.693C384.542 576.062 393.03 583.34 397.921 592.941C414.867 626.873 445.573 643.86 490 643.86C534.427 643.86 565.133 626.873 582.12 592.941C584.413 587.976 587.68 583.523 591.727 579.845C595.775 576.167 600.519 573.34 605.68 571.531C610.84 569.722 616.312 568.967 621.769 569.313C627.227 569.658 632.559 571.096 637.451 573.542C642.342 575.988 646.692 579.391 650.243 583.55C653.794 587.708 656.473 592.538 658.122 597.752C659.771 602.966 660.356 608.458 659.842 613.902C659.328 619.347 657.726 624.632 655.13 629.446C623.117 693.513 568.073 725.527 490 725.527C411.927 725.527 356.883 693.513 324.87 629.446ZM593.023 368.235H634.264C645.093 368.237 655.477 372.539 663.134 380.197C670.79 387.854 675.091 398.24 675.091 409.068C675.091 419.897 670.79 430.282 663.134 437.939C655.477 445.597 645.093 449.9 634.264 449.902H593.023C587.66 449.902 582.349 448.847 577.394 446.795C572.44 444.743 567.937 441.736 564.145 437.944C560.353 434.152 557.344 429.65 555.292 424.696C553.239 419.741 552.183 414.431 552.183 409.068C552.183 403.705 553.239 398.395 555.292 393.44C557.344 388.486 560.353 383.984 564.145 380.192C567.937 376.401 572.44 373.393 577.394 371.341C582.349 369.29 587.66 368.234 593.023 368.235ZM348.472 368.235H389.713C400.542 368.237 410.926 372.539 418.583 380.197C426.239 387.854 430.54 398.24 430.54 409.068C430.54 419.897 426.239 430.282 418.583 437.939C410.926 445.597 400.542 449.9 389.713 449.902H348.472C343.109 449.902 337.798 448.847 332.844 446.795C327.889 444.743 323.386 441.736 319.594 437.944C315.802 434.152 312.793 429.65 310.741 424.696C308.688 419.741 307.632 414.431 307.632 409.068C307.632 403.705 308.688 398.395 310.741 393.44C312.793 388.486 315.802 383.984 319.594 380.192C323.386 376.401 327.889 373.393 332.844 371.341C337.798 369.29 343.109 368.234 348.472 368.235Z"  />
</svg>
