<?xml version="1.0" standalone="no"?><!DOCTYPE svg PUBLIC "-//W3C//DTD SVG 1.1//EN" "http://www.w3.org/Graphics/SVG/1.1/DTD/svg11.dtd"><svg t="1685088817280" class="icon" viewBox="0 0 1024 1024" version="1.1" xmlns="http://www.w3.org/2000/svg" p-id="1613" xmlns:xlink="http://www.w3.org/1999/xlink" width="200" height="200">
<path d="M160.159 851.641L159.184 851.619C153.546 851.437 124.242 849.555 104.719 831.254C84.7022 812.481 82.3129 785.488 82.0377 780.263C82.011 779.772 81.9981 779.28 81.9989 778.788V631.777C81.7075 625.722 81.3161 605.263 88.171 582.543C94.7387 560.758 102.853 546.456 105.176 542.597L178.982 412.025C179.351 411.37 179.741 410.737 180.159 410.12C182.46 406.706 194.831 389.133 211.794 378.58C229.642 367.465 251.245 366.605 257.444 366.605H723.651C724.251 366.605 724.844 366.623 725.457 366.661C730.091 366.958 754.156 368.989 772.78 379.643C790.562 389.828 804.876 407.626 807.563 411.084C808.109 411.792 808.621 412.525 809.099 413.281L896.756 552.181C897.13 552.792 897.51 553.431 897.852 554.086C899.531 557.312 908.196 574.357 912.584 590.933C916.917 607.333 917.962 625.458 918.122 628.92L918.144 630.103V777.135C918.243 784.91 916.812 811.589 894.681 831.414C873.722 850.176 845.506 851.629 837.358 851.629H160.159V851.641ZM152.649 572.391C151.037 575.259 146.02 584.746 141.803 598.724C137.349 613.5 137.879 627.313 137.949 628.843C137.989 629.505 138.013 630.168 138.022 630.831V777.819L138.076 778.226C138.424 780.869 140.037 787.272 142.817 790.161L143.191 790.559L143.632 790.883C147.525 793.752 157.17 795.398 160.539 795.601L837.402 795.612C843.018 795.546 852.834 793.674 857.283 789.688C861.262 786.12 862.154 779.999 862.154 779.019L862.1 777.318V630.963C861.797 625.254 860.69 613.874 858.4 605.254C855.806 595.404 850.004 583.605 848.865 581.348L848.551 580.798L762.529 444.474L762.26 444.149C759 440.224 751.183 431.833 744.94 428.255C739.533 425.161 728.523 423.18 722.852 422.651L722.263 422.623H257.543C253.194 422.661 245.113 423.812 241.38 426.146C236.122 429.423 229.896 436.91 227.336 440.405L227.115 440.709L153.772 570.459L152.98 571.791L152.99 571.758C152.969 571.824 152.649 572.391 152.649 572.391ZM497.396 325.525C489.969 325.517 482.848 322.564 477.595 317.313C472.343 312.061 469.388 304.941 469.38 297.514V136.37C469.388 128.945 472.342 121.826 477.592 116.575C482.842 111.324 489.96 108.369 497.385 108.359C504.813 108.367 511.934 111.32 517.187 116.571C522.44 121.822 525.396 128.942 525.406 136.37V297.512C525.399 304.938 522.446 312.059 517.194 317.31C511.943 322.562 504.822 325.515 497.396 325.523V325.525ZM685.206 324.462C677.78 324.452 670.66 321.497 665.409 316.245C660.158 310.992 657.204 303.872 657.196 296.445C657.202 290.021 659.41 283.793 663.454 278.8L727.488 199.826C730.113 196.578 733.432 193.96 737.203 192.165C740.973 190.37 745.097 189.444 749.273 189.454C755.746 189.454 761.841 191.617 766.884 195.708C769.752 198.015 772.133 200.87 773.888 204.107C775.643 207.343 776.737 210.895 777.108 214.558C777.503 218.217 777.167 221.917 776.121 225.445C775.075 228.973 773.339 232.258 771.013 235.11L706.981 314.085C704.367 317.332 701.057 319.949 697.296 321.745C693.534 323.54 689.417 324.467 685.25 324.457H685.206V324.462ZM312.734 322.32C308.526 322.332 304.371 321.388 300.58 319.561C296.79 317.734 293.463 315.071 290.851 311.772L227.902 232.803C223.278 226.99 221.149 219.581 221.982 212.2C222.815 204.819 226.542 198.07 232.345 193.434C237.288 189.462 243.445 187.305 249.786 187.324C258.374 187.324 266.362 191.171 271.709 197.877L334.662 276.845C339.288 282.656 341.419 290.064 340.588 297.444C339.757 304.824 336.032 311.573 330.231 316.21C325.269 320.156 319.119 322.309 312.78 322.32H312.734Z"/>
<path d="M498.465 756.391C436.056 756.391 381.832 714.551 366.615 654.657L365.388 649.829L116.616 649.681C109.188 649.665 102.07 646.705 96.8196 641.451C91.5694 636.196 88.6157 629.075 88.6055 621.647C88.6171 614.223 91.5724 607.106 96.8232 601.857C102.074 596.609 109.192 593.656 116.616 593.647L390.553 593.823C397.976 593.841 405.09 596.8 410.337 602.052C415.584 607.304 418.537 614.421 418.548 621.844C418.548 665.876 453.651 700.362 498.465 700.362C543.118 700.362 578.099 665.877 578.099 621.845C578.115 614.42 581.071 607.303 586.32 602.052C591.569 596.8 598.685 593.842 606.11 593.823L877.51 593.652C892.962 593.652 905.521 606.199 905.531 621.641C905.542 637.083 892.985 649.664 877.542 649.686L631.287 649.834L630.059 654.662C614.859 714.555 560.752 756.391 498.465 756.391Z"/>
</svg>
