<?xml version="1.0" standalone="no"?><!DOCTYPE svg PUBLIC "-//W3C//DTD SVG 1.1//EN" "http://www.w3.org/Graphics/SVG/1.1/DTD/svg11.dtd"><svg t="1685088817280" class="icon" viewBox="0 0 1024 1024" version="1.1" xmlns="http://www.w3.org/2000/svg" p-id="1613" xmlns:xlink="http://www.w3.org/1999/xlink" width="200" height="200">
<path d="M562.5 469.25C562.5 510.69 578.962 550.433 608.265 579.735C637.567 609.038 677.31 625.5 718.75 625.5C760.19 625.5 799.933 609.038 829.235 579.735C858.538 550.433 875 510.69 875 469.25C875 427.81 858.538 388.067 829.235 358.765C799.933 329.462 760.19 313 718.75 313C677.31 313 637.567 329.462 608.265 358.765C578.962 388.067 562.5 427.81 562.5 469.25Z" fill="black"/>
<path d="M125 438L625 438V500.5L125 500.5L125 438Z" />
</svg>
