<?xml version="1.0" standalone="no"?><!DOCTYPE svg PUBLIC "-//W3C//DTD SVG 1.1//EN" "http://www.w3.org/Graphics/SVG/1.1/DTD/svg11.dtd"><svg t="1741240066155" class="icon" viewBox="0 0 1170 1024" version="1.1" xmlns="http://www.w3.org/2000/svg" p-id="7491" xmlns:xlink="http://www.w3.org/1999/xlink" width="228.515625" height="200">
<path d="M530.827 81.6662C530.827 59.1147 512.546 40.833 489.994 40.833C467.442 40.833 449.161 59.1147 449.161 81.6662V84.9331C449.161 107.484 467.442 125.766 489.994 125.766C512.546 125.766 530.827 107.484 530.827 84.9331V81.6662Z"/>
<path d="M810.418 227.323C826.364 211.377 826.364 185.522 810.418 169.576C794.472 153.63 768.614 153.63 752.668 169.576L747.362 174.884C731.416 190.831 731.416 216.685 747.362 232.632C763.308 248.578 789.166 248.578 805.112 232.632L810.418 227.323Z" />
<path d="M227.318 169.576C211.371 153.63 185.518 153.63 169.571 169.576C153.624 185.522 153.624 211.377 169.571 227.323L174.879 232.632C190.826 248.578 216.68 248.578 232.626 232.632C248.573 216.685 248.573 190.831 232.626 174.884L227.318 169.576Z" />
<path d="M81.6613 449.166C59.1093 449.166 40.8276 467.448 40.8276 490C40.8276 512.551 59.1093 530.833 81.6613 530.833H84.9275C107.479 530.833 125.761 512.551 125.761 490C125.761 467.448 107.479 449.166 84.9275 449.166H81.6613Z" />
<path d="M895.062 449.166C872.508 449.166 854.231 467.448 854.231 490C854.231 512.551 872.508 530.833 895.062 530.833H898.331C920.878 530.833 939.162 512.551 939.162 490C939.162 467.448 920.878 449.166 898.331 449.166H895.062Z" />
<path d="M232.626 805.112C248.573 789.166 248.573 763.315 232.626 747.369C216.68 731.423 190.826 731.423 174.879 747.369L169.571 752.675C153.624 768.621 153.624 794.479 169.571 810.425C185.517 826.371 211.371 826.371 227.318 810.425L232.626 805.112Z" />
<path d="M805.112 747.369C789.166 731.423 763.308 731.423 747.362 747.369C731.416 763.315 731.416 789.166 747.362 805.112L752.668 810.425C768.614 826.371 794.472 826.371 810.418 810.425C826.364 794.479 826.364 768.621 810.418 752.675L805.112 747.369Z" fill="black"/>
<path d="M530.827 895.069C530.827 872.515 512.546 854.231 489.994 854.231C467.442 854.231 449.161 872.515 449.161 895.069V898.331C449.161 920.885 467.442 939.169 489.994 939.169C512.546 939.169 530.827 920.885 530.827 898.331V895.069Z" />
<path fill-rule="evenodd" clip-rule="evenodd" d="M489.995 187.833C323.112 187.833 187.828 323.118 187.828 490C187.828 656.882 323.112 792.169 489.995 792.169C656.877 792.169 792.162 656.882 792.162 490C792.162 323.118 656.877 187.833 489.995 187.833ZM261.328 490C261.328 363.711 363.705 261.333 489.995 261.333C616.284 261.333 718.662 363.711 718.662 490C718.662 616.289 616.284 718.669 489.995 718.669C363.705 718.669 261.328 616.289 261.328 490Z" />
</svg>
