<?xml version="1.0" standalone="no"?><!DOCTYPE svg PUBLIC "-//W3C//DTD SVG 1.1//EN" "http://www.w3.org/Graphics/SVG/1.1/DTD/svg11.dtd"><svg t="1685088817280" class="icon" viewBox="0 0 1024 1024" version="1.1" xmlns="http://www.w3.org/2000/svg" p-id="1613" xmlns:xlink="http://www.w3.org/1999/xlink" width="200" height="200">
<path d="M131 373.468C131 343.386 158.879 319 193.27 319H788.73C823.121 319 851 343.386 851 373.468V373.468C851 403.55 823.121 427.936 788.73 427.936H193.27C158.879 427.936 131 403.55 131 373.468V373.468Z"  />
<path d="M131 588.362C131 560.395 156.919 537.723 188.892 537.723H793.108C825.081 537.723 851 560.395 851 588.362V588.362C851 616.328 825.081 639 793.108 639H188.892C156.919 639 131 616.328 131 588.362V588.362Z"  />
</svg>
