<?xml version="1.0" standalone="no"?><!DOCTYPE svg PUBLIC "-//W3C//DTD SVG 1.1//EN" "http://www.w3.org/Graphics/SVG/1.1/DTD/svg11.dtd"><svg t="1741240066155" class="icon" viewBox="0 0 1170 1024" version="1.1" xmlns="http://www.w3.org/2000/svg" p-id="7491" xmlns:xlink="http://www.w3.org/1999/xlink" width="228.515625" height="200">
<path d="M326.674 273.587C306.377 273.587 289.924 290.04 289.924 310.337C289.924 330.633 306.377 347.087 326.674 347.087H653.341C673.64 347.087 690.092 330.633 690.092 310.337C690.092 290.04 673.64 273.587 653.341 273.587H326.674Z" />
<path fill-rule="evenodd" clip-rule="evenodd" d="M694.03 77.5865H285.982C259.81 77.5865 237.962 77.5859 220.115 79.0443C201.5 80.5651 184.024 83.8536 167.499 92.2737C142.144 105.193 121.53 125.807 108.61 151.162C100.19 167.688 96.9018 185.164 95.381 203.778C93.9226 221.625 93.9232 243.471 93.9239 269.644V775.835C93.9239 778.861 94.2895 781.801 94.9792 784.619C103.313 851.038 159.993 902.421 228.674 902.421H775.842C796.14 902.421 812.592 885.969 812.592 865.671C812.592 845.372 796.14 828.921 775.842 828.921H228.674C194.869 828.921 167.461 801.536 167.424 767.738V767.603C167.461 733.806 194.869 706.421 228.674 706.421H694.03C720.208 706.421 742.05 706.421 759.898 704.963C778.512 703.444 795.993 700.155 812.518 691.733C837.869 678.815 858.486 658.199 871.404 632.847C879.826 616.322 883.115 598.844 884.634 580.229C886.092 562.382 886.092 540.535 886.092 514.362V269.644C886.092 243.472 886.092 221.625 884.634 203.778C883.115 185.164 879.826 167.688 871.404 151.162C858.486 125.807 837.869 105.193 812.518 92.2737C795.993 83.8536 778.512 80.5651 759.898 79.0443C742.05 77.5859 720.202 77.5865 694.03 77.5865ZM753.914 152.3C739.416 151.115 720.588 151.087 692.542 151.087H287.474C259.425 151.087 240.598 151.115 226.1 152.3C212.031 153.45 205.305 155.501 200.867 157.763C189.342 163.635 179.972 173.005 174.099 184.53C171.839 188.967 169.786 195.694 168.637 209.763C167.452 224.261 167.424 243.088 167.424 271.137V647.615C185.801 638.219 206.618 632.921 228.674 632.921H692.542C720.588 632.921 739.416 632.89 753.914 631.708C767.983 630.556 774.708 628.505 779.149 626.244C790.67 620.371 800.041 611.002 805.915 599.477C808.175 595.039 810.227 588.313 811.379 574.244C812.561 559.746 812.592 540.919 812.592 512.87V271.137C812.592 243.088 812.561 224.261 811.379 209.763C810.227 195.694 808.175 188.967 805.915 184.53C800.041 173.005 790.67 163.635 779.149 157.763C774.708 155.501 767.983 153.45 753.914 152.3Z" />
</svg>
