<?xml version="1.0" standalone="no"?><!DOCTYPE svg PUBLIC "-//W3C//DTD SVG 1.1//EN" "http://www.w3.org/Graphics/SVG/1.1/DTD/svg11.dtd"><svg t="1715591142948" class="icon" viewBox="0 0 1024 1024" version="1.1" xmlns="http://www.w3.org/2000/svg" p-id="11280" xmlns:xlink="http://www.w3.org/1999/xlink" width="200" height="200">
<path d="M185.579 456.792H161V403.995L185.579 400.995V379.756C185.579 324.758 203.13 281 248.504 281C262.769 281 275.121 285.4 283.273 290.2L274.497 342.877C268.799 338.943 261.965 336.817 254.95 336.798C241.018 336.798 232.991 349.117 232.991 378.356V400.995H267.635V456.792H232.991V670.983H185.579V456.792ZM557.804 674.903C550.428 679.109 541.963 681.217 533.391 680.982C500.037 680.982 488.308 648.984 488.308 598.986V291.28H536.012V601.866C536.012 618.145 540.877 623.465 545.411 623.465C547.324 623.465 548.696 623.465 551.857 622.505L557.763 674.863L557.804 674.903ZM398.309 645.464C382.796 666.103 364.622 680.942 343.494 680.942C311.054 680.942 289.969 646.864 289.969 596.106C289.969 537.829 321.452 506.91 394.358 495.151C393.776 468.312 386.04 447.673 363.665 447.673C346.78 447.673 330.518 458.912 313.633 474.071L296.831 426.594C317.834 407.394 343.827 390.955 372.44 390.955C418.48 390.955 442.144 431.873 442.144 510.79V670.943H403.175L400.014 645.464H398.309ZM713.889 594.666C713.889 643.584 688.52 680.942 641.565 680.942C617.194 680.942 590.577 665.623 572.402 643.584L594.153 597.666C610.415 616.745 625.637 628.305 642.813 628.305C660.988 628.305 669.139 616.265 669.139 598.586C669.139 577.667 650.341 568.147 631.126 556.588C608.086 542.988 582.55 521.389 582.55 474.391C582.55 425.194 608.751 390.955 650.341 390.955C676.625 390.955 697.004 406.874 711.893 424.074L690.558 467.832C677.582 453.912 664.897 443.753 651.588 443.753C635.036 443.753 627.3 454.872 627.3 470.952C627.3 491.431 643.77 498.95 663.317 510.03C687.272 523.909 713.889 542.988 713.889 594.706V594.666ZM894.221 651.264C876.379 669.543 853.38 680.942 831.005 680.942C779.975 680.942 740.506 628.745 740.506 538.429C740.506 445.313 782.013 390.955 825.183 390.955C875.09 390.955 901 444.873 901 525.949C901 538.909 900.043 551.868 898.754 558.588H786.879C790.746 603.306 810.169 626.265 837.41 626.265C852.091 626.265 864.651 619.865 877.959 607.666L894.221 651.264ZM825.806 445.793C806.592 445.793 789.832 467.992 785.881 510.95H860.118C860.118 471.272 849.471 445.793 825.806 445.793ZM335.384 594.226C335.384 616.225 345.532 625.825 359.465 625.825C373.064 625.825 383.087 615.825 394.4 598.306V542.028C350.065 550.028 335.343 568.587 335.343 594.226H335.384Z" />
</svg>
