<?xml version="1.0" standalone="no"?><!DOCTYPE svg PUBLIC "-//W3C//DTD SVG 1.1//EN" "http://www.w3.org/Graphics/SVG/1.1/DTD/svg11.dtd"><svg t="1731938348219" class="icon" viewBox="0 0 1024 1024" version="1.1" xmlns="http://www.w3.org/2000/svg" p-id="932" xmlns:xlink="http://www.w3.org/1999/xlink" width="200" height="200">
<path d="M315.776 244.686H668.164C682.159 244.686 693.468 233.358 693.468 219.402C693.468 205.447 682.159 194.118 668.164 194.118H315.776C301.801 194.118 290.492 205.447 290.492 219.402C290.492 233.358 301.801 244.686 315.776 244.686ZM315.776 385.218H566.93C580.905 385.218 592.155 373.89 592.155 359.934C592.155 345.979 580.905 334.67 566.93 334.67H315.776C301.801 334.67 290.492 345.979 290.492 359.934C290.492 373.89 301.801 385.218 315.776 385.218ZM890.056 305.858L826.689 269.03V78.6548C826.689 64.5232 815.243 53.0572 801.131 53.0572H182.849C168.737 53.0572 157.271 64.5036 157.271 78.6548V269.049L93.8843 305.878L43.3555 331.201V360.424V363.09V908.891C43.3555 912.36 44.0611 915.673 45.3547 918.672C45.4527 918.926 45.6095 919.122 45.7271 919.397C46.4131 920.847 47.2363 922.278 48.2163 923.63C52.6459 929.765 59.6627 933.744 67.7183 934.038C68.0319 934.038 68.3259 934.136 68.6395 934.136H915.32C929.295 934.136 940.585 922.807 940.585 908.891V363.854V361.189V333.553L890.056 305.858ZM826.689 327.516L886.293 362.149L826.689 396.763V327.516ZM224.205 103.586H759.735C772.299 103.586 776.18 107.428 776.18 119.952V426.124L491.98 591.234L207.799 426.124V119.972C207.819 107.428 211.68 103.586 224.205 103.586ZM157.271 396.743L97.6671 362.13L157.271 327.496V396.743ZM890.056 883.548H93.9039V418.421L479.259 642.253C479.612 642.547 480.043 642.645 480.435 642.821C481.004 643.135 481.553 643.331 482.121 643.586C483.062 643.997 484.003 644.35 484.963 644.664C485.59 644.82 486.198 644.918 486.845 645.075C487.766 645.271 488.687 645.428 489.647 645.506C490.431 645.546 491.215 645.546 491.999 645.546C492.783 645.546 493.567 645.546 494.351 645.506C495.292 645.408 496.213 645.252 497.154 645.075C497.781 644.899 498.409 644.801 499.036 644.664C499.996 644.35 500.937 643.997 501.897 643.586C502.466 643.331 503.015 643.135 503.583 642.821C503.975 642.625 504.387 642.527 504.759 642.253L890.095 418.421V883.548H890.056Z"/>
</svg>
