<?xml version="1.0" standalone="no"?><!DOCTYPE svg PUBLIC "-//W3C//DTD SVG 1.1//EN" "http://www.w3.org/Graphics/SVG/1.1/DTD/svg11.dtd"><svg t="1734567866707" class="icon" viewBox="0 0 1024 1024" version="1.1" xmlns="http://www.w3.org/2000/svg" p-id="8299" xmlns:xlink="http://www.w3.org/1999/xlink" width="200" height="200"><path d="M607.573333 938.666667c-235.52 0-426.666667-191.146667-426.666666-426.666667S372.053333 85.333333 607.573333 85.333333c95.573333 0 184.32 30.72 259.413334 88.746667 13.653333 10.24 17.066667 34.133333 6.826666 47.786667-10.24 13.653333-34.133333 17.066667-47.786666 6.826666-64.853333-47.786667-139.946667-75.093333-218.453334-75.093333C409.6 153.6 249.173333 314.026667 249.173333 512S409.6 870.4 607.573333 870.4c81.92 0 160.426667-27.306667 225.28-78.506667 13.653333-10.24 37.546667-10.24 47.786667 6.826667 10.24 13.653333 10.24 37.546667-6.826667 47.786667-75.093333 61.44-167.253333 92.16-266.24 92.16z"  p-id="8300"></path><path d="M665.6 460.8h-546.133333c-20.48 0-34.133333-13.653333-34.133334-34.133333s13.653333-34.133333 34.133334-34.133334h546.133333c20.48 0 34.133333 13.653333 34.133333 34.133334s-13.653333 34.133333-34.133333 34.133333zM563.2 631.466667h-443.733333c-20.48 0-34.133333-13.653333-34.133334-34.133334s13.653333-34.133333 34.133334-34.133333h443.733333c20.48 0 34.133333 13.653333 34.133333 34.133333s-13.653333 34.133333-34.133333 34.133334z" p-id="8301"></path></svg>