<?xml version="1.0" standalone="no"?><!DOCTYPE svg PUBLIC "-//W3C//DTD SVG 1.1//EN" "http://www.w3.org/Graphics/SVG/1.1/DTD/svg11.dtd"><svg t="1646105873010" class="icon" viewBox="0 0 1024 1024" version="1.1" xmlns="http://www.w3.org/2000/svg" p-id="4360" xmlns:xlink="http://www.w3.org/1999/xlink" width="200" height="200">
<g filter="url(#filter0_d_138_8)">
<path d="M922.161 616.277L850.845 645.513L850.961 234.858L850.845 231.002C849.689 213.802 841.593 199.469 826.673 187.903C812.101 176.634 794.868 171 775.091 171H709.051L705.581 171.198H705.465C695.635 172.087 687.539 175.844 680.831 182.566C674.238 189.287 671 197.097 671 206.191C671 215.878 674.701 224.083 681.987 230.904C689.505 237.823 698.526 241.283 709.167 241.283H774.628L775.091 645.513L696.793 616.277C686.037 616.277 675.134 647.094 681.148 654.508L801.807 766.181C807.127 772.606 818.462 772.606 823.782 766.181L941.611 654.508C947.625 647.094 932.801 616.277 922.161 616.277Z" />
</g>
<path fill-rule="evenodd" clip-rule="evenodd" d="M145 665H507C565.542 665 613 712.458 613 771V819C613 877.542 565.542 925 507 925H145C86.4579 925 39 877.542 39 819V771C39 712.458 86.4578 665 145 665ZM145 383H507C565.542 383 613 430.458 613 489V537C613 595.542 565.542 643 507 643H145C86.4579 643 39 595.542 39 537V489C39 430.458 86.4578 383 145 383ZM145 91H507C565.542 91 613 138.458 613 197V245C613 303.542 565.542 351 507 351H145C86.4579 351 39 303.542 39 245V197C39 138.458 86.4578 91 145 91ZM145 171C130.641 171 119 182.641 119 197V245C119 259.359 130.641 271 145 271H507C521.359 271 533 259.359 533 245V197C533 182.641 521.359 171 507 171H145ZM119 489C119 474.641 130.641 463 145 463H507C521.359 463 533 474.641 533 489V537C533 551.359 521.359 563 507 563H145C130.641 563 119 551.359 119 537V489ZM119 771C119 756.641 130.641 745 145 745H507C521.359 745 533 756.641 533 771V819C533 833.359 521.359 845 507 845H145C130.641 845 119 833.359 119 819V771Z" />
<path d="M698.2 795C683.178 795 671 809.999 671 828.501C671 847.001 683.178 862 698.2 862H915.8C930.822 862 943 847.001 943 828.501C943 809.999 930.822 795 915.8 795H698.2Z" />
<defs>
<filter id="filter0_d_138_8" x="667" y="171" width="280" height="608" filterUnits="userSpaceOnUse" color-interpolation-filters="sRGB">
<feFlood flood-opacity="0" result="BackgroundImageFix"/>
<feColorMatrix in="SourceAlpha" type="matrix" values="0 0 0 0 0 0 0 0 0 0 0 0 0 0 0 0 0 0 127 0" result="hardAlpha"/>
<feOffset dy="4"/>
<feGaussianBlur stdDeviation="2"/>
<feComposite in2="hardAlpha" operator="out"/>
<feColorMatrix type="matrix" values="0 0 0 0 0 0 0 0 0 0 0 0 0 0 0 0 0 0 0.25 0"/>
<feBlend mode="normal" in2="BackgroundImageFix" result="effect1_dropShadow_138_8"/>
<feBlend mode="normal" in="SourceGraphic" in2="effect1_dropShadow_138_8" result="shape"/>
</filter>
</defs>
</svg>
