<?xml version="1.0" standalone="no"?><!DOCTYPE svg PUBLIC "-//W3C//DTD SVG 1.1//EN" "http://www.w3.org/Graphics/SVG/1.1/DTD/svg11.dtd"><svg t="1731938348219" class="icon" viewBox="0 0 1024 1024" version="1.1" xmlns="http://www.w3.org/2000/svg" p-id="932" xmlns:xlink="http://www.w3.org/1999/xlink" width="200" height="200">
<path d="M651.476 556.242H306.193C289.212 556.242 272.23 573.224 272.23 590.205C272.23 607.186 289.212 624.167 306.193 624.167H651.476C668.457 624.167 685.438 607.186 685.438 590.205C685.438 573.224 668.457 556.242 651.476 556.242ZM306.193 482.658H470.344C487.325 482.658 504.306 465.676 504.306 448.695C504.306 431.714 492.985 414.733 470.344 414.733H306.193C289.212 414.733 272.23 431.714 272.23 448.695C272.23 465.676 289.212 482.658 306.193 482.658ZM651.476 697.752H306.193C289.212 697.752 272.23 714.733 272.23 731.714C272.23 748.695 289.212 765.676 306.193 765.676H651.476C668.457 765.676 685.438 748.695 685.438 731.714C685.438 709.073 668.457 697.752 651.476 697.752Z"/>
<path d="M866.57 312.846V307.186V301.526L611.853 41.1481H606.193H215.627C159.023 41.1481 113.74 86.4312 113.74 143.035V839.261C113.74 895.865 159.023 941.148 215.627 941.148H764.684C821.287 941.148 866.57 895.865 866.57 839.261V760.016C866.57 743.035 849.589 726.054 832.608 726.054C815.627 726.054 798.646 743.035 798.646 760.016V839.261C798.646 856.243 781.665 873.224 764.684 873.224H215.627C198.646 873.224 181.665 856.243 181.665 839.261V126.054C181.665 109.073 198.646 92.0915 215.627 92.0915H549.589V318.507C549.589 335.488 566.57 352.469 583.552 352.469H804.306V590.205C804.306 607.186 821.287 624.167 838.269 624.167C855.25 624.167 872.231 607.186 872.231 590.205L866.57 312.846C866.57 318.507 866.57 318.507 866.57 312.846ZM617.514 284.544V143.035L753.363 284.544H617.514Z"/>
</svg>
