<?xml version="1.0" standalone="no"?><!DOCTYPE svg PUBLIC "-//W3C//DTD SVG 1.1//EN" "http://www.w3.org/Graphics/SVG/1.1/DTD/svg11.dtd"><svg t="1706575527365" class="icon" viewBox="0 0 1892 1024" version="1.1" xmlns="http://www.w3.org/2000/svg" p-id="12214" xmlns:xlink="http://www.w3.org/1999/xlink" width="236.5" height="128"><path d="M694.370366 364.606061v1.520484c32.581818 7.059394 57.064727 37.748364 57.064727 74.550303 0 32.690424-19.331879 60.555636-46.467878 71.338667 27.136 10.752 46.467879 38.601697 46.467878 71.307637 0 36.801939-24.498424 67.490909-57.064727 74.550303V659.393939H380.491093V364.606061h313.879273z m307.122424 0l166.120728 294.787878h-80.058182l-31.635394-50.781091h-196.204606L830.841639 659.393939H751.435093l169.285819-294.787878h80.771878z m499.587879 0l-47.398788 66.56h-216.529454c-13.017212 3.956364-19.518061 12.784485-19.518061 26.437818s6.516364 21.317818 19.518061 22.962424h216.529454c39.129212 0.729212 58.693818 28.811636 58.693818 84.216242 0 55.389091-16.678788 86.931394-50.067394 94.611394h-265.433212l-34.505697-69.833697h260.189091c14.273939-0.899879 21.410909-9.169455 21.410909-24.777697 0-15.623758-7.13697-23.07103-21.410909-22.372848H1217.634366c-26.360242 0-66.699636-34.521212-66.699636-99.234909 0-43.147636 22.233212-69.352727 66.699636-78.568727h283.461818-0.015515zM656.327215 541.478788h-218.763637v49.136485h218.763637c10.503758 0 19.021576-11.015758 19.021575-24.576 0-13.560242-8.517818-24.560485-19.021575-24.560485z m302.979878-108.094061l-55.683878 100.538182h113.074424l-57.390546-100.538182z m-302.979878-11.729454h-218.763637v47.553939h218.763637c10.503758 0 19.021576-10.643394 19.021575-23.769212s-8.517818-23.784727-19.021575-23.784727zM361.46176 364.606061l-48.570182 74.488242H91.699821c-18.587152-1.117091-27.896242 6.68703-27.896243 23.412364v109.862788c0.155152 13.761939 7.400727 20.635152 21.767758 20.635151h187.035151v-40.261818H169.221275v-73.929697h149.426424c19.905939-0.837818 29.866667 8.254061 29.866667 27.213576v121.949091c-2.622061 20.945455-12.567273 31.418182-29.866667 31.418181H63.842366C21.284305 658.447515 0.005275 642.52897 0.005275 611.684848V423.098182C-0.405876 384.108606 23.122851 364.606061 70.67679 364.606061h290.78497zM1892.85376 364.606061l-25.693091 66.901333h-202.565818c-26.686061 0.062061-40.013576 15.980606-40.013576 47.724606l266.053818 0.062061-22.496969 66.916848h-243.122425c2.497939 26.841212 15.685818 40.230788 39.579152 40.230788h226.366061L1866.431457 659.393939h-235.426909c-48.376242 0-75.248485-20.138667-80.585697-60.416V424.556606c0-39.610182 26.856727-59.578182 80.585697-59.950545H1892.85376z"  p-id="12215"></path></svg>