<?xml version="1.0" standalone="no"?><!DOCTYPE svg PUBLIC "-//W3C//DTD SVG 1.1//EN" "http://www.w3.org/Graphics/SVG/1.1/DTD/svg11.dtd"><svg t="1731938348219" class="icon" viewBox="0 0 1024 1024" version="1.1" xmlns="http://www.w3.org/2000/svg" p-id="932" xmlns:xlink="http://www.w3.org/1999/xlink" width="200" height="200">
<path d="M488.54 419C443.032 419 400.398 400.585 368.462 367.164C337.245 334.349 320 291.001 320 245C320 198.999 337.245 155.575 368.462 122.836C400.398 89.4155 443.032 71 488.54 71C534.048 71 576.682 89.4155 608.618 122.836C639.835 155.575 657 198.999 657 245C657 291.001 639.755 334.425 608.538 367.164C576.682 400.585 534.048 419 488.54 419Z" fill="black"/>
<path d="M408 487.5H564C652.089 487.5 723.5 558.911 723.5 647V777C723.5 865.089 652.089 936.5 564 936.5H302C272.453 936.5 248.5 912.547 248.5 883V647C248.5 558.911 319.911 487.5 408 487.5Z" fill="black" stroke="black"/>
<mask id="path-3-inside-1_2089_2" fill="white">
<path fill-rule="evenodd" clip-rule="evenodd" d="M398 487C237.837 487 108 616.837 108 777V887C108 914.614 130.386 937 158 937H302C272.177 937 248 912.823 248 883V647C248 558.634 319.634 487 408 487H398ZM564 487C652.366 487 724 558.634 724 647V777C724 865.366 652.366 937 564 937H681C780.411 937 861 856.411 861 757V667C861 567.589 780.411 487 681 487H564Z"/>
</mask>
<path fill-rule="evenodd" clip-rule="evenodd" d="M398 487C237.837 487 108 616.837 108 777V887C108 914.614 130.386 937 158 937H302C272.177 937 248 912.823 248 883V647C248 558.634 319.634 487 408 487H398ZM564 487C652.366 487 724 558.634 724 647V777C724 865.366 652.366 937 564 937H681C780.411 937 861 856.411 861 757V667C861 567.589 780.411 487 681 487H564Z" fill="black" fill-opacity="0.5"/>
<path d="M109 777C109 617.39 238.39 488 398 488V486C237.285 486 107 616.285 107 777H109ZM109 887V777H107V887H109ZM158 936C130.938 936 109 914.062 109 887H107C107 915.167 129.833 938 158 938V936ZM302 936H158V938H302V936ZM302 936C272.729 936 249 912.271 249 883H247C247 913.376 271.624 938 302 938V936ZM249 883V647H247V883H249ZM249 647C249 559.187 320.187 488 408 488V486C319.082 486 247 558.082 247 647H249ZM398 488H408V486H398V488ZM564 488C651.813 488 723 559.187 723 647H725C725 558.082 652.918 486 564 486V488ZM723 647V777H725V647H723ZM723 777C723 864.813 651.813 936 564 936V938C652.918 938 725 865.918 725 777H723ZM681 936H564V938H681V936ZM860 757C860 855.859 779.859 936 681 936V938C780.964 938 862 856.964 862 757H860ZM860 667V757H862V667H860ZM681 488C779.859 488 860 568.141 860 667H862C862 567.036 780.964 486 681 486V488ZM564 488H681V486H564V488Z" fill="black" mask="url(#path-3-inside-1_2089_2)"/>
</svg>
