<?xml version="1.0" standalone="no"?><!DOCTYPE svg PUBLIC "-//W3C//DTD SVG 1.1//EN" "http://www.w3.org/Graphics/SVG/1.1/DTD/svg11.dtd"><svg t="1731938348219" class="icon" viewBox="0 0 1024 1024" version="1.1" xmlns="http://www.w3.org/2000/svg" p-id="932" xmlns:xlink="http://www.w3.org/1999/xlink" width="200" height="200">
<path d="M704.198 60.7419C729.719 70.8973 745.032 116.597 734.823 141.985C724.615 167.374 688.886 187.685 663.365 177.529C612.323 157.219 566.386 162.296 510.24 162.296C290.761 162.296 168.261 276.545 168.261 499.965C168.261 723.384 290.761 865.561 510.24 865.561C729.719 865.561 870.084 741.156 870.084 522.814C870.084 502.504 875.188 487.27 870.084 466.96C864.98 441.571 903.261 406.027 928.782 400.949C954.302 395.871 990.032 421.26 995.136 446.649C1000.24 466.959 1000.24 492.348 1000.24 512.659C1000.24 781.778 780.761 1000.12 510.24 1000.12C239.719 1000.12 20.24 781.778 20.24 512.659C20.24 243.54 239.719 20.1201 510.24 20.1201C576.594 20.1201 642.948 35.3533 704.198 60.7419ZM577.082 446.649C592.394 431.415 606.13 416.182 626.546 400.949C779.671 238.462 784.747 243.54 840.892 177.529C851.101 167.374 872.177 162.296 887.489 162.296C907.906 162.296 927.463 180.555 937.671 200.866C947.879 216.099 944.094 255.496 928.782 270.729C887.948 316.429 862.972 341.457 786.41 422.701L764.187 446.649C713.145 497.426 689.517 518.961 653.788 554.505L561.282 639.602C561.282 639.602 561.282 644.68 556.178 644.68C556.178 649.757 551.073 649.757 551.073 649.757L545.969 654.835L540.865 659.913C530.657 670.068 520.448 675.146 505.136 675.146C489.823 675.146 479.615 670.068 469.407 659.913C454.094 649.757 443.886 639.602 423.469 619.291C403.052 598.98 392.844 588.825 377.532 578.669C367.323 558.358 357.115 548.203 336.698 522.814C311.177 502.504 300.969 492.348 290.761 482.193C275.448 466.959 270.344 451.726 280.552 431.415C290.761 411.105 306.073 400.949 326.49 400.949C336.698 400.949 372.428 390.794 377.532 400.949C423.469 441.571 454.094 472.037 505.136 522.814C530.657 497.426 546.457 477.115 577.082 446.649Z" />
</svg>
