<?xml version="1.0" standalone="no"?><!DOCTYPE svg PUBLIC "-//W3C//DTD SVG 1.1//EN" "http://www.w3.org/Graphics/SVG/1.1/DTD/svg11.dtd"><svg t="1731938348219" class="icon" viewBox="0 0 1024 1024" version="1.1" xmlns="http://www.w3.org/2000/svg" p-id="932" xmlns:xlink="http://www.w3.org/1999/xlink" width="200" height="200">
<path d="M893.889 30C929.787 30 958.891 59.3933 958.891 95.6523V744.688C958.891 764.9 949.673 783.988 933.9 796.429L835.952 873.69L744.652 952.222C733.628 961.704 719.807 967.18 705.396 967.826L702.507 967.892H86.0025C50.1024 967.891 21 938.497 21 902.238V95.6523C21 59.3933 50.1033 30 86.0016 30H893.889ZM828.886 161.305H151.005V836.586H678.564L752.632 772.89C752.982 772.589 753.334 772.293 753.69 772L754.765 771.132L828.886 712.653V161.305Z" fill="black"/>
<path d="M381.298 283.782C341.802 283.782 309.075 294.52 283.685 317.122C256.601 339.726 241.931 371.37 238.546 412.056H303.432C305.69 387.757 313.589 369.675 327.131 357.808C340.109 345.941 358.164 340.291 381.862 340.291C404.996 340.291 422.488 345.376 434.336 355.548C445.057 365.719 450.699 380.411 450.699 400.189C450.699 419.967 444.493 435.224 432.644 445.397C420.231 455.568 402.175 460.654 378.476 460.654H350.265V510.381H378.477C404.432 510.381 424.18 515.467 437.722 526.768C451.264 537.505 458.599 554.457 458.599 577.626C458.599 596.839 451.828 612.661 438.85 625.658C424.18 639.785 403.867 647.131 378.477 647.131C355.343 647.131 336.723 640.351 322.617 627.353C306.818 613.226 298.919 592.883 297.791 566.889H230.645C234.031 612.096 249.83 647.131 278.042 670.865C303.432 692.338 337.287 703.074 379.041 703.074C423.052 703.074 458.599 690.643 485.683 666.344C511.637 642.61 524.615 612.096 524.615 574.801C524.615 551.066 517.844 531.289 504.302 516.032C491.889 501.34 473.269 490.603 449.571 483.257C494.146 468.564 516.715 439.181 516.715 395.105C516.715 360.068 504.303 332.945 480.04 313.166C455.214 293.388 421.923 283.782 381.298 283.782ZM677.523 291.694C663.981 305.82 647.054 318.818 626.741 331.25C606.429 342.551 587.245 350.462 569.189 354.983V420.533C606.429 409.796 636.898 393.409 661.16 371.37V695.163H727.176V291.694H677.523V291.694Z" fill="black"/>
</svg>
