<?xml version="1.0" standalone="no"?><!DOCTYPE svg PUBLIC "-//W3C//DTD SVG 1.1//EN" "http://www.w3.org/Graphics/SVG/1.1/DTD/svg11.dtd"><svg t="1741240066155" class="icon" viewBox="0 0 1170 1024" version="1.1" xmlns="http://www.w3.org/2000/svg" p-id="7491" xmlns:xlink="http://www.w3.org/1999/xlink" width="228.515625" height="200">
<path d="M393.182 366.464C407.534 352.113 407.534 328.844 393.182 314.492C378.83 300.14 355.562 300.14 341.21 314.492L306.396 349.306L302.238 345.148C287.886 330.795 264.618 330.795 250.266 345.148C235.914 359.499 235.914 382.768 250.266 397.12L280.41 427.264C287.302 434.156 296.65 438.028 306.396 438.028C316.143 438.028 325.49 434.156 332.383 427.264L393.182 366.464Z" />
<path d="M506.335 338.918C486.038 338.918 469.585 355.371 469.585 375.668C469.585 395.964 486.038 412.418 506.335 412.418H702.338C722.631 412.418 739.088 395.964 739.088 375.668C739.088 355.371 722.631 338.918 702.338 338.918H506.335Z" fill="black"/>
<path d="M393.182 575.825C407.534 590.177 407.534 613.446 393.182 627.798L332.383 688.598C325.49 695.49 316.143 699.362 306.396 699.362C296.65 699.362 287.302 695.49 280.41 688.598L250.266 658.453C235.914 644.102 235.914 620.833 250.266 606.481C264.618 592.129 287.886 592.129 302.238 606.481L306.396 610.639L341.21 575.825C355.562 561.474 378.83 561.474 393.182 575.825Z" />
<path d="M506.335 600.251C486.038 600.251 469.585 616.704 469.585 637.001C469.585 657.297 486.038 673.751 506.335 673.751H702.338C722.631 673.751 739.088 657.297 739.088 637.001C739.088 616.704 722.631 600.251 702.338 600.251H506.335Z" />
<path fill-rule="evenodd" clip-rule="evenodd" d="M632.044 77.5838H347.965C308.136 77.5831 276.011 77.5831 249.996 79.7083C223.211 81.8972 199.684 86.5207 177.917 97.6115C143.342 115.228 115.232 143.338 97.6156 177.913C86.5248 199.68 81.9013 223.206 79.7124 249.992C77.5872 276.006 77.5872 308.131 77.5879 347.96V632.04C77.5872 671.869 77.5872 703.997 79.7124 730.009C81.9013 756.791 86.5248 780.318 97.6156 802.088C115.232 836.661 143.342 864.773 177.917 882.392C199.684 893.48 223.211 898.107 249.996 900.291C276.01 902.419 308.135 902.419 347.963 902.419H632.045C671.874 902.419 703.997 902.419 730.016 900.291C756.798 898.107 780.325 893.48 802.095 882.392C836.668 864.773 864.78 836.661 882.392 802.088C893.487 780.318 898.107 756.791 900.298 730.009C902.419 703.997 902.419 671.87 902.419 632.041V347.959C902.419 308.131 902.419 276.006 900.298 249.992C898.107 223.206 893.487 199.68 882.392 177.913C864.78 143.338 836.668 115.228 802.095 97.6115C780.325 86.5207 756.798 81.8972 730.016 79.7083C703.997 77.5831 671.873 77.5831 632.044 77.5838ZM211.285 163.1C220.964 158.168 233.741 154.781 255.981 152.964C278.65 151.112 307.768 151.084 349.538 151.084H630.471C672.241 151.084 701.358 151.112 724.031 152.964C746.27 154.781 759.045 158.168 768.726 163.1C789.467 173.67 806.337 190.536 816.907 211.281C821.835 220.959 825.223 233.737 827.043 255.977C828.891 278.646 828.919 307.763 828.919 349.534V630.467C828.919 672.237 828.891 701.358 827.043 724.024C825.223 746.263 821.835 759.038 816.907 768.719C806.337 789.467 789.467 806.33 768.726 816.9C759.045 821.835 746.27 825.216 724.031 827.036C701.358 828.891 672.241 828.919 630.471 828.919H349.538C307.768 828.919 278.65 828.891 255.981 827.036C233.741 825.216 220.964 821.835 211.285 816.9C190.541 806.33 173.674 789.467 163.104 768.719C158.173 759.038 154.785 746.263 152.969 724.024C151.117 701.358 151.088 672.237 151.088 630.467V349.534C151.088 307.763 151.117 278.646 152.969 255.977C154.785 233.737 158.173 220.959 163.104 211.281C173.674 190.536 190.541 173.67 211.285 163.1Z"/>
</svg>
