<?xml version="1.0" standalone="no"?><!DOCTYPE svg PUBLIC "-//W3C//DTD SVG 1.1//EN" "http://www.w3.org/Graphics/SVG/1.1/DTD/svg11.dtd"><svg t="1685088817280" class="icon" viewBox="0 0 1024 1024" version="1.1" xmlns="http://www.w3.org/2000/svg" p-id="1613" xmlns:xlink="http://www.w3.org/1999/xlink" width="200" height="200">
<path d="M151.706 653.823C126.64 653.823 106.711 643.589 98.4596 626.335C86.7828 602.179 98.304 581.473 129.909 569.693C158.401 559.102 188.138 549.582 216.785 540.301C226.593 537.088 236.713 533.875 246.677 530.662C309.888 509.957 373.098 489.251 436.309 468.665L649.294 399.052C652.719 397.862 656.3 396.553 661.749 394.292L599.473 373.825C545.293 355.976 493.759 339.078 442.225 322.181C353.948 293.265 249.947 259.113 146.88 225.318L145.323 224.842C132.089 220.439 118.232 216.036 108.268 206.636C90.5194 189.857 89.2739 171.413 104.843 154.634C116.987 141.545 132.712 135 151.706 135C161.514 135 172.257 136.785 183.467 140.474C250.57 162.25 318.762 184.621 384.775 206.16L430.393 221.034C471.184 234.362 511.819 247.689 552.61 261.136C638.084 289.1 726.517 318.135 813.392 346.456C835.5 353.715 868.818 364.543 868.663 395.006C868.507 424.517 837.369 434.632 812.458 442.724C660.037 492.464 505.124 543.276 355.35 592.421C302.103 609.913 249.013 627.287 195.766 644.779C194.677 645.136 193.587 645.493 192.341 645.85C186.892 647.635 181.287 649.539 175.215 650.967C167.431 652.752 159.491 653.823 151.706 653.823Z"/>
<path d="M99.8828 777.05C99.8828 754.13 116.672 735.55 137.383 735.55H826.228C846.939 735.55 863.728 754.13 863.728 777.05C863.728 799.97 846.939 818.55 826.228 818.55H137.383C116.672 818.55 99.8828 799.97 99.8828 777.05Z"/>
</svg>
