<?xml version="1.0" standalone="no"?><!DOCTYPE svg PUBLIC "-//W3C//DTD SVG 1.1//EN" "http://www.w3.org/Graphics/SVG/1.1/DTD/svg11.dtd"><svg t="1715591420149" class="icon" viewBox="0 0 1024 1024" version="1.1" xmlns="http://www.w3.org/2000/svg" p-id="33839" xmlns:xlink="http://www.w3.org/1999/xlink" width="200" height="200"><path d="M899.6433 201.134891c25.851918 0 36.566204-10.696224 36.566203-36.566204 0-25.851918-10.714286-36.566204-36.566203-36.566203H241.12291c-25.851918 0-36.566204 10.714286-36.566203 36.566203 0 25.868173 10.714286 36.566204 36.566203 36.566204h658.52039z"  p-id="33840"></path><path d="M936.225759 256.008579h-719.240697c-46.706123 0-85.313315-40.566902-85.313315-91.438086 0-50.87299 38.607192-91.42183 85.313315-91.42183H936.209503c25.868173 0 36.582459-10.71248 36.582459-36.566204C972.791962 10.71248 962.077677 0 936.209503 0H216.985062C129.074454 0 58.524891 74.060786 58.524891 164.568687c0 6.254817 1.127059 12.215225 1.762836 18.29123h-1.762836v658.258492c0 100.60086 78.339637 182.861723 175.902494 182.861723h701.798374c25.851918 0 36.566204-10.71248 36.566203-36.566204V292.554915c0-25.851918-10.714286-36.546336-36.566203-36.546336z m-457.141664 73.130601h201.133085v196.789211c-25.965707-20.462263-51.949476-40.908271-77.915184-61.37234-13.277262-10.454195-31.992945-10.454195-45.25395 0-25.981963 20.462263-51.981988 40.908271-77.963951 61.37234V329.13918z m420.559205 621.694095H234.427385c-56.342117 0-102.755638-48.748917-102.755638-109.714866V302.877259c24.611069 16.412798 53.744824 26.261921 85.313315 26.261921h188.968432v272.125163c-0.014449 20.185917 16.347775 36.566204 36.533692 36.580653a36.472282 36.472282 0 0 0 22.667615-7.837034c38.164677-30.065746 76.332966-60.131492 114.497643-90.180982 38.164677 30.04949 76.33116 60.115236 114.497642 90.180982 15.874555 12.493378 38.852833 9.764233 51.362466-6.09226a36.542723 36.542723 0 0 0 7.855096-22.651359V329.13918h146.277458l-0.001806 621.694095z" p-id="33841"></path></svg>