<?xml version="1.0" standalone="no"?><!DOCTYPE svg PUBLIC "-//W3C//DTD SVG 1.1//EN" "http://www.w3.org/Graphics/SVG/1.1/DTD/svg11.dtd"><svg t="1706575347688" class="icon" viewBox="0 0 1024 1024" version="1.1" xmlns="http://www.w3.org/2000/svg" p-id="9123" xmlns:xlink="http://www.w3.org/1999/xlink" width="200" height="200"><path d="M950.016 546.368c-11.264-15.168-28.16-3.52-42.048 2.688a64.384 64.384 0 0 1-8.256 3.136c-11.072 3.008-17.216 0-21.248-11.968a584.192 584.192 0 0 0-25.344-63.232c-12.992-27.84-36.8-54.4-38.912-82.624-2.24-29.376 16.512-59.904 25.024-90.368 2.24-7.936 3.712-18.624 0.128-25.152-17.92-32.896-35.904-65.856-57.216-96.64-39.232-56.832-135.936-58.816-174.144-15.68-17.6 19.904-33.984 17.408-55.232 5.312a1107.52 1107.52 0 0 0-214.08-92.928c-33.088-10.56-59.904-8.128-82.88 19.52-7.936 9.536-18.304 17.024-26.88 26.176-27.072 28.736-58.112 48.768-98.752 53.312a55.872 55.872 0 0 0-33.28 18.432c-43.648 53.12-43.648 101.76-2.304 156.288 4.416 5.952 8.96 11.648 13.76 17.216 35.2 39.936 66.496 82.56 85.76 132.736 4.736 12.288 12.16 16.704 25.024 15.68 43.456-3.648 86.848-6.72 131.648-10.176-1.6 3.712-3.648 10.432-7.36 16.064-36.416 57.024-38.08 120.448-27.52 183.104 11.776 69.504 46.784 129.6 98.816 177.472 45.632 41.856 99.776 67.2 163.52 66.24 56.704-0.832 102.336-31.04 149.696-56.384 0.576-0.32 0.128-2.624 0.128-5.824-17.6 1.408-35.008 3.2-52.608 4.224-24.448 1.408-50.496 7.616-63.872-23.104-3.84-8.832-15.872-15.488-16.384-23.744-0.384-7.168 10.24-14.912 15.68-22.144-41.92-13.184-51.072-24.128-42.624-52.48 13.696 7.744 27.584 15.36 41.344 23.232l5.76-8.256c-9.536-10.88-19.904-20.992-28.032-32.896-3.904-5.76-3.392-14.4-4.8-21.824 8.128-1.216 17.408-5.504 24.128-2.944a58.88 58.88 0 0 1 25.728 19.392c13.376 19.328 31.744 27.456 53.824 30.272 16.704 2.24 33.408 5.76 50.176 7.232 62.976 5.76 122.304-0.128 166.912-52.992 34.688-41.024 47.872-90.688 55.808-141.76 2.56-14.144-0.704-33.344-9.088-44.608z m-591.872 160.576c-3.2-19.2-4.096-38.784-5.952-58.24l5.824-3.2c42.24 54.72 101.568 81.024 164.416 101.632 6.528 2.112 14.272 6.912 16.896 12.48 3.648 7.936 5.76 18.88 2.944 26.56-1.408 3.84-16.704 6.464-23.232 3.648a4720.256 4720.256 0 0 1-148.416-66.176 26.688 26.688 0 0 1-12.48-16.704z m16-207.424c14.464-8.64 32.256-12.16 49.152-15.872 2.432-0.512 7.936 9.152 10.56 14.784 26.88 56.896 52.48 114.304 80.576 170.624 8.96 17.792 24.064 32.576 38.016 51.008-5.248 0.384-7.744 1.536-9.344 0.704-82.048-42.048-158.4-89.6-174.464-191.552-1.536-9.92-0.32-26.304 5.504-29.696z m225.152 407.104c3.136-0.128 6.528 11.392 12.992 23.744l-64.448-10.688-0.832-7.424c17.28-2.112 34.816-5.184 52.288-5.632z m-30.08-42.944c-8.256 4.608-16 12.16-24.64 13.184-64.96 7.232-117.248-20.096-146.688-76.352 51.072 14.208 101.248 27.648 150.912 42.816 8.192 2.688 13.696 13.44 20.416 20.352z m372.672-275.392c-7.04 46.464-22.336 90.112-52.48 126.912-35.52 43.328-86.976 51.456-133.76 20.736-29.248-19.2-59.328-38.208-77.248-81.472l-22.912 22.144 4.544 7.424c23.04-1.536 19.904 9.472 12.48 21.952-7.872 13.184-15.872 26.368-24.64 40.704-1.92-3.52-4.608-8.128-7.04-12.864-5.12-10.56-7.872-23.04-15.296-31.36-25.472-28.16-36.48-58.496-28.736-97.024 1.6-7.872-10.432-24.128-19.392-27.328-29.44-10.56-38.208-31.36-38.784-59.52-0.576-27.136-2.432-54.208-3.904-86.592-45.376 7.872-88.704 13.568-131.136 23.104-42.816 9.664-84.736 23.36-127.424 34.304-25.024 6.464-44.736 0.32-60.608-23.04-31.552-46.08-65.344-90.624-98.944-135.232-18.304-24.448-22.016-50.752-12.992-79.232 13.696-43.456 38.336-57.408 82.56-45.632 22.656 6.016 44.672 14.592 67.2 21.248 8.32 2.432 17.408 2.496 26.176 3.648l2.24-7.424-73.536-39.04c20.544-19.392 40-36.224 57.6-54.976 24.832-26.432 54.208-31.296 86.272-19.328 32.96 12.16 65.536 25.728 97.216 41.024 43.648 20.992 85.952 44.672 129.344 66.496 41.024 20.608 70.784 51.008 88.576 93.888 8.448 20.096 21.12 38.4 32.768 57.216 3.392 5.504 9.664 9.472 14.464 13.952l4.608-3.328-5.056-11.968c-6.144-14.784-14.592-29.184-17.92-44.544-11.264-53.12-35.968-95.936-84.864-122.496 23.744-44.672 96.32-59.52 130.624-24.256 25.92 26.624 46.464 58.496 68.48 88.768 10.176 13.888 10.944 29.952 2.944 45.824-1.28 2.624-1.92 5.504-3.008 8.32-33.28 90.88-35.712 57.536 9.728 143.36 9.984 18.816 20.288 37.376 29.888 56.512 3.328 6.72 4.544 14.464 6.848 22.4l-29.952 1.92c4.608 12.096 8.256 21.44 13.056 34.304h-43.968a99.84 99.84 0 0 1-0.704 6.464c7.04 1.28 13.952 2.624 22.4 4.096l-11.584 19.392 33.6-10.752-12.48 38.592 6.208 3.52 36.224-65.664c20.736 24.768 34.816 23.36 60.352-4.224l-20.032 1.6c-0.192-1.536-0.384-3.136-0.704-4.608 8.832-0.704 19.52-4.608 25.92-0.896 5.376 2.88 7.872 15.36 6.784 22.976z" p-id="9124"></path><path d="M486.656 285.44l83.584 18.688c-9.664 6.528-13.056 8.96-16.704 11.264-4.096 2.624-8.256 5.12-12.288 7.616 40.192-1.792 64.384 21.824 88.064 51.776-14.912-76.608-71.04-111.36-142.656-89.344z m245.952-87.936l-7.168 4.8 41.152 73.984 6.528-3.648c-9.6-27.072-16.128-55.808-40.512-75.136z m-53.184 297.344l71.872-36.096c-46.144-5.696-64.896 3.264-71.872 36.096z m45.888 23.744c-8.448 0-16.704 8.576-25.152 13.248 4.928 6.528 9.984 12.992 15.36 20.288a370.24 370.24 0 0 1-7.36 9.344c11.136 0 19.2 0.512 27.136-0.128 23.552-1.792 30.336-11.136 18.688-31.04-4.032-7.168-18.752-11.712-28.672-11.712z" p-id="9125"></path></svg>