<?xml version="1.0" standalone="no"?><!DOCTYPE svg PUBLIC "-//W3C//DTD SVG 1.1//EN" "http://www.w3.org/Graphics/SVG/1.1/DTD/svg11.dtd"><svg t="1741240066155" class="icon" viewBox="0 0 1170 1024" version="1.1" xmlns="http://www.w3.org/2000/svg" p-id="7491" xmlns:xlink="http://www.w3.org/1999/xlink" width="228.515625" height="200">
<path fill-rule="evenodd" clip-rule="evenodd" d="M833.448 260.659C856.135 220.337 847.49 168.44 810.572 137.757C773.731 107.143 720.93 107.789 685.003 137.007C595.386 107.394 493.994 127.36 422.441 193.374C417.318 196.427 413.032 200.679 409.933 205.71C406.524 209.304 403.195 213.014 399.954 216.84C337.502 290.555 323.167 388.406 353.572 472.929C346.48 533.448 320.127 565.071 287.815 603.21C276.567 616.486 259.125 626.193 231.802 641.283C206.956 655.005 175.069 672.783 150.276 702.044C125.001 731.878 112.191 767.452 115.397 803.747C118.603 840.042 137.444 872.83 167.527 897.834C197.618 922.838 233.326 935.382 269.625 932.239C305.93 929.096 338.932 910.588 364.214 880.747C389.033 851.452 401.198 817.201 410.536 790.559C420.797 761.285 427.392 742.672 438.609 729.435C470.913 691.305 497.886 659.946 557.243 642.459C646.364 657.484 740.95 626.587 803.32 552.966C806.561 549.139 809.676 545.247 812.658 541.296C817.117 537.407 820.61 532.472 822.78 526.914C876.022 445.602 878.332 343.089 833.448 260.659ZM767.263 476.863C811.181 399.757 794.92 300.245 723.856 241.188C652.647 182.011 550.454 183.414 481.179 239.703C483.59 249.976 487.606 263.942 494.178 280.109C508.725 315.9 535.67 362.223 585.389 403.542C635.123 444.874 685.934 463.156 724.178 471.156C741.72 474.825 756.539 476.314 767.263 476.863ZM427.206 310.507C394.819 384.639 413.648 473.956 479.422 528.618C545.071 583.176 637.057 586.242 705.306 542.278C658.353 531.949 597.56 509.225 538.412 460.07C478.859 410.578 445.605 354.763 427.206 310.507ZM461.68 606.268C451.598 599.981 441.828 592.943 432.445 585.145C422.816 577.143 413.909 568.602 405.731 559.605C388.973 597.518 365.663 625.03 344.605 649.882L343.894 650.721C323.523 674.766 294.826 690.523 272.211 702.94C270.552 703.85 268.924 704.746 267.336 705.621C241.625 719.824 221.3 731.92 206.355 749.56C191.893 766.626 187.374 783.265 188.612 797.279C189.851 811.307 197.229 826.952 214.504 841.302C231.77 855.652 248.772 860.272 263.28 859.012C277.78 857.759 293.679 850.297 308.135 833.238C323.054 815.626 331.529 793.765 341.175 766.248C341.77 764.547 342.376 762.804 342.994 761.026C351.417 736.806 362.129 705.999 382.53 681.923L383.187 681.147C404.156 656.394 427.298 629.078 461.68 606.268Z"/>
</svg>
