<?xml version="1.0" standalone="no"?><!DOCTYPE svg PUBLIC "-//W3C//DTD SVG 1.1//EN" "http://www.w3.org/Graphics/SVG/1.1/DTD/svg11.dtd"><svg t="1692018591656" class="icon" viewBox="0 0 1024 1024" version="1.1" xmlns="http://www.w3.org/2000/svg" p-id="8618" xmlns:xlink="http://www.w3.org/1999/xlink" width="200" height="200"><path d="M776.298 155.643C701.723 86.2624 602.55 48 497 48C391.45 48 292.277 86.2624 217.702 155.643C143.127 225.024 102 317.29 102 415.489C102 513.688 143.127 605.954 217.702 675.335C253.753 708.875 295.4 735.029 340.822 753.192V894.012H653.178V753.192C698.6 735.029 740.247 708.754 776.298 675.335C850.873 605.954 892 513.688 892 415.489C892 317.29 850.873 225.145 776.298 155.643ZM625.586 711.297C617.517 714.324 609.448 717.109 601.119 719.53V845.821H392.881V719.53C384.552 717.109 376.353 714.324 368.414 711.297C242.82 663.832 154.059 549.165 154.059 415.61C154.059 239.676 307.895 96.5546 497 96.5546C686.105 96.5546 839.941 239.676 839.941 415.61C839.941 549.165 751.18 663.832 625.586 711.297ZM340.822 942.567H653.178V991H340.822V942.567Z" />
<path d="M680.922 453.131L644.09 418.962L570.555 487.421L533.723 453.131L496.89 418.962L460.058 453.131L423.226 487.421L349.691 418.962L312.859 453.131L386.393 521.71L423.226 556L496.89 487.421L570.555 556L607.388 521.71L680.922 453.131ZM470.86 11H522.92V59.466H470.86V11ZM10 436.41H62.0599V484.876H10V436.41ZM118.045 177.007L154.857 142.737L191.668 177.007L154.857 211.277L118.045 177.007ZM801.319 176.99L838.13 142.72L874.942 176.99L838.13 211.26L801.319 176.99ZM930.94 436.41H983V484.876H930.94V436.41Z" />
</svg>
