<?xml version="1.0" standalone="no"?><!DOCTYPE svg PUBLIC "-//W3C//DTD SVG 1.1//EN" "http://www.w3.org/Graphics/SVG/1.1/DTD/svg11.dtd"><svg t="1741240066155" class="icon" viewBox="0 0 1170 1024" version="1.1" xmlns="http://www.w3.org/2000/svg" p-id="7491" xmlns:xlink="http://www.w3.org/1999/xlink" width="228.515625" height="200">
<path d="M632.044 77.584H347.965C308.136 77.5833 276.011 77.5833 249.996 79.7085C223.211 81.8974 199.684 86.5209 177.917 97.6117C143.343 115.228 115.232 143.339 97.6157 177.913C86.5249 199.68 81.9014 223.206 79.7125 249.992C77.5873 276.007 77.5873 308.131 77.588 347.96V632.04C77.5873 671.869 77.5873 703.997 79.7125 730.009C81.9014 756.791 86.5249 780.318 97.6157 802.088C115.232 836.661 143.343 864.773 177.917 882.392C199.684 893.48 223.211 898.107 249.996 900.291C276.01 902.419 308.134 902.419 347.962 902.419H490.005C510.301 902.419 526.755 885.962 526.755 865.669C526.755 845.369 510.301 828.919 490.005 828.919H349.538C307.768 828.919 278.65 828.891 255.981 827.036C233.741 825.216 220.964 821.835 211.285 816.9C190.541 806.33 173.674 789.467 163.104 768.719C158.173 759.038 154.785 746.263 152.969 724.024C151.117 701.358 151.088 672.237 151.088 630.467V349.534C151.088 307.764 151.117 278.646 152.969 255.977C154.785 233.737 158.173 220.959 163.104 211.281C173.674 190.537 190.541 173.67 211.285 163.1C220.964 158.169 233.741 154.781 255.981 152.964C278.65 151.113 307.768 151.084 349.538 151.084H630.471C672.242 151.084 701.358 151.113 724.031 152.964C746.27 154.781 759.045 158.169 768.726 163.1C789.467 173.67 806.337 190.537 816.907 211.281C821.835 220.959 825.223 233.737 827.043 255.977C828.891 278.646 828.919 307.764 828.919 349.534V490C828.919 510.297 845.376 526.75 865.669 526.75C885.969 526.75 902.419 510.297 902.419 490V347.96C902.419 308.132 902.419 276.006 900.298 249.992C898.107 223.206 893.487 199.68 882.392 177.913C864.78 143.339 836.668 115.228 802.095 97.6117C780.325 86.5209 756.798 81.8974 730.016 79.7085C703.997 77.5833 671.873 77.5833 632.044 77.584Z" />
<path d="M776.139 606.166C781.095 603.723 786.912 603.723 791.868 606.166C796.285 608.341 798.581 612.134 799.631 613.983C800.765 615.976 801.913 618.511 803.026 620.955L836.374 694.309C837.039 695.769 837.382 696.525 837.662 697.073L837.76 697.26L837.823 697.379L837.886 697.444L837.956 697.516C838.012 697.547 838.11 697.599 838.264 697.677C838.817 697.955 839.566 698.301 841.029 698.965L914.375 732.312C916.818 733.418 919.359 734.573 921.354 735.707C923.202 736.757 926.996 739.053 929.173 743.47C931.616 748.426 931.616 754.243 929.173 759.199C926.996 763.616 923.202 765.905 921.354 766.962C919.359 768.089 916.818 769.244 914.375 770.357L841.029 803.705C839.566 804.363 838.817 804.713 838.264 804.993L838.131 805.056L837.956 805.154L837.879 805.231L837.823 805.287L837.76 805.406L837.662 805.595C837.382 806.141 837.039 806.897 836.374 808.36L803.026 881.706C801.92 884.149 800.765 886.69 799.631 888.685C798.581 890.533 796.285 894.327 791.868 896.504C786.912 898.947 781.095 898.947 776.139 896.504C771.722 894.327 769.433 890.533 768.376 888.685C767.249 886.69 766.094 884.149 764.981 881.706L731.633 808.36C730.975 806.897 730.625 806.141 730.345 805.595C730.268 805.441 730.219 805.343 730.184 805.287C730.142 805.238 730.1 805.196 730.051 805.154C729.995 805.119 729.897 805.07 729.743 804.993C729.197 804.713 728.441 804.363 726.978 803.705L653.636 770.357C651.191 769.244 648.648 768.089 646.654 766.962C644.805 765.905 641.012 763.616 638.837 759.199C636.394 754.243 636.394 748.426 638.837 743.47C641.012 739.053 644.805 736.757 646.654 735.707C648.65 734.573 651.188 733.418 653.636 732.312L726.978 698.965C728.441 698.301 729.197 697.955 729.743 697.677C729.897 697.599 729.995 697.547 730.051 697.516C730.079 697.486 730.156 697.411 730.184 697.379L730.261 697.236L730.345 697.073C730.625 696.525 730.975 695.769 731.633 694.309L764.981 620.964C766.094 618.519 767.249 615.977 768.376 613.983C769.433 612.134 771.722 608.341 776.139 606.166Z"/>
<path d="M257.255 375.667C257.255 355.37 273.708 338.917 294.005 338.917H686.005C706.3 338.917 722.757 355.37 722.757 375.667C722.757 395.963 706.3 412.417 686.005 412.417H294.005C273.708 412.417 257.255 395.963 257.255 375.667Z" />
<path d="M294.005 567.584C273.708 567.584 257.255 584.037 257.255 604.334C257.255 624.63 273.708 641.084 294.005 641.084H588.005C608.301 641.084 624.755 624.63 624.755 604.334C624.755 584.037 608.301 567.584 588.005 567.584H294.005Z" />
</svg>
