<?xml version="1.0" standalone="no"?><!DOCTYPE svg PUBLIC "-//W3C//DTD SVG 1.1//EN" "http://www.w3.org/Graphics/SVG/1.1/DTD/svg11.dtd"><svg t="1741240066155" class="icon" viewBox="0 0 1024 1024" version="1.1" xmlns="http://www.w3.org/2000/svg" p-id="7491" xmlns:xlink="http://www.w3.org/1999/xlink" width="228.515625" height="200">
<path d="M641.703 31.2505H335.46C292.524 31.2497 257.892 31.2497 229.848 33.6201C200.973 36.0616 175.61 41.2185 152.145 53.5889C114.873 73.2377 84.5693 104.592 65.5786 143.155C53.6225 167.433 48.6382 193.674 46.2786 223.55C43.9876 252.566 43.9876 288.397 43.9883 332.821V649.677C43.9876 694.101 43.9876 729.936 46.2786 758.949C48.6382 788.821 53.6225 815.062 65.5786 839.344C84.5693 877.906 114.873 909.261 152.145 928.913C175.61 941.28 200.973 946.441 229.848 948.877C257.891 951.251 292.521 951.25 335.457 951.25H488.582C510.461 951.25 528.199 932.895 528.199 910.26C528.199 887.618 510.461 869.27 488.582 869.27H337.156C292.127 869.27 260.737 869.239 236.299 867.17C212.324 865.14 198.55 861.369 188.116 855.865C165.754 844.075 147.571 825.267 136.176 802.125C130.861 791.327 127.208 777.078 125.25 752.273C123.254 726.992 123.223 694.511 123.223 647.922V334.577C123.223 287.987 123.254 255.51 125.25 230.226C127.208 205.42 130.861 191.167 136.176 180.373C147.571 157.235 165.754 138.422 188.116 126.633C198.55 121.133 212.324 117.354 236.299 115.327C260.737 113.263 292.127 113.231 337.156 113.231H640.007C685.037 113.231 716.425 113.263 740.867 115.327C764.841 117.354 778.612 121.133 789.049 126.633C811.408 138.422 829.594 157.235 840.989 180.373C846.301 191.167 849.954 205.42 851.916 230.226C853.908 255.51 853.938 287.987 853.938 334.577V491.249C853.938 513.888 871.679 532.239 893.555 532.239C915.439 532.239 933.172 513.888 933.172 491.249V332.821C933.172 288.398 933.172 252.565 930.886 223.55C928.524 193.674 923.543 167.433 911.583 143.155C892.597 104.592 862.291 73.2377 825.021 53.5889C801.553 41.2185 776.19 36.0616 747.319 33.6201C719.27 31.2497 684.639 31.2497 641.703 31.2505Z" />
<path d="M797.039 620.817C802.382 618.092 808.653 618.092 813.995 620.817C818.757 623.243 821.232 627.474 822.364 629.536C823.587 631.759 824.824 634.586 826.024 637.312L861.974 719.13C862.691 720.758 863.06 721.601 863.362 722.212L863.468 722.421L863.536 722.554L863.604 722.626L863.679 722.707C863.74 722.741 863.845 722.799 864.011 722.886C864.607 723.196 865.415 723.582 866.992 724.323L946.06 761.517C948.694 762.751 951.433 764.039 953.584 765.304C955.576 766.475 959.666 769.036 962.013 773.962C964.647 779.49 964.647 785.978 962.013 791.506C959.666 796.433 955.576 798.986 953.584 800.165C951.433 801.422 948.694 802.71 946.06 803.952L866.992 841.147C865.415 841.881 864.607 842.271 864.011 842.584L863.868 842.654L863.679 842.763L863.596 842.849L863.536 842.912L863.468 843.044L863.362 843.255C863.06 843.864 862.691 844.707 861.974 846.339L826.024 928.147C824.832 930.872 823.587 933.706 822.364 935.932C821.232 937.993 818.757 942.225 813.995 944.653C808.653 947.378 802.382 947.378 797.039 944.653C792.278 942.225 789.81 937.993 788.671 935.932C787.456 933.706 786.211 930.872 785.011 928.147L749.061 846.339C748.352 844.707 747.974 843.864 747.672 843.255C747.589 843.083 747.537 842.974 747.499 842.912C747.454 842.857 747.408 842.81 747.356 842.763C747.295 842.724 747.189 842.67 747.023 842.584C746.435 842.271 745.62 841.881 744.043 841.147L664.979 803.952C662.343 802.71 659.601 801.422 657.452 800.165C655.459 798.986 651.37 796.433 649.025 791.506C646.391 785.978 646.391 779.49 649.025 773.962C651.37 769.036 655.459 766.475 657.452 765.304C659.604 764.039 662.34 762.751 664.979 761.517L744.043 724.323C745.62 723.582 746.435 723.196 747.023 722.886C747.189 722.799 747.295 722.741 747.356 722.707C747.386 722.673 747.469 722.589 747.499 722.554L747.582 722.394L747.672 722.212C747.974 721.601 748.352 720.758 749.061 719.13L785.011 637.322C786.211 634.595 787.456 631.76 788.671 629.536C789.81 627.474 792.278 623.243 797.039 620.817Z" />
<path d="M237.673 363.724C237.673 341.086 255.41 322.734 277.29 322.734H699.874C721.752 322.734 739.493 341.086 739.493 363.724C739.493 386.362 721.752 404.714 699.874 404.714H277.29C255.41 404.714 237.673 386.362 237.673 363.724Z"/>
<path d="M277.29 577.784C255.41 577.784 237.673 596.135 237.673 618.774C237.673 641.412 255.41 659.764 277.29 659.764H594.228C616.107 659.764 633.845 641.412 633.845 618.774C633.845 596.135 616.107 577.784 594.228 577.784H277.29Z" />
</svg>
