<?xml version="1.0" standalone="no"?><!DOCTYPE svg PUBLIC "-//W3C//DTD SVG 1.1//EN" "http://www.w3.org/Graphics/SVG/1.1/DTD/svg11.dtd"><svg t="1715412241484" class="icon" viewBox="0 0 1024 1024" version="1.1" xmlns="http://www.w3.org/2000/svg" p-id="1431" xmlns:xlink="http://www.w3.org/1999/xlink" width="200" height="200"><path d="M597.333333 682.666667h-170.666666c-12.8 0-25.6-8.533333-34.133334-17.066667L320 554.666667H85.333333c-25.6 0-42.666667-17.066667-42.666666-42.666667s17.066667-42.666667 42.666666-42.666667h256c12.8 0 25.6 8.533333 34.133334 17.066667l72.533333 110.933333h123.733333l72.533334-110.933333c8.533333-12.8 21.333333-17.066667 34.133333-17.066667h256c25.6 0 42.666667 17.066667 42.666667 42.666667s-17.066667 42.666667-42.666667 42.666667h-234.666667l-72.533333 110.933333c-4.266667 8.533333-17.066667 17.066667-29.866667 17.066667z" p-id="1432"></path><path d="M853.333333 896H170.666667c-72.533333 0-128-55.466667-128-128v-256c0-8.533333 0-12.8 4.266666-17.066667l145.066667-294.4C217.6 153.6 260.266667 128 307.2 128h405.333333c46.933333 0 93.866667 25.6 115.2 72.533333l145.066667 294.4c8.533333 4.266667 8.533333 8.533333 8.533333 17.066667v256c0 72.533333-55.466667 128-128 128zM128 520.533333V768c0 25.6 17.066667 42.666667 42.666667 42.666667h682.666666c25.6 0 42.666667-17.066667 42.666667-42.666667v-247.466667l-140.8-285.866666c-8.533333-12.8-25.6-21.333333-38.4-21.333334H307.2c-12.8 0-29.866667 8.533333-38.4 25.6L128 520.533333z m106.666667-302.933333z" p-id="1433"></path></svg>