<?xml version="1.0" standalone="no"?><!DOCTYPE svg PUBLIC "-//W3C//DTD SVG 1.1//EN" "http://www.w3.org/Graphics/SVG/1.1/DTD/svg11.dtd"><svg t="1686019740917" class="icon" viewBox="0 0 1024 1024" version="1.1" xmlns="http://www.w3.org/2000/svg" p-id="3695" xmlns:xlink="http://www.w3.org/1999/xlink" width="200" height="200"><path d="M918 873.7l-64.1-64.1c17-25.2 27-55.6 27-88.4 0-87.3-70.8-158-158-158-87.3 0-158 70.8-158 158 0 5.4 0.3 10.7 0.8 15.9-73 0.6-252.6-43.7-253-119.6-0.4-82 78.5-116.9 158-116.9 183.9 0 262.7-62 262.7-130.5 0-116.1-180.5-144.9-321.9-144.9C397.9 151.7 333.5 96 256 96c-87.3 0-158 70.8-158 158 0 87.3 70.8 158 158 158 76.7 0 140.6-54.7 155-127.1 153.8 6.7 262.3 26.5 262.3 89.8 0 19.3-54.1 54.7-199.4 65.8C325.3 452 252.1 517 252.2 623.9c0.1 113.9 189.7 171.5 331.1 171.5 26.6 49.9 79.1 83.9 139.6 83.9 32.9 0 63.4-10.1 88.7-27.2l19.2 19.2c2 2.8 4.4 5.2 7.1 7.1l39.2 39.2c5.4 5.2 12.7 8.4 20.8 8.4 16.6 0 30-13.4 30-30 0.1-8.9-3.8-16.8-9.9-22.3zM255.4 325c-39.5 0-71.6-32.1-71.6-71.6s32.1-71.6 71.6-71.6c39.5 0 71.6 32.1 71.6 71.6S294.9 325 255.4 325z m472.2 472.2c-39.5 0-71.6-32.1-71.6-71.6 0-39.5 32.1-71.6 71.6-71.6 39.5 0 71.6 32.1 71.6 71.6 0 39.6-32 71.6-71.6 71.6z" p-id="3696"></path></svg>