<?xml version="1.0" standalone="no"?><!DOCTYPE svg PUBLIC "-//W3C//DTD SVG 1.1//EN" "http://www.w3.org/Graphics/SVG/1.1/DTD/svg11.dtd"><svg t="1734567841240" class="icon" viewBox="0 0 1024 1024" version="1.1" xmlns="http://www.w3.org/2000/svg" p-id="7315" xmlns:xlink="http://www.w3.org/1999/xlink" width="200" height="200"><path d="M924.44 341.33h-56.89c-7.85 0-14.22 6.37-14.22 14.22v42.67c0 7.85-6.37 14.22-14.22 14.22h-56.89c-7.85 0-14.22 6.37-14.22 14.22v71.11c0 7.85-6.37 14.22-14.22 14.22h-56.89c-7.85 0-14.22-6.37-14.22-14.22v-28.44c0-7.86-6.37-14.22-14.22-14.22h-56.89c-7.85 0-14.22-6.37-14.22-14.22V384c0-7.86-6.37-14.22-14.22-14.22h-56.89c-7.85 0-14.22 6.37-14.22 14.22v85.33c0 7.85-6.37 14.22-14.22 14.22H440.9c-7.85 0-14.22 6.37-14.22 14.22v42.67c0 7.85-6.37 14.22-14.22 14.22h-56.89c-7.85 0-14.22 6.37-14.22 14.22V640c0 7.85-6.37 14.22-14.22 14.22h-56.89c-7.85 0-14.22-6.37-14.22-14.22v-28.44c0-7.86-6.37-14.22-14.22-14.22h-56.89c-7.85 0-14.22 6.37-14.22 14.22V640c0 7.85-6.37 14.22-14.22 14.22H99.56c-7.85 0-14.22 6.37-14.22 14.22v170.67c0 7.85 6.37 14.22 14.22 14.22h56.89c7.85 0 14.22-6.37 14.22-14.22V725.33c0-7.86 6.37-14.22 14.22-14.22h56.89c7.85 0 14.22 6.37 14.22 14.22v14.22c0 7.85 6.37 14.22 14.22 14.22h56.89c7.85 0 14.22-6.37 14.22-14.22v-14.22c0-7.86 6.37-14.22 14.22-14.22h56.89c7.85 0 14.22-6.37 14.22-14.22V640c0-7.86 6.37-14.22 14.22-14.22h56.89c7.85 0 14.22-6.37 14.22-14.22v-56.89c0-7.86 6.37-14.22 14.22-14.22h56.89c7.85 0 14.22 6.37 14.22 14.22v14.22c0 7.85 6.37 14.22 14.22 14.22h56.89c7.85 0 14.22 6.37 14.22 14.22v56.89c0 7.85 6.37 14.22 14.22 14.22h56.89c7.85 0 14.22-6.37 14.22-14.22v-56.89c0-7.86 6.37-14.22 14.22-14.22h56.89c7.85 0 14.22-6.37 14.22-14.22v-42.67c0-7.86 6.37-14.22 14.22-14.22h56.89c7.85 0 14.22-6.37 14.22-14.22V355.56c0.03-7.86-6.34-14.23-14.2-14.23z"  p-id="7316"></path><path d="M128 469.33c10.92 0 21.83-4.17 30.17-12.5l66.69-66.69 60.32 20.11a42.753 42.753 0 0 0 34.21-3.18l236.32-131.29 150.54 75.26a42.602 42.602 0 0 0 40.58-1.31l170.67-99.56c20.35-11.88 27.22-38 15.36-58.35-11.88-20.35-37.99-27.23-58.36-15.35L723.78 264.4l-150.03-75a42.62 42.62 0 0 0-39.81 0.86l-239.6 133.11-67.53-22.51a42.614 42.614 0 0 0-43.65 10.31L97.83 396.5c-16.67 16.66-16.67 43.67 0 60.33 8.34 8.34 19.25 12.5 30.17 12.5z" p-id="7317"></path></svg>