<?xml version="1.0" standalone="no"?><!DOCTYPE svg PUBLIC "-//W3C//DTD SVG 1.1//EN" "http://www.w3.org/Graphics/SVG/1.1/DTD/svg11.dtd"><svg t="1741240066155" class="icon" viewBox="0 0 1170 1024" version="1.1" xmlns="http://www.w3.org/2000/svg" p-id="7491" xmlns:xlink="http://www.w3.org/1999/xlink" width="228.515625" height="200"><path d="M1170.207921 365.949304a72.166226 72.166226 0 0 1-37.435772 62.514816L1023.974433 491.929454v239.60357c0 161.514888-196.391574 292.466976-438.700464 292.466976s-438.700464-130.952089-438.700464-292.466976V491.929454L36.898389 429.414638a62.441699 62.441699 0 0 1-36.558372-63.465334 72.239343 72.239343 0 0 1 37.435773-62.514816L549.008064 10.016994A111.795502 111.795502 0 0 1 585.273969 0.365584a64.562085 64.562085 0 0 1 36.558372 9.65141l511.817208 292.466976a62.441699 62.441699 0 0 1 36.558372 63.465334z m-877.400928 365.58372c0 80.428418 130.952089 146.233488 292.466976 146.233488s292.466976-65.80507 292.466976-146.233488V575.501892L620.95494 720.931096a65.366369 65.366369 0 0 1-71.435059 0L292.806993 575.428775z m292.466976-573.820207L292.806993 324.857694v82.256337l292.466976 167.144877 292.466976-167.144877V324.857694z" p-id="7492"></path></svg>