<?xml version="1.0" standalone="no"?><!DOCTYPE svg PUBLIC "-//W3C//DTD SVG 1.1//EN" "http://www.w3.org/Graphics/SVG/1.1/DTD/svg11.dtd"><svg t="1685088817280" class="icon" viewBox="0 0 1024 1024" version="1.1" xmlns="http://www.w3.org/2000/svg" p-id="1613" xmlns:xlink="http://www.w3.org/1999/xlink" width="200" height="200">
<path d="M852.294 648.823C877.36 648.823 897.289 638.589 905.54 621.335C917.217 597.179 905.696 576.473 874.091 564.693C845.599 554.102 815.862 544.582 787.215 535.301C777.407 532.088 767.287 528.875 757.323 525.662C694.112 504.957 630.902 484.251 567.691 463.665L354.706 394.052C351.281 392.862 347.7 391.553 342.251 389.292L404.527 368.825C458.707 350.976 510.241 334.078 561.775 317.181C650.052 288.265 754.053 254.113 857.12 220.318L858.677 219.842C871.911 215.439 885.768 211.036 895.732 201.636C913.481 184.857 914.726 166.413 899.157 149.634C887.013 136.545 871.288 130 852.294 130C842.486 130 831.743 131.785 820.533 135.474C753.43 157.25 685.238 179.621 619.225 201.16L573.607 216.034C532.816 229.362 492.181 242.689 451.39 256.136C365.916 284.1 277.483 313.135 190.608 341.456C168.5 348.715 135.182 359.543 135.337 390.006C135.493 419.517 166.631 429.632 191.542 437.724C343.963 487.464 498.876 538.276 648.65 587.421C701.897 604.913 754.987 622.287 808.234 639.779C809.323 640.136 810.413 640.493 811.659 640.85C817.108 642.635 822.713 644.539 828.785 645.967C836.569 647.752 844.509 648.823 852.294 648.823Z"/>
<path d="M147 789.5C147 766.58 163.789 748 184.5 748H873.346C894.056 748 910.846 766.58 910.846 789.5C910.846 812.42 894.056 831 873.346 831H184.5C163.789 831 147 812.42 147 789.5Z" />
</svg>
