<?xml version="1.0" standalone="no"?><!DOCTYPE svg PUBLIC "-//W3C//DTD SVG 1.1//EN" "http://www.w3.org/Graphics/SVG/1.1/DTD/svg11.dtd"><svg t="1685088817280" class="icon" viewBox="0 0 1024 1024" version="1.1" xmlns="http://www.w3.org/2000/svg" p-id="1613" xmlns:xlink="http://www.w3.org/1999/xlink" width="200" height="200">
<path d="M785.856 208C808.506 208 826.514 219.046 833.97 237.67C844.522 263.743 834.111 286.092 805.552 298.807C779.806 310.239 752.936 320.514 727.049 330.532C718.186 334 709.042 337.468 700.038 340.936C642.92 363.284 585.801 385.633 528.683 407.853L336.226 482.991C333.131 484.275 329.895 485.688 324.971 488.128L381.245 510.22C430.204 529.486 476.77 547.725 523.337 565.963C603.106 597.174 697.083 634.037 790.217 670.514L791.624 671.028C803.582 675.78 816.103 680.532 825.107 690.679C841.145 708.789 842.271 728.697 828.202 746.807C817.229 760.936 803.019 768 785.856 768C776.993 768 767.285 766.073 757.156 762.092C696.521 738.587 634.901 714.44 575.25 691.193L534.029 675.138C497.17 660.752 460.451 646.367 423.591 631.853C346.355 601.67 266.446 570.33 187.944 539.761C167.966 531.927 137.86 520.239 138 487.358C138.141 455.505 166.278 444.587 188.788 435.853C326.519 382.165 466.5 327.321 601.84 274.275C649.954 255.394 697.928 236.642 746.042 217.761C747.027 217.376 748.012 216.991 749.137 216.605C754.061 214.679 759.126 212.624 764.612 211.083C771.647 209.156 778.822 208 785.856 208Z"/>
</svg>
