<?xml version="1.0" standalone="no"?><!DOCTYPE svg PUBLIC "-//W3C//DTD SVG 1.1//EN" "http://www.w3.org/Graphics/SVG/1.1/DTD/svg11.dtd"><svg t="1741240066155" class="icon" viewBox="0 0 1170 1024" version="1.1" xmlns="http://www.w3.org/2000/svg" p-id="7491" xmlns:xlink="http://www.w3.org/1999/xlink" width="228.515625" height="200">
<path d="M146.997 110.251C126.7 110.251 110.247 126.704 110.247 147.001C110.247 167.297 126.7 183.751 146.997 183.751H833C853.293 183.751 869.75 167.297 869.75 147.001C869.75 126.704 853.293 110.251 833 110.251H146.997Z" fill="black"/>
<path d="M146.997 600.251C126.7 600.251 110.247 616.704 110.247 637.001C110.247 657.297 126.7 673.751 146.997 673.751H833C853.293 673.751 869.75 657.297 869.75 637.001C869.75 616.704 853.293 600.251 833 600.251H146.997Z" />
<path d="M110.247 343.001C110.247 322.704 126.7 306.251 146.997 306.251H555.33C575.626 306.251 592.08 322.704 592.08 343.001C592.08 363.297 575.626 379.751 555.33 379.751H146.997C126.7 379.751 110.247 363.297 110.247 343.001Z"/>
<path d="M146.997 796.25C126.7 796.25 110.247 812.707 110.247 833C110.247 853.3 126.7 869.75 146.997 869.75H555.33C575.626 869.75 592.08 853.3 592.08 833C592.08 812.707 575.626 796.25 555.33 796.25H146.997Z" />
</svg>
