<?xml version="1.0" standalone="no"?><!DOCTYPE svg PUBLIC "-//W3C//DTD SVG 1.1//EN" "http://www.w3.org/Graphics/SVG/1.1/DTD/svg11.dtd"><svg t="1685088817280" class="icon" viewBox="0 0 1024 1024" version="1.1" xmlns="http://www.w3.org/2000/svg" p-id="1613" xmlns:xlink="http://www.w3.org/1999/xlink" width="200" height="200">
<path d="M801.512 472.146L671.119 403.11L801.512 334.074C814.551 328.071 821.071 310.061 811.292 298.055C804.772 286.049 785.213 280.046 772.174 289.05L641.78 358.087V220.014C645.04 205.006 632.001 193 615.702 193C599.402 193 586.363 205.006 586.363 220.014V358.087L455.97 289.05C446.19 280.046 426.631 286.049 420.111 298.055C413.592 310.061 416.852 328.071 429.891 334.074L560.284 403.11L429.891 472.146C416.852 478.15 410.332 496.159 420.111 508.165C426.631 517.17 436.411 520.172 446.19 520.172C449.45 520.172 455.97 520.172 459.229 517.17L589.623 448.134V586.206C586.363 601.214 599.402 613.22 615.702 613.22C632.001 613.22 645.04 601.214 645.04 586.206V448.134L775.433 517.17C778.693 520.172 785.213 520.172 788.473 520.172C798.252 520.172 808.032 514.169 814.551 508.165C817.811 496.159 814.551 478.15 801.512 472.146Z" />
<rect x="172" y="520.532" width="224.234" height="209.468" rx="40" />
</svg>
