<?xml version="1.0" standalone="no"?><!DOCTYPE svg PUBLIC "-//W3C//DTD SVG 1.1//EN" "http://www.w3.org/Graphics/SVG/1.1/DTD/svg11.dtd"><svg t="1741240066155" class="icon" viewBox="0 0 1170 1024" version="1.1" xmlns="http://www.w3.org/2000/svg" p-id="7491" xmlns:xlink="http://www.w3.org/1999/xlink" width="228.515625" height="200">
<path d="M257.255 457.333C257.255 437.037 273.708 420.583 294.005 420.583H424.671C444.968 420.583 461.421 437.037 461.421 457.333C461.421 477.63 444.968 494.083 424.671 494.083H294.005C273.708 494.083 257.255 477.63 257.255 457.333Z"/>
<path d="M555.338 420.583C535.042 420.583 518.588 437.037 518.588 457.333C518.588 477.63 535.042 494.083 555.338 494.083H686.005C706.3 494.083 722.757 477.63 722.757 457.333C722.757 437.037 706.3 420.583 686.005 420.583H555.338Z" />
<path d="M518.588 686C518.588 665.704 535.042 649.25 555.338 649.25H686.005C706.3 649.25 722.757 665.704 722.757 686C722.757 706.293 706.3 722.75 686.005 722.75H555.338C535.042 722.75 518.588 706.293 518.588 686Z"/>
<path d="M294.005 649.25C273.708 649.25 257.255 665.704 257.255 686C257.255 706.293 273.708 722.75 294.005 722.75H424.671C444.968 722.75 461.421 706.293 461.421 686C461.421 665.704 444.968 649.25 424.671 649.25H294.005Z"/>
<path fill-rule="evenodd" clip-rule="evenodd" d="M363.421 81.6663C363.421 61.37 346.968 44.9165 326.671 44.9165C306.375 44.9165 289.921 61.37 289.921 81.6663V126.582C260.569 126.598 239.772 126.903 221.569 130.939C151.85 146.395 97.4015 200.844 81.9455 270.562C77.5733 290.282 77.5796 313.049 77.5887 346.439L77.5894 632.039C77.5894 671.869 77.5887 703.997 79.7146 730.009C81.9028 756.791 86.5263 780.318 97.6171 802.088C115.234 836.661 143.344 864.773 177.919 882.392C199.685 893.48 223.212 898.1 249.997 900.291C276.011 902.419 308.134 902.419 347.962 902.419H632.047C671.873 902.419 704.004 902.419 730.016 900.291C756.798 898.1 780.325 893.48 802.095 882.392C836.668 864.773 864.78 836.661 882.392 802.088C893.487 780.318 898.107 756.791 900.298 730.009C902.426 703.997 902.426 671.871 902.426 632.044V346.439C902.433 313.049 902.44 290.282 898.065 270.562C882.609 200.844 828.163 146.395 758.443 130.939C740.243 126.903 719.439 126.598 690.088 126.582V81.6663C690.088 61.37 673.634 44.9165 653.338 44.9165C633.041 44.9165 616.588 61.37 616.588 81.6663V126.582H363.421V81.6663ZM289.921 200.094V285.833C289.921 306.13 306.375 322.583 326.671 322.583C346.968 322.583 363.421 306.13 363.421 285.833V200.082H616.588V285.833C616.588 306.13 633.041 322.583 653.338 322.583C673.634 322.583 690.088 306.13 690.088 285.833V200.094C720.79 200.157 732.921 200.565 742.532 202.696C784.364 211.97 817.033 244.64 826.308 286.47C828.702 297.268 828.926 311.25 828.926 351.166V630.466C828.926 672.237 828.891 701.351 827.043 724.024C825.223 746.263 821.835 759.038 816.907 768.719C806.337 789.46 789.467 806.33 768.726 816.9C759.045 821.828 746.27 825.216 724.031 827.036C701.358 828.891 672.243 828.919 630.473 828.919H349.539C307.769 828.919 278.652 828.891 255.983 827.036C233.743 825.216 220.965 821.828 211.287 816.9C190.542 806.33 173.676 789.46 163.106 768.719C158.175 759.038 154.788 746.263 152.97 724.024C151.118 701.351 151.089 672.237 151.089 630.466V351.166C151.089 311.25 151.309 297.268 153.703 286.47C162.977 244.64 195.646 211.97 237.477 202.696C247.088 200.565 259.221 200.157 289.921 200.094Z"/>
</svg>
