<?xml version="1.0" standalone="no"?><!DOCTYPE svg PUBLIC "-//W3C//DTD SVG 1.1//EN" "http://www.w3.org/Graphics/SVG/1.1/DTD/svg11.dtd"><svg t="1745406038159" class="icon" viewBox="0 0 1024 1024" version="1.1" xmlns="http://www.w3.org/2000/svg" p-id="17535" xmlns:xlink="http://www.w3.org/1999/xlink" width="200" height="200"><path d="M511.786667 85.333333C276.053333 85.333333 85.333333 276.266667 85.333333 512s190.72 426.666667 426.453334 426.666667C747.52 938.666667 938.666667 747.733333 938.666667 512S747.52 85.333333 511.786667 85.333333zM512 853.333333c-188.586667 0-341.333333-152.746667-341.333333-341.333333S323.413333 170.666667 512 170.666667s341.333333 152.746667 341.333333 341.333333-152.746667 341.333333-341.333333 341.333333z m149.333333-384c35.413333 0 64-28.586667 64-64s-28.586667-64-64-64-64 28.586667-64 64 28.586667 64 64 64z m-298.666666 0c35.413333 0 64-28.586667 64-64s-28.586667-64-64-64-64 28.586667-64 64 28.586667 64 64 64z m149.333333 277.333334c99.413333 0 183.68-62.08 217.813333-149.333334H294.186667c34.133333 87.253333 118.4 149.333333 217.813333 149.333334z" p-id="17536"></path></svg>