<?xml version="1.0" standalone="no"?><!DOCTYPE svg PUBLIC "-//W3C//DTD SVG 1.1//EN" "http://www.w3.org/Graphics/SVG/1.1/DTD/svg11.dtd"><svg t="1685088817280" class="icon" viewBox="0 0 1024 1024" version="1.1" xmlns="http://www.w3.org/2000/svg" p-id="1613" xmlns:xlink="http://www.w3.org/1999/xlink" width="200" height="200">
<path d="M230.194 249.118L287.71 696.882H230.708L220.951 615.645H151.624L141.867 696.882H90L147.515 249.118H230.194ZM186.031 328.435L158.813 554.877H213.248L186.031 328.435ZM511.041 249.118C569.584 249.118 594.746 283.02 594.746 352.103V368.095C594.746 414.151 583.449 443.575 558.286 458.288C588.584 473 600.396 506.902 600.396 554.238V590.699C600.396 659.781 571.124 696.882 514.636 696.882H425.795V249.118H511.041ZM507.446 495.388H482.283V632.916H514.636C533.636 632.916 543.908 622.042 543.908 588.779V549.76C543.908 508.181 533.123 495.388 507.446 495.388ZM509.5 313.084H482.283V431.423H504.365C525.42 431.423 538.258 419.909 538.258 384.088V359.141C538.258 327.157 529.528 313.084 509.5 313.084ZM856.593 529.93H910V589.419C910 661.061 881.242 702 825.781 702C770.319 702 741.561 661.061 741.561 589.419V356.581C741.561 284.939 770.319 244 825.782 244C881.242 244 910 284.939 910 356.581V400.078H856.593V352.103C856.593 320.12 845.295 307.967 827.321 307.967C809.347 307.967 798.049 320.12 798.049 352.103V593.896C798.049 625.88 809.347 637.394 827.321 637.394C845.295 637.394 856.593 625.88 856.593 593.896V529.93Z" />
<path d="M230.194 249.118L287.71 696.882H230.708L220.951 615.645H151.624L141.867 696.882H90L147.515 249.118H230.194ZM186.031 328.435L158.813 554.877H213.248L186.031 328.435ZM511.041 249.118C569.584 249.118 594.746 283.02 594.746 352.103V368.095C594.746 414.151 583.449 443.575 558.286 458.288C588.584 473 600.396 506.902 600.396 554.238V590.699C600.396 659.781 571.124 696.882 514.636 696.882H425.795V249.118H511.041ZM507.446 495.388H482.283V632.916H514.636C533.636 632.916 543.908 622.042 543.908 588.779V549.76C543.908 508.181 533.123 495.388 507.446 495.388ZM509.5 313.084H482.283V431.423H504.365C525.42 431.423 538.258 419.909 538.258 384.088V359.141C538.258 327.157 529.528 313.084 509.5 313.084ZM856.593 529.93H910V589.419C910 661.061 881.242 702 825.781 702C770.319 702 741.561 661.061 741.561 589.419V356.581C741.561 284.939 770.319 244 825.782 244C881.242 244 910 284.939 910 356.581V400.078H856.593V352.103C856.593 320.12 845.295 307.967 827.321 307.967C809.347 307.967 798.049 320.12 798.049 352.103V593.896C798.049 625.88 809.347 637.394 827.321 637.394C845.295 637.394 856.593 625.88 856.593 593.896V529.93Z" />
<path d="M230.194 249.118L287.71 696.882H230.708L220.951 615.645H151.624L141.867 696.882H90L147.515 249.118H230.194ZM186.031 328.435L158.813 554.877H213.248L186.031 328.435ZM511.041 249.118C569.584 249.118 594.746 283.02 594.746 352.103V368.095C594.746 414.151 583.449 443.575 558.286 458.288C588.584 473 600.396 506.902 600.396 554.238V590.699C600.396 659.781 571.124 696.882 514.636 696.882H425.795V249.118H511.041ZM507.446 495.388H482.283V632.916H514.636C533.636 632.916 543.908 622.042 543.908 588.779V549.76C543.908 508.181 533.123 495.388 507.446 495.388ZM509.5 313.084H482.283V431.423H504.365C525.42 431.423 538.258 419.909 538.258 384.088V359.141C538.258 327.157 529.528 313.084 509.5 313.084ZM856.593 529.93H910V589.419C910 661.061 881.242 702 825.781 702C770.319 702 741.561 661.061 741.561 589.419V356.581C741.561 284.939 770.319 244 825.782 244C881.242 244 910 284.939 910 356.581V400.078H856.593V352.103C856.593 320.12 845.295 307.967 827.321 307.967C809.347 307.967 798.049 320.12 798.049 352.103V593.896C798.049 625.88 809.347 637.394 827.321 637.394C845.295 637.394 856.593 625.88 856.593 593.896V529.93Z"  />
<path fill-rule="evenodd" clip-rule="evenodd" d="M389.861 748.206L405.183 711.257C406.306 711.723 407.57 712 409 712H434.375V752H409C402.22 752 395.756 750.651 389.861 748.206ZM586.625 752V712H612C613.43 712 614.694 711.723 615.817 711.257L631.139 748.206C625.244 750.651 618.78 752 612 752H586.625ZM662 258.562H622V229C622 227.57 621.723 226.306 621.257 225.183L658.206 209.861C660.651 215.756 662 222.22 662 229V258.562ZM434.375 179H409C402.22 179 395.756 180.349 389.861 182.794L405.183 219.743C406.306 219.277 407.57 219 409 219H434.375V179ZM359 672.438H399V702C399 703.43 399.277 704.694 399.743 705.817L362.794 721.139C360.349 715.244 359 708.78 359 702V672.438ZM359 613.312H399V554.188H359V613.312ZM359 495.062H399V435.938H359V495.062ZM359 376.812H399V317.687H359V376.812ZM359 258.562H399V229C399 227.57 399.277 226.306 399.743 225.183L362.794 209.861C360.349 215.756 359 222.22 359 229V258.562ZM485.125 179V219H535.875V179H485.125ZM586.625 179V219H612C613.43 219 614.694 219.277 615.817 219.743L631.139 182.794C625.244 180.349 618.78 179 612 179H586.625ZM662 317.688H622V376.812H662V317.688ZM662 435.938H622V495.062H662V435.938ZM662 554.188H622V613.312H662V554.188ZM662 672.438H622V702C622 703.43 621.723 704.694 621.257 705.817L658.206 721.139C660.651 715.244 662 708.78 662 702V672.438ZM535.875 752V712H485.125V752H535.875Z"  />
</svg>
