<?xml version="1.0" standalone="no"?><!DOCTYPE svg PUBLIC "-//W3C//DTD SVG 1.1//EN" "http://www.w3.org/Graphics/SVG/1.1/DTD/svg11.dtd"><svg t="1685088817280" class="icon" viewBox="0 0 1024 1024" version="1.1" xmlns="http://www.w3.org/2000/svg" p-id="1613" xmlns:xlink="http://www.w3.org/1999/xlink" width="200" height="200">
<path d="M125 438L615 438V500L125 500L125 438Z"/>
<path fill-rule="evenodd" clip-rule="evenodd" d="M873.681 489.375L829.059 483.554C829.678 478.811 830 473.954 830 469C830 464.046 829.678 459.189 829.059 454.446L873.681 448.625C874.551 455.293 875 462.094 875 469C875 475.906 874.551 482.707 873.681 489.375ZM863.163 409.285L821.595 426.523C817.863 417.523 812.969 409.102 807.089 401.449L842.77 374.03C851.019 384.764 857.903 396.603 863.163 409.285ZM813.97 345.23L786.551 380.911C778.898 375.031 770.477 370.137 761.477 366.405L778.715 324.837C791.397 330.097 803.236 336.981 813.97 345.23ZM739.375 314.319L733.554 358.941C728.811 358.322 723.954 358 719 358C714.046 358 709.189 358.322 704.446 358.941L698.625 314.319C705.293 313.449 712.094 313 719 313C725.906 313 732.707 313.449 739.375 314.319ZM659.285 324.837L676.523 366.405C667.523 370.137 659.102 375.031 651.449 380.911L624.03 345.23C634.764 336.981 646.603 330.097 659.285 324.837ZM595.23 374.03L630.911 401.449C625.031 409.102 620.137 417.523 616.405 426.523L574.837 409.285C580.097 396.603 586.981 384.764 595.23 374.03ZM564.319 448.625C563.449 455.293 563 462.094 563 469C563 475.906 563.449 482.707 564.319 489.375L608.941 483.554C608.322 478.811 608 473.954 608 469C608 464.046 608.322 459.189 608.941 454.446L564.319 448.625ZM574.837 528.715L616.405 511.477C620.137 520.477 625.031 528.898 630.911 536.551L595.23 563.97C586.981 553.236 580.097 541.397 574.837 528.715ZM624.03 592.77L651.449 557.089C659.102 562.969 667.523 567.863 676.523 571.595L659.285 613.163C646.603 607.903 634.764 601.019 624.03 592.77ZM698.625 623.681L704.446 579.059C709.189 579.678 714.046 580 719 580C723.954 580 728.811 579.678 733.554 579.059L739.375 623.681C732.707 624.551 725.906 625 719 625C712.094 625 705.293 624.551 698.625 623.681ZM778.715 613.163L761.477 571.595C770.477 567.863 778.898 562.969 786.551 557.089L813.97 592.77C803.236 601.019 791.397 607.903 778.715 613.163ZM842.77 563.97L807.089 536.551C812.969 528.898 817.863 520.477 821.595 511.477L863.163 528.715C857.903 541.397 851.019 553.236 842.77 563.97Z" />
</svg>
