<?xml version="1.0" standalone="no"?><!DOCTYPE svg PUBLIC "-//W3C//DTD SVG 1.1//EN" "http://www.w3.org/Graphics/SVG/1.1/DTD/svg11.dtd"><svg t="1685088817280" class="icon" viewBox="0 0 1024 1024" version="1.1" xmlns="http://www.w3.org/2000/svg" p-id="1613" xmlns:xlink="http://www.w3.org/1999/xlink" width="200" height="200">
<path d="M810.354 426.886L705.544 373L810.354 319.114C820.835 314.429 826.076 300.371 818.215 291C812.975 281.629 797.253 276.943 786.772 283.971L681.962 337.857V230.086C684.582 218.371 674.101 209 661 209C647.899 209 637.418 218.371 637.418 230.086V337.857L532.608 283.971C524.747 276.943 509.025 281.629 503.785 291C498.544 300.371 501.165 314.429 511.646 319.114L616.456 373L511.646 426.886C501.165 431.571 495.924 445.629 503.785 455C509.025 462.029 516.886 464.371 524.747 464.371C527.367 464.371 532.608 464.371 535.228 462.029L640.038 408.143V515.914C637.418 527.629 647.899 537 661 537C674.101 537 684.582 527.629 684.582 515.914V408.143L789.392 462.029C792.013 464.371 797.253 464.371 799.873 464.371C807.734 464.371 815.595 459.686 820.835 455C823.456 445.629 820.835 431.571 810.354 426.886Z" />
<path fill-rule="evenodd" clip-rule="evenodd" d="M202.688 742.965L218 706.041C218 706.041 218 706.04 218 706.04C217.999 706.033 217.997 706.025 217.994 706.016C217.993 706.014 217.992 706.011 217.991 706.009C217.989 706.008 217.986 706.007 217.984 706.006C217.975 706.003 217.967 706.001 217.961 706C217.96 706 217.96 706 217.959 706L181.035 721.312C179.079 716.595 178 711.424 178 706V681H218V706H244V746H218C212.576 746 207.405 744.921 202.688 742.965ZM400 746V706H426V681H466V706C466 711.424 464.921 716.595 462.965 721.312L426.041 706C426.041 706 426.04 706 426.04 706C426.033 706.001 426.025 706.003 426.016 706.006C426.014 706.007 426.011 706.008 426.009 706.009C426.008 706.011 426.007 706.014 426.006 706.016C426.003 706.025 426.001 706.033 426 706.04C426 706.04 426 706.04 426 706.041L441.312 742.965C436.595 744.921 431.424 746 426 746H400ZM426 706.012C425.996 706.013 425.993 706.014 425.989 706.016L425.999 706.039L425.999 706.033C425.999 706.029 426 706.023 426 706.017C426 706.015 426 706.013 426 706.012ZM426.012 706C426.02 706 426.028 706 426.033 705.999C426.035 705.999 426.037 705.999 426.039 705.999L426.016 705.989C426.014 705.993 426.013 705.996 426.012 706ZM466 531H426V506H400V466H426C431.424 466 436.595 467.079 441.312 469.035L426 505.959C426 505.959 426 505.96 426 505.961C426.001 505.967 426.003 505.975 426.006 505.984C426.007 505.986 426.008 505.989 426.009 505.991C426.011 505.992 426.014 505.993 426.016 505.994C426.025 505.997 426.033 505.999 426.04 506C426.04 506 426.04 506 426.041 506L462.965 490.688C464.921 495.405 466 500.576 466 506V531ZM426.039 506.001C426.037 506.001 426.035 506.001 426.033 506.001C426.028 506 426.02 506 426.012 506C426.013 506.004 426.014 506.007 426.016 506.011L426.039 506.001ZM426 505.988C426 505.98 426 505.972 425.999 505.967C425.999 505.965 425.999 505.963 425.999 505.961L425.989 505.984C425.993 505.986 425.996 505.987 426 505.988ZM244 466H218C212.576 466 207.405 467.079 202.688 469.035L218 505.959C218 505.959 218 505.96 218 505.96C217.999 505.967 217.997 505.975 217.994 505.984C217.993 505.986 217.992 505.989 217.991 505.991C217.989 505.992 217.986 505.993 217.984 505.994C217.978 505.996 217.972 505.997 217.967 505.999C217.965 505.999 217.963 506 217.961 506C217.96 506 217.96 506 217.959 506L181.035 490.688C179.079 495.405 178 500.576 178 506V531H218V506L244 506V466ZM217.988 506C217.985 506 217.982 506 217.979 506C217.974 506 217.97 506.001 217.967 506.001C217.965 506.001 217.963 506.001 217.961 506.001L217.984 506.011C217.986 506.007 217.987 506.004 217.988 506ZM218 505.988C218.004 505.987 218.007 505.986 218.011 505.984L218.001 505.961C218.001 505.963 218.001 505.965 218.001 505.967C218 505.972 218 505.98 218 505.988ZM178 631H218V581H178V631ZM296 466V506H348V466H296ZM466 581H426V631H466V581ZM348 746V706H296V746H348ZM218 706.012C218 706.02 218 706.028 218.001 706.033C218.001 706.035 218.001 706.037 218.001 706.039L218.011 706.016C218.007 706.014 218.004 706.013 218 706.012ZM217.988 706C217.988 705.998 217.987 705.996 217.986 705.995L217.984 705.989L217.961 705.999C217.963 705.999 217.965 705.999 217.967 705.999C217.972 706 217.98 706 217.988 706Z" />
</svg>
