<?xml version="1.0" standalone="no"?><!DOCTYPE svg PUBLIC "-//W3C//DTD SVG 1.1//EN" "http://www.w3.org/Graphics/SVG/1.1/DTD/svg11.dtd"><svg t="1685088817280" class="icon" viewBox="0 0 1024 1024" version="1.1" xmlns="http://www.w3.org/2000/svg" p-id="1613" xmlns:xlink="http://www.w3.org/1999/xlink" width="200" height="200">
<path d="M385 438H875V500H385V438Z" />
<path fill-rule="evenodd" clip-rule="evenodd" d="M435.681 489.375L391.059 483.554C391.678 478.811 392 473.954 392 469C392 464.046 391.678 459.189 391.059 454.446L435.681 448.625C436.551 455.293 437 462.094 437 469C437 475.906 436.551 482.707 435.681 489.375ZM425.163 409.285L383.595 426.523C379.863 417.523 374.969 409.102 369.089 401.449L404.77 374.03C413.019 384.764 419.903 396.603 425.163 409.285ZM375.97 345.23L348.551 380.911C340.898 375.031 332.477 370.137 323.477 366.405L340.715 324.837C353.397 330.097 365.236 336.981 375.97 345.23ZM301.375 314.319L295.554 358.941C290.811 358.322 285.954 358 281 358C276.046 358 271.189 358.322 266.446 358.941L260.625 314.319C267.293 313.449 274.094 313 281 313C287.906 313 294.707 313.449 301.375 314.319ZM221.285 324.837L238.523 366.405C229.523 370.137 221.102 375.031 213.449 380.911L186.03 345.23C196.764 336.981 208.603 330.097 221.285 324.837ZM157.23 374.03L192.911 401.449C187.031 409.102 182.137 417.523 178.405 426.523L136.837 409.285C142.097 396.603 148.981 384.764 157.23 374.03ZM126.319 448.625C125.449 455.293 125 462.094 125 469C125 475.906 125.449 482.707 126.319 489.375L170.941 483.554C170.322 478.811 170 473.954 170 469C170 464.046 170.322 459.189 170.941 454.446L126.319 448.625ZM136.837 528.715L178.405 511.477C182.137 520.477 187.031 528.898 192.911 536.551L157.23 563.97C148.981 553.236 142.097 541.397 136.837 528.715ZM186.03 592.77L213.449 557.089C221.102 562.969 229.523 567.863 238.523 571.595L221.285 613.163C208.603 607.903 196.764 601.019 186.03 592.77ZM260.625 623.681L266.446 579.059C271.189 579.678 276.046 580 281 580C285.954 580 290.811 579.678 295.554 579.059L301.375 623.681C294.707 624.551 287.906 625 281 625C274.094 625 267.293 624.551 260.625 623.681ZM340.715 613.163L323.477 571.595C332.477 567.863 340.898 562.969 348.551 557.089L375.97 592.77C365.236 601.019 353.397 607.903 340.715 613.163ZM404.77 563.97L369.089 536.551C374.969 528.898 379.863 520.477 383.595 511.477L425.163 528.715C419.903 541.397 413.019 553.236 404.77 563.97Z" />
</svg>
