<?xml version="1.0" standalone="no"?><!DOCTYPE svg PUBLIC "-//W3C//DTD SVG 1.1//EN" "http://www.w3.org/Graphics/SVG/1.1/DTD/svg11.dtd"><svg t="1685088817280" class="icon" viewBox="0 0 1024 1024" version="1.1" xmlns="http://www.w3.org/2000/svg" p-id="1613" xmlns:xlink="http://www.w3.org/1999/xlink" width="200" height="200">
<path d="M811.967 440.841C843.5 440.841 869 418.459 869 390.782V380.873C869 353.195 843.5 330.814 811.967 330.814H698.289L759.41 254.615C777.513 232.063 771.284 200.797 745.59 184.908L736.246 179.099C710.552 163.21 674.93 168.677 656.828 191.23L544.707 330.814H177.98C146.446 330.814 120.947 353.195 120.947 380.873V390.782C120.947 418.459 146.446 440.841 177.98 440.841H456.529L373.217 544.546H176.033C144.5 544.546 119 566.928 119 594.605V604.514C119 632.192 144.5 654.573 176.033 654.573H285.039L220.22 735.385C202.117 757.937 208.346 789.203 234.04 805.092L243.384 810.901C269.078 826.79 304.699 821.323 322.802 798.77L438.621 654.573H810.02C841.554 654.573 867.053 632.192 867.053 604.514V594.605C867.053 566.928 841.554 544.546 810.02 544.546H526.799L610.111 440.841H811.967Z" />
</svg>
