<?xml version="1.0" standalone="no"?><!DOCTYPE svg PUBLIC "-//W3C//DTD SVG 1.1//EN" "http://www.w3.org/Graphics/SVG/1.1/DTD/svg11.dtd"><svg t="1685088817280" class="icon" viewBox="0 0 1024 1024" version="1.1" xmlns="http://www.w3.org/2000/svg" p-id="1613" xmlns:xlink="http://www.w3.org/1999/xlink" width="200" height="200">
<path d="M188.832 805.786H775.846C846.731 805.786 882.339 771.661 882.339 704.082V509.871C882.339 480.337 877.926 465.584 863.009 447.541L745.664 307.457C705.989 260.217 688.366 245.786 628.319 245.786H336.346C276.327 245.786 258.69 260.217 219.001 307.457L101.685 447.541C86.7669 465.598 82.3394 480.351 82.3394 509.871V704.082C82.3394 771.996 118.295 805.786 188.832 805.786ZM482.166 596.15C434.345 596.15 403.497 555.796 403.497 517.751V516.771C403.497 502.984 395.018 490.191 377.727 490.191H153.889C142.705 490.191 140.332 480.673 146.105 473.786L271.914 320.251C288.872 299.913 307.856 291.711 332.612 291.711H632.066C656.809 291.711 675.807 299.913 692.764 320.265L818.574 473.786C824.347 480.673 821.96 490.191 810.775 490.191H586.951C569.661 490.191 561.196 502.984 561.196 516.758V517.737C561.196 555.81 530.319 596.15 482.166 596.15ZM624.933 339.945H340.079C330.587 339.945 323.801 346.831 323.801 355.692C323.801 364.538 330.587 371.439 340.079 371.439H624.933C634.092 371.439 640.878 364.552 640.878 355.692C640.878 346.831 634.092 339.945 624.933 339.945ZM670.048 414.088H294.964C285.125 414.088 278.006 422.276 278.006 431.137C277.983 433.297 278.405 435.44 279.249 437.441C280.093 439.441 281.342 441.259 282.921 442.787C284.5 444.314 286.379 445.522 288.447 446.338C290.515 447.155 292.73 447.564 294.964 447.541H670.033C679.525 447.541 686.644 439.997 686.644 431.137C686.644 422.276 679.525 414.088 670.033 414.088H670.048ZM189.845 752.96C155.93 752.96 136.946 735.576 136.946 701.451V538.103H351.958C360.422 599.453 413.321 644.72 482.18 644.72C551.01 644.72 604.257 599.117 612.403 538.103H827.718V701.451C827.718 735.562 808.387 752.96 774.819 752.96H189.845Z" />
</svg>
