<?xml version="1.0" standalone="no"?><!DOCTYPE svg PUBLIC "-//W3C//DTD SVG 1.1//EN" "http://www.w3.org/Graphics/SVG/1.1/DTD/svg11.dtd"><svg t="1729211096899" class="icon" viewBox="0 0 1024 1024" version="1.1" xmlns="http://www.w3.org/2000/svg" p-id="4278" xmlns:xlink="http://www.w3.org/1999/xlink" width="200" height="200"><path d="M260.437333 252.16c24.917333 20.224 34.218667 18.688 80.981334 15.573333l440.832-26.453333c9.386667 0 1.578667-9.386667-1.536-10.922667l-73.216-52.906666c-14.037333-10.88-32.725333-23.381333-68.522667-20.266667l-426.88 31.146667c-15.530667 1.536-18.645333 9.344-12.458667 15.573333l60.8 48.213333z m26.453334 102.741333v463.786667c0 24.96 12.458667 34.261333 40.533333 32.725333l484.437333-28.032c28.032-1.536 31.146667-18.688 31.146667-38.954666V323.754667c0-20.224-7.765333-31.146667-24.917333-29.568l-506.282667 29.568c-18.688 1.536-24.917333 10.88-24.917333 31.146666z m478.293333 24.874667c3.072 13.994667 0 28.032-14.08 29.610667l-23.338667 4.650666v342.4c-20.266667 10.922667-38.954667 17.109333-54.528 17.109334-24.917333 0-31.146667-7.765333-49.834666-31.104l-152.704-239.701334v231.936l48.341333 10.88s0 27.989333-38.997333 27.989334l-107.477334 6.229333c-3.114667-6.229333 0-21.76 10.922667-24.874667l28.032-7.765333v-306.645333l-38.954667-3.114667c-3.114667-14.037333 4.693333-34.261333 26.496-35.84l115.285334-7.765333 158.890666 242.858666V421.802667l-40.533333-4.650667c-3.072-17.152 9.386667-29.568 24.96-31.146667l107.52-6.229333zM176.256 146.304l443.989333-32.682667c54.485333-4.693333 68.522667-1.536 102.826667 23.338667l141.696 99.626667c23.381333 17.109333 31.189333 21.76 31.189333 40.448v546.346666c0 34.261333-12.458667 54.485333-56.064 57.6l-515.626666 31.146667c-32.725333 1.536-48.298667-3.114667-65.450667-24.917333L154.453333 751.786667C135.765333 726.869333 128 708.224 128 686.378667V200.746667c0-27.989333 12.458667-51.328 48.298667-54.442667z" p-id="4279" data-spm-anchor-id="a313x.search_index.0.i0.52c13a81EJYJlj" class="selected"></path></svg>