<?xml version="1.0" standalone="no"?><!DOCTYPE svg PUBLIC "-//W3C//DTD SVG 1.1//EN" "http://www.w3.org/Graphics/SVG/1.1/DTD/svg11.dtd"><svg t="1741240066155" class="icon" viewBox="0 0 1170 1024" version="1.1" xmlns="http://www.w3.org/2000/svg" p-id="7491" xmlns:xlink="http://www.w3.org/1999/xlink" width="228.515625" height="200">
<path d="M349 870.014C351.936 869.985 354.847 870.737 357.567 872.227C360.287 873.718 362.763 875.918 364.853 878.702C366.943 881.485 368.605 884.798 369.746 888.45C370.887 892.102 371.483 896.022 371.5 899.985C371.487 903.952 370.894 907.876 369.755 911.533C368.617 915.19 366.955 918.508 364.864 921.296C362.774 924.085 360.297 926.289 357.575 927.782C354.852 929.275 351.938 930.029 349 929.999H206.233C160.554 929.999 116.746 905.502 84.4462 861.898C52.1463 818.293 34.0002 759.152 34 697.486C34.0172 693.523 34.6132 689.603 35.7537 685.951C36.8942 682.299 38.5569 678.986 40.6467 676.202C42.7365 673.418 45.2124 671.218 47.9326 669.727C50.6529 668.237 53.5642 667.485 56.5 667.514C59.4357 667.485 62.3469 668.237 65.0671 669.727C67.7874 671.218 70.2632 673.418 72.353 676.202C74.4428 678.985 76.1055 682.298 77.2461 685.95C78.3866 689.602 78.9826 693.521 79 697.485C78.9956 720.139 82.2972 742.574 88.7161 763.506C95.135 784.438 104.545 803.458 116.41 819.479C128.275 835.5 142.361 848.21 157.865 856.881C173.368 865.552 189.985 870.014 206.767 870.014H349ZM206.233 30.0008H349C351.938 29.9711 354.852 30.7246 357.575 32.218C360.297 33.7114 362.774 35.9154 364.864 38.7036C366.955 41.4919 368.617 44.8097 369.755 48.4667C370.894 52.1237 371.487 56.0482 371.5 60.0151C371.483 63.9783 370.887 67.8981 369.746 71.55C368.605 75.202 366.943 78.5146 364.853 81.2982C362.763 84.0818 360.287 86.2819 357.567 87.7725C354.847 89.2632 351.936 90.0152 349 89.9855L205.367 91.0201C171.796 91.2581 139.661 109.425 115.983 141.552C92.3042 173.678 79.0081 217.151 79 262.471C78.987 266.438 78.3942 270.363 77.2556 274.02C76.117 277.677 74.455 280.995 72.3647 283.784C70.2745 286.572 67.7972 288.776 65.0748 290.27C62.3524 291.763 59.4385 292.517 56.5 292.487C53.5642 292.517 50.6529 291.764 47.9326 290.274C45.2124 288.783 42.7365 286.583 40.6467 283.799C38.5569 281.015 36.8942 277.703 35.7537 274.051C34.6132 270.398 34.0172 266.479 34 262.515C34 200.849 52.1459 141.708 84.4459 98.1027C116.746 54.4978 160.554 30.0008 206.233 30.0008ZM889 697.485C889.017 693.521 889.613 689.602 890.754 685.95C891.895 682.298 893.557 678.985 895.647 676.202C897.737 673.418 900.213 671.218 902.933 669.727C905.653 668.237 908.564 667.485 911.5 667.514C914.436 667.485 917.347 668.237 920.067 669.727C922.787 671.218 925.263 673.418 927.353 676.202C929.443 678.985 931.105 682.298 932.246 685.95C933.387 689.602 933.983 693.521 934 697.485C934 759.151 915.854 818.292 883.554 861.897C851.254 905.502 807.446 929.999 761.767 929.999H619C616.062 930.029 613.148 929.275 610.425 927.782C607.703 926.289 605.226 924.085 603.136 921.296C601.045 918.508 599.383 915.19 598.245 911.533C597.106 907.876 596.513 903.952 596.5 899.985C596.517 896.022 597.113 892.102 598.254 888.45C599.395 884.798 601.057 881.485 603.147 878.702C605.237 875.918 607.713 873.718 610.433 872.227C613.153 870.737 616.064 869.985 619 870.014H761.233C778.015 870.014 794.632 865.552 810.135 856.881C825.639 848.21 839.725 835.5 851.59 819.479C863.454 803.458 872.865 784.438 879.284 763.506C885.703 742.574 889.004 720.139 889 697.485ZM596.5 60.0151C596.513 56.0482 597.106 52.1237 598.245 48.4667C599.383 44.8097 601.045 41.4919 603.136 38.7036C605.226 35.9154 607.703 33.7114 610.425 32.218C613.148 30.7246 616.062 29.9711 619 30.0008H761.767C807.446 30.0008 851.254 54.4978 883.554 98.1027C915.854 141.708 934 200.849 934 262.515C933.983 266.478 933.387 270.398 932.246 274.05C931.105 277.702 929.443 281.015 927.353 283.798C925.263 286.582 922.787 288.782 920.067 290.273C917.347 291.763 914.436 292.515 911.5 292.486C908.564 292.515 905.653 291.763 902.933 290.273C900.213 288.782 897.737 286.582 895.647 283.798C893.557 281.015 891.895 277.702 890.754 274.05C889.613 270.398 889.017 266.478 889 262.515C889 168.151 832.533 91.5149 762.634 91.0201L619 89.9867C616.064 90.0164 613.153 89.2643 610.433 87.7736C607.712 86.2829 605.237 84.0827 603.147 81.2989C601.057 78.5152 599.394 75.2025 598.254 71.5504C597.113 67.8983 596.517 63.9784 596.5 60.0151ZM263.133 655.319C194.667 655.319 146.766 584.31 146.766 482.701C146.766 377.85 195.967 304.681 266.466 304.681C335.033 304.681 382.833 375.465 382.833 476.85C382.833 600.15 322.734 655.319 263.133 655.319ZM206.266 481.755C206.266 531.435 224.533 585.84 264.799 585.84C305.065 585.84 323.699 531.929 323.699 478.605C323.699 428.34 305.399 374.07 265.166 374.07C221.733 374.07 206.266 432.075 206.266 481.755ZM597.266 563.925L601.599 586.066L607.666 617.115L610.466 631.74L600.266 638.535C584.899 648.885 560.032 654.96 533.932 654.96C457.098 654.96 407.432 587.46 407.432 482.701C407.432 377.941 462.099 304.681 540.332 304.681C574.699 304.681 594.132 315.571 600.899 320.295L611.266 327.315L607.999 342.075L600.899 374.025L596.133 395.265L581.199 385.68C574.966 381.54 561.6 374.88 541.399 374.88C494.632 374.88 466.699 415.649 466.699 481.305C466.699 546.915 493.499 584.535 540.065 584.535C555.466 584.535 571.799 580.44 581.899 573.869L597.299 563.925H597.266ZM768.599 650.506L764.533 641.144C760.332 631.425 755.766 610.319 747.766 563.205C741.766 526.304 733.333 519.96 715.932 519.015H702.333V650.414H644.833V317.1L656.099 314.04C671.465 309.855 693.532 307.38 715.232 307.38C750.299 307.38 773.499 316.516 790.399 336.811C804.966 354.045 813.066 379.47 813.066 408.495C813.204 424.153 810.525 439.622 805.259 453.574C799.993 467.526 792.297 479.544 782.832 488.595C792.333 501.78 799.099 520.409 803.233 544.215C808.232 572.79 815.066 612.075 819.466 622.83L830.633 650.504L768.599 650.506ZM702.399 375.959V452.009H718.399C741.699 452.009 755.666 437.474 755.666 413.084C755.566 402.734 755.566 375.599 717.332 375.014C711.366 375.104 706.333 375.464 702.399 375.914V375.959Z" />
</svg>
