<?xml version="1.0" standalone="no"?><!DOCTYPE svg PUBLIC "-//W3C//DTD SVG 1.1//EN" "http://www.w3.org/Graphics/SVG/1.1/DTD/svg11.dtd"><svg t="1700466254708" class="icon" viewBox="0 0 1024 1024" version="1.1" xmlns="http://www.w3.org/2000/svg" p-id="19513" xmlns:xlink="http://www.w3.org/1999/xlink" width="200" height="200">
<path fill-rule="evenodd" clip-rule="evenodd" d="M129.954 129.052C133.021 133.476 135.304 138.561 136.671 144.015L190.156 350.882L243.591 144.015C246.417 133.08 252.868 123.896 261.526 118.483C270.185 113.07 280.341 111.871 289.76 115.151C299.18 118.431 307.091 125.92 311.754 135.971C316.417 146.022 317.45 157.812 314.624 168.747L228.861 500.653L234.956 524.246L131.311 578.551L151.451 500.653L65.6382 168.69C64.1999 163.261 63.7015 157.556 64.1715 151.903C64.6415 146.25 66.0708 140.76 68.3768 135.752C70.6829 130.743 73.8201 126.313 77.6078 122.718C81.3954 119.124 85.7585 116.435 90.4455 114.806C95.1325 113.178 100.051 112.643 104.917 113.232C109.783 113.821 114.5 115.522 118.797 118.237C123.095 120.952 126.886 124.628 129.954 129.052ZM80.6679 774.428L65.6382 832.559C64.2393 837.974 63.7727 843.655 64.2652 849.278C64.7576 854.902 66.1995 860.358 68.5083 865.335C70.8171 870.312 73.9478 874.712 77.7215 878.285C81.4952 881.857 85.8381 884.531 90.5022 886.155C95.1663 887.779 100.06 888.321 104.905 887.749C109.749 887.177 114.449 885.504 118.736 882.823C123.023 880.143 126.814 876.509 129.891 872.128C132.968 867.747 135.272 862.706 136.671 857.291L170.228 727.503L80.6679 774.428ZM205.317 709.118L243.591 857.291C246.467 868.147 252.923 877.243 261.552 882.596C270.18 887.949 280.282 889.126 289.655 885.871C299.028 882.615 306.912 875.19 311.589 865.214C316.266 855.239 317.357 843.522 314.624 832.616L273.49 673.398L205.317 709.118ZM360.645 627.733V672.804C360.645 724.563 371.223 776.381 391.985 816.664C412.548 856.431 445.42 887.992 486.695 887.992C528.02 887.992 560.842 856.488 581.406 816.664C602.216 776.381 612.745 724.563 612.745 672.804V495.645L538.598 534.495V672.804C538.598 712.283 530.393 748.091 517.837 772.364C505.034 797.096 492.627 801.916 486.695 801.916C480.763 801.916 468.406 797.096 455.553 772.364C443.047 748.091 434.792 712.283 434.792 672.804V588.884L360.645 627.733ZM538.598 365.153V328.503C538.598 288.965 530.393 253.216 517.837 228.942C505.034 204.153 492.627 199.39 486.695 199.39C480.763 199.39 468.406 204.153 455.553 228.942C443.047 253.216 434.792 288.965 434.792 328.503V419.542L360.645 458.391V328.503C360.645 276.685 371.174 224.925 391.985 184.642C412.597 144.818 445.42 113.315 486.695 113.315C527.97 113.315 560.842 144.818 581.406 184.642C601.922 224.356 612.446 275.225 612.739 326.306L538.598 365.153ZM686.892 456.796V844.954C686.892 856.368 690.798 867.315 697.751 875.386C704.704 883.457 714.134 887.992 723.966 887.992C733.799 887.992 743.228 883.457 750.181 875.386C757.134 867.315 761.04 856.368 761.04 844.954V586.384L868.108 862.628C872.146 873.038 879.581 881.159 888.777 885.206C897.973 889.252 908.177 888.892 917.144 884.204C921.584 881.883 925.587 878.57 928.924 874.453C932.261 870.336 934.867 865.497 936.593 860.211C940.078 849.535 939.768 837.69 935.73 827.28L825.399 542.715C860.842 537.092 889.166 508.113 907.653 472.363C928.464 432.137 938.993 380.32 938.993 328.503C938.993 327.241 938.986 325.979 938.974 324.718L862.484 364.794C859.192 389.598 852.651 411.502 844.084 428.063C831.232 452.853 818.874 457.615 812.943 457.615H767.614H761.04V417.946L686.892 456.796ZM761.04 248.604L686.892 287.454V156.352C686.892 144.938 690.798 133.991 697.751 125.92C704.704 117.849 714.134 113.315 723.966 113.315H812.943C850.707 113.315 881.436 139.686 902.141 174.674L832.425 211.202C824.173 201.68 817.031 199.39 812.943 199.39H761.04V248.604Z" />
</svg>
