<?xml version="1.0" standalone="no"?><!DOCTYPE svg PUBLIC "-//W3C//DTD SVG 1.1//EN" "http://www.w3.org/Graphics/SVG/1.1/DTD/svg11.dtd"><svg t="1700466254708" class="icon" viewBox="0 0 1024 1024" version="1.1" xmlns="http://www.w3.org/2000/svg" p-id="19513" xmlns:xlink="http://www.w3.org/1999/xlink" width="200" height="200">
<path d="M142.671 151.015C141.304 145.561 139.021 140.476 135.954 136.052C132.886 131.628 129.095 127.952 124.797 125.237C120.5 122.522 115.783 120.821 110.917 120.232C106.051 119.643 101.133 120.178 96.4455 121.806C91.7585 123.435 87.3954 126.124 83.6078 129.718C79.8201 133.313 76.6829 137.743 74.3768 142.752C72.0708 147.76 70.6415 153.25 70.1715 158.903C69.7015 164.556 70.1999 170.261 71.6382 175.69L157.451 507.653L71.6382 839.559C70.2393 844.974 69.7727 850.655 70.2652 856.278C70.7576 861.902 72.1995 867.358 74.5083 872.335C76.8171 877.312 79.9478 881.712 83.7215 885.285C87.4952 888.857 91.8381 891.531 96.5022 893.155C101.166 894.779 106.06 895.321 110.905 894.749C115.749 894.177 120.449 892.504 124.736 889.823C129.023 887.143 132.814 883.509 135.891 879.128C138.968 874.747 141.272 869.706 142.671 864.291L196.156 657.424L249.591 864.291C252.467 875.147 258.923 884.243 267.552 889.596C276.18 894.949 286.282 896.126 295.655 892.871C305.028 889.615 312.912 882.19 317.589 872.214C322.266 862.239 323.357 850.522 320.624 839.616L234.861 507.653L320.624 175.747C323.45 164.812 322.417 153.022 317.754 142.971C313.091 132.92 305.18 125.431 295.76 122.151C286.341 118.871 276.185 120.07 267.526 125.483C258.868 130.896 252.417 140.08 249.591 151.015L196.156 357.882L142.671 151.015ZM397.985 191.642C418.597 151.818 451.42 120.315 492.695 120.315C533.97 120.315 566.842 151.818 587.406 191.642C608.216 231.925 618.745 283.685 618.745 335.503V679.804C618.745 731.563 608.216 783.381 587.406 823.664C566.842 863.488 534.02 894.992 492.695 894.992C451.42 894.992 418.548 863.431 397.985 823.664C377.223 783.381 366.645 731.563 366.645 679.804V335.503C366.645 283.685 377.174 231.925 397.985 191.642ZM492.695 206.39C486.763 206.39 474.406 211.153 461.553 235.942C449.047 260.216 440.792 295.965 440.792 335.503V679.804C440.792 719.283 449.047 755.091 461.553 779.364C474.406 804.096 486.763 808.916 492.695 808.916C498.627 808.916 511.034 804.096 523.837 779.364C536.393 755.091 544.598 719.283 544.598 679.804V335.503C544.598 295.965 536.393 260.216 523.837 235.942C511.034 211.153 498.627 206.39 492.695 206.39ZM692.893 163.352C692.893 151.938 696.798 140.991 703.751 132.92C710.704 124.849 720.134 120.315 729.966 120.315H818.943C860.218 120.315 893.09 151.818 913.653 191.642C934.414 231.925 944.993 283.685 944.993 335.503C944.993 387.32 934.464 439.137 913.653 479.363C895.166 515.113 866.842 544.092 831.399 549.715L941.73 834.28C945.768 844.69 946.078 856.535 942.593 867.211C940.867 872.497 938.261 877.336 934.924 881.453C931.587 885.57 927.584 888.883 923.144 891.204C914.177 895.892 903.973 896.252 894.777 892.206C885.581 888.159 878.146 880.038 874.108 869.628L767.04 593.384V851.954C767.04 863.368 763.134 874.315 756.181 882.386C749.228 890.457 739.799 894.992 729.966 894.992C720.134 894.992 710.704 890.457 703.751 882.386C696.798 874.315 692.893 863.368 692.893 851.954V163.352ZM773.614 464.615H818.943C824.874 464.615 837.232 459.853 850.084 435.063C862.64 410.79 870.846 375.04 870.846 335.503C870.846 295.965 862.64 260.216 850.084 235.942C837.232 211.21 824.874 206.39 818.943 206.39H767.04V464.615H773.614Z"/>
</svg>
