<?xml version="1.0" standalone="no"?><!DOCTYPE svg PUBLIC "-//W3C//DTD SVG 1.1//EN" "http://www.w3.org/Graphics/SVG/1.1/DTD/svg11.dtd"><svg t="1706575483084" class="icon" viewBox="0 0 1024 1024" version="1.1" xmlns="http://www.w3.org/2000/svg" p-id="10191" xmlns:xlink="http://www.w3.org/1999/xlink" width="200" height="200"><path d="M960.8 287.2v-4.8L677.6 128.8 468.8 249.6c-8.8 4-14.4 12-15.2 20.8v110.4c2.4 8 8 14.4 14.4 19.2 3.2-47.2 55.2-76 55.2-76l152.8-88 200 108.8-280.8 164.8C544 536 483.2 536 432 509.6L136.8 336l294.4-173.6c24.8-13.6 52.8-20.8 81.6-20V35.2c-28 0-55.2 7.2-80 20.8l-352 206.4c-8 3.2-13.6 9.6-16 18.4v109.6c0.8 9.6 7.2 18.4 16 21.6L432 616.8c51.2 26.4 112 26.4 163.2 0l352-206.4c8.8-4 14.4-12 15.2-20.8V282.4c-0.8 1.6-1.6 3.2-1.6 4.8z"   p-id="10192"></path><path d="M79.2 586.4l352 206.4c51.2 26.4 112 26.4 163.2 0l352-206.4c8-4 13.6-12 14.4-20.8V456.8c-0.8 8.8-5.6 16.8-13.6 20.8l-352 206.4c-51.2 26.4-112 26.4-163.2 0L80 477.6c-8.8-4-14.4-12-15.2-20.8v108.8c1.6 8.8 6.4 16.8 14.4 20.8z"   p-id="10193"></path><path d="M946.4 646.4l-352 206.4c-51.2 26.4-112 26.4-163.2 0L80 646.4c-8-4-14.4-12-15.2-20.8v108c0.8 8.8 5.6 16.8 13.6 20.8l352 206.4c51.2 26.4 112 26.4 163.2 0l352-206.4c8-4 13.6-12 14.4-20.8V625.6c0 8.8-5.6 16.8-13.6 20.8z"  p-id="10194"></path></svg>