<?xml version="1.0" standalone="no"?><!DOCTYPE svg PUBLIC "-//W3C//DTD SVG 1.1//EN" "http://www.w3.org/Graphics/SVG/1.1/DTD/svg11.dtd"><svg t="1684747449897" class="icon" viewBox="0 0 1024 1024" version="1.1" xmlns="http://www.w3.org/2000/svg" p-id="12056" xmlns:xlink="http://www.w3.org/1999/xlink" width="200" height="200"><path d="M929.28 456.96a224 224 0 0 0-240.298667-306.261333 224 224 0 0 0-385.28 55.04A224 224 0 0 0 158.72 567.04a224 224 0 0 0 149.290667 300.970667c18.986667 5.205333 38.613333 7.893333 58.325333 7.978666 10.965333 0 21.888-0.853333 32.682667-2.432a224 224 0 0 0 385.28-55.125333 224 224 0 0 0 144.981333-361.258667v-0.213333z m-165.888-239.232a160 160 0 0 1 114.261333 192c-3.84-2.56-7.68-4.949333-11.648-7.253333L688 299.52a32 32 0 0 0-32 0L480 401.152V327.253333l162.005333-93.525333a159.018667 159.018667 0 0 1 121.386667-16z m-155.392 331.221333l-64 36.992-64-36.992v-73.898666l64-36.992 64 36.992v73.898666z m-256-260.949333a160 160 0 0 1 270.08-116.010667c-3.968 2.048-7.978667 4.010667-11.946667 6.485334l-178.133333 102.613333a32 32 0 0 0-16 27.690667V512l-64-36.949333V288z m-156.586667 59.733333a159.018667 159.018667 0 0 1 93.056-73.472 223.530667 223.530667 0 0 0-0.469333 13.738667v205.525333a32 32 0 0 0 16 27.733334l176 101.546666-64 37.205334-162.005333-93.738667A160 160 0 0 1 195.456 347.733333z m129.194667 458.538667a160 160 0 0 1-114.261333-192c3.84 2.56 7.68 4.949333 11.648 7.253333l178.005333 102.954667a32 32 0 0 0 32 0l176-101.632v73.898667l-162.005333 93.525333a159.104 159.104 0 0 1-121.386667 16z m411.392-70.272a160 160 0 0 1-270.08 116.181333c4.010667-2.005333 7.978667-4.181333 11.989333-6.485333l178.090667-102.784a32 32 0 0 0 16-27.690667V512l64 36.949333v187.050667z m156.586667-59.733333a159.018667 159.018667 0 0 1-93.056 73.472 222.293333 222.293333 0 0 0 0.426666-13.738667v-205.525333a32 32 0 0 0-15.957333-27.733334l-176-101.546666 64-36.992 162.005333 93.525333a160 160 0 0 1 58.538667 218.538667z" p-id="4463"></path></svg>