<?xml version="1.0" standalone="no"?><!DOCTYPE svg PUBLIC "-//W3C//DTD SVG 1.1//EN" "http://www.w3.org/Graphics/SVG/1.1/DTD/svg11.dtd"><svg t="1734567789147" class="icon" viewBox="0 0 1024 1024" version="1.1" xmlns="http://www.w3.org/2000/svg" p-id="5192" xmlns:xlink="http://www.w3.org/1999/xlink" width="200" height="200"><path d="M55.1936 885.78048H972.8v51.85536H55.1936v-51.85536zM51.2 648.22272l115.03616-71.97696 213.44256 104.74496 234.3936-343.11168L853.46304 516.4032l115.36384-4.98688v31.92832l-129.32096 5.98016L623.06304 389.7344 390.64576 726.85568 169.22624 617.14432 51.2 688.95744v-40.73472z m808.61184-180.96128l53.49376-2.31424V286.17728a28.28288 28.28288 0 0 0-28.28288-28.27264h-83.07712a28.28288 28.28288 0 0 0-28.28288 28.27264v116.82816l86.14912 64.256z m-32.54272 133.56032l-53.6064-39.53664v276.6336H913.3056V596.81792l-86.03648 4.00384zM603.9552 276.44928l83.90656 62.58688V114.62656a28.2624 28.2624 0 0 0-28.27264-28.27264H576.512a28.27264 28.27264 0 0 0-28.27264 28.27264v243.39456l55.71584-81.57184z m23.20384 176.81408l-78.91968 114.47296v270.17216h139.64288v-339.8656l-60.7232-44.77952zM397.58848 786.2784l-72.76544-36.05504v87.68512h139.64288V689.28512l-66.87744 96.99328zM366.60224 623.9232l97.86368-143.2576v-18.944a28.2624 28.2624 0 0 0-28.27264-28.27264h-83.0976a28.27264 28.27264 0 0 0-28.27264 28.27264v141.69088l41.7792 20.51072zM161.4848 523.264l78.56128 38.57408V360.98048a28.2624 28.2624 0 0 0-28.27264-28.27264h-83.08736a28.27264 28.27264 0 0 0-28.27264 28.27264v200.4992L161.4848 523.264z m6.22592 149.11488L100.41344 713.3184v119.73632c0 1.65888 0.1536 3.26656 0.41984 4.84352H239.616c0.26624-1.55648 0.41984-3.18464 0.41984-4.84352V708.21888l-72.32512-35.84z" p-id="5193"></path></svg>