<?xml version="1.0" standalone="no"?><!DOCTYPE svg PUBLIC "-//W3C//DTD SVG 1.1//EN" "http://www.w3.org/Graphics/SVG/1.1/DTD/svg11.dtd"><svg t="1731938348219" class="icon" viewBox="0 0 1024 1024" version="1.1" xmlns="http://www.w3.org/2000/svg" p-id="932" xmlns:xlink="http://www.w3.org/1999/xlink" width="200" height="200">
<path d="M275.625 337.12H704.375C721.28 337.12 735 323.4 735 306.495C735 289.59 721.28 275.87 704.375 275.87H275.625C258.72 275.87 245 289.59 245 306.495C245 323.4 258.72 337.12 275.625 337.12ZM704.375 459.13H275.625C258.72 459.13 245 472.85 245 489.755C245 506.66 258.72 520.38 275.625 520.38H704.375C721.28 520.38 735 506.66 735 489.755C735 472.85 721.28 459.13 704.375 459.13ZM704.375 642.88H275.625C258.72 642.88 245 656.6 245 673.505C245 690.41 258.72 704.13 275.625 704.13H704.375C721.28 704.13 735 690.41 735 673.505C735 656.6 721.28 642.88 704.375 642.88ZM400.697 153.125H553.822C579.211 153.125 599.76 132.545 599.76 107.188C599.76 81.83 579.18 61.25 553.822 61.25H400.697C375.34 61.25 354.76 81.83 354.76 107.188C354.76 132.545 375.34 153.125 400.697 153.125ZM796.25 91.875H765.625C748.72 91.875 735 105.595 735 122.5C735 139.405 748.72 153.125 765.625 153.125H796.25C830.029 153.125 857.5 180.596 857.5 214.375V796.25C857.5 830.029 830.029 857.5 796.25 857.5H183.75C149.971 857.5 122.5 830.029 122.5 796.25V214.375C122.5 180.596 149.971 153.125 183.75 153.125H214.375C231.28 153.125 245 139.405 245 122.5C245 105.595 231.28 91.875 214.375 91.875H183.75C116.099 91.875 61.25 146.724 61.25 214.375V796.25C61.25 863.901 116.099 918.75 183.75 918.75H796.25C863.901 918.75 918.75 863.901 918.75 796.25V214.375C918.75 146.724 863.901 91.875 796.25 91.875Z"/>
</svg>
