<?xml version="1.0" standalone="no"?><!DOCTYPE svg PUBLIC "-//W3C//DTD SVG 1.1//EN" "http://www.w3.org/Graphics/SVG/1.1/DTD/svg11.dtd"><svg t="1741240066155" class="icon" viewBox="0 0 1170 1024" version="1.1" xmlns="http://www.w3.org/2000/svg" p-id="7491" xmlns:xlink="http://www.w3.org/1999/xlink" width="228.515625" height="200">
<path fill-rule="evenodd" clip-rule="evenodd" d="M240.912 179.666C240.912 159.37 257.366 142.916 277.662 142.916H832.993C853.293 142.916 869.743 159.37 869.743 179.666C869.743 199.963 853.293 216.416 832.993 216.416H277.662C257.366 216.416 240.912 199.963 240.912 179.666Z"/>
<path fill-rule="evenodd" clip-rule="evenodd" d="M106.162 179.666C106.162 157.115 124.444 138.833 146.995 138.833H148.629C171.18 138.833 189.462 157.115 189.462 179.666C189.462 202.218 171.18 220.5 148.629 220.5H146.995C124.444 220.5 106.162 202.218 106.162 179.666Z"/>
<path fill-rule="evenodd" clip-rule="evenodd" d="M106.162 800.331C106.162 777.784 124.444 759.5 146.995 759.5H148.629C171.18 759.5 189.462 777.784 189.462 800.331C189.462 822.885 171.18 841.169 148.629 841.169H146.995C124.444 841.169 106.162 822.885 106.162 800.331Z" />
<path fill-rule="evenodd" clip-rule="evenodd" d="M236.829 490C236.829 467.448 255.111 449.166 277.662 449.166H279.296C301.847 449.166 320.129 467.448 320.129 490C320.129 512.551 301.847 530.833 279.296 530.833H277.662C255.111 530.833 236.829 512.551 236.829 490Z"/>
<path fill-rule="evenodd" clip-rule="evenodd" d="M371.579 490C371.579 469.704 388.032 453.25 408.329 453.25H832.993C853.293 453.25 869.743 469.704 869.743 490C869.743 510.297 853.293 526.75 832.993 526.75H408.329C388.032 526.75 371.579 510.297 371.579 490Z"/>
<path fill-rule="evenodd" clip-rule="evenodd" d="M240.912 800.331C240.912 780.038 257.366 763.581 277.662 763.581H832.993C853.293 763.581 869.743 780.038 869.743 800.331C869.743 820.631 853.293 837.081 832.993 837.081H277.662C257.366 837.081 240.912 820.631 240.912 800.331Z"/>
</svg>
