<?xml version="1.0" standalone="no"?><!DOCTYPE svg PUBLIC "-//W3C//DTD SVG 1.1//EN" "http://www.w3.org/Graphics/SVG/1.1/DTD/svg11.dtd"><svg t="1718793462894" class="icon" viewBox="0 0 1024 1024" version="1.1" xmlns="http://www.w3.org/2000/svg" p-id="20630" xmlns:xlink="http://www.w3.org/1999/xlink" width="200" height="200"><path d="M805.05 756.81H687.83c-19.86 0-35.88-15.69-35.88-35.13 0-19.44 16.03-35.13 35.88-35.13h117.22c19.86 0 35.88 15.69 35.88 35.13 0 19.44-16.03 35.13-35.88 35.13z m11.96-240.07H350.53c-19.86 0-35.88-15.69-35.88-35.13 0-19.44 16.03-35.13 35.88-35.13h466.48c19.86 0 35.88 15.69 35.88 35.13 0 19.44-16.03 35.13-35.88 35.13zM178.88 712.19c-55.74 0-101.07-44.38-101.07-99.07V257.24c0-54.57 45.33-99.07 101.07-99.07h517.79c55.74 0 101.19 44.38 101.19 99.07 0 19.44-16.03 35.13-35.88 35.13-19.86 0-35.88-15.69-35.88-35.13 0-15.81-13.16-28.81-29.42-28.81h-517.8c-16.15 0-29.3 12.88-29.3 28.81v355.88c0 15.81 13.16 28.81 29.3 28.81 19.86 0 35.88 15.69 35.88 35.13 0.01 19.44-16.02 35.13-35.88 35.13z m154.9-330c-19.74 0-35.88 15.81-35.88 35.13v343.12c0 19.32 16.15 35.13 35.88 35.13h504.76c19.74 0 35.88-15.81 35.88-35.13V417.32c0-19.32-16.15-35.13-35.88-35.13H333.78z m504.76 483.64H333.78c-59.33 0-107.65-47.31-107.65-105.39V417.32c0-58.08 48.32-105.39 107.65-105.39h504.76c59.33 0 107.65 47.31 107.65 105.39v343.12c0 58.08-48.33 105.39-107.65 105.39z" p-id="20631"></path></svg>