<?xml version="1.0" standalone="no"?><!DOCTYPE svg PUBLIC "-//W3C//DTD SVG 1.1//EN" "http://www.w3.org/Graphics/SVG/1.1/DTD/svg11.dtd"><svg t="1731938348219" class="icon" viewBox="0 0 1024 1024" version="1.1" xmlns="http://www.w3.org/2000/svg" p-id="932" xmlns:xlink="http://www.w3.org/1999/xlink" width="200" height="200">
<path d="M876.845 938.634H109.315C88.8313 938.634 69.5522 930.155 56.2987 914.408C45.4544 901.084 40.6348 884.125 43.0447 867.167C43.0447 851.42 49.0692 776.319 116.545 707.275C193.659 628.54 320.174 588.566 492.477 588.566C664.78 588.566 791.295 628.54 868.409 707.275C937.09 777.53 941.909 853.843 941.909 868.379C944.319 886.547 938.295 903.507 927.451 916.83C915.402 931.366 897.328 938.634 876.845 938.634ZM492.477 675.603C335.839 675.603 246.316 696.521 180.046 764.354C121.005 823.708 110.691 863.026 110.691 865.448V869.563C111.866 873.224 110.691 870.738 114.217 873.089C119.507 873.089 117.625 873.089 122.446 873.089L873.597 876.616C878.417 876.616 878.858 876.099 880.063 873.677C881.267 872.465 880.063 874.265 880.063 871.326V866.624C880.063 864.201 863.283 823.708 804.242 764.354C737.972 697.733 647.91 675.603 492.477 675.603ZM493.682 571.608C346.683 571.608 228.601 451.689 228.601 305.121C228.601 158.553 347.887 38.6338 493.682 38.6338H732.255C746.714 38.6338 759.967 50.7463 759.967 66.4941V306.333C758.762 451.689 639.476 571.608 493.682 571.608ZM492.477 112.534C375.601 112.534 319.932 173.75 319.932 290.036C319.932 407.533 378.01 481.056 493.682 481.056C609.353 481.056 683.165 422.619 683.165 306.333V112.534H492.477Z" fill="black"/>
<path d="M368.531 305.567C368.531 324.714 389.626 339.444 412.639 339.444C437.569 339.444 456.747 324.714 456.747 305.567V230.446C456.747 211.299 437.569 196.569 412.639 196.569C387.708 196.569 368.531 212.771 368.531 230.446V305.567Z" fill="black"/>
<path d="M583.173 339.444C560.161 339.444 539.065 324.714 539.065 305.567V230.446C539.065 212.771 558.243 196.569 583.173 196.569C608.105 196.569 627.281 211.299 627.281 230.446V305.567C627.281 324.714 608.105 339.444 583.173 339.444Z" fill="black"/>
</svg>
