<?xml version="1.0" standalone="no"?><!DOCTYPE svg PUBLIC "-//W3C//DTD SVG 1.1//EN" "http://www.w3.org/Graphics/SVG/1.1/DTD/svg11.dtd"><svg t="1706575723018" class="icon" viewBox="0 0 1216 1024" version="1.1" xmlns="http://www.w3.org/2000/svg" p-id="17891" xmlns:xlink="http://www.w3.org/1999/xlink" width="288" height="200"><path d="M908.672 108.544l-147.456 84.16-179.712-102.592-179.712 103.488-147.456-85.056L91.52 202.56h-1.536v190.72l125.952 72.768v257.088l365.504 210.688 365.184-210.112h1.536V465.984l124.736-72.768v-190.72zM153.728 357.056V240.32l101.056-58.048 101.056 58.368v53.44l225.728-130.56 226.048 130.56v-53.76l101.056-58.048 101.056 58.368v116.416l-125.952 72.768v257.088l-302.208 174.144-302.208-174.464V429.504z" p-id="17892"></path><path d="M548.096 690.304h63.552v-83.84l139.456-80.448V452.608L576.32 553.984 413.504 459.712V533.12l134.528 77.696v79.552z" p-id="17893"></path></svg>