<?xml version="1.0" standalone="no"?><!DOCTYPE svg PUBLIC "-//W3C//DTD SVG 1.1//EN" "http://www.w3.org/Graphics/SVG/1.1/DTD/svg11.dtd"><svg t="1721289046662" class="icon" viewBox="0 0 1024 1024" version="1.1" xmlns="http://www.w3.org/2000/svg" p-id="4234" xmlns:xlink="http://www.w3.org/1999/xlink" width="200" height="200">
<path d="M293.981 973V718.822L280.547 629.55H293.981C316.371 656.827 350.236 679.559 395.575 697.744C440.915 715.929 492.692 725.022 550.906 725.022C628.151 725.022 698.399 710.763 761.651 682.245C824.902 653.728 874.44 614.051 910.264 563.216C946.088 512.38 964 454.312 964 389.011C964 324.536 946.088 266.675 910.264 215.426C874.44 164.177 824.902 124.294 761.651 95.7763C698.399 67.2588 628.151 53 550.906 53C492.692 53 441.195 62.2992 396.415 80.8976C351.635 99.496 317.491 122.434 293.981 149.712H280.547V72.8383H74V973H293.981ZM512.283 574.995C471.981 574.995 433.918 567.142 398.094 551.437C362.27 535.731 333.723 513.827 312.453 485.722C291.182 457.618 280.547 425.381 280.547 389.011C280.547 352.641 291.182 320.403 312.453 292.299C333.723 264.195 362.27 242.497 398.094 227.205C433.918 211.913 471.981 204.267 512.283 204.267C553.704 204.267 592.327 211.913 628.151 227.205C663.975 242.497 692.522 264.195 713.792 292.299C735.063 320.403 745.698 352.641 745.698 389.011C745.698 425.381 735.063 457.618 713.792 485.722C692.522 513.827 663.975 535.731 628.151 551.437C592.327 567.142 553.704 574.995 512.283 574.995Z" />
</svg>
