<?xml version="1.0" standalone="no"?><!DOCTYPE svg PUBLIC "-//W3C//DTD SVG 1.1//EN" "http://www.w3.org/Graphics/SVG/1.1/DTD/svg11.dtd"><svg t="1741240066155" class="icon" viewBox="0 0 1170 1024" version="1.1" xmlns="http://www.w3.org/2000/svg" p-id="7491" xmlns:xlink="http://www.w3.org/1999/xlink" width="228.515625" height="200">
<path d="M257.255 375.667C257.255 355.37 273.708 338.917 294.005 338.917H686.004C706.3 338.917 722.757 355.37 722.757 375.667C722.757 395.963 706.3 412.417 686.004 412.417H294.005C273.708 412.417 257.255 395.963 257.255 375.667Z"/>
<path d="M294.005 567.584C273.708 567.584 257.255 584.037 257.255 604.334C257.255 624.63 273.708 641.084 294.005 641.084H588.004C608.301 641.084 624.754 624.63 624.754 604.334C624.754 584.037 608.301 567.584 588.004 567.584H294.005Z"/>
<path fill-rule="evenodd" clip-rule="evenodd" d="M347.965 77.5838H632.044C671.873 77.5831 703.997 77.5831 730.016 79.7083C756.798 81.8972 780.325 86.5207 802.095 97.6115C836.668 115.228 864.78 143.338 882.392 177.913C893.487 199.68 898.107 223.206 900.298 249.992C902.419 276.006 902.419 308.13 902.419 347.959V632.041C902.419 671.869 902.419 703.997 900.298 730.009C898.107 756.791 893.487 780.318 882.392 802.088C864.78 836.661 836.668 864.773 802.095 882.392C780.325 893.48 756.798 898.107 730.016 900.291C703.997 902.419 671.875 902.419 632.046 902.419H347.964C308.136 902.419 276.01 902.419 249.996 900.291C223.211 898.107 199.684 893.48 177.917 882.392C143.342 864.773 115.232 836.661 97.6156 802.088C86.5248 780.318 81.9013 756.791 79.7124 730.009C77.5872 703.997 77.5872 671.869 77.5879 632.04V347.961C77.5872 308.132 77.5872 276.006 79.7124 249.992C81.9013 223.206 86.5248 199.68 97.6156 177.913C115.232 143.338 143.342 115.228 177.917 97.6115C199.684 86.5207 223.211 81.8972 249.996 79.7083C276.011 77.5831 308.136 77.5831 347.965 77.5838ZM255.981 152.964C233.741 154.781 220.964 158.168 211.285 163.1C190.541 173.67 173.674 190.536 163.104 211.281C158.173 220.959 154.785 233.737 152.969 255.977C151.117 278.646 151.088 307.763 151.088 349.534V630.467C151.088 672.237 151.117 701.358 152.969 724.024C154.785 746.263 158.173 759.038 163.104 768.719C173.674 789.467 190.541 806.33 211.285 816.9C220.964 821.835 233.741 825.216 255.981 827.036C278.65 828.891 307.768 828.919 349.538 828.919H630.471C672.241 828.919 701.358 828.891 724.031 827.036C746.27 825.216 759.045 821.835 768.726 816.9C789.467 806.33 806.337 789.467 816.907 768.719C821.835 759.038 825.223 746.263 827.043 724.024C828.891 701.358 828.919 672.237 828.919 630.467V349.534C828.919 307.763 828.891 278.646 827.043 255.977C825.223 233.737 821.835 220.959 816.907 211.281C806.337 190.536 789.467 173.67 768.726 163.1C759.045 158.168 746.27 154.781 724.031 152.964C701.358 151.112 672.241 151.084 630.471 151.084H349.538C307.768 151.084 278.65 151.112 255.981 152.964Z"/>
</svg>
