<?xml version="1.0" standalone="no"?><!DOCTYPE svg PUBLIC "-//W3C//DTD SVG 1.1//EN" "http://www.w3.org/Graphics/SVG/1.1/DTD/svg11.dtd"><svg t="1715591142948" class="icon" viewBox="0 0 1024 1024" version="1.1" xmlns="http://www.w3.org/2000/svg" p-id="11280" xmlns:xlink="http://www.w3.org/1999/xlink" width="200" height="200"><path d="M929.6 576a422.528 422.528 0 0 1-783.488 147.2l-63.68 36.8 33.024-166.848 160.96 54.848-63.744 36.864A345.728 345.728 0 0 0 851.712 576h77.888zM625.152 297.344l45.248 45.312L557.248 455.68l114.752 0.064v64h-128v43.392l128 0.064v64h-128v84.544h-64V627.2l-128 0.064v-64h128v-43.52l-128 0.064v-64h114.688L353.6 342.592l45.248-45.312L512 410.496l113.152-113.152zM512 89.6a422.208 422.208 0 0 1 365.888 211.2l63.68-36.8-19.2 158.848-174.784-46.848 63.808-36.8A345.728 345.728 0 0 0 172.352 448H94.4A422.528 422.528 0 0 1 512 89.6z"  p-id="11281"></path></svg>