<?xml version="1.0" standalone="no"?><!DOCTYPE svg PUBLIC "-//W3C//DTD SVG 1.1//EN" "http://www.w3.org/Graphics/SVG/1.1/DTD/svg11.dtd"><svg t="1741240066155" class="icon" viewBox="0 0 1170 1024" version="1.1" xmlns="http://www.w3.org/2000/svg" p-id="7491" xmlns:xlink="http://www.w3.org/1999/xlink" width="228.515625" height="200">
<path d="M449.171 735C449.171 712.446 467.453 694.167 490.004 694.167H491.638C514.189 694.167 532.471 712.446 532.471 735C532.471 757.554 514.189 775.831 491.638 775.831H490.004C467.453 775.831 449.171 757.554 449.171 735Z"/>
<path d="M405.539 321.139C425.82 296.997 456.114 281.75 490.004 281.75C550.894 281.75 600.254 331.111 600.254 392C600.254 435.862 574.643 473.814 537.396 491.583C501.094 508.901 453.254 546.253 453.254 604.334C453.254 624.63 469.708 641.084 490.004 641.084C510.301 641.084 526.754 624.63 526.754 604.334C526.754 590.248 540.212 571.674 569.043 557.921C630.892 528.416 673.754 465.25 673.754 392C673.754 290.518 591.487 208.25 490.004 208.25C433.491 208.25 382.911 233.807 349.262 273.861C322.441 305.787 306.254 347.051 306.254 392C306.254 412.297 322.708 428.75 343.004 428.75C363.301 428.75 379.754 412.297 379.754 392C379.754 364.981 389.427 340.318 405.539 321.139Z"/>
<path fill-rule="evenodd" clip-rule="evenodd" d="M77.588 261.334C77.588 159.851 159.856 77.5837 261.338 77.5837H718.669C820.155 77.5837 902.419 159.851 902.419 261.334V718.669C902.419 820.148 820.155 902.419 718.669 902.419H261.338C159.856 902.419 77.588 820.148 77.588 718.669V261.334ZM261.338 151.084C200.449 151.084 151.088 200.444 151.088 261.334V718.669C151.088 779.555 200.449 828.919 261.338 828.919H718.669C779.562 828.919 828.919 779.555 828.919 718.669V261.334C828.919 200.444 779.562 151.084 718.669 151.084H261.338Z"/>
</svg>
