<?xml version="1.0" standalone="no"?><!DOCTYPE svg PUBLIC "-//W3C//DTD SVG 1.1//EN" "http://www.w3.org/Graphics/SVG/1.1/DTD/svg11.dtd"><svg t="1741264587638" class="icon" viewBox="0 0 1024 1024" version="1.1" xmlns="http://www.w3.org/2000/svg" p-id="12645" xmlns:xlink="http://www.w3.org/1999/xlink" width="200" height="200"><path d="M507.7248 252.16c-155.5968 0-280.6528 137.3184-281.1648 305.7152A29.44 29.44 0 0 0 256 587.392h503.4496a29.44 29.44 0 0 0 29.44-29.5168C788.3776 389.4784 663.296 252.16 507.7248 252.16z m6.4 58.9824c108.288 3.4304 198.0416 93.6448 213.504 211.5072l0.6912 5.8624H287.0784l0.7168-5.8624c15.7952-120.1664 108.8-211.6096 219.904-211.6096l6.4 0.1024z"  p-id="12646"></path><path d="M728.9088 4.8128l6.656 0.128a208.2304 208.2304 0 0 1 200.96 201.6256l0.1024 6.4768v247.4496a29.44 29.44 0 0 1-58.7008 3.2l-0.1792-3.2V213.0432c0-78.6432-60.9024-143.3856-138.0096-148.9408l-5.6832-0.3072-5.632-0.1024h-441.6c-78.6432 0-143.3856 60.928-148.9408 138.0352l-0.3072 5.6576-0.1024 5.632v558.336l0.1024 5.5552c2.4832 76.544 62.592 138.496 137.7792 143.9744l5.8112 0.3072 5.632 0.1024H427.52a29.44 29.44 0 0 1 3.2256 58.7264l-3.2256 0.1536h-141.2096l-6.6304-0.1024c-107.1616-3.6352-193.8944-88.2432-200.6528-195.1488l-0.3328-6.5792-0.1024-6.528V212.5312l0.128-6.656a208.2304 208.2304 0 0 1 201.6512-200.96l6.4512-0.1024h442.112z" p-id="12647"></path><path d="M45.2352 321.8432l2.816-0.128h119.296c16.4608 0 29.7984 14.3872 29.7728 32.128 0 16.6912-11.8784 30.592-27.2896 32l-2.816 0.1024H47.6928C31.232 385.9456 17.92 371.5584 17.92 353.792c0-16.6912 11.8784-30.592 27.3152-32zM48.0256 562.8928h119.3472c16.4352 0 29.7728 14.4128 29.7472 32.128 0 16.6912-11.8784 30.6176-27.2896 32l-2.816 0.1024H47.6928C31.232 627.1232 17.92 612.736 17.92 594.9952c0-16.6912 11.8784-30.592 27.3152-32l2.816-0.1024zM998.6048 595.0208c17.6384 16.64 14.2592 38.0416-6.2208 59.5712L648.1152 980.0704c-17.3824 14.3872-34.048 15.5136-49.2032 1.6896-15.2832-13.9264-14.5408-30.2592 2.688-49.5104L939.776 605.184c19.072-18.1248 41.5744-23.2448 56.192-12.3904l2.6368 2.2016zM734.4384 635.4688a29.44 29.44 0 0 1 3.2 58.7008l-3.2 0.1792h-460.8a29.44 29.44 0 0 1-3.2-58.7264l3.2-0.1536h460.8zM504.8832 181.4528c15.1808 0 27.6736 11.4944 29.2864 26.24l0.1536 3.2v64a29.44 29.44 0 0 1-58.7008 3.2l-0.1792-3.2v-64c0-16.256 13.184-29.44 29.44-29.44z"  p-id="12648"></path></svg>