<?xml version="1.0" standalone="no"?><!DOCTYPE svg PUBLIC "-//W3C//DTD SVG 1.1//EN" "http://www.w3.org/Graphics/SVG/1.1/DTD/svg11.dtd"><svg t="1731938348219" class="icon" viewBox="0 0 1024 1024" version="1.1" xmlns="http://www.w3.org/2000/svg" p-id="932" xmlns:xlink="http://www.w3.org/1999/xlink" width="200" height="200">
<path d="M728.85 93.12C733.411 94.0323 737.973 94.9446 742.535 96.3131C789.063 110.454 815.52 142.841 825.099 189.369C827.836 203.054 827.836 217.195 828.748 232.248C809.134 234.985 790.887 237.266 771.729 239.547V212.177C771.273 198.036 767.167 185.72 758.044 174.772C746.64 160.631 731.587 153.789 712.884 153.789H259.463C226.62 153.789 193.776 153.789 160.933 154.245C130.37 154.245 105.738 177.509 103.457 208.072C103.457 211.265 103.001 214.002 103.001 217.195V790.13C103.001 797.884 103.913 806.095 106.194 813.394C113.949 838.482 134.932 853.079 161.389 853.079H463.822C546.387 853.079 628.495 852.623 711.06 853.536C748.921 853.992 771.273 822.517 771.273 793.779V630.93V622.263C789.519 619.983 807.765 617.246 826.924 614.965C826.924 617.246 827.38 619.526 827.38 621.351C827.38 677.915 827.836 734.478 827.38 791.498C826.924 833.921 811.414 869.045 776.746 894.59C763.062 904.625 748.009 910.555 731.131 913.292C730.218 913.292 729.306 914.205 728.394 914.661H146.792C146.336 914.205 145.88 913.748 144.967 913.748C96.6147 905.538 67.8767 875.887 52.8235 830.728C50.0866 822.973 49.1742 814.306 47.3496 806.095V202.142C48.2619 197.58 49.1742 193.019 50.0866 188.913C61.0344 143.297 86.5792 110.91 133.107 97.2254C137.669 95.8569 142.23 94.9446 146.792 94.0323C341.115 93.12 534.983 93.12 728.85 93.12Z"/>
<path d="M947.35 381.868C942.788 388.254 938.683 395.553 933.665 401.483C922.717 413.799 911.313 426.115 899.909 438.432C865.698 401.027 832.398 364.534 798.186 327.585C812.327 312.076 826.012 297.023 840.153 282.426C848.82 273.302 863.417 273.759 872.084 282.882C895.348 307.97 918.612 333.059 941.42 358.604C944.157 361.341 945.525 365.446 947.35 369.096V381.868ZM774.922 351.305C809.59 389.167 843.802 426.115 878.014 463.52C864.329 478.574 850.644 493.627 836.96 508.224C771.729 579.385 706.498 650.545 641.268 721.25C639.443 723.531 635.794 725.355 633.057 725.355C601.126 725.811 569.195 725.355 536.808 725.355C535.895 725.355 534.527 724.899 533.158 724.899V680.652C533.158 660.581 533.158 640.054 533.614 619.983C533.614 617.246 534.983 613.596 536.808 611.316L772.185 354.042C773.097 353.586 773.554 352.674 774.922 351.305ZM623.478 567.981C611.617 580.753 600.214 593.069 589.266 605.386C588.353 606.298 587.897 607.21 587.897 608.122C586.529 617.702 585.16 626.825 583.792 636.404H615.267C614.354 647.808 613.898 659.212 612.986 671.072C623.021 670.16 632.145 669.704 641.268 668.792C642.18 668.792 643.549 667.879 644.005 667.423C655.865 654.651 667.725 641.878 679.129 628.65C660.426 608.122 642.18 588.508 623.478 567.981ZM649.935 560.226C651.303 559.314 654.04 557.489 656.321 555.208C697.831 510.048 739.342 464.889 780.852 419.273C785.87 413.799 786.326 408.325 782.221 404.22C778.115 400.114 774.01 401.027 768.536 407.413C727.482 452.573 685.971 497.276 644.917 542.436C643.092 544.26 641.724 546.541 640.812 548.822C638.987 554.296 643.092 559.77 649.935 560.226ZM443.295 336.708H201.987C187.847 336.708 178.723 330.778 173.706 318.918C168.688 307.058 171.425 292.005 181.004 284.25C185.566 280.145 192.408 278.776 198.338 276.496C199.707 276.039 201.531 276.496 202.9 276.496C363.467 276.496 523.579 276.952 684.147 276.039C707.411 276.039 720.639 297.935 713.341 318.006C708.779 330.778 699.2 337.165 683.69 337.165C603.407 336.708 523.123 336.708 443.295 336.708ZM378.065 457.59H553.685C566.458 457.59 575.581 462.608 581.055 473.556C586.985 485.416 585.616 496.82 577.862 507.312C573.3 513.698 566.458 517.347 558.703 517.803C556.879 517.803 554.598 518.259 552.773 518.259C436.453 518.259 319.676 517.803 203.356 518.259C178.723 518.259 166.863 495.908 173.25 476.749C177.355 464.433 187.39 457.134 201.075 457.134C259.92 457.59 318.764 457.59 378.065 457.59ZM285.464 701.179H201.075C183.285 701.179 171.425 688.862 170.969 671.072C170.969 653.282 182.829 640.054 200.163 640.054C256.726 640.054 313.29 639.597 369.854 640.054C387.644 640.054 399.504 653.738 399.048 671.528C398.592 688.862 386.275 700.723 368.941 700.723C341.572 701.179 313.746 701.179 285.464 701.179Z"/>
</svg>
