<?xml version="1.0" standalone="no"?><!DOCTYPE svg PUBLIC "-//W3C//DTD SVG 1.1//EN" "http://www.w3.org/Graphics/SVG/1.1/DTD/svg11.dtd"><svg t="1731938348219" class="icon" viewBox="0 0 1024 1024" version="1.1" xmlns="http://www.w3.org/2000/svg" p-id="932" xmlns:xlink="http://www.w3.org/1999/xlink" width="200" height="200">
<path d="M160.196 862.997C93.9051 862.997 40 809.098 40 742.825V215.17C40 148.895 93.9104 95 160.196 95H819.809C886.103 95 940 148.898 940 215.17V742.825C940 809.103 886.102 863 819.809 863H160.196V862.997ZM160.196 159.455C129.594 159.455 104.469 184.396 104.469 215.17V742.825C104.469 773.411 129.414 798.541 160.196 798.541H819.809C850.405 798.541 875.531 773.596 875.531 742.825V215.17C875.531 184.576 850.585 159.455 819.809 159.455H160.196ZM775.916 665.077C758.074 665.077 743.686 650.512 743.686 632.848C743.686 577.863 699.067 533.258 644.066 533.258C589.069 533.258 544.454 577.863 544.454 632.848C544.454 650.692 529.886 665.077 512.215 665.077C494.372 665.077 479.984 650.512 479.984 632.848C479.984 576.587 508.941 524.694 556.649 494.654C535.712 472.441 524.054 443.311 524.054 412.901C524.054 346.629 577.96 292.735 644.25 292.735C710.541 292.735 764.45 346.629 764.45 412.901C764.45 443.311 752.607 472.257 731.847 494.654C779.383 524.694 808.515 576.402 808.515 632.848C808.335 650.512 793.767 665.077 775.916 665.077ZM644.066 357.367C613.473 357.367 588.341 382.315 588.341 413.082C588.341 443.857 613.292 468.798 644.066 468.798C674.847 468.798 699.793 443.857 699.793 413.082C699.793 382.315 674.662 357.367 644.066 357.367Z" />
<path d="M393.558 371.618H210.446C206.314 371.625 202.222 370.795 198.403 369.174C194.584 367.554 191.114 365.175 188.192 362.174C185.271 359.173 182.955 355.608 181.377 351.684C179.8 347.761 178.992 343.556 179 339.311C178.992 335.066 179.8 330.861 181.377 326.938C182.955 323.014 185.27 319.449 188.192 316.447C191.113 313.444 194.583 311.064 198.402 309.442C202.221 307.821 206.314 306.991 210.446 307H393.554C397.686 306.991 401.779 307.821 405.598 309.442C409.417 311.064 412.887 313.444 415.808 316.447C418.73 319.449 421.046 323.014 422.623 326.937C424.201 330.861 425.008 335.066 425 339.311C425.008 343.556 424.2 347.76 422.623 351.683C421.045 355.605 418.73 359.169 415.808 362.17C412.886 365.171 409.417 367.55 405.599 369.171C401.781 370.792 397.689 371.624 393.558 371.618ZM393.558 519.086H210.446C206.315 519.094 202.222 518.264 198.404 516.644C194.585 515.024 191.115 512.645 188.194 509.643C185.272 506.642 182.956 503.078 181.378 499.155C179.801 495.232 178.992 491.028 179 486.783C178.991 482.538 179.798 478.332 181.375 474.408C182.952 470.484 185.268 466.918 188.19 463.916C191.111 460.914 194.582 458.534 198.401 456.913C202.22 455.293 206.314 454.463 210.446 454.472H393.554C397.686 454.463 401.78 455.293 405.599 456.913C409.418 458.534 412.889 460.914 415.81 463.916C418.732 466.918 421.048 470.484 422.625 474.408C424.202 478.332 425.009 482.538 425 486.783C425.008 491.027 424.2 495.231 422.623 499.154C421.045 503.077 418.73 506.641 415.808 509.642C412.887 512.644 409.418 515.023 405.6 516.643C401.781 518.264 397.689 519.094 393.558 519.086ZM393.558 665H210.446C206.315 665.009 202.223 664.179 198.404 662.558C194.586 660.938 191.117 658.558 188.196 655.556C185.274 652.555 182.957 648.99 181.379 645.067C179.801 641.143 178.993 636.938 179 632.693C179 614.802 193.032 600.382 210.446 600.382H393.554C397.686 600.374 401.779 601.204 405.598 602.825C409.417 604.446 412.887 606.826 415.808 609.828C418.73 612.83 421.046 616.395 422.623 620.319C424.201 624.243 425.008 628.448 425 632.693C425.009 636.938 424.201 641.143 422.624 645.066C421.047 648.989 418.732 652.554 415.81 655.556C412.889 658.558 409.42 660.937 405.601 662.558C401.782 664.178 397.69 665.008 393.558 665Z" />
</svg>
