<?xml version="1.0" standalone="no"?><!DOCTYPE svg PUBLIC "-//W3C//DTD SVG 1.1//EN" "http://www.w3.org/Graphics/SVG/1.1/DTD/svg11.dtd"><svg t="1700533336597" class="icon" viewBox="0 0 1027 1024" version="1.1" xmlns="http://www.w3.org/2000/svg" p-id="11531" xmlns:xlink="http://www.w3.org/1999/xlink" width="200" height="200"><path d="M449.202288 386.670258l-409.529151-204.764576c-7.678672-3.839336-17.9169-3.839336-24.315794 1.279779-7.678672 5.119114-11.518007 12.797786-11.518007 21.756236v588.698155c0 10.238229 5.119114 19.196679 14.077564 23.036015l409.529152 204.764576c3.839336 1.279779 7.678672 2.559557 11.518007 2.559557 5.119114 0 8.95845-1.279779 14.077565-3.839336 7.678672-5.119114 11.518007-12.797786 11.518007-21.756236V409.706273c-1.279779-10.238229-6.398893-19.196679-15.357343-23.036015z m-37.113579 570.781255l-358.338008-179.169004V245.894612l358.338008 179.169004v532.387897zM1012.304871 207.501254l-409.529151-204.764575c-7.678672-3.839336-17.9169-3.839336-24.315794 1.279778-7.678672 5.119114-11.518007 12.797786-11.518007 21.756236v588.698156c0 10.238229 5.119114 19.196679 14.077565 23.036014l409.529151 204.764576c3.839336 1.279779 7.678672 2.559557 11.518007 2.559557 5.119114 0 8.95845-1.279779 14.077565-3.839336 7.678672-5.119114 11.518007-12.797786 11.518007-21.756236V230.537269c-1.279779-10.238229-6.398893-19.196679-15.357343-23.036015z m-37.113579 570.781255l-358.338008-179.169004V66.725608l358.338008 179.169004v532.387897zM830.57631 864.027675c-8.95845-3.839336-20.476458-2.559557-26.87535 3.839336-10.238229 8.95845-21.756236 17.9169-34.554022 26.875351-11.518007 7.678672-23.036015 15.357343-37.11358 23.036014-12.797786 7.678672-26.875351 14.077565-40.952915 19.196679-14.077565 6.398893-29.434908 11.518007-40.952915 15.357343-14.077565 3.839336-29.434908 7.678672-44.792251 11.518008-16.637122 3.839336-30.714686 6.398893-44.792251 7.678671-14.077565 1.279779-24.315793 12.797786-23.036015 26.875351 1.279779 12.797786 12.797786 23.036015 25.595572 23.036015h2.559557c16.637122-1.279779 33.274244-3.839336 52.470923-7.678672 16.637122-3.839336 31.994465-7.678672 47.351808-11.518007 14.077565-3.839336 31.994465-10.238229 48.631587-17.916901 14.077565-6.398893 29.434908-12.797786 43.512472-21.756236 15.357343-7.678672 26.875351-15.357343 38.393358-23.036014V972.808856c0 14.077565 11.518007 25.595572 25.595572 25.595572s25.595572-11.518007 25.595572-25.595572v-85.745166c-1.279779-10.238229-7.678672-19.196679-16.637122-23.036015zM459.440517 2.736679c-16.637122 1.279779-33.274244 3.839336-52.470923 7.678671-16.637122 3.839336-33.274244 7.678672-47.351808 11.518008H358.338008c-15.357343 5.119114-31.994465 10.238229-47.351809 17.9169-14.077565 6.398893-29.434908 12.797786-43.512472 21.756236-15.357343 7.678672-26.875351 15.357343-38.393358 23.036015V51.368265c0-14.077565-11.518007-25.595572-25.595572-25.595572s-25.595572 11.518007-25.595572 25.595572v85.745166c0 10.238229 6.398893 19.196679 15.357343 23.036015 3.839336 1.279779 6.398893 2.559557 10.238229 2.559557 6.398893 0 12.797786-2.559557 16.637122-6.398893 10.238229-8.95845 21.756236-17.9169 34.554022-26.87535 11.518007-7.678672 23.036015-15.357343 37.113579-23.036015 12.797786-7.678672 26.875351-12.797786 40.952916-19.196679 12.797786-5.119114 26.875351-10.238229 42.232693-15.357343 12.797786-3.839336 28.155129-7.678672 44.792251-11.518008 16.637122-3.839336 30.714686-6.398893 44.792251-7.678671 14.077565-1.279779 24.315793-12.797786 23.036015-26.875351C486.315867 11.695129 474.79786 1.4569 459.440517 2.736679z"  p-id="11532"></path></svg>