<?xml version="1.0" standalone="no"?><!DOCTYPE svg PUBLIC "-//W3C//DTD SVG 1.1//EN" "http://www.w3.org/Graphics/SVG/1.1/DTD/svg11.dtd"><svg t="1745408741428" class="icon" viewBox="0 0 1024 1024" version="1.1" xmlns="http://www.w3.org/2000/svg" p-id="29437" xmlns:xlink="http://www.w3.org/1999/xlink" width="200" height="200"><path d="M775.74 931.987H248.26c-52.283 0-94.817-42.536-94.817-94.819V478.974c0-20.435 16.565-37 37-37s37 16.565 37 37v358.194c0 11.48 9.339 20.819 20.817 20.819h527.48c11.479 0 20.818-9.34 20.818-20.819V186.914c0-11.479-9.339-20.817-20.818-20.817H431.201c-20.435 0-37-16.565-37-37 0-20.434 16.565-37 37-37H775.74c52.283 0 94.818 42.535 94.818 94.817v650.254c0 52.283-42.536 94.819-94.818 94.819z" p-id="29438"></path><path d="M190.442 535.271c-20.435 0-37-16.565-37-37v-150.61c0-20.435 16.565-37 37-37s37 16.565 37 37V498.27c0 20.435-16.565 37.001-37 37.001z" fill="#231815" p-id="29439"></path><path d="M362.286 384.746H201.539c-20.435 0-37-16.566-37-37 0-20.435 16.565-37 37-37h160.748c11.479 0 20.819-9.339 20.819-20.817V129.013c0-20.434 16.565-37 37-37s37 16.566 37 37v160.916c-0.001 52.282-42.537 94.817-94.82 94.817z" fill="#231815" p-id="29440"></path><path d="M190.448 384.661c-9.775 0-19.531-3.849-26.804-11.488-14.09-14.8-13.515-38.22 1.285-52.31l229.663-218.648c14.8-14.09 38.22-13.515 52.311 1.285 14.09 14.8 13.515 38.22-1.285 52.31L215.955 374.459c-7.162 6.818-16.342 10.202-25.507 10.202z" p-id="29441"></path><path d="M328.33 745.832a36.822 36.822 0 0 1-18.982-5.267c-17.529-10.503-23.224-33.228-12.721-50.756l131.074-218.75a37 37 0 0 1 53.355-11.012l118.025 84.96 69.015-115.487c10.481-17.541 33.2-23.263 50.741-12.78 17.541 10.482 23.263 33.2 12.78 50.741L641.93 617.559a36.999 36.999 0 0 1-53.377 11.049L470.49 543.62 360.104 727.844c-6.935 11.572-19.198 17.988-31.774 17.988z"  p-id="29442"></path></svg>