<?xml version="1.0" standalone="no"?><!DOCTYPE svg PUBLIC "-//W3C//DTD SVG 1.1//EN" "http://www.w3.org/Graphics/SVG/1.1/DTD/svg11.dtd"><svg t="1689237453398" class="icon" viewBox="0 0 1024 1024" version="1.1" xmlns="http://www.w3.org/2000/svg" p-id="1568" xmlns:xlink="http://www.w3.org/1999/xlink" width="200" height="200"><path d="M622 727.42c6.525 0 11.834 5.208 11.996 11.694l0.004 0.305-0.001 53.58L960 793c0 35.346-28.654 64-64 64H633.999l0.001 53.58a12 12 0 0 1-3.269 8.233l-0.246 0.253c-4.608 4.608-12.032 4.685-16.734 0.23l-0.236-0.23-85.581-85.58c-4.608-4.609-4.685-12.033-0.23-16.735l0.23-0.236 85.58-85.581a12 12 0 0 1 8.486-3.515zM700 113c17.673 0 32 14.327 32 32v147h148c17.673 0 32 14.327 32 32v152.939l-8.088-8.088-0.473-0.469a72 72 0 0 0-49.773-20.617l-0.666-0.003-1.19 0.01-1.163 0.028c-37.898 1.217-68.399 31.721-69.61 69.621l-0.027 1.15-0.005 0.428H712V344c0-17.496-14.042-31.713-31.47-31.996L680 312H344c-17.496 0-31.713 14.042-31.996 31.47L312 344v336c0 17.496 14.042 31.713 31.47 31.996l0.53 0.004h197.937l-62.476 62.478-0.962 0.996-0.377 0.404-0.785 0.855c-25.388 28.08-24.685 71.125 1.706 98.358l0.808 0.82L515.939 912H324c-17.673 0-32-14.327-32-32V733H144c-17.673 0-32-14.327-32-32V145c0-17.673 14.327-32 32-32h556z m157 404.42a12 12 0 0 1 8.485 3.514l85.581 85.58c4.686 4.687 4.686 12.285 0 16.971l-85.58 85.581c-4.687 4.686-12.285 4.686-16.971 0a12 12 0 0 1-3.515-8.485l-0.001-53.582L520 647c0-35.346 28.654-64 64-64h260.999l0.001-53.58c0-6.628 5.373-12 12-12z"  p-id="1569"></path></svg>