<?xml version="1.0" standalone="no"?><!DOCTYPE svg PUBLIC "-//W3C//DTD SVG 1.1//EN" "http://www.w3.org/Graphics/SVG/1.1/DTD/svg11.dtd"><svg t="1741240066155" class="icon" viewBox="0 0 1170 1024" version="1.1" xmlns="http://www.w3.org/2000/svg" p-id="7491" xmlns:xlink="http://www.w3.org/1999/xlink" width="228.515625" height="200">
<path d="M146.997 110.251C126.7 110.251 110.247 126.704 110.247 147.001C110.247 167.297 126.7 183.751 146.997 183.751H833C853.293 183.751 869.75 167.297 869.75 147.001C869.75 126.704 853.293 110.251 833 110.251H146.997Z"	/>
<path d="M146.997 600.251C126.7 600.251 110.247 616.704 110.247 637.001C110.247 657.297 126.7 673.751 146.997 673.751H833C853.293 673.751 869.75 657.297 869.75 637.001C869.75 616.704 853.293 600.251 833 600.251H146.997Z"	/>
<path d="M110.247 343.001C110.247 322.704 126.7 306.251 146.997 306.251H195.997C216.293 306.251 232.747 322.704 232.747 343.001C232.747 363.297 216.293 379.751 195.997 379.751H146.997C126.7 379.751 110.247 363.297 110.247 343.001Z"	/>
<path d="M146.997 796.25C126.7 796.25 110.247 812.707 110.247 833C110.247 853.3 126.7 869.75 146.997 869.75H195.997C216.293 869.75 232.747 853.3 232.747 833C232.747 812.707 216.293 796.25 195.997 796.25H146.997Z" />
<path d="M289.914 343.001C289.914 322.704 306.367 306.251 326.664 306.251H375.664C395.96 306.251 412.414 322.704 412.414 343.001C412.414 363.297 395.96 379.751 375.664 379.751H326.664C306.367 379.751 289.914 363.297 289.914 343.001Z" />
<path d="M326.664 796.25C306.367 796.25 289.914 812.707 289.914 833C289.914 853.3 306.367 869.75 326.664 869.75H375.664C395.96 869.75 412.414 853.3 412.414 833C412.414 812.707 395.96 796.25 375.664 796.25H326.664Z"/>
<path d="M469.58 343.001C469.58 322.704 486.033 306.251 506.33 306.251H555.33C575.626 306.251 592.08 322.704 592.08 343.001C592.08 363.297 575.626 379.751 555.33 379.751H506.33C486.033 379.751 469.58 363.297 469.58 343.001Z" />
<path d="M506.33 796.25C486.033 796.25 469.58 812.707 469.58 833C469.58 853.3 486.033 869.75 506.33 869.75H555.33C575.626 869.75 592.08 853.3 592.08 833C592.08 812.707 575.626 796.25 555.33 796.25H506.33Z" />
</svg>
