<?xml version="1.0" standalone="no"?><!DOCTYPE svg PUBLIC "-//W3C//DTD SVG 1.1//EN" "http://www.w3.org/Graphics/SVG/1.1/DTD/svg11.dtd"><svg t="1741240066155" class="icon" viewBox="0 0 1170 1024" version="1.1" xmlns="http://www.w3.org/2000/svg" p-id="7491" xmlns:xlink="http://www.w3.org/1999/xlink" width="228.515625" height="200">
<path fill-rule="evenodd" clip-rule="evenodd" d="M326.671 213.574L257.508 353.436H395.834L326.671 213.574ZM432.579 426.936H220.762L179.686 506.808C170.403 524.858 148.246 531.965 130.196 522.682C112.148 513.4 105.041 491.243 114.323 473.194L165.523 373.636L264.447 173.592C289.928 122.064 363.414 122.064 388.896 173.592L487.819 373.636L539.019 473.194C548.302 491.243 541.194 513.4 523.145 522.682C505.095 531.965 482.939 524.858 473.656 506.808L432.579 426.936Z"/>
<path fill-rule="evenodd" clip-rule="evenodd" d="M110.254 637.001C110.254 616.704 126.708 600.251 147.004 600.251H833.007C853.3 600.251 869.757 616.704 869.757 637.001C869.757 657.297 853.3 673.751 833.007 673.751H147.004C126.708 673.751 110.254 657.297 110.254 637.001Z"/>
<path fill-rule="evenodd" clip-rule="evenodd" d="M371.587 833C371.587 812.707 388.042 796.25 408.337 796.25H816.669C836.969 796.25 853.419 812.707 853.419 833C853.419 853.3 836.969 869.75 816.669 869.75H408.337C388.042 869.75 371.587 853.3 371.587 833Z"/>
</svg>
