<?xml version="1.0" standalone="no"?><!DOCTYPE svg PUBLIC "-//W3C//DTD SVG 1.1//EN" "http://www.w3.org/Graphics/SVG/1.1/DTD/svg11.dtd"><svg t="1701234747024" class="icon" viewBox="0 0 1024 1024" version="1.1" xmlns="http://www.w3.org/2000/svg" p-id="15972" xmlns:xlink="http://www.w3.org/1999/xlink" width="200" height="200">
<path d="M701.123 304.523C778.491 357.496 830.07 445.784 838.667 551.73C864.456 551.73 890.245 560.559 916.035 569.388C907.438 428.126 838.667 304.523 726.912 233.892C718.316 251.55 718.316 278.036 701.123 304.523Z"/>
<path d="M649.544 887.225C606.562 904.883 563.579 922.541 512 922.541C460.421 922.541 417.439 913.712 374.456 887.225C357.263 913.712 340.07 931.369 322.877 949.027C383.053 984.342 443.228 1002 512 1002C580.772 1002 649.544 984.342 701.123 949.027C683.93 931.369 666.737 913.712 649.544 887.225Z"/>
<path d="M185.333 551.73C193.93 445.784 245.509 357.495 322.877 304.522C314.281 278.036 305.684 251.549 297.088 225.063C185.333 295.694 116.561 428.126 107.965 569.387C133.754 560.558 159.544 551.73 185.333 551.73Z" fill="black"/>
<path d="M512 110.288C563.579 110.288 597.965 145.604 597.965 198.577C597.965 251.55 563.579 286.865 512 286.865C460.421 286.865 426.035 251.55 426.035 198.577C426.035 145.604 469.018 110.288 512 110.288ZM512 22C417.439 22 340.07 101.459 340.07 198.577C340.07 295.694 417.439 375.153 512 375.153C606.562 375.153 683.93 295.694 683.93 198.577C683.93 101.459 606.562 22 512 22Z"/>
<path d="M830.07 684.162C881.649 684.162 916.035 719.478 916.035 772.45C916.035 825.423 881.649 860.739 830.07 860.739C778.491 860.739 744.105 825.423 744.105 772.45C744.105 719.478 787.088 684.162 830.07 684.162ZM830.07 595.874C735.509 595.874 658.14 675.333 658.14 772.45C658.14 869.568 735.509 949.027 830.07 949.027C924.632 949.027 1002 869.568 1002 772.45C1002 675.333 924.632 595.874 830.07 595.874Z"/>
<path d="M193.93 684.162C245.509 684.162 279.895 719.478 279.895 772.45C279.895 825.423 245.509 860.739 193.93 860.739C142.351 860.739 107.965 825.423 107.965 772.45C107.965 719.478 142.351 684.162 193.93 684.162ZM193.93 595.874C99.3685 595.874 22 675.333 22 772.45C22 869.568 99.3685 949.027 193.93 949.027C288.491 949.027 365.86 869.568 365.86 772.45C365.86 675.333 288.491 595.874 193.93 595.874Z"/>
</svg>
