<?xml version="1.0" standalone="no"?><!DOCTYPE svg PUBLIC "-//W3C//DTD SVG 1.1//EN" "http://www.w3.org/Graphics/SVG/1.1/DTD/svg11.dtd"><svg t="1741240066155" class="icon" viewBox="0 0 1170 1024" version="1.1" xmlns="http://www.w3.org/2000/svg" p-id="7491" xmlns:xlink="http://www.w3.org/1999/xlink" width="228.515625" height="200">
<path d="M344.011 553.732C335.879 535.136 314.211 526.653 295.615 534.785C277.019 542.917 268.536 564.584 276.668 583.18C312.565 665.271 394.532 722.75 490.006 722.75C585.479 722.75 667.446 665.271 703.346 583.18C711.473 564.584 702.996 542.917 684.397 534.785C665.801 526.653 644.133 535.136 636.001 553.732C611.383 610.029 555.234 649.251 490.006 649.251C424.778 649.251 368.628 610.029 344.011 553.732Z"/>
<path fill-rule="evenodd" clip-rule="evenodd" d="M632.044 85.7505H347.965C308.136 85.7498 276.011 85.7498 249.996 87.875C223.211 90.0632 199.684 94.6874 177.917 105.778C143.343 123.394 115.232 151.505 97.6157 186.079C86.5249 207.846 81.9014 231.373 79.7125 258.158C77.5873 284.173 77.5873 316.298 77.588 356.127V641.898C77.5873 668.071 77.5873 689.919 79.0454 707.763C80.5658 726.383 83.8544 743.855 92.2747 760.382C105.194 785.736 125.808 806.351 151.163 819.273C167.689 827.694 185.165 830.977 203.779 832.503C221.626 833.959 243.473 833.959 269.646 833.959H288.912C312.005 833.959 318.17 834.148 323.686 835.345C329.367 836.577 334.844 838.607 339.952 841.379C344.911 844.074 349.71 847.945 367.215 863.009L432.708 919.366C438.087 924 443.564 928.711 448.586 932.407C454.219 936.551 461.383 941.052 470.539 943.726C483.251 947.436 496.759 947.436 509.47 943.726C518.627 941.052 525.791 936.551 531.423 932.407C536.446 928.711 541.922 924 547.303 919.366L612.794 863.009C630.3 847.945 635.098 844.074 640.057 841.379C645.166 838.607 650.642 836.577 656.324 835.345C661.839 834.148 668.004 833.959 691.098 833.959H710.36C736.54 833.959 758.38 833.959 776.23 832.503C794.843 830.977 812.322 827.694 828.849 819.273C854.203 806.351 874.818 785.736 887.733 760.382C896.154 743.855 899.444 726.383 900.963 707.763C902.419 689.919 902.419 668.073 902.419 641.9V356.126C902.419 316.298 902.419 284.173 900.298 258.158C898.107 231.373 893.487 207.846 882.392 186.079C864.78 151.505 836.668 123.394 802.095 105.778C780.325 94.6874 756.798 90.0632 730.016 87.875C703.997 85.7498 671.873 85.7498 632.044 85.7505ZM211.285 171.267C220.964 166.335 233.741 162.948 255.982 161.131C278.65 159.279 307.768 159.251 349.538 159.251H630.471C672.242 159.251 701.358 159.279 724.031 161.131C746.27 162.948 759.045 166.335 768.726 171.267C789.467 181.837 806.337 198.703 816.907 219.448C821.835 229.126 825.223 241.904 827.043 264.143C828.891 286.812 828.919 315.93 828.919 357.701V640.407C828.919 668.456 828.891 687.283 827.708 701.778C826.56 715.848 824.509 722.575 822.248 727.013C816.375 738.542 807.002 747.908 795.48 753.781C791.042 756.042 784.315 758.093 770.245 759.241C755.748 760.431 736.918 760.459 708.869 760.459H687.918C669.474 760.445 654.949 760.438 640.774 763.511C628.276 766.213 616.226 770.686 604.988 776.783C592.241 783.706 581.237 793.184 567.263 805.224L500.126 862.995C495.338 867.118 492.279 869.729 490.005 871.549C487.731 869.729 484.671 867.118 479.884 862.995L412.747 805.224C398.773 793.184 387.768 783.706 375.022 776.783C363.783 770.686 351.733 766.213 339.235 763.511C325.06 760.438 310.535 760.445 292.091 760.459H271.138C243.089 760.459 224.262 760.431 209.764 759.241C195.695 758.093 188.968 756.042 184.531 753.781C173.006 747.908 163.636 738.542 157.764 727.013C155.503 722.575 153.451 715.848 152.301 701.778C151.117 687.283 151.088 668.456 151.088 640.407V357.701C151.088 315.93 151.117 286.812 152.969 264.143C154.785 241.904 158.173 229.126 163.104 219.448C173.674 198.703 190.541 181.837 211.285 171.267Z"/>
</svg>
