<?xml version="1.0" standalone="no"?><!DOCTYPE svg PUBLIC "-//W3C//DTD SVG 1.1//EN" "http://www.w3.org/Graphics/SVG/1.1/DTD/svg11.dtd"><svg t="1700472794520" class="icon" viewBox="0 0 1024 1024" version="1.1" xmlns="http://www.w3.org/2000/svg" p-id="23352" xmlns:xlink="http://www.w3.org/1999/xlink" width="200" height="200"><path d="M658.285714 0m43.885715 0l277.942857 0q43.885714 0 43.885714 43.885714l0 0q0 43.885714-43.885714 43.885715l-277.942857 0q-43.885714 0-43.885715-43.885715l0 0q0-43.885714 43.885715-43.885714Z" p-id="23353"></path><path d="M658.285714 197.485714m43.885715 0l277.942857 0q43.885714 0 43.885714 43.885715l0 0q0 43.885714-43.885714 43.885714l-277.942857 0q-43.885714 0-43.885715-43.885714l0 0q0-43.885714 43.885715-43.885715Z"  p-id="23354"></path><path d="M0 477.622857m43.885714 0l190.171429 0q43.885714 0 43.885714 43.885714l0 0q0 43.885714-43.885714 43.885715l-190.171429 0q-43.885714 0-43.885714-43.885715l0 0q0-43.885714 43.885714-43.885714Z"  p-id="23355"></path><path d="M746.057143 631.954286m43.885714 0l190.171429 0q43.885714 0 43.885714 43.885714l0 0q0 43.885714-43.885714 43.885714l-190.171429 0q-43.885714 0-43.885714-43.885714l0 0q0-43.885714 43.885714-43.885714Z" p-id="23356"></path><path d="M173.601394 537.75186m21.942857-38.006143l175.542857-304.049148q21.942857-38.006143 59.949001-16.063286l0 0q38.006143 21.942857 16.063286 59.949l-175.542857 304.049148q-21.942857 38.006143-59.949001 16.063286l0 0q-38.006143-21.942857-16.063286-59.949Z"  p-id="23357"></path><path d="M441.554934 162.948034m11.358459 42.390344l204.452256 763.026207q11.358459 42.390345-31.031886 53.748804l0 0q-42.390345 11.358459-53.748804-31.031886l-204.452256-763.026207q-11.358459-42.390345 31.031886-53.748804l0 0q42.390345-11.358459 53.748804 31.031886Z"  p-id="23358"></path><path d="M554.694574 995.755459m21.942858-38.006144l175.542857-304.049147q21.942857-38.006143 59.949-16.063287l0 0q38.006143 21.942857 16.063287 59.949001l-175.542858 304.049147q-21.942857 38.006143-59.949 16.063287l0 0q-38.006143-21.942857-16.063286-59.949001Z" p-id="23359"></path></svg>