<?xml version="1.0" standalone="no"?><!DOCTYPE svg PUBLIC "-//W3C//DTD SVG 1.1//EN" "http://www.w3.org/Graphics/SVG/1.1/DTD/svg11.dtd"><svg t="1741240066155" class="icon" viewBox="0 0 1170 1024" version="1.1" xmlns="http://www.w3.org/2000/svg" p-id="7491" xmlns:xlink="http://www.w3.org/1999/xlink" width="228.515625" height="200">
<path d="M151.088 114.334C151.088 94.0375 134.635 77.584 114.338 77.584C94.0415 77.584 77.588 94.0375 77.588 114.334V632.04C77.5873 671.869 77.5873 703.997 79.7125 730.009C81.9014 756.791 86.5249 780.318 97.6157 802.088C115.232 836.661 143.343 864.773 177.917 882.392C199.684 893.48 223.211 898.107 249.996 900.291C276.01 902.419 308.134 902.419 347.962 902.419H865.669C885.969 902.419 902.419 885.962 902.419 865.669C902.419 845.369 885.969 828.919 865.669 828.919H349.538C307.768 828.919 278.65 828.891 255.981 827.036C233.741 825.216 220.964 821.835 211.285 816.9C190.541 806.33 173.674 789.467 163.104 768.719C158.173 759.038 154.785 746.263 152.969 724.024C151.117 701.358 151.088 672.237 151.088 630.467V114.334Z" fill="black"/>
<path d="M502.254 686C502.254 706.3 518.708 722.75 539.004 722.75C559.301 722.75 575.754 706.3 575.754 686V294C575.754 273.703 559.301 257.25 539.004 257.25C518.708 257.25 502.254 273.703 502.254 294V686Z"/>
<path d="M767.669 722.75C747.376 722.75 730.919 706.3 730.919 686V179.667C730.919 159.37 747.376 142.917 767.669 142.917C787.969 142.917 804.419 159.37 804.419 179.667V686C804.419 706.3 787.969 722.75 767.669 722.75Z"/>
<path d="M273.588 686C273.588 706.3 290.042 722.75 310.338 722.75C330.635 722.75 347.088 706.3 347.088 686V392C347.088 371.704 330.635 355.25 310.338 355.25C290.042 355.25 273.588 371.704 273.588 392V686Z"/>
</svg>
