<?xml version="1.0" standalone="no"?><!DOCTYPE svg PUBLIC "-//W3C//DTD SVG 1.1//EN" "http://www.w3.org/Graphics/SVG/1.1/DTD/svg11.dtd"><svg t="1746945116013" class="icon" viewBox="0 0 1024 1024" version="1.1" xmlns="http://www.w3.org/2000/svg" p-id="7109" xmlns:xlink="http://www.w3.org/1999/xlink" width="200" height="200"><path d="M984.8 992.8H39.8c-18.6 0-33.8-15.2-33.8-33.8s15.2-33.8 33.8-33.8h33.8V503c-19-11.6-35.4-27.4-47.2-46.6-24-38.6-27-84.2-8.2-125.2l91.4-199.4c23.4-51 76.8-84 136-84h533.6c59.2 0 112.6 33 136 84l91.4 199.4c18.8 41 15.8 86.6-8.2 125.2-12 19.2-28.2 35-47.2 46.6v422.4h33.8c18.6 0 33.8 15.2 33.8 33.8s-15.4 33.6-34 33.6z m-135-67.6h33.8V524.2c-2 0.2-4.2 0.2-6.4 0.4H872c-48.4 0-91.8-21.2-120-54-28.2 33-71.4 54-120 54-40.2 0-78.6-15.2-108-43-4-3.8-7.8-7.8-11.4-11.8-28.2 33.4-71.6 54.8-120.4 54.8-40.2 0-78.6-15.2-108-42.8-4.2-4-8.2-8.2-12-12.6-3.8 4.4-7.8 8.6-12 12.6-29.4 27.6-67.8 42.8-108 42.8h-5.2c-2.2 0-4.2-0.2-6.4-0.4v401.2H546V638.4c0-2.8 0.2-5.6 0.4-8.2 0.2-2.8 0.6-5.6 1.2-8.2 0.6-2.6 1.2-5.4 2-8 0.8-2.6 1.8-5.2 2.8-7.8 1-2.6 2.2-5 3.6-7.4l4.2-7.2 4.8-6.6a82.42 82.42 0 0 1 11.8-11.8c2-1.8 4.4-3.4 6.6-5 2.4-1.6 4.8-3 7.2-4.2 2.4-1.2 5-2.4 7.4-3.6 2.6-1 5.2-2 7.8-2.8 2.6-0.8 5.4-1.4 8-2 2.6-0.6 5.4-1 8.2-1.2 2.8-0.2 5.6-0.4 8.2-0.4h135c2.8 0 5.6 0.2 8.2 0.4 2.8 0.2 5.6 0.6 8.2 1.2 2.6 0.6 5.4 1.2 8 2 2.6 0.8 5.2 1.8 7.8 2.8 2.6 1 5.2 2.2 7.6 3.6 2.4 1.2 4.8 2.6 7 4.2 2.4 1.6 4.6 3.2 6.6 5a82.42 82.42 0 0 1 11.8 11.8c1.8 2 3.4 4.4 5 6.6 1.4 2.2 3 4.6 4.2 7 1.4 2.4 2.4 5 3.6 7.4 1 2.6 2 5.2 2.8 7.8 0.8 2.6 1.4 5.2 2 8 0.6 2.8 1 5.4 1.2 8.2 0.2 2.8 0.4 5.6 0.4 8.2v287z m-236.4 0h168.8V638.4v-1.6c0-0.6-0.2-1-0.2-1.6 0-0.6-0.2-1-0.4-1.6-0.2-0.6-0.4-1-0.6-1.6-0.2-0.4-0.4-1-0.8-1.4-0.2-0.4-0.6-1-0.8-1.4-0.4-0.4-0.6-1-1-1.4l-1.2-1.2-1.2-1.2c-0.4-0.4-0.8-0.6-1.4-1-0.4-0.2-1-0.6-1.4-0.8-0.6-0.2-1-0.6-1.6-0.8-0.4-0.2-1-0.4-1.6-0.6-0.4-0.2-1-0.2-1.6-0.4-0.6-0.2-1-0.2-1.6-0.2h-138.2c-0.6 0-1 0.2-1.6 0.2-0.6 0.2-1 0.2-1.6 0.4-0.4 0.2-1 0.4-1.6 0.6-0.4 0.2-1 0.4-1.4 0.6-0.6 0.2-1 0.6-1.4 0.8-0.4 0.2-0.8 0.6-1.2 1l-1.2 1.2-1.2 1.2c-0.4 0.4-0.6 0.8-1 1.4-0.4 0.4-0.6 1-0.8 1.4-0.2 0.4-0.4 1-0.8 1.6-0.2 0.6-0.4 1-0.6 1.6-0.2 0.6-0.4 1-0.4 1.6-0.2 0.6-0.2 1.2-0.2 1.6V925.2zM752 346.8c18.6 0 33.8 15.2 33.8 33.8 0 42.2 38.6 76.4 86.2 76.4h3.6c27.4-1 51.8-14.6 65.4-36.4 11.8-19 13.2-41.4 4.2-61.4l-91.4-199.4c-12.4-27-41.8-44.6-74.6-44.6H245.4c-33 0-62.2 17.4-74.6 44.6l-91.4 199.4c-9.2 20-7.6 42.4 4.2 61.4 13.4 21.8 37.8 35.2 65.2 36.2h3.6c23 0 44.8-8.8 61.6-24.6 15.6-14.6 24.4-33.6 24.4-51.8 0-18.6 15.2-33.8 33.8-33.8s33.8 15.2 33.8 33.8c0 43.8 45.6 76.4 86.2 76.4 47.4 0 86-34.2 86-76.4 0-18.6 15.2-33.8 33.8-33.8s34 15.4 34 34c0 43.8 45.4 76.4 86.2 76.4 47.6 0 86.2-34.2 86.2-76.4 0-18.6 15-33.8 33.6-33.8zM478.4 857.8h-270c-18.6 0-33.8-15.2-33.8-33.8v-185.6c0-2.8 0.2-5.6 0.4-8.2 0.2-2.8 0.6-5.4 1.2-8.2 0.6-2.8 1.2-5.4 2-8 0.8-2.6 1.8-5.2 2.8-7.8 1-2.6 2.2-5 3.6-7.4l4.2-7.2c1.6-2.2 3.2-4.4 5-6.6a82.42 82.42 0 0 1 11.8-11.8c2.2-1.8 4.4-3.4 6.6-5 2.4-1.6 4.8-3 7.2-4.2 2.4-1.2 5-2.4 7.4-3.6 2.6-1 5.2-2 7.8-2.8 2.6-0.8 5.4-1.4 8-2 2.6-0.6 5.4-1 8.2-1.2 2.8-0.2 5.6-0.4 8.2-0.4h168.8c2.8 0 5.6 0.2 8.2 0.4 2.8 0.2 5.6 0.6 8.2 1.2 2.6 0.6 5.4 1.2 8 2 2.6 0.8 5.2 1.8 7.8 2.8 2.6 1 5 2.2 7.6 3.6 2.4 1.2 4.8 2.6 7 4.2 2.4 1.6 4.6 3.2 6.6 5a82.42 82.42 0 0 1 11.8 11.8c1.8 2.2 3.4 4.4 5 6.6 1.6 2.2 3 4.6 4.2 7.2 1.4 2.4 2.4 5 3.6 7.4 1 2.6 2 5.2 2.8 7.8 0.8 2.6 1.4 5.4 2 8 0.6 2.8 1 5.4 1.2 8.2 0.2 2.8 0.4 5.6 0.4 8.2V824c0 18.6-15.2 33.8-33.8 33.8z m-236.2-67.6h202.4v-151.8-1.6c0-0.6-0.2-1-0.2-1.6-0.2-0.6-0.2-1-0.4-1.6-0.2-0.6-0.4-1-0.6-1.6-0.2-0.6-0.4-1-0.8-1.6-0.2-0.4-0.6-1-0.8-1.4-0.4-0.4-0.6-1-1-1.4-0.4-0.4-0.8-0.8-1-1.2-0.4-0.4-0.8-0.8-1.2-1-0.4-0.4-0.8-0.8-1.4-1-0.4-0.2-1-0.6-1.4-0.8-0.6-0.2-1-0.6-1.6-0.8-0.6-0.2-1-0.4-1.6-0.6-0.6-0.2-1-0.2-1.6-0.4-0.6-0.2-1-0.2-1.6-0.2h-172c-0.6 0-1 0.2-1.6 0.2-0.6 0.2-1.2 0.2-1.6 0.4-0.6 0.2-1 0.4-1.6 0.6-0.6 0.2-1 0.4-1.4 0.6-0.6 0.2-1 0.6-1.4 0.8-0.4 0.2-0.8 0.6-1.4 1-0.4 0.4-0.8 0.8-1.2 1l-1.2 1.2c-0.4 0.4-0.6 0.8-1 1.4-0.4 0.4-0.6 1-0.8 1.4-0.2 0.4-0.4 1-0.8 1.4-0.2 0.4-0.4 1-0.6 1.6-0.2 0.6-0.2 1-0.4 1.6-0.2 0.6-0.2 1-0.2 1.6V790.2z" p-id="7110"></path></svg>