<?xml version="1.0" standalone="no"?><!DOCTYPE svg PUBLIC "-//W3C//DTD SVG 1.1//EN" "http://www.w3.org/Graphics/SVG/1.1/DTD/svg11.dtd"><svg t="1741240066155" class="icon" viewBox="0 0 1170 1024" version="1.1" xmlns="http://www.w3.org/2000/svg" p-id="7491" xmlns:xlink="http://www.w3.org/1999/xlink" width="228.515625" height="200">
<path d="M463.214 274.015C468.467 254.41 488.618 242.776 508.223 248.029L729.099 307.212C748.706 312.465 760.34 332.616 755.083 352.221C749.833 371.826 729.68 383.461 710.073 378.208L489.2 319.024C469.595 313.771 457.961 293.62 463.214 274.015Z"/>
<path d="M473.268 441.576C453.663 436.323 433.511 447.957 428.259 467.562C423.005 487.167 434.64 507.319 454.245 512.572L580.459 546.391C600.064 551.644 620.215 540.009 625.468 520.405C630.722 500.8 619.087 480.649 599.482 475.395L473.268 441.576Z"/>
<path fill-rule="evenodd" clip-rule="evenodd" d="M720.384 84.4761L635.303 61.6797C596.831 51.3708 565.8 43.0559 540.122 38.3759C513.683 33.5572 489.761 31.9341 465.865 37.0133C427.909 45.0811 393.481 64.958 367.517 93.7952C351.17 111.95 340.615 133.478 331.568 158.785C325.396 176.049 319.458 196.498 312.897 220.473L247.556 237.981C209.084 248.289 178.053 256.603 153.476 265.39C128.169 274.436 106.641 284.991 88.4863 301.337C59.6494 327.303 39.7725 361.731 31.7047 399.687C26.6255 423.582 28.2486 447.504 33.0673 473.943C37.7473 499.622 46.0622 530.652 56.3711 569.124L99.0262 728.315C109.334 766.787 117.648 797.818 126.435 822.395C135.481 847.7 146.036 869.232 162.383 887.383C188.348 916.223 222.776 936.096 260.732 944.167C284.628 949.242 308.55 947.625 334.989 942.802C360.666 938.126 391.695 929.81 430.165 919.499L499.466 900.928C537.94 890.624 568.972 882.308 593.551 873.523C618.857 864.472 640.386 853.923 658.54 837.571C676.252 821.625 690.582 802.487 700.875 781.298C703.969 780.857 707.063 780.311 710.157 779.653C748.111 771.589 782.537 751.709 808.5 722.876C824.852 704.718 835.408 683.192 844.452 657.885C853.237 633.311 861.546 602.286 871.857 563.821L911.568 415.618C921.872 377.147 930.188 346.116 934.871 320.438C939.687 293.999 941.311 270.078 936.236 246.182C928.165 208.226 908.285 173.798 879.452 147.833C861.294 131.487 839.769 120.931 814.464 111.885C789.88 103.099 758.856 94.7843 720.384 84.4761ZM617.355 774.522L617.698 774.592C615.078 777.518 612.296 780.311 609.359 782.95C601.287 790.223 589.821 796.803 568.809 804.314C547.392 811.965 519.275 819.532 478.927 830.34L412.665 848.099C372.318 858.907 344.186 866.418 321.81 870.492C299.857 874.496 286.638 874.531 276.013 872.27C253.24 867.433 232.583 855.505 217.004 838.201C209.735 830.13 203.157 818.664 195.645 797.657C187.989 776.237 180.426 748.118 169.614 707.77L127.774 551.62C116.963 511.273 109.454 483.14 105.376 460.765C101.375 438.812 101.34 425.593 103.599 414.968C108.439 392.195 120.365 371.538 137.668 355.959C145.74 348.69 157.205 342.112 178.217 334.6C199.634 326.944 227.752 319.381 268.099 308.569L290.865 302.469L264.451 401.05C254.142 439.521 245.827 470.553 241.147 496.23C236.328 522.669 234.705 546.591 239.784 570.487C247.852 608.443 267.729 642.871 296.566 668.836C310.183 681.097 325.697 690.099 343.281 697.65C349.14 700.168 355.23 702.52 361.556 704.781C386.132 713.566 417.17 721.889 455.638 732.193L540.718 754.992L544.296 755.951C571.916 763.357 595.969 769.804 617.355 774.522ZM617.355 774.522L540.718 754.992L361.556 704.781L617.355 774.522ZM676.977 709.24C684.008 709.408 689.742 708.855 694.873 707.763C717.647 702.919 738.304 690.996 753.879 673.693C761.152 665.621 767.732 654.156 775.243 633.144C782.894 611.727 790.461 583.609 801.269 543.262L840.161 398.115C850.976 357.769 858.48 329.636 862.561 307.259C866.565 285.307 866.6 272.089 864.339 261.463C859.495 238.69 847.574 218.033 830.27 202.454C822.199 195.186 810.733 188.607 789.719 181.096C768.306 173.44 740.187 165.876 699.838 155.065L617.799 133.083C577.452 122.271 549.319 114.763 526.943 110.685C504.991 106.684 491.772 106.649 481.147 108.907C458.373 113.748 437.717 125.674 422.138 142.976C414.87 151.048 408.29 162.514 400.779 183.525C393.123 204.943 385.559 233.061 374.748 273.407L335.856 418.554C325.045 458.901 317.537 487.034 313.459 509.41C309.457 531.362 309.422 544.581 311.681 555.206C316.522 577.98 328.448 598.637 345.75 614.215C351.841 619.7 359.863 624.791 372.46 630.187C375.515 631.495 378.839 632.822 382.47 634.176C383.711 634.638 384.987 635.104 386.3 635.574C406.378 642.751 432.346 649.848 468.758 659.615L476.178 661.604L676.977 709.24ZM675.277 709.191C675.706 709.205 676.133 709.219 676.557 709.233L676.977 709.24L675.277 709.191ZM675.277 709.191C668.096 708.904 659.588 707.903 649.076 705.985C644.164 705.089 638.973 704.032 633.437 702.807L675.277 709.191Z" />
</svg>
