<?xml version="1.0" standalone="no"?><!DOCTYPE svg PUBLIC "-//W3C//DTD SVG 1.1//EN" "http://www.w3.org/Graphics/SVG/1.1/DTD/svg11.dtd"><svg t="1700533462343" class="icon" viewBox="0 0 1024 1024" version="1.1" xmlns="http://www.w3.org/2000/svg" p-id="19054" xmlns:xlink="http://www.w3.org/1999/xlink" width="200" height="200"><path d="M695 772.4H327c-69.7 0-135.3-27.1-184.6-76.4S66 581.1 66 511.4s27.1-135.3 76.4-184.6 114.8-76.4 184.6-76.4h368c69.7 0 135.3 27.1 184.6 76.4S956 441.6 956 511.4s-27.1 135.2-76.4 184.5c-49.3 49.3-114.9 76.5-184.6 76.5z m-368-458c-108.6 0-197 88.4-197 197s88.4 197 197 197h368c108.6 0 197-88.4 197-197s-88.4-197-197-197H327z" fill="" p-id="19055"></path><path d="M327 314.4c52.6 0 102.1 20.5 139.3 57.7 37.2 37.2 57.7 86.7 57.7 139.3s-20.5 102.1-57.7 139.3c-37.2 37.2-86.7 57.7-139.3 57.7s-102.1-20.5-139.3-57.7C150.5 613.5 130 564 130 511.4s20.5-102.1 57.7-139.3c37.2-37.2 86.7-57.7 139.3-57.7m0-64c-144.1 0-261 116.9-261 261s116.9 261 261 261 261-116.9 261-261-116.9-261-261-261z" fill="" p-id="19056"></path></svg>