<?xml version="1.0" standalone="no"?><!DOCTYPE svg PUBLIC "-//W3C//DTD SVG 1.1//EN" "http://www.w3.org/Graphics/SVG/1.1/DTD/svg11.dtd"><svg t="1710220298755" class="icon" viewBox="0 0 1024 1024" version="1.1" xmlns="http://www.w3.org/2000/svg" p-id="4466" xmlns:xlink="http://www.w3.org/1999/xlink" width="200" height="200"><path d="M925.266567 79.0025c10.869736 0 19.730933 8.861198 19.730933 19.730933v826.572517a19.770317 19.770317 0 0 1-19.730933 19.730933H98.69405a19.770317 19.770317 0 0 1-19.730933-19.730933V98.733433c0-10.869736 8.861198-19.730933 19.730933-19.730933h826.572517m0-78.963117H98.69405A98.69405 98.69405 0 0 0 0 98.733433v826.572517A98.69405 98.69405 0 0 0 98.69405 1024h826.572517A98.69405 98.69405 0 0 0 1023.960617 925.30595V98.733433A98.69405 98.69405 0 0 0 925.266567 0.039383z" p-id="4467"></path><path d="M979.536479 314.23776H18.510057v78.923734h961.026422z" p-id="4468"></path><path d="M394.38237 340.545671H315.419253V1024h78.963117V340.545671z m315.37987 0h-78.923734V1024h78.923734V340.545671z" p-id="4469"></path><path d="M995.604784 628.396754H34.538979v78.963117H995.604784z" p-id="4470"></path></svg>