<?xml version="1.0" standalone="no"?><!DOCTYPE svg PUBLIC "-//W3C//DTD SVG 1.1//EN" "http://www.w3.org/Graphics/SVG/1.1/DTD/svg11.dtd"><svg t="1710220289572" class="icon" viewBox="0 0 1024 1024" version="1.1" xmlns="http://www.w3.org/2000/svg" p-id="4329" xmlns:xlink="http://www.w3.org/1999/xlink" width="200" height="200"><path d="M916.14208 0.69632H107.74016C47.83104 0.69632 0.69632 47.83104 0.69632 107.74016v808.40192c0 59.90912 47.13472 107.04896 107.04384 107.04896h808.51968c59.90912 0 106.9312-47.02208 106.9312-107.04896V107.74016c0-59.90912-47.13984-107.04384-107.04896-107.04384z m35.64544 107.04384v209.32608h-244.85376V72.09984h209.20832c20.66944 0 35.64544 14.976 35.64544 35.64032zM352.59904 72.09984h283.04384v244.97152H352.62976l-0.03072-244.97152z m0.0768 634.8288h282.97216v244.85376H352.70656l-0.03072-244.85376z m-0.01024-71.28576l-0.03072-247.29088h283.008v247.29088H352.6656z m354.26304-247.28576h244.85376v247.29088h-244.85376V388.35712z m209.21344 563.4304h-209.20832v-244.85376h244.85376v209.20832c0 20.66944-14.976 35.64544-35.64544 35.64544z" p-id="4330"></path></svg>