<?xml version="1.0" standalone="no"?><!DOCTYPE svg PUBLIC "-//W3C//DTD SVG 1.1//EN" "http://www.w3.org/Graphics/SVG/1.1/DTD/svg11.dtd"><svg t="1741875182144" class="icon" viewBox="0 0 1024 1024" version="1.1" xmlns="http://www.w3.org/2000/svg" p-id="3493" xmlns:xlink="http://www.w3.org/1999/xlink" width="200" height="200">
<path d="M668.634 857.525C657.549 857.619 646.881 853.214 638.998 845.305C622.75 828.631 622.75 801.795 638.998 785.131L848.774 572.156C853.941 566.956 858.042 560.768 860.842 553.95C863.642 547.132 865.084 539.819 865.086 532.432C865.086 517.516 859.22 503.21 848.774 492.708L546.841 186.166C530.649 169.653 530.649 142.967 546.841 126.453C563.265 109.958 589.699 109.958 606.123 126.453L910.841 435.803C963.053 489.307 963.053 575.529 910.841 629.033L697.807 845.295C690.064 853.137 679.571 857.536 668.634 857.525ZM367.617 194.63C370.449 194.517 373.187 195.729 375.029 197.917L699.195 527.012C701.24 528.966 702.388 531.69 702.388 534.536C702.388 537.392 701.231 540.106 699.195 542.06L449.596 795.464C448.644 796.489 447.495 797.305 446.22 797.862C444.946 798.42 443.572 798.706 442.184 798.704C439.372 798.704 436.698 797.53 434.773 795.464L112.919 466.369C111.852 465.447 111.004 464.29 110.442 462.987C109.879 461.683 109.616 460.267 109.672 458.845V194.63H367.617ZM367.617 110.005H70.311C44.7366 110.005 24.0014 131.056 24.0014 157.019V458.385C23.9327 470.871 26.3133 483.246 31.0043 494.788C35.6954 506.33 42.6031 516.809 51.3245 525.613L375.491 854.707C384.116 863.664 394.417 870.78 405.789 875.639C417.161 880.497 429.375 883 441.712 883C466.639 883 490.511 872.808 507.934 854.707L758.014 600.825C766.837 592.069 773.846 581.611 778.632 570.066C783.418 558.522 785.883 546.122 785.883 533.597C785.883 521.072 783.418 508.672 778.632 497.128C773.846 485.583 766.837 475.125 758.014 466.369L433.848 137.274C425.137 128.503 414.797 121.575 403.427 116.894C392.058 112.213 379.886 109.871 367.617 110.005ZM280.559 323.45C292.865 323.384 304.699 328.287 313.434 337.079C322.196 345.909 327.128 357.923 327.128 370.463C327.128 376.668 325.917 382.812 323.567 388.54C321.217 394.268 317.773 399.467 313.434 403.838C309.13 408.244 304.009 411.742 298.366 414.13C292.724 416.518 286.672 417.748 280.559 417.749C274.445 417.75 268.39 416.521 262.746 414.133C257.102 411.745 251.98 408.246 247.675 403.838C243.336 399.467 239.892 394.268 237.542 388.54C235.191 382.812 233.981 376.668 233.981 370.463C233.981 357.923 238.913 345.909 247.675 337.079C252.004 332.724 257.137 329.279 262.78 326.94C268.423 324.601 274.464 323.415 280.559 323.45ZM280.559 276.436C256.03 276.54 232.547 286.515 215.263 304.175C179.881 341.175 180.455 400.202 216.549 436.489C252.644 472.775 310.787 472.775 346.882 436.489C382.977 400.202 383.55 341.175 348.168 304.175C330.875 286.523 307.395 276.548 282.872 276.436H280.559Z"  />
</svg>
