<?xml version="1.0" standalone="no"?><!DOCTYPE svg PUBLIC "-//W3C//DTD SVG 1.1//EN" "http://www.w3.org/Graphics/SVG/1.1/DTD/svg11.dtd"><svg t="1715411723453" class="icon" viewBox="0 0 1024 1024" version="1.1" xmlns="http://www.w3.org/2000/svg" p-id="1537" xmlns:xlink="http://www.w3.org/1999/xlink" width="200" height="200"><path d="M239.054 999.932a21.754 21.754 0 0 1-21.732-21.72v-71.88L141.634 664.548l-0.692-1.028C15.906 476.434 66.208 223.41 253.294 98.376s440.11-74.734 565.144 112.352a407.438 407.438 0 0 1 68.612 218.4l0.04 2.226 97.514 167.43a21.618 21.618 0 0 1-18.768 32.554h-80.784l-19.8 242.646a21.638 21.638 0 0 1-21.632 20h-179.8v84.258a21.744 21.744 0 0 1-21.72 21.72z m-121.748-531.6a363.162 363.162 0 0 0 62.026 174.376 19.552 19.552 0 0 1 2.726 5.67l77.702 248.4a20.016 20.016 0 0 1 0.894 6.374v53.336h359.738v-84.256a21.742 21.742 0 0 1 21.716-21.722h181.554l19.8-242.518a21.632 21.632 0 0 1 21.62-20h62.958l-75.088-128.982h-180.34l-0.698 7.82a186.482 186.482 0 0 1-21.05 70.926l-0.428 0.8-0.242 0.872a20.862 20.862 0 0 1-0.95 2.728l-64.726 149.312-17.274 52.71a49.174 49.174 0 0 1-46.882 34.218h-69.97a49.11 49.11 0 0 1-46.872-33.956l-17.348-52.866-64.426-148.928a22.348 22.348 0 0 1-0.932-2.682l-0.254-0.882-0.434-0.8a188.218 188.218 0 0 1-21.388-71.45l-0.72-7.814H116.524z m328.8 266.632h78.4l12.324-37.434h-103.038zM486.4 414.616a69.612 69.612 0 0 1 21.582 135.8l-5.932 1.934v101.738h51.346l55.876-129.038c0.088-0.166 0.166-0.316 0.234-0.474l0.288-0.63 0.188-0.668a21.568 21.568 0 0 1 1.832-4.65 143.924 143.924 0 1 0-252.344 1.188 21.618 21.618 0 0 1 1.902 4.736l0.156 0.564 55.692 128.972h53.516V552.34l-5.918-1.934a69.612 69.612 0 0 1 21.582-135.8z m0 31.316a38.3 38.3 0 1 0 38.292 38.308v-0.014a38.344 38.344 0 0 0-38.292-38.298z m-1.098-183.25a187.72 187.72 0 0 1 182.8 146.2l1.51 6.708h173.556l-0.784-9.32c-15.836-186.628-175.08-332.822-362.532-332.822s-346.69 146.2-362.526 332.822l-0.784 9.32h184.426l1.494-6.716a187.984 187.984 0 0 1 182.844-146.182z"  p-id="1538"></path><path d="M228.992 368.208a20.238 20.238 0 0 1-5.538-0.766l-27.022-7.304a21.748 21.748 0 0 1 11.4-41.974l26.908 7.274a21.768 21.768 0 0 1-5.758 42.768z" p-id="1539"></path><path d="M486.404 213.242A21.748 21.748 0 0 1 464.68 191.52V163.636a21.72 21.72 0 1 1 43.44-0.07V191.52a21.746 21.746 0 0 1-21.716 21.722z"  p-id="1540"></path><path d="M640.992 254.83a21.78 21.78 0 0 1-15.262-37.224l19.738-19.626a21.762 21.762 0 0 1 31.028 30.522q-0.172 0.176-0.35 0.348l-19.746 19.626a21.684 21.684 0 0 1-15.408 6.354z" p-id="1541"></path><path d="M323.454 254.83a21.436 21.436 0 0 1-15.262-6.33l-19.8-19.668a21.51 21.51 0 0 1-6.4-15.338 21.778 21.778 0 0 1 6.328-15.446 21.448 21.448 0 0 1 15.37-6.378 21.766 21.766 0 0 1 15.4 6.32l19.744 19.634a21.78 21.78 0 0 1 0.076 30.784 22.122 22.122 0 0 1-15.456 6.422z" p-id="1542"></path><path d="M735.456 368.208a21.77 21.77 0 0 1-5.638-42.768l26.922-7.276a21.75 21.75 0 0 1 11.4 41.978l-26.922 7.276a23.272 23.272 0 0 1-5.762 0.79z"  p-id="1543"></path></svg>