<?xml version="1.0" standalone="no"?><!DOCTYPE svg PUBLIC "-//W3C//DTD SVG 1.1//EN" "http://www.w3.org/Graphics/SVG/1.1/DTD/svg11.dtd"><svg t="1745407895942" class="icon" viewBox="0 0 1024 1024" version="1.1" xmlns="http://www.w3.org/2000/svg" p-id="26542" xmlns:xlink="http://www.w3.org/1999/xlink" width="200" height="200"><path d="M139.465143 305.316571L435.419429 98.084571a73.142857 73.142857 0 0 1 101.851428 17.974858l46.683429 66.633142c0.676571 0.987429 1.334857 1.993143 1.956571 2.998858L139.465143 305.316571z" p-id="26543"></path><path d="M223.195429 642.56a171.300571 171.300571 0 0 1-52.205715 172.891429l14.464 53.997714c2.742857 10.148571 13.165714 16.182857 23.314286 13.458286l735.451429-197.065143c10.148571-2.724571 16.182857-13.165714 13.458285-23.314286l-14.445714-53.979429a171.318857 171.318857 0 0 1-131.657143-123.629714 171.300571 171.300571 0 0 1 52.187429-172.891428l-14.464-53.997715a19.035429 19.035429 0 0 0-23.314286-13.458285L90.532571 441.636571c-10.148571 2.724571-16.182857 13.165714-13.458285 23.314286l14.464 53.997714a171.300571 171.300571 0 0 1 131.657143 123.611429zM19.017143 470.125714A73.142857 73.142857 0 0 1 70.765714 380.525714L812.562286 181.76a73.142857 73.142857 0 0 1 89.6 51.712l21.046857 78.592a58.514286 58.514286 0 0 1-20.516572 61.257143 91.446857 91.446857 0 0 0 44.507429 162.797714 56.265143 56.265143 0 0 1 47.085714 41.234286l21.449143 80.018286a73.142857 73.142857 0 0 1-51.712 89.6L222.171429 945.737143a73.142857 73.142857 0 0 1-89.563429-51.730286l-20.169143-75.282286a63.707429 63.707429 0 0 1 21.211429-65.828571 91.446857 91.446857 0 0 0-43.337143-161.133714 63.268571 63.268571 0 0 1-51.035429-46.08L19.017143 470.107429z m668.982857-46.738285a54.857143 54.857143 0 1 1-28.397714-105.984 54.857143 54.857143 0 0 1 28.397714 105.984z m37.851429 141.293714a54.857143 54.857143 0 1 1-28.379429-105.965714 54.857143 54.857143 0 0 1 28.397714 105.965714z m37.869714 141.312a54.857143 54.857143 0 1 1-28.397714-105.984 54.857143 54.857143 0 0 1 28.397714 105.984z" p-id="26544"></path></svg>