<?xml version="1.0" standalone="no"?><!DOCTYPE svg PUBLIC "-//W3C//DTD SVG 1.1//EN" "http://www.w3.org/Graphics/SVG/1.1/DTD/svg11.dtd"><svg t="1724658499320" class="icon" viewBox="0 0 1024 1024" version="1.1" xmlns="http://www.w3.org/2000/svg" p-id="14047" xmlns:xlink="http://www.w3.org/1999/xlink" width="200" height="200"><path d="M901.3 341.5L842.6 367c19.6 45.2 29.6 93.4 29.6 143.2 0 198.4-161.4 359.9-359.9 359.9s-359.9-161.6-359.9-360 161.4-359.9 359.9-359.9c47.9 0 95.5 9.6 139.3 28l-34.1 63.3L765 206.6 713.5 63.4l-31.4 58.3c-53.3-23.2-111.3-35.4-169.8-35.4-57.2 0-112.7 11.2-165 33.3-50.5 21.4-95.8 51.9-134.7 90.8-38.9 38.9-69.5 84.2-90.8 134.7-22.1 52.3-33.3 107.8-33.3 165s11.2 112.7 33.3 165c21.4 50.5 51.9 95.8 90.8 134.7 38.9 38.9 84.2 69.5 134.7 90.8 52.3 22.1 107.8 33.3 165 33.3s112.7-11.2 165-33.3c50.5-21.4 95.8-51.9 134.7-90.8 38.9-38.9 69.5-84.2 90.8-134.7 22.1-52.3 33.3-107.8 33.3-165 0.1-58.6-11.7-115.3-34.8-168.6z" p-id="14048"></path><path d="M479.8 234.9v294.3l256.8 138.9 30.4-56.3L543.8 491V234.9z" p-id="14049"></path></svg>