<?xml version="1.0" standalone="no"?><!DOCTYPE svg PUBLIC "-//W3C//DTD SVG 1.1//EN" "http://www.w3.org/Graphics/SVG/1.1/DTD/svg11.dtd"><svg t="1724658693685" class="icon" viewBox="0 0 1024 1024" version="1.1" xmlns="http://www.w3.org/2000/svg" p-id="16218" xmlns:xlink="http://www.w3.org/1999/xlink" width="200" height="200">
<path fill-rule="evenodd" clip-rule="evenodd" d="M531.478 427.64H807.18C826.486 427.64 845.002 414.273 858.657 390.478C872.312 366.683 879.989 334.407 880 300.746C880 267.073 872.328 234.779 858.671 210.968C845.015 187.157 826.493 173.78 807.18 173.78H531.478C512.165 173.78 493.643 187.157 479.986 210.968C466.33 234.779 458.658 267.073 458.658 300.746C458.669 334.407 466.345 366.683 480.001 390.478C493.656 414.273 512.172 427.64 531.478 427.64ZM168.82 750.982H485.733C505.039 750.982 523.555 737.615 537.21 713.82C550.866 690.025 558.542 657.749 558.553 624.088C558.553 590.415 550.881 558.121 537.225 534.31C523.568 510.499 505.046 497.123 485.733 497.123H168.82C149.507 497.123 130.985 510.499 117.328 534.31C103.672 558.121 96 590.415 96 624.088C96.0109 657.749 103.688 690.025 117.343 713.82C130.998 737.615 149.514 750.982 168.82 750.982ZM138.901 423.041H171.045V218.258H212.669V168.535H97.2775V218.114H138.901V423.041ZM254.704 423.041H286.849V227.815H287.261L324.351 422.898H349.077L387.404 227.815H387.816V422.898H419.96V168.535H371.125L337.332 334.517H336.92L303.333 168.535H254.704V423.041ZM724.181 568.545C719.882 552.915 713.494 539.313 705.553 528.882C697.315 518.378 687.955 510.854 678.024 506.751C667.147 502.013 655.979 499.6 644.767 499.566H596.55V753.928H649.094C659.649 754.017 670.147 751.229 680.208 745.665C689.708 740.625 698.583 732.534 706.378 721.81C713.96 711.08 720.106 697.592 724.387 682.29C729.015 665.287 731.315 646.642 731.104 627.825C731.44 607.4 729.071 587.115 724.181 568.545ZM693.561 661.452C691.15 671.04 687.412 679.435 682.681 685.883C677.765 692.183 672.151 696.636 666.197 698.96C659.44 701.674 652.525 703 645.591 702.912H628.901V552.019H647.858C654.362 551.963 660.84 553.486 667.103 556.546C672.866 559.254 678.288 563.811 683.093 569.982C687.499 576.027 691.075 583.711 693.561 592.473C696.392 602.576 697.805 613.708 697.682 624.951C697.863 637.498 696.456 649.961 693.561 661.452ZM877.486 660.518C876.031 653.571 873.82 647.179 870.975 641.692C868.144 636.236 864.764 631.731 861.002 628.4C856.899 624.788 852.487 622.362 847.938 621.214V620.496C855.006 616.957 861.334 609.918 866.153 600.233C870.903 590.137 873.366 577.355 873.076 564.306C873.385 552.603 871.739 540.996 868.337 530.894C865.233 522.657 860.979 515.932 855.974 511.35C850.59 506.502 844.759 503.34 838.748 502.009C832.441 500.438 826.079 499.646 819.708 499.638H765.31V754H825.066C831.604 754.006 838.125 752.802 844.517 750.407C850.741 748.235 856.706 744.225 862.156 738.551C867.313 733.186 871.686 725.807 874.931 716.995C878.406 706.853 880.123 695.174 879.876 683.368C879.883 675.58 879.116 667.85 877.61 660.518H877.486ZM797.454 547.348H819.296C821.855 547.366 824.407 547.799 826.92 548.642C829.357 549.406 831.717 550.786 833.926 552.737C835.963 554.674 837.69 557.465 838.954 560.857C840.345 564.775 841.034 569.329 840.932 573.934C840.992 578.44 840.381 582.896 839.16 586.868C838.048 590.356 836.464 593.317 834.544 595.49C832.547 597.697 830.343 599.278 828.033 600.161C825.643 601.143 823.194 601.625 820.738 601.598H797.454V547.348ZM845.753 691.056C844.514 694.805 842.793 698.002 840.726 700.397C838.631 702.854 836.278 704.564 833.802 705.427C831.341 706.394 828.825 706.876 826.302 706.864H797.454V649.381H821.769C824.527 649.426 827.28 649.786 830.011 650.459C832.911 651.153 835.749 652.481 838.459 654.411C840.987 656.255 843.21 659.17 844.929 662.889C846.723 667.011 847.64 672.09 847.526 677.26C847.658 682.053 847.046 686.819 845.753 691.056ZM206 606.784C206 586.901 222.118 570.784 242 570.784H422C439.121 570.784 453 584.663 453 601.784V651.192C453 668.865 438.673 683.192 421 683.192H242C222.118 683.192 206 667.074 206 647.192V606.784ZM596 243.295C578.327 243.295 564 257.622 564 275.295V313.852C564 332.078 578.775 346.852 597 346.852H745C760.464 346.852 773 334.316 773 318.852V273.295C773 256.727 759.569 243.295 743 243.295H596Z" />
</svg>
