<?xml version="1.0" standalone="no"?><!DOCTYPE svg PUBLIC "-//W3C//DTD SVG 1.1//EN" "http://www.w3.org/Graphics/SVG/1.1/DTD/svg11.dtd"><svg t="1741240066155" class="icon" viewBox="0 0 1170 1024" version="1.1" xmlns="http://www.w3.org/2000/svg" p-id="7491" xmlns:xlink="http://www.w3.org/1999/xlink" width="228.515625" height="200">
<path d="M146.995 138.834C124.444 138.834 106.162 157.115 106.162 179.667C106.162 202.219 124.444 220.5 146.995 220.5H148.629C171.18 220.5 189.462 202.219 189.462 179.667C189.462 157.115 171.18 138.834 148.629 138.834H146.995Z"/>
<path d="M277.662 142.917C257.366 142.917 240.912 159.37 240.912 179.667C240.912 199.963 257.366 216.417 277.662 216.417H832.993C853.293 216.417 869.743 199.963 869.743 179.667C869.743 159.37 853.293 142.917 832.993 142.917H277.662Z"/>
<path d="M106.162 800.331C106.162 777.784 124.444 759.5 146.995 759.5H148.629C171.18 759.5 189.462 777.784 189.462 800.331C189.462 822.885 171.18 841.169 148.629 841.169H146.995C124.444 841.169 106.162 822.885 106.162 800.331Z"/>
<path d="M146.995 449.167C124.444 449.167 106.162 467.449 106.162 490C106.162 512.552 124.444 530.834 146.995 530.834H148.629C171.18 530.834 189.462 512.552 189.462 490C189.462 467.449 171.18 449.167 148.629 449.167H146.995Z" />
<path d="M240.912 490C240.912 469.704 257.366 453.25 277.662 453.25H702.331C722.624 453.25 739.081 469.704 739.081 490C739.081 510.297 722.624 526.75 702.331 526.75H277.662C257.366 526.75 240.912 510.297 240.912 490Z" />
<path d="M277.662 763.581C257.366 763.581 240.912 780.038 240.912 800.331C240.912 820.631 257.366 837.081 277.662 837.081H832.993C853.293 837.081 869.743 820.631 869.743 800.331C869.743 780.038 853.293 763.581 832.993 763.581H277.662Z"/>
</svg>
