<?xml version="1.0" standalone="no"?><!DOCTYPE svg PUBLIC "-//W3C//DTD SVG 1.1//EN" "http://www.w3.org/Graphics/SVG/1.1/DTD/svg11.dtd"><svg t="1718109235536" class="icon" viewBox="0 0 1024 1024" version="1.1" xmlns="http://www.w3.org/2000/svg" p-id="10078" xmlns:xlink="http://www.w3.org/1999/xlink" width="200" height="200">
<path d="M597.636 62C638.743 69.3098 678.637 82.3746 716.162 100.816C660.285 146.156 590.709 170.838 518.999 170.757C447.26 170.859 377.648 146.176 321.748 100.816C359.3 82.3666 399.225 69.3017 440.363 62C465.482 71.6235 492.13 76.5484 518.999 76.5333C545.869 76.5484 572.517 71.6235 597.636 62Z" />
<path d="M811.007 163.304C836.498 185.165 859.518 209.799 879.648 236.758C782.353 330.02 653.215 381.941 519 381.758C384.786 381.941 255.648 330.02 158.353 236.758C178.465 209.802 201.465 185.169 226.934 163.304C305.701 238.881 410.295 280.951 519 280.782C627.685 280.935 732.255 238.866 811.007 163.304Z" />
<path d="M103.878 331.8C90.7438 362.85 81.109 395.289 75.1543 428.508C179.422 459.522 267.848 529.848 322.079 624.889C376.536 719.82 392.658 832.261 367.1 938.867C398.609 950.218 431.277 957.977 464.496 962C495.909 830.373 475.909 691.599 408.64 574.446C341.701 457.092 232.579 370.211 103.878 331.8Z" />
<path d="M94.8721 665.523C80.6304 625.948 71.9228 584.564 69 542.566C135.866 568.689 191.847 617.126 227.624 679.815C263.577 742.412 277.189 815.544 266.192 887.035C231.616 863.375 200.447 835.009 173.568 802.742C169.239 776.08 160.148 750.432 146.736 727.048C133.3 703.528 115.725 682.68 94.8721 665.523Z" />
<path d="M715.953 624.889C770.184 529.848 858.61 459.522 962.878 428.508C956.924 395.289 947.288 362.85 934.154 331.8C805.508 370.33 696.4 457.147 629.293 574.381C562.187 691.615 542.189 830.34 573.417 962C606.635 957.977 639.303 950.218 670.811 938.867C645.29 832.245 661.456 719.803 715.953 624.889Z" />
<path d="M943.158 665.614C901.201 700.181 873.213 749.024 864.461 802.953C837.572 835.167 806.404 863.482 771.839 887.095C760.952 815.609 774.554 742.514 810.399 679.877C846.244 617.24 902.189 568.805 969 542.566C966.095 584.594 957.397 626.008 943.158 665.614Z" />
</svg>
