<?xml version="1.0" standalone="no"?><!DOCTYPE svg PUBLIC "-//W3C//DTD SVG 1.1//EN" "http://www.w3.org/Graphics/SVG/1.1/DTD/svg11.dtd"><svg t="1741240066155" class="icon" viewBox="0 0 1170 1024" version="1.1" xmlns="http://www.w3.org/2000/svg" p-id="7491" xmlns:xlink="http://www.w3.org/1999/xlink" width="228.515625" height="200">
<path fill-rule="evenodd" clip-rule="evenodd" d="M489.996 118.416C284.775 118.416 118.412 284.78 118.412 490C118.412 695.22 284.775 861.581 489.996 861.581C695.215 861.581 861.581 695.22 861.581 490C861.581 284.78 695.215 118.416 489.996 118.416ZM44.9121 490C44.9121 244.187 244.182 44.9165 489.996 44.9165C735.805 44.9165 935.081 244.187 935.081 490C935.081 735.812 735.805 935.081 489.996 935.081C244.182 935.081 44.9121 735.812 44.9121 490Z" />
<path fill-rule="evenodd" clip-rule="evenodd" d="M406.436 598.281C386.404 611.636 379.746 626.049 379.746 637C379.746 647.951 386.404 662.364 406.436 675.718C426.21 688.901 455.646 698.25 489.996 698.25C524.345 698.25 553.78 688.901 573.555 675.718C593.586 662.364 600.246 647.951 600.246 637C600.246 626.049 593.586 611.636 573.555 598.281C553.78 585.098 524.345 575.75 489.996 575.75C455.646 575.75 426.21 585.098 406.436 598.281ZM365.665 537.125C399.094 514.839 443.159 502.25 489.996 502.25C536.832 502.25 580.896 514.839 614.325 537.125C647.497 559.24 673.746 593.828 673.746 637C673.746 680.173 647.497 714.756 614.325 736.876C580.896 759.157 536.832 771.75 489.996 771.75C443.159 771.75 399.094 759.157 365.665 736.876C332.494 714.756 306.246 680.173 306.246 637C306.246 593.828 332.494 559.24 365.665 537.125Z" />
<path fill-rule="evenodd" clip-rule="evenodd" d="M285.829 359.333C285.829 336.781 304.111 318.5 326.662 318.5H328.296C350.847 318.5 369.129 336.781 369.129 359.333C369.129 381.885 350.847 400.166 328.296 400.166H326.662C304.111 400.166 285.829 381.885 285.829 359.333Z" />
<path fill-rule="evenodd" clip-rule="evenodd" d="M596.162 359.333C596.162 336.781 614.444 318.5 636.996 318.5H638.629C661.18 318.5 679.462 336.781 679.462 359.333C679.462 381.885 661.18 400.166 638.629 400.166H636.996C614.444 400.166 596.162 381.885 596.162 359.333Z" />
</svg>
