<?xml version="1.0" standalone="no"?><!DOCTYPE svg PUBLIC "-//W3C//DTD SVG 1.1//EN" "http://www.w3.org/Graphics/SVG/1.1/DTD/svg11.dtd"><svg t="1741240066155" class="icon" viewBox="0 0 1170 1024" version="1.1" xmlns="http://www.w3.org/2000/svg" p-id="7491" xmlns:xlink="http://www.w3.org/1999/xlink" width="228.515625" height="200">
<path fill-rule="evenodd" clip-rule="evenodd" d="M220.762 443.27H432.579L473.656 523.142C482.939 541.192 505.095 548.298 523.145 539.016C541.194 529.734 548.302 507.576 539.019 489.527L487.819 389.97L388.896 189.926C363.414 138.397 289.928 138.397 264.447 189.926L165.523 389.97L114.323 489.527C105.041 507.576 112.148 529.734 130.196 539.016C148.246 548.298 170.403 541.192 179.686 523.142L220.762 443.27ZM257.508 369.77L326.671 229.908L395.834 369.77H257.508Z" fill="black"/>
<path d="M825.461 533.877C831.649 514.547 821.002 493.859 801.668 487.67C782.341 481.48 761.656 492.132 755.461 511.462C739.109 562.532 708.694 637.444 662.337 686.89C643.498 665.451 626.464 643.277 613.122 624.848C601.221 608.408 578.245 604.728 561.804 616.63C545.364 628.532 541.684 651.508 553.586 667.949C567.385 687.01 585.588 710.815 606.314 734.482C571.791 758.401 529.296 780.094 477.734 798.364C458.603 805.14 448.589 826.147 455.366 845.278C462.144 864.409 483.148 874.419 502.279 867.643C564.205 845.705 616.35 818.538 659.13 787.08C686.89 808.661 724.563 827.456 754.18 840.742C772.282 848.862 788.837 855.561 800.863 860.223C806.89 862.554 811.811 864.395 815.255 865.662C816.977 866.292 818.335 866.782 819.28 867.125L820.379 867.517L820.778 867.657C820.778 867.657 820.827 867.678 833.007 833L820.778 867.657C839.93 874.384 860.958 864.332 867.678 845.18C874.405 826.035 864.339 805.056 845.187 798.329L844.963 798.252L844.109 797.944C843.325 797.664 842.142 797.237 840.602 796.67C837.522 795.536 833.007 793.856 827.435 791.693C816.256 787.36 800.919 781.158 784.266 773.682C759.535 762.587 734.594 749.854 715.785 737.345C774.053 675.269 808.458 586.981 825.461 533.877Z"/>
<path d="M212.338 583.917C232.634 583.917 249.088 600.37 249.088 620.667V669.667C249.088 703.493 276.51 730.919 310.338 730.919H359.338C379.634 730.919 396.088 747.369 396.088 767.669C396.088 787.962 379.634 804.419 359.338 804.419H310.338C235.917 804.419 175.588 744.086 175.588 669.667V620.667C175.588 600.37 192.041 583.917 212.338 583.917Z" />
<path d="M730.919 359.334C730.919 379.63 747.376 396.084 767.669 396.084C787.969 396.084 804.419 379.63 804.419 359.334V310.334C804.419 235.913 744.093 175.584 669.671 175.584H620.671C600.374 175.584 583.921 192.037 583.921 212.334C583.921 232.63 600.374 249.084 620.671 249.084H669.671C703.5 249.084 730.919 276.506 730.919 310.334V359.334Z" />
</svg>
