<?xml version="1.0" standalone="no"?><!DOCTYPE svg PUBLIC "-//W3C//DTD SVG 1.1//EN" "http://www.w3.org/Graphics/SVG/1.1/DTD/svg11.dtd"><svg t="1710220648066" class="icon" viewBox="0 0 1024 1024" version="1.1" xmlns="http://www.w3.org/2000/svg" p-id="4604" xmlns:xlink="http://www.w3.org/1999/xlink" width="200" height="200"><path d="M171.065368 398.23476h56.8262v455.106096H171.065368z" p-id="4605"></path><path d="M171.065368 284.58236h56.8262v56.871336H171.065368z" p-id="4606"></path><path d="M0.586768 0v1024h1022.826464V0z m965.909992 967.128664H57.412968l2.347071-900.823908h909.2192z" p-id="4607"></path><path d="M341.543968 853.385992h56.8262v-398.189624h113.6524v-56.871336H398.370168a170.568872 170.568872 0 0 1 170.4786-170.659144V170.839688a227.440208 227.440208 0 0 0-227.3048 227.575616H284.717768v56.871336h56.8262z" p-id="4608"></path><path d="M656.412571 841.605501a801.705294 801.705294 0 0 1 0-414.122625 297.130163 297.130163 0 0 0 0 414.122625z" p-id="4609"></path><path d="M856.500375 634.52162a257.275091 257.275091 0 0 0-84.043197-207.038744 801.615022 801.615022 0 0 1 0 414.122625 257.275091 257.275091 0 0 0 84.043197-207.083881z" p-id="4610"></path></svg>