<?xml version="1.0" standalone="no"?><!DOCTYPE svg PUBLIC "-//W3C//DTD SVG 1.1//EN" "http://www.w3.org/Graphics/SVG/1.1/DTD/svg11.dtd"><svg t="1715591142948" class="icon" viewBox="0 0 1024 1024" version="1.1" xmlns="http://www.w3.org/2000/svg" p-id="11280" xmlns:xlink="http://www.w3.org/1999/xlink" width="200" height="200">
<path d="M268.31 652.648C256.834 657.597 242.586 664 224.571 664C175.636 664 157.015 617.684 157.015 548.845V409.442H128V350.048L159.873 346.143L166.195 264H210.584V346.143H261.597V409.442H210.584V548.346C210.584 583.991 220.5 600.837 238.905 600.837C245.488 600.837 253.629 597.477 259.086 594.117L268.31 652.648ZM356.263 652.648H302.261V346.143H346.389L350.417 396.501H351.499C366.57 356.587 388.569 334.746 409.832 334.746C421.308 334.746 427.89 337.607 433.737 346.098L424.902 410.714C418.035 407.29 410.506 405.58 402.903 405.719C387.14 405.719 367.999 421.884 356.306 470.471V652.648H356.263ZM861.378 630.262C841.155 651.013 815.085 664 789.751 664C732.025 664 687.29 604.742 687.29 502.211C687.29 396.501 734.277 334.791 783.169 334.791C839.726 334.791 869 395.956 869 488.044C869 502.756 867.961 517.468 866.488 525.097H739.776C744.194 575.817 766.193 601.882 797.07 601.882C813.656 601.882 827.903 594.616 842.974 580.812L861.378 630.307V630.262ZM589.636 612.371C572.054 643.43 552.567 664 524.245 664C479.9 664 460.759 618.229 460.759 540.354V346.143H514.328V530.409C514.328 578.678 523.552 595.343 543.776 595.343C560.232 595.343 571.361 584.354 585.219 556.474V346.143H639.264V652.648H595.136L591.065 612.371H589.636ZM783.905 397.046C762.165 397.046 743.154 422.202 738.694 471.016H822.75C822.75 425.925 810.668 397 783.905 397V397.046Z"/>
</svg>
