<?xml version="1.0" standalone="no"?><!DOCTYPE svg PUBLIC "-//W3C//DTD SVG 1.1//EN" "http://www.w3.org/Graphics/SVG/1.1/DTD/svg11.dtd"><svg t="1721823511100" class="icon" viewBox="0 0 1024 1024" version="1.1" xmlns="http://www.w3.org/2000/svg" p-id="5147" xmlns:xlink="http://www.w3.org/1999/xlink" width="200" height="200"><path d="M870.826667 128c59.306667 115.626667 82.773333 249.173333 67.84 384-8.533333 134.826667-55.466667 268.373333-135.253334 384l-65.28-42.666667c68.693333-103.68 108.8-221.866667 115.2-341.333333 14.506667-119.466667-4.693333-237.653333-55.466666-341.333333l72.96-42.666667M220.586667 128L285.866667 170.666667C217.173333 274.346667 177.066667 392.533333 170.666667 512c-14.506667 119.466667 5.12 237.653333 55.466666 341.333333l-72.106666 42.666667c-59.733333-115.626667-83.626667-248.746667-68.693334-384 8.533333-134.826667 55.466667-268.373333 135.253334-384m294.826666 327.68l98.986667-137.813333h107.946667l-161.28 213.333333 93.866666 209.92h-96.426666L499.626667 597.333333l-103.68 142.08H288.426667l166.4-218.453333-90.88-203.093333h96.853333l54.613333 137.813333z" p-id="5148"></path></svg>