<?xml version="1.0" standalone="no"?><!DOCTYPE svg PUBLIC "-//W3C//DTD SVG 1.1//EN" "http://www.w3.org/Graphics/SVG/1.1/DTD/svg11.dtd"><svg t="1721823511100" class="icon" viewBox="0 0 1024 1024" version="1.1" xmlns="http://www.w3.org/2000/svg" p-id="5147" xmlns:xlink="http://www.w3.org/1999/xlink" width="200" height="200">
<mask id="mask0_7305_93" style="mask-type:luminance" maskUnits="userSpaceOnUse" x="67" y="65" width="890" height="890">
<path d="M67 65H957V955H67V65Z" fill="white"/>
</mask>
<g mask="url(#mask0_7305_93)">
<path fill-rule="evenodd" clip-rule="evenodd" d="M935.093 494.155C935.093 374.276 882.227 266.763 798.933 192.824C805.984 173.032 813.213 137.051 784.37 112.288C766.175 96.6617 740.424 91.8412 715.517 99.5539C703.044 103.365 691.939 110.902 681.562 119.989C635.206 101.362 584.75 90.8369 531.815 90.8369C423.765 90.8369 325.718 133.785 253.239 203.208C201.83 191.563 154.991 203.768 126.409 237.662C87.5742 283.623 89.6832 360.616 131.059 449.892C129.462 464.445 128.498 479.183 128.498 494.155C128.498 501.911 129.231 509.486 129.663 517.133C124.642 524.827 119.881 532.682 115.603 540.794C78.0835 611.974 74.6689 711.961 140.831 765.269C171.401 789.852 213.259 802.266 265.441 802.266C267.57 802.266 269.81 802.134 271.969 802.091C342.229 861.454 432.853 897.43 531.815 897.43C572.751 897.43 612.238 891.203 649.496 879.811C672.204 902.19 696.877 919.4 722.387 926.032C730.42 928.122 738.295 929.167 745.968 929.167C763.119 929.167 779.311 923.942 794.332 913.579C813.374 900.403 824.822 883.091 828.399 862.081C833.541 831.689 820.445 801.561 810.975 784.499C887.31 711.077 935.093 608.17 935.093 494.155ZM723.956 127.072C739.3 122.411 754.924 125.023 765.611 134.142C777.692 144.523 777.534 160.275 774.732 172.982C754.905 157.953 733.726 144.734 711.301 133.521C715.438 131.109 719.506 128.432 723.956 127.072ZM656.708 150.274C653.122 156.227 649.766 162.358 646.813 169.139C622.862 169.913 603.519 189.356 603.519 213.471C603.519 238.075 623.564 258.101 648.19 258.101C672.774 258.101 692.819 238.075 692.819 213.471C692.819 198.645 685.066 186.129 673.898 178.015C676.733 171.773 680.085 166.44 683.51 161.183C809.867 219.004 898.053 346.331 898.053 494.155C898.053 654.091 794.836 790.06 651.635 839.854C638.087 823.946 624.912 805.513 612.58 784.908C619.77 776.984 624.451 766.692 624.451 755.179C624.451 730.572 604.402 710.566 579.819 710.566C565.638 710.566 553.527 717.644 545.353 727.994C475.033 717.617 406.582 690.894 345.652 651.507C341.887 630.453 339.647 609.509 339.145 590.558C356.89 584.648 369.925 568.424 369.925 548.738C369.925 524.135 349.88 504.11 325.256 504.11C300.671 504.11 280.625 524.135 280.625 548.738C280.625 568.041 293.119 584.137 310.312 590.344C310.583 602.547 311.647 615.577 313.194 628.953C263.312 591.244 220.027 544.638 186.625 491.821C211.049 466.496 240.374 445.505 272.882 430.009C281.067 439.146 292.626 445.159 305.813 445.159C330.397 445.159 350.443 425.153 350.443 400.547C350.443 375.943 330.397 355.917 305.813 355.917C281.228 355.917 261.183 375.943 261.183 400.547C261.183 401.565 261.695 402.416 261.765 403.414C228.092 419.286 197.451 440.55 171.481 466.169C170.085 463.624 168.689 461.08 167.343 458.512C185.33 273.207 341.866 127.876 531.815 127.876C575.721 127.876 617.66 136.041 656.708 150.274ZM148.422 256.22C166.66 234.625 195.764 225.288 229.106 228.519C187.228 276.188 156.537 333.69 140.78 397.174C120.564 336.717 122.683 286.702 148.422 256.22ZM135.407 566.851C149.829 645.613 187.148 716.328 240.274 772.033C206.611 768.832 179.284 759.259 158.907 742.854C108.473 702.204 109.105 626.247 135.407 566.851ZM531.815 860.396C336.916 860.396 177.567 707.293 166.601 515.129C166.741 514.948 166.862 514.757 167.002 514.575C206.932 575.366 259.456 627.922 319.642 668.733C324.402 691.56 331 713.8 339.637 733.805C331.553 741.885 326.541 753.039 326.541 765.341C326.541 789.945 346.587 809.95 371.171 809.95C395.756 809.95 415.802 789.945 415.802 765.341C415.802 740.737 395.756 720.709 371.171 720.709C369.223 720.709 367.556 721.579 365.678 721.823C361.571 712.162 358.015 701.762 354.862 690.881C411.012 723.218 472.402 745.402 535.249 755.502C535.441 779.947 555.357 799.807 579.819 799.807C582.41 799.807 584.671 798.752 587.15 798.324C597.536 815.712 609.156 832.757 621.83 848.741C592.977 856.075 562.928 860.396 531.815 860.396ZM799.998 857.258C797.75 870.516 790.557 881.199 777.943 889.878C763.241 900.041 747.534 902.773 729.658 898.152C713.912 894.061 696.949 883.754 679.878 868.894C719.624 853.131 756.411 831.508 788.82 804.636C796.043 819.262 803.09 839.112 799.998 857.258Z" fill="black"/>
</g>
<mask id="mask1_7305_93" style="mask-type:luminance" maskUnits="userSpaceOnUse" x="67" y="65" width="890" height="890">
<path d="M67 65H957V955H67V65Z" fill="white"/>
</mask>
<g mask="url(#mask1_7305_93)">
<path fill-rule="evenodd" clip-rule="evenodd" d="M447.936 288.612C466.296 288.612 482.102 277.417 488.932 261.509C533.089 268.584 595.646 289.212 650.641 335.402C662.521 345.374 673.125 356.333 683.159 367.745C633.567 400.683 572.157 426.76 517.033 436.639C508.878 425.837 496.533 418.385 482.003 418.385C457.416 418.385 437.371 438.39 437.371 462.997C437.371 487.6 457.416 507.625 482.003 507.625C506.125 507.625 525.626 488.269 526.371 464.302C585.292 452.999 649.254 425.28 701.197 390.28C730.211 430.643 749.181 478.578 757.956 533.689C741.787 540.4 730.339 556.302 730.339 574.87C730.339 599.476 750.384 619.482 774.968 619.482C799.555 619.482 819.6 599.476 819.6 574.87C819.6 554.551 805.66 538.063 787.062 532.69C777.882 471.564 756.954 418.45 724.726 373.626C737.489 363.711 748.878 353.398 759.083 342.858C764.044 344.774 769.334 346.077 774.971 346.077C799.555 346.077 819.6 326.051 819.6 301.446C819.6 276.842 799.555 256.816 774.971 256.816C750.384 256.816 730.339 276.842 730.339 301.446C730.339 309.84 733.303 317.259 737.35 323.975C728.282 333.229 718.209 342.346 706.85 351.141C695.31 337.774 683.008 324.972 669.16 313.347C608.36 262.285 539.296 240.135 490.296 232.787C485.217 213.728 468.554 199.352 447.936 199.352C423.312 199.352 403.268 219.377 403.268 243.982C403.268 268.587 423.312 288.612 447.936 288.612Z" fill="black"/>
</g>
</svg>
