<?xml version="1.0" standalone="no"?><!DOCTYPE svg PUBLIC "-//W3C//DTD SVG 1.1//EN" "http://www.w3.org/Graphics/SVG/1.1/DTD/svg11.dtd"><svg t="1620729995694" class="icon" viewBox="0 0 1024 1024" version="1.1" xmlns="http://www.w3.org/2000/svg" p-id="2219" xmlns:xlink="http://www.w3.org/1999/xlink" width="200" height="200"><defs><style type="text/css"></style></defs><path d="M489.2021095 268.00531334c-52.84586364 0-95.84020956-42.99293332-95.84020956-95.84020956 0-40.9584425 26.0199928-77.3983071 64.7488358-90.67551552 14.77020529-5.06714038 30.85385117 2.80502348 35.918165 17.57805671 5.06431243 14.77303325-2.80643745 30.85385117-17.57947071 35.91816498-15.87298758 5.44180394-26.53603788 20.38308159-26.53603788 37.17929383 0 21.66259078 17.62329997 39.28730337 39.28730337 39.28730337s39.28589076-17.62329997 39.28589077-39.28730337c0-15.61708463 12.65936778-28.27645241 28.27645242-28.2764524s28.27645241 12.65936778 28.27645377 28.2764524c0.00141398 52.84727761-42.99151934 95.84020956-95.83738298 95.84020956z" fill="#000" p-id="2220"></path><path d="M467.27937521 136.52263472c-11.7488662 0-22.72154381-7.37874112-26.74528221-19.1134689-5.06572641-14.77303325 2.80361089-30.85385117 17.57664274-35.91957756a95.66206867 95.66206867 0 0 1 31.09137376-5.16328143c15.61708463 0 28.27645241 12.65936778 28.2764538 28.27645377s-12.65936778 28.27645241-28.2764538 28.27645241c-4.38285091 0-8.67238875 0.70832577-12.74985288 2.10659694a28.22696997 28.22696997 0 0 1-9.17288141 1.53682477zM850.86360036 560.62984452c-52.84727761 0-95.84020956-42.99434732-95.84021094-95.84021093s42.99293332-95.83879696 95.84021094-95.83879558c52.84586364 0 95.83879696 42.99293332 95.83879558 95.83879558 0 52.84727761-42.99293332 95.84020956-95.83879558 95.84021093z m0-135.12610032c-21.66259078 0-39.28730337 17.62329997-39.28730475 39.28588939s17.62471258 39.28730337 39.28730475 39.28730476 39.28589076-17.62329997 39.28588938-39.28730476c0-21.66117681-17.62329997-39.28589076-39.28588938-39.28588939zM173.40643963 705.03344844c-52.84586364 0-95.83879696-42.99293332-95.83879558-95.8387956 0-52.84727761 42.99293332-95.84020956 95.83879558-95.84021093 52.84586364 0 95.84020956 42.99293332 95.84021094 95.84021093-0.00141398 52.84586364-42.99434732 95.83879696-95.84021094 95.8387956z m0-135.12610033c-21.66259078 0-39.28589076 17.62471258-39.28588938 39.28730473s17.62329997 39.28589076 39.28588938 39.28588939 39.28730337-17.62329997 39.28730474-39.28588939-17.62471258-39.28730337-39.28730474-39.28730473zM850.86360036 867.40249703c-52.84727761 0-95.84020956-42.99293332-95.84021094-95.83879557 0-52.84727761 42.99293332-95.84020956 95.84021094-95.84021094 52.84586364 0 95.83879696 42.99293332 95.83879558 95.84021094 0 52.84586364-42.99293332 95.83879696-95.83879558 95.83879557z m0-135.12610032c-21.66259078 0-39.28730337 17.62471258-39.28730475 39.28730475S829.20100956 810.84959085 850.86360036 810.84959085s39.28589076-17.62329997 39.28588938-39.28588939-17.62329997-39.28730337-39.28588938-39.28730475z" fill="#000" p-id="2221"></path><path d="M768.69222778 801.17904474h-202.68561552c-57.93986553 0-105.07954117-47.13826166-105.07954119-105.07812718v-440.54714027c0-15.61708463 12.65936778-28.27645241 28.27645241-28.27645242 15.61567066 0 28.27645241 12.65936778 28.27645379 28.27645242v440.54714027c0 26.75800803 21.76721295 48.52522099 48.52522099 48.525221h202.68561554c15.61708463 0 28.27645241 12.65936778 28.27645241 28.27645239s-12.65795379 28.27645241-28.27503843 28.27645379z" fill="#000" p-id="2222"></path><path d="M768.69222778 500.49431092h-202.68561552c-23.92046576 0-46.8314623-3.76925082-64.51414261-10.61215249-35.29466841-13.66035449-40.56539996-35.55339793-40.56539858-47.38850732V271.98805182c0-15.61708463 12.65936778-28.27645241 28.27645241-28.27645242 15.61567066 0 28.27645241 12.65936778 28.27645379 28.27645242v163.20461887c6.88814355 3.48790035 23.45531849 8.74873405 48.52522099 8.74873404h202.68561554c15.61708463 0 28.27645241 12.65936778 28.27645241 28.27645379s-12.65795379 28.27645241-28.27503843 28.2764524z" fill="#000" p-id="2223"></path><path d="M426.00565085 637.47110525H259.22971642c-15.61708463 0-28.27645241-12.65936778-28.27645242-28.27645241s12.65936778-28.27645241 28.27645242-28.27645378h166.77593443c17.90323646 0 29.89669375-4.31922866 34.92000625-7.17939188V408.96484614c0-15.61708463 12.65936778-28.27645241 28.2764524-28.27645239s28.27645241 12.65936778 28.2764538 28.27645239v170.50418533c0 19.2308155-12.66643767 36.21789443-34.75176185 46.6066628-15.62132657 7.34905027-35.76547161 11.39541098-56.7211506 11.39541098z" fill="#000" p-id="2224"></path></svg>