<?xml version="1.0" standalone="no"?><!DOCTYPE svg PUBLIC "-//W3C//DTD SVG 1.1//EN" "http://www.w3.org/Graphics/SVG/1.1/DTD/svg11.dtd"><svg t="1620729684420" class="icon" viewBox="0 0 1024 1024" version="1.1" xmlns="http://www.w3.org/2000/svg" p-id="1214" xmlns:xlink="http://www.w3.org/1999/xlink" width="200" height="200"><defs><style type="text/css"></style></defs><path d="M863.11822222 320.96711111l3.41333333-1.82044444c18.20444445-11.60533333 29.12711111-31.40266667 29.35466667-53.13422222 0.11377778-22.41422222-11.03644445-43.34933333-29.92355555-55.75111112l-315.16444445-153.94133333c-20.48-12.51555555-46.19377778-12.85688889-66.67377777-0.91022222L177.83466667 199.11111111l-3.41333334 1.82044444c-18.20444445 11.60533333-29.12711111 31.40266667-29.35466666 53.248-0.11377778 22.41422222 11.03644445 43.34933333 30.03733333 55.75111112l315.05066667 153.82755555c10.58133333 6.37155555 22.41422222 9.67111111 34.24711111 9.67111111 11.264 0 22.41422222-2.95822222 32.42666667-8.76088888l306.28977777-143.70133334z m-336.896 91.47733334c-1.25155555 0.79644445-3.072 0.56888889-4.66488889-0.45511112L207.41688889 258.61688889c-1.47911111-1.36533333-1.70666667-3.072-1.70666667-3.98222222 0-0.91022222 0.22755555-1.59288889 0.56888889-1.93422222l305.03822222-143.13244445 3.41333334-1.82044445c1.25155555-0.79644445 3.072-0.56888889 4.66488888 0.45511112l314.14044445 153.37244444c1.47911111 1.36533333 1.70666667 3.072 1.70666667 3.98222222 0 0.91022222-0.22755555 1.59288889-0.56888889 1.93422222L529.63555555 410.51022222l-3.41333333 1.93422223zM894.06577778 356.80711111c-20.93511111-12.06044445-45.96622222-11.83288889-65.30844445-0.34133333L562.06222222 493.90933333c-21.04888889 12.40177778-34.24711111 35.72622222-34.36088889 60.87111112L525.53955555 903.39555555c-0.11377778 25.82755555 13.312 49.72088889 35.15733334 62.23644445 10.35377778 5.91644445 21.73155555 8.98844445 33.10933333 8.98844445 10.92266667 0 21.95911111-2.73066667 31.97155556-8.30577778l263.73688889-115.82577778 3.18577778-1.70666667c21.04888889-12.40177778 34.24711111-35.72622222 34.36088888-60.87111111l2.16177778-368.75377778c0.11377778-25.94133333-13.312-49.83466667-35.15733333-62.35022222z m-27.53422223 430.64888889c0 3.41333333-1.47911111 6.71288889-3.75466666 8.53333333L599.95022222 911.36l-3.18577777 1.70666667c-1.36533333 0.79644445-3.29955555 1.59288889-5.91644445 0.11377778-1.13777778-0.68266667-4.77866667-3.18577778-4.77866667-9.32977778L588.23111111 555.23555555c0-3.86844445 1.82044445-7.50933333 3.072-8.30577777l266.69511111-137.44355556c0.79644445-0.45511111 1.82044445-0.91022222 2.95822223-0.91022222 0.91022222 0 1.82044445 0.22755555 2.95822222 0.91022222 1.13777778 0.68266667 4.77866667 3.18577778 4.77866666 9.32977778l-2.16177778 368.64zM467.39911111 493.11288889L203.776 357.26222222c-20.82133333-12.40177778-45.85244445-12.51555555-66.90133333-0.45511111-21.84533333 12.51555555-35.27111111 36.40888889-35.15733334 62.23644444l2.16177778 368.75377778c0.22755555 25.14488889 13.312 48.46933333 34.36088889 60.87111112l266.92266667 117.41866666c10.12622222 5.57511111 21.04888889 8.30577778 31.97155555 8.30577778 11.37777778 0 22.64177778-2.95822222 32.99555556-8.87466667 21.84533333-12.51555555 35.27111111-36.40888889 35.15733333-62.23644444l-2.16177778-348.61511111c0-24.91733333-13.19822222-48.35555555-35.72622222-61.55377778z m-27.30666666 419.95377778c-2.61688889 1.47911111-4.55111111 0.79644445-5.91644445-0.11377778L168.04977778 795.98933333c-2.27555555-1.82044445-3.75466667-5.00622222-3.75466667-8.53333333L162.24711111 418.70222222c0-6.144 3.64088889-8.76088889 4.77866667-9.32977777 2.61688889-1.47911111 4.43733333-0.79644445 7.39555555 0.91022222L438.04444445 546.01955555c2.84444445 1.70666667 4.66488889 5.23377778 4.66488888 9.10222223l2.16177778 348.50133333c0 6.25777778-3.64088889 8.87466667-4.77866666 9.44355556z" fill="#666666" p-id="1215"></path></svg>