<?xml version="1.0" standalone="no"?><!DOCTYPE svg PUBLIC "-//W3C//DTD SVG 1.1//EN" "http://www.w3.org/Graphics/SVG/1.1/DTD/svg11.dtd"><svg t="1620729954398" class="icon" viewBox="0 0 1024 1024" version="1.1" xmlns="http://www.w3.org/2000/svg" p-id="2075" xmlns:xlink="http://www.w3.org/1999/xlink" width="200" height="200"><defs><style type="text/css"></style></defs><path d="M190.95450864 597.43952592c-7.63777581 0-14.23992098-5.82542222-14.23992099-13.46319802V159.23832098c0-7.63777581 6.60214518-13.59265185 14.23992099-13.59265184h424.73800691c7.63777581 0 14.11046717 5.95487605 14.11046717 13.59265184V421.38232098h93.20675555V159.23832098c0-59.16039902-48.1568237-106.79940741-107.31722272-106.7994074H190.95450864c-59.16039902 0-107.44667653 47.63900839-107.44667654 106.7994074v424.73800692c0 59.16039902 48.28627753 106.66995358 107.44667654 106.66995358h90.61767901v-93.20675556h-90.61767901z" p-id="2076"></path><path d="M837.18801383 329.4701037H743.72235061v93.20675555h93.46566322c7.63777581 0 13.98101333 5.95487605 13.98101334 13.59265186v424.73800692c0 7.63777581-6.34323753 14.7577363-13.98101334 14.75773628H412.45000691c-7.63777581 0-14.36937482-7.1199605-14.36937481-14.75773628V598.73406419h-93.20675557v262.27345384c0 59.16039902 48.41573136 107.96449185 107.57613038 107.96449184h424.73800692c59.16039902 0 107.18776889-48.80409283 107.18776889-107.96449184V436.26951111c0-59.16039902-48.02736987-106.79940741-107.18776889-106.79940741z" p-id="2077"></path><path d="M635.75785876 688.18665876c-11.9097521 0-23.81950419-4.53088395-33.01072593-13.59265185L344.48674765 416.33362173c-18.25298963-18.25298963-18.25298963-47.76846222 0-65.89199803 18.25298963-18.25298963 47.76846222-18.25298963 65.89199804 0L668.63913086 608.57255506c18.25298963 18.25298963 18.25298963 47.76846222 0 65.89199803-9.0617679 9.19122173-20.97152 13.72210569-32.8812721 13.72210567z" p-id="2078"></path></svg>