<?xml version="1.0" standalone="no"?><!DOCTYPE svg PUBLIC "-//W3C//DTD SVG 1.1//EN" "http://www.w3.org/Graphics/SVG/1.1/DTD/svg11.dtd"><svg t="1620729863120" class="icon" viewBox="0 0 1024 1024" version="1.1" xmlns="http://www.w3.org/2000/svg" p-id="1790" xmlns:xlink="http://www.w3.org/1999/xlink" width="200" height="200"><defs><style type="text/css"></style></defs><path d="M839.68 839.68H184.32c-60.29084445-0.07964445-109.14702222-48.93582222-109.22666667-109.22666667V293.54666667c0.07964445-60.29084445 48.93582222-109.14702222 109.22666667-109.22666667h151.84782222a108.41884445 108.41884445 0 0 1 77.28924445 32.03982222L490.68942222 293.54666667H839.68c60.29084445 0.07964445 109.14702222 48.93582222 109.22666667 109.22666666v327.68c-0.07964445 60.29084445-48.93582222 109.14702222-109.22666667 109.22666667zM184.32 257.13777778c-20.09315555 0.02275555-36.38613333 16.31573333-36.40888889 36.40888889v436.90666666c0.02275555 20.09315555 16.31573333 36.38613333 36.40888889 36.40888889h655.36c20.09315555-0.02275555 36.38613333-16.31573333 36.40888889-36.40888889V402.77333333c-0.02275555-20.09315555-16.31573333-36.38613333-36.40888889-36.40888888H475.59111111a36.57955555 36.57955555 0 0 1-25.78204444-10.68373334l-87.87057778-87.87057778c-6.82666667-6.8608-16.09955555-10.70648889-25.78204444-10.68373333H184.32z" p-id="1791"></path></svg>