<?xml version="1.0" standalone="no"?><!DOCTYPE svg PUBLIC "-//W3C//DTD SVG 1.1//EN" "http://www.w3.org/Graphics/SVG/1.1/DTD/svg11.dtd"><svg class="icon" width="200px" height="200.00px" viewBox="0 0 1024 1024" version="1.1" xmlns="http://www.w3.org/2000/svg"><path  d="M919.024645 800.073998 727.696062 608.710622c34.514071-54.779627 54.744835-119.43109 54.744835-188.948373 0-196.316178-159.125137-355.458711-355.424942-355.458711-196.298781 0-355.493503 159.142533-355.493503 355.458711s159.194722 355.459734 355.493503 355.459734c61.956074 0 120.201639-15.944134 170.957627-43.841507L792.871457 926.278351c37.033451 37.051871 89.74907 44.419675 117.681236 16.435321l24.922622-24.88783C963.47809 889.839441 956.128705 837.124845 919.024645 800.073998zM625.626385 481.368352 488.623082 481.368352l0 137.003304L365.410875 618.371656 365.410875 481.368352 228.408595 481.368352 228.408595 358.156146l137.003304 0L365.411899 221.152842l123.211183 0 0 137.003304 137.003304 0L625.626385 481.368352z" /></svg>